<svg width="750" height="438" viewBox="0 0 750 438" fill="none" xmlns="http://www.w3.org/2000/svg">
<g id="Illustration 17">
<g id="Background">
<g id="Background Object / Window / 1">
<g id="Group 25">
<path id="Stroke 1" d="M616.147 44.9184V241.974" stroke="#ECF6FF" stroke-width="22"/>
<path id="Stroke 3" d="M613.223 37.8531V242.611" stroke="#DCEEFF" stroke-width="17"/>
<path id="Stroke 5" d="M679.749 36.9724V243.108" stroke="#B6D4FF" stroke-width="20"/>
<path id="Stroke 8" d="M554.523 38.6571V241.27" stroke="#ECF6FF" stroke-width="22"/>
<path id="Fill 11" fill-rule="evenodd" clip-rule="evenodd" d="M546.884 243.108H677.507V36.9721H546.884V243.108ZM554.859 235.134H669.532V44.9469H554.859V235.134Z" fill="#DCEEFF"/>
<path id="Fill 12" fill-rule="evenodd" clip-rule="evenodd" d="M521.525 253.269H683.318V243.108H521.525V253.269Z" fill="#CCE3FF"/>
<path id="Fill 13" fill-rule="evenodd" clip-rule="evenodd" d="M645.694 253.269H685.771V243.108H645.694V253.269Z" fill="#B6D4FF"/>
<path id="Stroke 14" d="M556.802 109.032H677.506" stroke="#DCEEFF" stroke-width="17"/>
<path id="Stroke 16" d="M556.802 173.062H677.506" stroke="#DCEEFF" stroke-width="17"/>
<path id="Fill 18" fill-rule="evenodd" clip-rule="evenodd" d="M639.181 231.277C638.615 236.029 636.209 240.219 632.693 243.108H609.701C606.185 240.219 603.778 236.029 603.209 231.277H639.181Z" fill="#B6D4FF"/>
<path id="Fill 20" fill-rule="evenodd" clip-rule="evenodd" d="M639.181 221.4C638.111 230.381 630.467 237.349 621.196 237.349C611.925 237.349 604.28 230.381 603.21 221.4H639.181Z" fill="#B6D4FF"/>
<path id="Fill 22" fill-rule="evenodd" clip-rule="evenodd" d="M571.692 235.657L575.595 197.619H587.801L591.704 235.657C592.113 239.643 588.986 243.108 584.978 243.108H578.418C574.411 243.108 571.283 239.643 571.692 235.657Z" fill="#CCE3FF"/>
</g>
</g>
<g id="Background Object / Window / 1_2">
<g id="Group 25_2">
<path id="Stroke 1_2" d="M152.871 44.9184V241.974" stroke="#ECF6FF" stroke-width="22"/>
<path id="Stroke 3_2" d="M155.795 37.8531V242.611" stroke="#DCEEFF" stroke-width="17"/>
<path id="Stroke 5_2" d="M89.2684 36.9724V243.108" stroke="#B6D4FF" stroke-width="20"/>
<path id="Stroke 8_2" d="M214.494 38.6571V241.27" stroke="#ECF6FF" stroke-width="22"/>
<path id="Fill 11_2" fill-rule="evenodd" clip-rule="evenodd" d="M222.133 243.108H91.511V36.9721H222.133V243.108ZM214.159 235.134H99.4854V44.9469H214.159V235.134Z" fill="#DCEEFF"/>
<path id="Fill 12_2" fill-rule="evenodd" clip-rule="evenodd" d="M247.493 253.269H85.6995V243.108H247.493V253.269Z" fill="#CCE3FF"/>
<path id="Fill 13_2" fill-rule="evenodd" clip-rule="evenodd" d="M123.323 253.269H83.246V243.108H123.323V253.269Z" fill="#B6D4FF"/>
<path id="Stroke 14_2" d="M212.216 109.032H91.5112" stroke="#DCEEFF" stroke-width="17"/>
<path id="Stroke 16_2" d="M212.216 173.062H91.5112" stroke="#DCEEFF" stroke-width="17"/>
<path id="Fill 18_2" fill-rule="evenodd" clip-rule="evenodd" d="M129.836 231.277C130.402 236.029 132.809 240.219 136.325 243.108H159.316C162.832 240.219 165.239 236.029 165.808 231.277H129.836Z" fill="#B6D4FF"/>
<path id="Fill 20_2" fill-rule="evenodd" clip-rule="evenodd" d="M129.836 221.4C130.907 230.381 138.551 237.349 147.822 237.349C157.093 237.349 164.737 230.381 165.807 221.4H129.836Z" fill="#B6D4FF"/>
<path id="Fill 22_2" fill-rule="evenodd" clip-rule="evenodd" d="M197.326 235.657L193.422 197.619H181.216L177.313 235.657C176.904 239.643 180.032 243.108 184.039 243.108H190.599C194.607 243.108 197.735 239.643 197.326 235.657Z" fill="#CCE3FF"/>
</g>
</g>
<g id="Background Object / Pluteus / 5">
<g id="Group 42">
<path id="Fill 1" fill-rule="evenodd" clip-rule="evenodd" d="M389.415 223.713H433.566L439.528 164.132H395.378L389.415 223.713Z" fill="#DCEEFF"/>
<path id="Stroke 2" fill-rule="evenodd" clip-rule="evenodd" d="M389.415 223.713H433.566L439.528 164.132H395.378L389.415 223.713Z" stroke="#DCEEFF" stroke-width="5"/>
<path id="Fill 4" fill-rule="evenodd" clip-rule="evenodd" d="M387.032 223.713H432.004L437.966 164.132H392.994L387.032 223.713Z" fill="white"/>
<path id="Stroke 5_3" fill-rule="evenodd" clip-rule="evenodd" d="M387.032 223.713H432.004L437.966 164.132H392.994L387.032 223.713Z" stroke="#DCEEFF" stroke-width="5"/>
<path id="Fill 7" fill-rule="evenodd" clip-rule="evenodd" d="M395.646 215.846H424.965L429.353 171.999H400.033L395.646 215.846Z" fill="#DCEEFF"/>
<path id="Fill 8" fill-rule="evenodd" clip-rule="evenodd" d="M361.074 212.219H359.088C349.826 212.219 342.318 204.709 342.318 195.444H377.843C377.843 204.709 370.335 212.219 361.074 212.219Z" fill="#ECF6FF"/>
<path id="Fill 10" fill-rule="evenodd" clip-rule="evenodd" d="M342.873 212.219C342.873 214.222 344.496 215.846 346.498 215.846H379.112V208.593H346.498C344.496 208.593 342.873 210.217 342.873 212.219Z" fill="#DCEEFF"/>
<path id="Fill 12_3" fill-rule="evenodd" clip-rule="evenodd" d="M364.809 212.22C364.809 213.379 365.748 214.319 366.907 214.319H379.024C379.072 214.319 379.112 214.28 379.112 214.232V210.208C379.112 210.159 379.072 210.121 379.024 210.121H366.907C365.748 210.121 364.809 211.06 364.809 212.22Z" fill="#ECF6FF"/>
<path id="Fill 14" fill-rule="evenodd" clip-rule="evenodd" d="M338.321 215.846V223.098H373.919C375.921 223.098 377.544 221.475 377.544 219.472C377.544 217.469 375.921 215.846 373.919 215.846H338.321Z" fill="#DCEEFF"/>
<path id="Fill 16" fill-rule="evenodd" clip-rule="evenodd" d="M338.321 217.393V221.551H352.958C354.106 221.551 355.036 220.62 355.036 219.472C355.036 218.324 354.106 217.393 352.958 217.393H338.321Z" fill="#ECF6FF"/>
<path id="Fill 18_3" fill-rule="evenodd" clip-rule="evenodd" d="M338.322 353.614H435.743V253.313H338.322V353.614Z" fill="#CCE3FF"/>
<path id="Fill 20_3" fill-rule="evenodd" clip-rule="evenodd" d="M429.471 353.614H443.363V256.169H429.471V353.614Z" fill="#DCEEFF"/>
<path id="Fill 21" fill-rule="evenodd" clip-rule="evenodd" d="M326.289 257.717H443.364V231.744H326.289V257.717Z" fill="#DCEEFF"/>
<path id="Fill 22_3" fill-rule="evenodd" clip-rule="evenodd" d="M312.522 231.744H458.619V222.843H312.522V231.744Z" fill="#CCE3FF"/>
<path id="Fill 23" fill-rule="evenodd" clip-rule="evenodd" d="M443.364 353.614H450.142V231.744H443.364V353.614Z" fill="#B6D4FF"/>
<path id="Fill 24" fill-rule="evenodd" clip-rule="evenodd" d="M340.181 353.614H344.594V257.815H340.181V353.614Z" fill="#B6D4FF"/>
<path id="Fill 25" fill-rule="evenodd" clip-rule="evenodd" d="M448.767 231.744H462.805V222.843H448.767V231.744Z" fill="#B6D4FF"/>
<path id="Fill 26" fill-rule="evenodd" clip-rule="evenodd" d="M326.288 353.614H340.181V253.194H326.288V353.614Z" fill="#DCEEFF"/>
<path id="Fill 27" fill-rule="evenodd" clip-rule="evenodd" d="M322.402 353.614H340.181V329.057H322.402V353.614Z" fill="#DCEEFF"/>
<path id="Fill 28" fill-rule="evenodd" clip-rule="evenodd" d="M429.471 353.614H447.396V329.057H429.471V353.614Z" fill="#DCEEFF"/>
<path id="Fill 29" fill-rule="evenodd" clip-rule="evenodd" d="M369.267 349.828C369.267 349.828 353.274 340.448 372.546 313.159C372.546 313.159 382.467 324.748 386.287 311.017C386.287 311.017 397.099 328.164 390.079 338.52" fill="#ECF6FF"/>
<path id="Fill 30" fill-rule="evenodd" clip-rule="evenodd" d="M404.722 350.78C404.722 350.78 419.121 339.222 407.462 315.956C407.462 315.956 390.748 333.807 386.525 300.723C386.525 300.723 374.319 325.702 381.987 337.69" fill="#ECF6FF"/>
<path id="Fill 31" fill-rule="evenodd" clip-rule="evenodd" d="M365.483 353.614H409.046V344.58H365.483V353.614Z" fill="#DCEEFF"/>
<path id="Fill 32" fill-rule="evenodd" clip-rule="evenodd" d="M406.914 339.465L403.926 330.983L368.272 344.573L371.261 353.056L406.914 339.465Z" fill="#DCEEFF"/>
<path id="Fill 33" fill-rule="evenodd" clip-rule="evenodd" d="M404.743 353.445L407.871 343.988L373.002 331.509L369.874 340.965L404.743 353.445Z" fill="#DCEEFF"/>
<path id="Fill 34" fill-rule="evenodd" clip-rule="evenodd" d="M446.354 353.614H454.141V329.057H446.354V353.614Z" fill="#B6D4FF"/>
<path id="Stroke 35" fill-rule="evenodd" clip-rule="evenodd" d="M354.578 351.613H365.583V277.603H354.578V351.613Z" stroke="#B6D4FF" stroke-width="5"/>
<path id="Stroke 36" fill-rule="evenodd" clip-rule="evenodd" d="M365.583 351.613H376.588V277.603H365.583V351.613Z" stroke="#B6D4FF" stroke-width="5"/>
<path id="Stroke 37" fill-rule="evenodd" clip-rule="evenodd" d="M376.588 351.613H387.593V277.603H376.588V351.613Z" stroke="#B6D4FF" stroke-width="5"/>
<path id="Stroke 38" fill-rule="evenodd" clip-rule="evenodd" d="M387.594 351.613H398.599V277.603H387.594V351.613Z" stroke="#B6D4FF" stroke-width="5"/>
<path id="Stroke 39" fill-rule="evenodd" clip-rule="evenodd" d="M398.599 351.613H409.604V277.603H398.599V351.613Z" stroke="#B6D4FF" stroke-width="5"/>
<path id="Stroke 40" fill-rule="evenodd" clip-rule="evenodd" d="M409.604 351.613H420.609V277.603H409.604V351.613Z" stroke="#B6D4FF" stroke-width="5"/>
</g>
</g>
<g id="Background Object / Chair / 1">
<g id="Group 14">
<path id="Fill 1_2" fill-rule="evenodd" clip-rule="evenodd" d="M219.817 305.182V305.783C219.817 310.804 215.922 314.87 211.122 314.87H143.011C132.506 314.87 124.421 304.79 125.87 293.495L133.56 230.563C134.226 225.35 138.329 221.472 143.178 221.472H163.364C168.21 221.472 172.313 225.35 172.983 230.563L180.672 293.495C180.731 293.945 180.773 294.394 180.797 294.84L180.839 294.833C180.839 294.833 182.261 305.182 195.482 305.182H219.817Z" fill="#DCEEFF"/>
<path id="Fill 4_2" fill-rule="evenodd" clip-rule="evenodd" d="M147.308 385.76C147.308 388.97 144.705 391.572 141.496 391.572C138.286 391.572 135.684 388.97 135.684 385.76C135.684 382.551 138.286 379.948 141.496 379.948C144.705 379.948 147.308 382.551 147.308 385.76Z" fill="#B6D4FF"/>
<path id="Fill 6" fill-rule="evenodd" clip-rule="evenodd" d="M200.344 386.926H142.906C140.706 386.926 138.906 385.126 138.906 382.926C138.906 380.726 140.706 378.926 142.906 378.926H200.344C202.544 378.926 204.344 380.726 204.344 382.926C204.344 385.126 202.544 386.926 200.344 386.926Z" fill="#CCE3FF"/>
<path id="Fill 8_2" fill-rule="evenodd" clip-rule="evenodd" d="M168.678 385.023H174.572V314.628H168.678V385.023Z" fill="#CCE3FF"/>
<path id="Fill 10_2" fill-rule="evenodd" clip-rule="evenodd" d="M191.822 314.628L171.625 323.826L151.428 314.628H191.822Z" fill="#CCE3FF"/>
<path id="Fill 11_3" fill-rule="evenodd" clip-rule="evenodd" d="M172.072 386.926H164.618C162.418 386.926 160.618 385.126 160.618 382.926C160.618 380.726 162.418 378.926 164.618 378.926H172.072C174.271 378.926 176.072 380.726 176.072 382.926C176.072 385.126 174.271 386.926 172.072 386.926Z" fill="#B6D4FF"/>
<path id="Fill 12_4" fill-rule="evenodd" clip-rule="evenodd" d="M167.182 385.76C167.182 388.97 164.58 391.572 161.371 391.572C158.16 391.572 155.558 388.97 155.558 385.76C155.558 382.551 158.16 379.948 161.371 379.948C164.58 379.948 167.182 382.551 167.182 385.76Z" fill="#B6D4FF"/>
<path id="Fill 13_3" fill-rule="evenodd" clip-rule="evenodd" d="M207.951 385.76C207.951 388.97 205.349 391.572 202.139 391.572C198.929 391.572 196.327 388.97 196.327 385.76C196.327 382.551 198.929 379.948 202.139 379.948C205.349 379.948 207.951 382.551 207.951 385.76Z" fill="#B6D4FF"/>
</g>
</g>
<g id="Background Object / Flower / 1">
<g id="Group 24">
<path id="Fill 1_3" fill-rule="evenodd" clip-rule="evenodd" d="M88.8428 309.302C88.8428 315.954 84.802 321.347 79.8172 321.347C74.8325 321.347 70.7916 315.954 70.7916 309.302C70.7916 302.649 74.8325 297.257 79.8172 297.257C84.802 297.257 88.8428 302.649 88.8428 309.302Z" fill="#CCE3FF"/>
<path id="Stroke 3_3" d="M79.8849 372.568V309.914" stroke="#DCEEFF" stroke-width="9"/>
<path id="Fill 5" fill-rule="evenodd" clip-rule="evenodd" d="M70.1646 326.996C74.4267 331.262 75.2905 337.314 72.0939 340.514C68.8974 343.714 62.8508 342.849 58.5886 338.583C54.3265 334.317 53.4629 328.265 56.6593 325.065C59.8561 321.866 65.9024 322.73 70.1646 326.996Z" fill="#CCE3FF"/>
<path id="Fill 8_3" fill-rule="evenodd" clip-rule="evenodd" d="M100.597 335.761C104.034 339.201 103.105 345.708 98.5228 350.295C93.9404 354.882 87.4394 355.812 84.0024 352.371" fill="#CCE3FF"/>
<path id="Stroke 10" d="M95.967 341.821L80.152 357.696" stroke="#DCEEFF" stroke-width="9"/>
<path id="Stroke 12" d="M91.3969 326.64L79.8394 338.072" stroke="#DCEEFF" stroke-width="9"/>
<path id="Stroke 14_3" d="M67.8392 351.734L79.9133 363.956" stroke="#DCEEFF" stroke-width="9"/>
<path id="Stroke 16_3" d="M63.6771 332.172L79.8173 348.519" stroke="#DCEEFF" stroke-width="9"/>
<path id="Fill 18_4" fill-rule="evenodd" clip-rule="evenodd" d="M84.7245 394.086H75.0449C67.6102 394.086 61.5273 387.997 61.5273 380.556V367.824H98.242V380.556C98.242 387.997 92.1592 394.086 84.7245 394.086Z" fill="#ECF6FF"/>
<path id="Stroke 20" d="M98.2423 374.9H61.5276" stroke="#DCEEFF" stroke-width="9"/>
<path id="Stroke 22" d="M98.2423 381.998H61.5276" stroke="#DCEEFF" stroke-width="9"/>
</g>
</g>
<g id="Background Object / Flower / 2">
<g id="Group 33">
<path id="Fill 1_4" fill-rule="evenodd" clip-rule="evenodd" d="M666.037 329.261C666.935 335.34 663.884 340.526 663.884 340.526C663.884 340.526 659.378 335.854 658.481 329.774C657.584 323.694 660.634 318.509 660.634 318.509C660.634 318.509 665.14 323.181 666.037 329.261Z" fill="#E9F6FF"/>
<path id="Fill 3" fill-rule="evenodd" clip-rule="evenodd" d="M664.724 333.232C668.737 338.702 668.592 344.284 668.592 344.284C668.592 344.284 661.94 341 657.926 335.53C653.913 330.061 654.058 324.478 654.058 324.478C654.058 324.478 660.711 327.763 664.724 333.232Z" fill="#E9F6FF"/>
<path id="Fill 5_2" fill-rule="evenodd" clip-rule="evenodd" d="M669.763 329.922C668.697 335.989 664.062 340.602 664.062 340.602C664.062 340.602 661.156 335.379 662.222 329.311C663.288 323.244 667.922 318.631 667.922 318.631C667.922 318.631 670.828 323.854 669.763 329.922Z" fill="#E9F6FF"/>
<path id="Fill 7_2" fill-rule="evenodd" clip-rule="evenodd" d="M673.105 334.317C669.746 339.986 663.501 343.62 663.501 343.62C663.501 343.62 662.7 338.063 666.059 332.394C669.417 326.725 675.663 323.091 675.663 323.091C675.663 323.091 676.463 328.648 673.105 334.317Z" fill="#E9F6FF"/>
<path id="Fill 9" fill-rule="evenodd" clip-rule="evenodd" d="M696.448 352.408C696.448 364.421 682.324 374.161 664.902 374.161C647.48 374.161 633.357 364.421 633.357 352.408C633.357 340.394 647.48 330.655 664.902 330.655C682.324 330.655 696.448 340.394 696.448 352.408Z" fill="#CCE3FF"/>
<path id="Fill 11_4" fill-rule="evenodd" clip-rule="evenodd" d="M684.441 391.185H648.561C643.054 391.185 638.59 386.716 638.59 381.205V379.484C638.59 373.973 643.054 369.504 648.561 369.504H684.441C689.948 369.504 694.412 373.973 694.412 379.484V381.205C694.412 386.716 689.948 391.185 684.441 391.185Z" fill="#DCEEFF"/>
<path id="Stroke 13" d="M646.876 337.057L641.062 332.546" stroke="#B6D4FF" stroke-width="9"/>
<path id="Stroke 15" d="M638.59 360.396L633.357 363.983" stroke="#B6D4FF" stroke-width="9"/>
<path id="Stroke 17" d="M653.8 358.439L662.831 359.906" stroke="#B6D4FF" stroke-width="9"/>
<path id="Stroke 19" d="M676.893 336.323L682.346 329.617" stroke="#B6D4FF" stroke-width="9"/>
<path id="Stroke 21" d="M686.853 343.62L692.813 339.821" stroke="#B6D4FF" stroke-width="9"/>
<path id="Stroke 23" d="M688.016 363.248L693.686 366.885" stroke="#B6D4FF" stroke-width="9"/>
<path id="Stroke 25" d="M656.422 345.123L653.724 338.88" stroke="white" stroke-width="9"/>
<path id="Stroke 27" d="M682.23 351.931L675.747 355.003" stroke="white" stroke-width="9"/>
<path id="Stroke 29" d="M650.869 348.36L644.697 344.273" stroke="white" stroke-width="9"/>
<path id="Stroke 31" d="M638.59 378.167L649.754 382.523L660.918 378.167L672.082 382.523L683.247 378.167L694.412 382.523" stroke="#B6D4FF" stroke-width="9"/>
</g>
</g>
<g id="Background Object / Flower / 3">
<g id="Group 16">
<path id="Fill 1_5" fill-rule="evenodd" clip-rule="evenodd" d="M744.093 305.13C744.093 305.13 727.417 341.969 725.426 382.023C725.426 382.023 734.759 341.433 744.093 305.13Z" fill="#DCEEFF"/>
<path id="Fill 3_2" fill-rule="evenodd" clip-rule="evenodd" d="M714.256 333.44C714.256 333.44 726.259 333.753 728.086 373.807C728.086 373.807 722.964 343.577 714.256 333.44Z" fill="#DCEEFF"/>
<path id="Fill 5_3" fill-rule="evenodd" clip-rule="evenodd" d="M726.513 293.124C726.513 293.124 733.519 335.502 726.623 378.624C726.623 378.624 727.032 333.586 726.513 293.124Z" fill="#DCEEFF"/>
<path id="Fill 8_4" fill-rule="evenodd" clip-rule="evenodd" d="M735.964 389.964H718.635C718.505 389.964 718.376 389.962 718.246 389.957C710.345 389.662 705.949 379.658 710.424 372.441L714.394 366.039H740.205L744.175 372.441C748.65 379.658 744.254 389.662 736.353 389.957C736.224 389.962 736.094 389.964 735.964 389.964Z" fill="#ECF6FF"/>
<path id="Stroke 11" d="M708.633 380.763H745.966" stroke="#B6D4FF" stroke-width="9"/>
<path id="Stroke 14_4" d="M709.5 374.576H745.22" stroke="#B6D4FF" stroke-width="9"/>
</g>
</g>
<g id="Background Object / Clock">
<g id="Group 14_2">
<path id="Fill 1_6" fill-rule="evenodd" clip-rule="evenodd" d="M415.464 63.7096C415.464 77.8755 403.981 89.3594 389.814 89.3594C375.648 89.3594 364.165 77.8755 364.165 63.7096C364.165 49.5434 375.648 38.0598 389.814 38.0598C403.981 38.0598 415.464 49.5434 415.464 63.7096Z" fill="#CCE3FF"/>
<path id="Fill 4_3" fill-rule="evenodd" clip-rule="evenodd" d="M410.435 63.7096C410.435 77.8755 398.951 89.3594 384.785 89.3594C370.619 89.3594 359.136 77.8755 359.136 63.7096C359.136 49.5434 370.619 38.0598 384.785 38.0598C398.951 38.0598 410.435 49.5434 410.435 63.7096Z" fill="#DCEEFF"/>
<path id="Fill 6_2" fill-rule="evenodd" clip-rule="evenodd" d="M404.223 63.7077C404.223 73.72 396.655 81.9619 386.932 83.0302C386.226 83.1081 385.512 83.1469 384.787 83.1469C374.05 83.1469 365.348 74.4449 365.348 63.7077C365.348 52.9745 374.05 44.2722 384.787 44.2722C385.512 44.2722 386.226 44.3114 386.932 44.3893C396.655 45.4575 404.223 53.6994 404.223 63.7077Z" fill="#CCE3FF"/>
<path id="Fill 8_5" fill-rule="evenodd" clip-rule="evenodd" d="M404.222 63.7077C404.222 73.72 396.655 81.9619 386.932 83.0301C377.204 81.9619 369.637 73.72 369.637 63.7077C369.637 53.6994 377.204 45.4575 386.932 44.3893C396.655 45.4575 404.222 53.6994 404.222 63.7077Z" fill="#ECF6FF"/>
<path id="Stroke 10_2" d="M385.628 52.9006L391.926 66.6366" stroke="#CCE3FF" stroke-width="8"/>
<path id="Stroke 12_2" d="M392.526 60.878L378.731 75.8736" stroke="#CCE3FF" stroke-width="8"/>
</g>
</g>
</g>
</g>
</svg>
