<svg width="375" height="382" viewBox="0 0 375 382" fill="none" xmlns="http://www.w3.org/2000/svg">
<path fill-rule="evenodd" clip-rule="evenodd" d="M256.238 50.4046C256.238 65.5585 243.965 77.8431 228.825 77.8431C213.685 77.8431 201.412 65.5585 201.412 50.4046C201.412 35.2506 213.685 22.9661 228.825 22.9661C243.965 22.9661 256.238 35.2506 256.238 50.4046Z" fill="#ECF6FF"/>
<path d="M228.825 42.4745V98.5968" stroke="#B6D4FF" stroke-width="8"/>
<path d="M228.825 68.4966L234.928 62.3885" stroke="#B6D4FF" stroke-width="8"/>
<path d="M229.056 50.1621L232.198 47.017" stroke="#B6D4FF" stroke-width="8"/>
<path d="M228.825 59.3838L222.977 53.53" stroke="#B6D4FF" stroke-width="8"/>
<path fill-rule="evenodd" clip-rule="evenodd" d="M365 47.5824C365 67.9207 356.588 86.3927 337.541 86.3927C318.494 86.3927 310.082 67.9207 310.082 47.5824C310.082 23.7244 324.475 0 337.541 0C350.607 0 365 23.7244 365 47.5824Z" fill="#ECF6FF"/>
<path d="M337.541 43.1964V101.117" stroke="#DCEEFF" stroke-width="8" stroke-linecap="square"/>
<path d="M338.117 69.6699L345.549 61.325" stroke="#DCEEFF" stroke-width="8" stroke-linecap="square"/>
<path d="M336.446 58.3408L329.013 49.9957" stroke="#DCEEFF" stroke-width="8" stroke-linecap="square"/>
<path fill-rule="evenodd" clip-rule="evenodd" d="M283.982 61.2591C283.231 59.5593 279.115 59.8471 279.114 55.1072C279.113 47.9705 292.114 48.785 292.881 43.4077C293.647 38.0306 285.293 38.159 285.034 33.6236C284.776 29.088 291.128 19.7295 300.766 19.7295C308.366 19.7295 302.072 26.9506 308.205 30.1798C314.339 33.409 321.344 29.272 324.811 34.35C329.586 41.3446 317.375 49.7451 318.579 55.1072C319.784 60.4694 326.943 59.2016 327.162 65.0933C327.381 70.9851 316.982 72.022 317.962 77.0741C318.579 80.2588 325.16 79.1955 325.506 85.4753C325.798 90.7921 303.187 97.371 286.201 86.5517C269.216 75.7322 286.848 67.7469 283.982 61.2591Z" fill="#CCE3FF"/>
<path d="M302.702 48.3806V100.634" stroke="#ECF6FF" stroke-width="8" stroke-linecap="square"/>
<path d="M303.058 83.7604L311.94 77.046" stroke="#ECF6FF" stroke-width="8" stroke-linecap="square"/>
<path d="M303.177 64.6348L307.692 61.2215" stroke="#ECF6FF" stroke-width="8" stroke-linecap="square"/>
<path d="M302.228 72.2339L295.146 66.8798" stroke="#ECF6FF" stroke-width="8" stroke-linecap="square"/>
<path d="M302.391 55.7028L298.95 53.1015" stroke="#ECF6FF" stroke-width="8" stroke-linecap="square"/>
<path fill-rule="evenodd" clip-rule="evenodd" d="M240.587 160.564V160.562L237.11 133.621H279.264L282.741 160.564H240.587Z" fill="#ECF6FF"/>
<path fill-rule="evenodd" clip-rule="evenodd" d="M198.512 161.594C198.512 167.828 193.458 172.883 187.224 172.883C180.989 172.883 175.935 167.828 175.935 161.594C175.935 155.359 180.989 150.305 187.224 150.305C193.458 150.305 198.512 155.359 198.512 161.594Z" fill="#B6D4FF"/>
<path fill-rule="evenodd" clip-rule="evenodd" d="M286.346 161.594C286.346 167.828 281.291 172.883 275.057 172.883C268.822 172.883 263.768 167.828 263.768 161.594C263.768 155.359 268.822 150.305 275.057 150.305C281.291 150.305 286.346 155.359 286.346 161.594Z" fill="#B6D4FF"/>
<path fill-rule="evenodd" clip-rule="evenodd" d="M246.848 160.565H123.151C115.647 160.565 109.31 154.994 108.35 147.552L106.566 133.73L130.445 133.623L130.443 133.613L123.957 89.5673H221.184L236.985 133.281L237.11 133.623L246.848 160.565Z" fill="#CCE3FF"/>
<path fill-rule="evenodd" clip-rule="evenodd" d="M246.848 160.565H217.722L214.986 152.998L213.848 149.846L207.984 133.622L192.06 89.5666H221.184L236.985 133.28L237.11 133.622L246.848 160.565Z" fill="white"/>
<path fill-rule="evenodd" clip-rule="evenodd" d="M198.453 133.612H167.972L161.487 89.5666H182.531L188.923 107.249L191.125 113.339L196.342 127.77L196.889 129.281L198.453 133.612Z" fill="white"/>
<path fill-rule="evenodd" clip-rule="evenodd" d="M254.981 160.563H206.598V133.622H235.728C244.75 133.622 252.368 140.321 253.523 149.268L254.981 160.563Z" fill="#CCE3FF"/>
<path fill-rule="evenodd" clip-rule="evenodd" d="M262.793 133.622V160.563H254.981L251.504 133.622H262.793Z" fill="#CCE3FF"/>
<path fill-rule="evenodd" clip-rule="evenodd" d="M254.981 160.564V160.562L251.504 133.621H280.629C288.08 133.621 294.373 139.154 295.326 146.544L297.136 160.564H254.981Z" fill="#ECF6FF"/>
<path fill-rule="evenodd" clip-rule="evenodd" d="M129.808 160.794C129.808 153.286 136.192 147.2 144.067 147.2C151.943 147.2 158.327 153.286 158.327 160.794H129.808Z" fill="white"/>
<path fill-rule="evenodd" clip-rule="evenodd" d="M217.641 160.794C217.641 153.286 224.025 147.2 231.9 147.2C239.775 147.2 246.16 153.286 246.16 160.794H217.641Z" fill="white"/>
<path fill-rule="evenodd" clip-rule="evenodd" d="M243.189 161.594C243.189 167.828 238.135 172.883 231.9 172.883C225.666 172.883 220.612 167.828 220.612 161.594C220.612 155.359 225.666 150.305 231.9 150.305C238.135 150.305 243.189 155.359 243.189 161.594Z" fill="#B6D4FF"/>
<path fill-rule="evenodd" clip-rule="evenodd" d="M292.233 146.952C292.233 149.639 290.457 151.818 288.267 151.818C286.077 151.818 284.301 149.639 284.301 146.952C284.301 144.264 286.077 142.085 288.267 142.085C290.457 142.085 292.233 144.264 292.233 146.952Z" fill="white"/>
<path fill-rule="evenodd" clip-rule="evenodd" d="M267.183 146.952C267.183 149.639 265.407 151.818 263.217 151.818C261.027 151.818 259.251 149.639 259.251 146.952C259.251 144.264 261.027 142.085 263.217 142.085C265.407 142.085 267.183 144.264 267.183 146.952Z" fill="white"/>
<path fill-rule="evenodd" clip-rule="evenodd" d="M155.356 161.594C155.356 167.828 150.302 172.883 144.067 172.883C137.833 172.883 132.779 167.828 132.779 161.594C132.779 155.359 137.833 150.305 144.067 150.305C150.302 150.305 155.356 155.359 155.356 161.594Z" fill="#B6D4FF"/>
<path fill-rule="evenodd" clip-rule="evenodd" d="M272.193 149.054H280.447V144.849H272.193V149.054Z" fill="#CCE3FF"/>
<path fill-rule="evenodd" clip-rule="evenodd" d="M173.212 133.612V133.616H151.741L145.255 89.5666H166.724L173.212 133.612Z" fill="white"/>
<path fill-rule="evenodd" clip-rule="evenodd" d="M143.681 133.612H122.21L107.214 133.622L124.789 89.5662L137.193 89.5666L143.681 133.612Z" fill="white"/>
<path d="M237.11 133.621L236.985 133.28L221.184 89.5666" stroke="#CCE3FF" stroke-width="7"/>
<path d="M107.535 141.242H222.3" stroke="white" stroke-width="3"/>
<path d="M107.214 133.622L124.789 89.5662H220.924" stroke="#CCE3FF" stroke-width="7"/>
<path fill-rule="evenodd" clip-rule="evenodd" d="M200.731 131.293H187.616C184.223 131.293 181.472 128.542 181.472 125.149C181.472 121.756 184.223 119.005 187.616 119.005H200.731V131.293Z" fill="#B6D4FF"/>
<path fill-rule="evenodd" clip-rule="evenodd" d="M59.8262 75.7481C59.8262 90.902 47.553 103.187 32.4131 103.187C17.2733 103.187 5 90.902 5 75.7481C5 60.5942 17.2733 48.3096 32.4131 48.3096C47.553 48.3096 59.8262 60.5942 59.8262 75.7481Z" fill="#ECF6FF"/>
<path d="M32.4131 67.8181V123.94" stroke="#B6D4FF" stroke-width="8"/>
<path d="M32.4131 93.8401L38.5156 87.7321" stroke="#B6D4FF" stroke-width="8"/>
<path d="M32.6434 75.5056L35.7856 72.3605" stroke="#B6D4FF" stroke-width="8"/>
<path d="M32.4132 84.7273L26.5647 78.8735" stroke="#B6D4FF" stroke-width="8"/>
<path fill-rule="evenodd" clip-rule="evenodd" d="M92.8716 82.9711C92.8716 96.0363 84.3482 101.9 73.8757 101.9C63.4041 101.9 54.8806 96.0363 54.8806 82.9711C54.8806 58.6337 65.2473 35.906 73.8757 35.906C82.505 35.906 92.8716 58.6337 92.8716 82.9711Z" fill="#ECF6FF"/>
<path d="M73.8762 61.8181V112.744" stroke="#CCE3FF" stroke-width="8" stroke-linecap="square"/>
<path d="M74.2218 93.3252L81.2761 86.2643" stroke="#CCE3FF" stroke-width="8" stroke-linecap="square"/>
<path d="M74.1066 70.6085L78.4901 66.2209" stroke="#CCE3FF" stroke-width="8" stroke-linecap="square"/>
<path d="M73.6458 83.0141L67.1422 76.5045" stroke="#CCE3FF" stroke-width="8" stroke-linecap="square"/>
<path d="M274.549 146.988C274.545 147.139 274.543 147.29 274.543 147.442C274.542 147.551 274.542 147.657 274.545 147.767L274.542 147.767L274.537 151.262L274.498 176.946L309.289 176.997L309.333 147.818L309.291 147.818C309.319 147.419 309.334 147.016 309.334 146.61C309.34 142.692 308.033 139.077 305.824 136.175C309.849 135.149 312.827 131.523 312.833 127.204C312.841 122.081 308.666 117.922 303.508 117.915C298.35 117.907 294.162 122.054 294.155 127.176C294.154 127.973 294.254 128.747 294.443 129.485C293.634 129.369 292.806 129.309 291.965 129.307C282.358 129.293 274.558 137.017 274.544 146.558C274.544 146.702 274.545 146.845 274.549 146.988Z" fill="#19141E"/>
<path d="M292.082 146.56C291.795 146.65 291.499 146.726 291.195 146.789C290.949 146.841 290.699 146.883 290.442 146.914C290.029 146.969 289.604 146.995 289.173 146.994C286.435 146.99 284.046 145.892 282.767 144.264C282.7 144.523 282.622 144.779 282.535 145.029C282.488 145.156 282.441 145.289 282.386 145.416C282.044 146.273 281.587 147.068 281.036 147.776C280.269 148.762 279.317 149.584 278.237 150.183C278.722 153.63 279.911 158.266 282.71 160.115C284.25 161.132 287.05 161.257 289.434 161.12L289.983 167.85C289.983 167.85 293.854 166.172 296.07 164.93C296.453 164.717 296.784 164.515 297.039 164.337C296.997 163.941 296.901 163.018 296.78 161.867V161.862C296.56 159.788 296.262 156.967 296.066 155.109C297.372 153.141 300.931 152.699 300.935 149.932C300.935 149.102 300.448 147.667 298.646 147.665C296.229 147.661 296.572 150.539 296.572 150.539C295.203 151.068 293.571 149.008 292.082 146.56Z" fill="#B4833B"/>
<path fill-rule="evenodd" clip-rule="evenodd" d="M282.875 151.403L281.149 155.56L283.152 155.52L282.875 151.403Z" fill="#A15611"/>
<path fill-rule="evenodd" clip-rule="evenodd" d="M284.713 151.582C284.757 152.413 285.248 153.06 285.812 153.028C286.376 152.996 286.798 152.296 286.755 151.466C286.712 150.635 286.22 149.988 285.656 150.02C285.093 150.052 284.671 150.752 284.713 151.582Z" fill="#0D0B6D"/>
<path fill-rule="evenodd" clip-rule="evenodd" d="M279.42 151.45C279.463 152.28 279.955 152.927 280.518 152.895C281.082 152.863 281.504 152.163 281.461 151.333C281.418 150.502 280.926 149.855 280.363 149.887C279.799 149.92 279.377 150.619 279.42 151.45Z" fill="#0D0B6D"/>
<path d="M283.643 157.512C283.643 157.512 284.948 157.93 286.256 156.486" stroke="#1C295E"/>
<path opacity="0.401344" fill-rule="evenodd" clip-rule="evenodd" d="M289.435 161.12C289.435 161.12 292.452 161.208 293.738 160.51L289.596 163.094L289.435 161.12Z" fill="black"/>
<path fill-rule="evenodd" clip-rule="evenodd" d="M331.248 302.673L325.437 296.851L327.455 290.961L339.667 301.051L331.389 320.037C331.389 320.037 330.657 314.832 330.694 309.516C330.72 305.844 331.248 302.673 331.248 302.673ZM261.049 316.802L262.359 311.821L268.319 312.044L263.63 325.976L245.034 314.302C250.646 312.32 261.049 316.802 261.049 316.802Z" fill="#0D0B6D"/>
<path fill-rule="evenodd" clip-rule="evenodd" d="M326.902 298.335L327.54 290.956L334.698 296.875L331.248 302.674L326.902 298.335ZM262.128 312.663L268.025 313.123L265.965 318.924L261.049 316.803L262.128 312.663Z" fill="#E576C6"/>
<path d="M282.906 222.521C281.717 227.694 280.301 233.821 278.616 241.056C267.634 288.183 260.653 314.189 260.653 314.189L261.651 314.491L261.656 314.493L266.953 316.099L266.967 316.101L271.216 317.389C271.216 317.389 283.982 287.189 294.44 259.186C296.472 263.089 298.822 266.999 301.538 270.849C315.702 290.934 328.443 303.789 328.443 303.789L329.827 301.255L329.829 301.252L332.963 295.514L332.991 295.463L334.359 292.958C334.359 292.958 313.513 271.023 304.828 229.014C306.44 223.567 307.509 219.112 307.778 216.191C308.572 207.572 302.959 199.833 301.795 198.33H288.346L282.085 198.33C281.95 199.419 281.016 209.061 282.906 222.521L282.906 222.521Z" fill="#19141E"/>
<path opacity="0.145182" fill-rule="evenodd" clip-rule="evenodd" d="M260.653 314.189L261.651 314.491L261.655 314.493L266.953 316.099L266.967 316.101L271.216 317.389C271.216 317.389 283.982 287.189 294.44 259.186C298.572 248.119 302.345 237.395 304.828 229.014C306.44 223.567 307.509 219.112 307.778 216.191C308.571 207.572 302.959 199.833 301.795 198.33H288.346C287.673 201.472 286.13 208.495 282.906 222.521C281.717 227.694 280.301 233.821 278.616 241.056C267.634 288.183 260.653 314.189 260.653 314.189Z" fill="white"/>
<path fill-rule="evenodd" clip-rule="evenodd" d="M288.407 164.696C288.798 164.353 289.053 164.174 289.053 164.174L297.641 163.734C297.641 163.734 296.91 165.635 296.135 168.043C294.604 172.803 290.973 173.873 287.808 173.868C284.853 173.863 283.849 171.079 285.77 167.852C286.657 166.362 287.734 165.286 288.407 164.696ZM315.366 213.807L314.111 219.001C314.111 219.001 314.014 220.183 314.077 221.554L314.085 221.737C314.144 223.002 314.183 223.851 313.584 225.917C313.146 227.426 315.237 226.682 315.721 225.803C315.9 225.479 315.986 224.839 316.075 224.173C316.236 222.978 316.407 221.703 317.144 222.026C318.291 222.529 319.15 225.829 319.432 229.026C319.477 229.528 319.913 229.878 320.201 229.981C320.668 230.148 320.975 228.098 320.975 228.098C320.975 228.098 321.313 228.752 321.95 228.362C322.175 228.224 322.679 226.786 322.679 226.786C322.679 226.786 323.13 226.046 323.304 225.27C323.612 223.899 323.644 221.436 323.429 220.745C322.94 219.175 322.002 216.58 321.083 215.098C321.12 210.974 321.188 194.764 320.026 191.773C318.693 188.34 316.279 183.737 316.279 183.737L309.121 188.491L312.961 194.666L315.366 213.807ZM281.529 198.924C282.008 195.145 281.578 190.264 281.578 190.264L275.459 186.647L273.911 195.643L267.604 215.304C266.366 216.75 264.811 218.6 264.589 219.033C264.213 219.768 263.516 223.406 263.549 224.125C263.582 224.843 265.753 228.073 265.753 228.073C267.099 227.745 266.22 226.077 266.22 226.077C266.22 226.077 267.426 227.091 267.928 227.073C272.65 226.913 272.397 224.539 272.285 224.241C272.035 223.573 270.774 224.337 270.774 224.337C270.774 224.337 273.243 219.361 272.597 215.941C274.605 212.696 281.146 201.941 281.529 198.924Z" fill="#B4833B"/>
<path opacity="0.146833" d="M269.81 217.819C269.81 217.819 269.147 220.306 266.873 221.08C266.077 221.351 266.276 224.549 264.327 224.167" stroke="black" stroke-width="3"/>
<path fill-rule="evenodd" clip-rule="evenodd" d="M296.136 168.043C296.854 165.809 297.536 164.01 297.63 163.763C300.081 163.753 302.664 164.136 305.415 165.895C309.147 168.279 314.745 175.773 318.758 183.041L306.5 190.219L304.529 187.243C304.529 187.243 302.542 189.887 301.991 193.431C301.569 196.14 301.781 198.341 301.781 198.341H282.151L280.495 190.983L273.033 188.309C273.572 181.746 276.671 170.768 280.769 166.951C282.921 164.946 285.245 164.481 288.977 164.23C288.612 164.504 287.006 165.775 285.77 167.852C283.849 171.079 284.853 173.863 287.809 173.868C290.973 173.873 294.605 172.803 296.136 168.043ZM296.471 163.794L296.07 163.815C296.203 163.808 296.337 163.801 296.471 163.794Z" fill="#72A065"/>
<path opacity="0.204148" d="M282.056 198.489C281.307 189.047 276.36 186.819 280.093 176.229" stroke="black" stroke-width="4"/>
<path opacity="0.195638" d="M288.166 164.288C288.163 164.29 288.161 164.292 288.159 164.294C287.578 164.814 286.832 165.574 286.29 166.27C285.956 166.698 285.647 167.147 285.368 167.617C283.297 171.095 284.415 174.326 287.808 174.331C292.045 174.339 295.183 172.53 296.58 168.185C296.917 167.137 297.27 166.108 297.618 165.142C297.74 164.804 297.852 164.498 297.953 164.23C297.988 164.136 298.019 164.054 298.045 163.984C298.061 163.942 298.09 163.777 298.095 163.763H297.63C297.503 163.763 297.165 163.713 297.12 163.8C296.985 164.063 296.863 164.488 296.74 164.83C296.388 165.805 296.032 166.844 295.691 167.902C294.431 171.821 291.672 173.411 287.809 173.404C285.25 173.4 284.427 171.02 286.172 168.088C286.431 167.653 286.718 167.236 287.028 166.836C287.534 166.187 288.076 165.616 288.618 165.131C288.806 164.962 288.981 164.816 289.137 164.694C289.218 164.63 289.605 164.272 289.71 164.181L288.166 164.288Z" fill="black"/>
<path opacity="0.204148" d="M299.496 181.096L304.043 187.939" stroke="black" stroke-width="4"/>
<path fill-rule="evenodd" clip-rule="evenodd" d="M235.984 107.484C236.242 113.709 239.528 117.439 239.835 123.249C240.23 130.722 235.954 129.932 236.278 136.064C236.446 139.242 208.2 146.913 200.24 136.92C195.132 130.508 200.199 129.709 199.739 121.009C199.284 112.398 205.47 111.105 205.23 106.565C204.911 100.523 209.753 92.4733 217.659 92.0523C227.288 91.5396 235.595 98.0755 235.984 107.484Z" fill="#19141E"/>
<path fill-rule="evenodd" clip-rule="evenodd" d="M221.59 122.1C221.59 122.1 218.759 122.335 217.515 121.738L221.538 123.981L221.59 122.1Z" fill="#CF3E83"/>
<path d="M215.104 116.793C216.07 118.171 215.805 120.069 215.355 121.194C215.204 121.58 214.256 124.802 214.101 124.954C213.499 125.543 221.413 128.511 221.413 128.511L221.59 122.1C223.839 122.111 226.465 121.852 227.86 120.812C232.014 117.712 231.742 107.746 231.645 107.251L227.819 103.394C227.819 103.394 222.24 101.163 221.468 102.278C220.055 104.321 216.972 113.287 214.351 112.421C214.351 112.421 214.53 109.675 212.258 109.799C210.565 109.892 210.178 111.278 210.221 112.064C210.365 114.718 213.806 114.935 215.104 116.793Z" fill="#FCBDA4"/>
<path fill-rule="evenodd" clip-rule="evenodd" d="M227.244 112.116L229.076 115.973L227.191 116.036L227.244 112.116Z" fill="#125475"/>
<path fill-rule="evenodd" clip-rule="evenodd" d="M225.526 112.38C225.527 113.17 225.097 113.808 224.566 113.806C224.034 113.803 223.603 113.161 223.601 112.371C223.6 111.581 224.03 110.943 224.561 110.945C225.093 110.947 225.524 111.59 225.526 112.38Z" fill="#0D0B6D"/>
<path fill-rule="evenodd" clip-rule="evenodd" d="M230.494 111.989C230.496 112.779 230.066 113.418 229.534 113.415C229.003 113.413 228.571 112.77 228.57 111.981C228.569 111.191 228.998 110.552 229.53 110.555C230.061 110.557 230.493 111.2 230.494 111.989Z" fill="#0D0B6D"/>
<path fill-rule="evenodd" clip-rule="evenodd" d="M228.509 96.8783C228.696 96.6684 228.895 96.4683 229.103 96.2788C229.572 96.6818 230.016 97.1119 230.431 97.5693C232.664 100.025 234.091 103.218 234.284 106.765C234.289 106.854 234.294 106.942 234.297 107.032H234.299L234.455 109.906C234.344 109.908 234.235 109.905 234.124 109.9C231.949 109.803 229.983 108.843 228.596 107.344C228.082 106.787 227.646 106.155 227.308 105.466C227.255 105.364 227.207 105.257 227.16 105.155C226.925 104.61 226.749 104.032 226.642 103.43C219.211 113.951 214.351 112.421 214.351 112.421L215.055 106.919L209.639 101.08C209.639 101.08 225.084 94.3923 228.509 96.8783Z" fill="#19141E"/>
<path fill-rule="evenodd" clip-rule="evenodd" d="M228.509 96.8783C228.696 96.6684 228.895 96.4683 229.103 96.2788C229.572 96.6818 230.016 97.1119 230.431 97.5693C232.664 100.025 234.091 103.218 234.284 106.765C234.289 106.854 234.294 106.942 234.297 107.032H234.299L234.455 109.906C234.344 109.908 234.235 109.905 234.124 109.9C231.949 109.803 229.983 108.843 228.596 107.344C228.082 106.787 227.646 106.155 227.308 105.466C227.255 105.364 227.207 105.257 227.16 105.155C226.925 104.61 226.749 104.032 226.642 103.43C219.211 113.951 214.351 112.421 214.351 112.421L215.055 106.919L209.639 101.08C209.639 101.08 225.084 94.3923 228.509 96.8783Z" fill="#19141E"/>
<path d="M226.829 117.949C226.829 117.949 225.623 118.411 224.322 117.107" stroke="#1C295E"/>
<path opacity="0.396996" fill-rule="evenodd" clip-rule="evenodd" d="M221.585 122.101C221.585 122.101 218.754 122.335 217.51 121.738L221.534 123.981L221.585 122.101Z" fill="black"/>
<path fill-rule="evenodd" clip-rule="evenodd" d="M214.337 277.209L208.993 277.478C208.993 277.478 204.956 278.473 202.167 283.971H214.909L214.337 277.209ZM253.401 284.034C249.62 280.103 239.562 277.46 239.562 277.46L235.792 277.344L235.3 284.066L253.401 284.034Z" fill="#0D0B6D"/>
<path fill-rule="evenodd" clip-rule="evenodd" d="M206.628 281.013C209.708 280.952 211.816 279.288 212.909 278.14L214.164 278.37L218.501 211.003L204.517 217.496L209.839 276.945C208.949 277.544 203.825 281.069 206.628 281.013ZM248.525 280.772L241.315 277.636C240.901 274.883 239.151 262.904 237.536 246.811C236.088 232.373 234.827 219.159 234.827 219.159L222.799 219.722L235.952 278.236H237.381C239.669 279.406 244.106 281.257 248.525 280.772Z" fill="#FCBDA4"/>
<path d="M209.646 157.175C209.646 157.175 205.919 158.962 202.675 168.657C198.334 181.634 197.063 220.941 197.063 220.941H238.861L228.09 157.457L209.646 157.175Z" fill="#2F2F3D"/>
<path fill-rule="evenodd" clip-rule="evenodd" d="M239.913 173.982C239.913 173.982 237.431 174.294 236.959 175.408C235.607 178.593 238.407 184.287 238.407 184.287C238.407 184.287 237.221 183.561 236.985 184.196C236.88 184.478 236.642 186.734 241.086 186.886C241.558 186.902 242.694 185.94 242.694 185.94C242.694 185.94 241.866 187.524 243.133 187.835C243.133 187.835 245.176 184.768 245.207 184.085C245.238 183.402 244.583 179.947 244.228 179.25C243.874 178.552 239.913 173.982 239.913 173.982ZM197.883 179.572L197.003 174.093C195.803 174.648 194.767 174.603 193.905 174.565C193.019 174.525 192.316 174.494 191.807 175.131C190.791 176.402 189.622 179.011 189.013 180.557C188.761 181.195 188.614 183.531 188.804 184.851C188.912 185.598 189.282 186.331 189.282 186.331C189.282 186.331 189.651 187.73 189.853 187.876C190.422 188.291 190.786 187.696 190.786 187.696C190.786 187.696 190.927 189.659 191.377 189.534C191.655 189.457 192.089 189.157 192.167 188.685C192.663 185.678 193.706 182.614 194.819 182.22C195.533 181.967 195.602 183.187 195.667 184.33C195.703 184.967 195.738 185.579 195.882 185.899C196.273 186.766 198.182 187.62 197.88 186.16C197.466 184.16 197.564 183.359 197.71 182.166C197.717 182.109 197.724 182.051 197.731 181.992C197.888 180.699 197.883 179.572 197.883 179.572Z" fill="#FCBDA4"/>
<path opacity="0.152414" d="M239.315 178.096C239.315 178.096 239.939 180.458 242.079 181.194C242.828 181.451 242.641 184.488 244.475 184.125" stroke="black"/>
<path d="M213.052 126.755L213.682 122.179L223.276 123.504L222.753 127.308C225.57 127.58 227.487 128.131 229.281 129.782C235.044 135.084 235.468 154.934 235.468 154.934L241.557 175.789L236.546 176.418C236.546 176.418 228.157 165.276 226.303 159.285H209.119C209.119 159.285 209.281 157.504 208.877 154.931C208.346 151.566 206.438 149.057 206.438 149.057L202.985 153.314L197.003 174.549L191.506 175.538C191.506 175.538 189.857 158.178 193.193 148.698C196.109 140.407 201.431 131.402 205.585 128.778C208.223 127.112 210.701 126.747 213.052 126.755Z" fill="#CE3D29"/>
<path opacity="0.195894" d="M228.008 159.516C228.713 150.549 233.589 148.652 230.076 138.595" stroke="black" stroke-width="3"/>
<path opacity="0.195894" d="M210.716 142.557L206.437 149.056" stroke="black" stroke-width="3"/>
<path d="M139.158 150.521L138.967 143.752C138.967 143.752 146.975 144.407 148.688 143.493C148.688 143.493 150.781 132.414 148.284 126.278L148.234 126.039L131.336 124.009L130.284 133.848C129.715 132.124 125.122 130.289 123.893 132.758C121.232 138.109 130.747 141.713 130.747 141.713L129.781 150.602" fill="#A15611"/>
<path opacity="0.400274" fill-rule="evenodd" clip-rule="evenodd" d="M138.967 143.751L133.568 142.562L138.941 146.291L138.967 143.751Z" fill="black"/>
<path fill-rule="evenodd" clip-rule="evenodd" d="M143.421 132.691L145.287 137.377L143.051 137.406L143.421 132.691Z" fill="#19141E"/>
<path fill-rule="evenodd" clip-rule="evenodd" d="M141.294 134.022C141.405 134.653 140.997 135.257 140.383 135.371C139.768 135.485 139.18 135.066 139.069 134.435C138.958 133.804 139.366 133.2 139.98 133.086C140.595 132.972 141.183 133.391 141.294 134.022Z" fill="#19141E"/>
<path fill-rule="evenodd" clip-rule="evenodd" d="M147.162 134.022C147.273 134.653 146.865 135.257 146.251 135.371C145.637 135.485 145.049 135.066 144.938 134.435C144.827 133.804 145.234 133.2 145.849 133.086C146.463 132.972 147.051 133.391 147.162 134.022Z" fill="#19141E"/>
<path fill-rule="evenodd" clip-rule="evenodd" d="M141.101 138.731C141.101 138.731 141.883 140.033 143.431 139.923L141.101 138.731Z" fill="white"/>
<path d="M141.101 138.731C141.101 138.731 141.883 140.033 143.431 139.923" stroke="#252535" stroke-width="2"/>
<path fill-rule="evenodd" clip-rule="evenodd" d="M130.386 133.953C129.125 132.609 127.751 132.04 126.918 131.803L127.077 128.412L135.015 126.99C134.468 130.773 132.343 132.838 130.386 133.953Z" fill="#EACB47"/>
<path fill-rule="evenodd" clip-rule="evenodd" d="M148.753 127.6C148.037 126.902 143.376 126.685 137.774 127.128C136.47 127.231 135.221 127.361 134.066 127.512C130.246 128.004 127.436 128.705 126.979 129.322C126.472 121.62 131.064 117.034 137.076 116.607C141.02 116.327 144.597 117.908 146.738 121.202C147.834 122.89 148.555 125.03 148.753 127.6Z" fill="#393954"/>
<path fill-rule="evenodd" clip-rule="evenodd" d="M148.843 127.753H148.841C148.833 127.7 148.803 127.648 148.753 127.601C148.038 126.902 143.377 126.686 137.774 127.129C136.47 127.232 135.221 127.362 134.066 127.512C135.709 125.908 138.715 123.373 142.262 122.235C143.778 121.749 145.316 121.394 146.738 121.202C150.19 120.732 152.96 121.215 153.099 123.056C153.277 125.451 149.439 127.457 148.843 127.753Z" fill="#161629"/>
<path fill-rule="evenodd" clip-rule="evenodd" d="M130.2 148.104C130.691 148.974 132.847 152.187 137.957 152.491C142.892 152.782 142.526 150.138 142.269 149.254C142.153 149.222 142.038 149.19 141.921 149.157C140.836 148.853 139.681 148.53 138.099 148.364C133.781 147.911 133.442 147.878 130.2 148.104ZM169.318 162.122C166.969 166.789 158.724 182.107 152.846 179.664C148.445 177.834 143.177 162.667 143.177 162.667L151.741 157.51L155.589 167.933L163.446 159.296C163.18 157.584 162.966 155.347 163.498 154.558C164.403 153.216 168.985 149.08 168.985 149.08L169.819 156.088L169.965 155.497C169.965 155.464 169.973 155.428 169.989 155.39L169.994 155.379L170.331 154.011C170.19 153.939 170.132 153.836 170.193 153.693C170.243 153.577 170.351 153.451 170.502 153.317L171.654 148.648C171.654 148.648 172.032 148.818 172.586 149.073C173.477 148.887 176.704 151.107 176.753 151.141L176.754 151.141C177.411 151.571 175.848 158.668 174.579 159.987C173.675 160.925 170.865 161.734 169.318 162.122ZM116.851 193.771L117.376 194.779C117.376 194.779 117.851 195.602 118.348 197.039C118.531 197.57 118.619 198.025 118.711 198.502C118.867 199.314 119.036 200.189 119.713 201.612C120.934 204.174 118.751 203.118 117.968 201.999C117.711 201.632 117.574 201.21 117.443 200.805C117.263 200.248 117.093 199.724 116.634 199.418C116.611 199.455 116.586 199.493 116.558 199.535C116.266 199.975 115.733 200.779 115.424 204.156C115.363 204.819 115.66 206.969 115.66 206.969C115.661 207.017 115.662 207.069 115.663 207.124C115.674 207.807 115.695 208.973 115.023 209.162C114.844 209.213 114.61 209.012 114.61 209.012C114.61 209.012 114.68 209.853 113.939 210.021C113.648 210.086 113.069 208.271 113.069 208.271C113.069 208.271 112.981 209.193 112.428 209.295C112.271 209.324 110.425 204.064 110.425 204.064L110.536 205.252L110.781 206.469C110.781 206.469 110.761 207.124 110.241 207.24C110.035 207.286 109.638 206.193 109.267 204.908C108.689 202.908 108.701 201.405 108.871 199.911C108.912 199.548 108.942 199.234 108.968 198.946C109.075 197.797 109.145 197.054 109.78 195.284C109.875 195.019 110.002 194.715 110.144 194.402C109.709 190.595 108.48 179.45 108.631 176.029C108.813 171.879 113.159 162.666 113.159 162.666L121.981 167.657L117.118 176.621L116.851 193.771Z" fill="#A15611"/>
<path fill-rule="evenodd" clip-rule="evenodd" d="M121.714 186.1H150.017L151.055 168.423L156.022 165.493L152.542 157.397L152.511 157.403C152.366 157.109 152.207 156.804 152.033 156.487C149.873 152.55 146.178 150.33 142.269 149.253C142.206 149.236 142.18 149.223 142.177 149.227C142.169 149.238 142.305 149.353 142.344 149.757C142.398 150.321 142.222 151.087 142.037 151.32C141.6 151.869 140.94 152.181 140.674 152.254C140.408 152.328 140.198 152.37 139.963 152.418C139.798 152.451 138.862 152.521 138.7 152.512C137.367 152.442 136.714 152.38 135.875 152.178C135.578 152.106 135.27 152.025 134.906 151.87C134.838 151.841 134.763 151.81 134.682 151.776C134.289 151.613 133.764 151.394 133.231 151.093C132.668 150.775 132.094 150.355 131.678 149.925C131.638 149.884 131.599 149.844 131.561 149.804C131.124 149.355 130.827 149.048 130.62 148.74C130.481 148.532 130.428 148.462 130.397 148.422C130.378 148.397 130.368 148.383 130.35 148.355C130.305 148.28 130.265 148.214 130.254 148.17C130.242 148.122 130.285 148.102 130.284 148.097C130.283 148.094 130.263 148.097 130.2 148.104C128.208 148.303 126.067 148.823 123.732 149.925C116.511 153.334 112.291 161.897 112.291 161.897L121.24 168.668L121.714 186.1Z" fill="#5E93D1"/>
<path opacity="0.200521" d="M121.239 168.667L123.51 170.222L128.966 163.81" stroke="black" stroke-width="5"/>
<path d="M173.067 157.335L172.672 159.292H166.268L169.289 143.709H175.692C175.526 144.566 175.135 146.583 174.52 149.76L173.26 149.171L172.868 149.061L172.56 149.079L172.426 149.171V149.55L173.795 151.536L172.747 151.996L171.136 152.849L170.671 153.174L170.49 153.343L170.343 153.476L170.249 153.59L170.193 153.693L170.169 153.825L170.193 153.884L170.221 153.929L170.262 153.97L170.79 154.158L171.994 153.825H173.185L171.596 154.158L170.549 154.79L170.193 155.129L169.992 155.378V155.605L170.343 155.765L172.56 155.508L171.826 155.911L171.339 156.215L170.894 156.447L170.549 156.896V157.117L170.671 157.247L170.98 157.414H171.452H172.403L173.067 157.335Z" fill="#5E93D1"/>
<path fill-rule="evenodd" clip-rule="evenodd" d="M166.268 159.292H165.208L168.228 143.709H169.288L166.268 159.292Z" fill="#020101"/>
<path fill-rule="evenodd" clip-rule="evenodd" d="M170.391 145.519C170.302 145.974 170.04 146.306 169.805 146.259C169.57 146.213 169.451 145.806 169.539 145.351C169.628 144.896 169.89 144.564 170.125 144.611C170.36 144.657 170.479 145.064 170.391 145.519Z" fill="#020101"/>
<path fill-rule="evenodd" clip-rule="evenodd" d="M145.548 292.428L145.607 287.25L138.989 283.887L138.029 298.69H160.958C157.057 294.257 145.548 292.428 145.548 292.428ZM116.176 292.63L116.236 286.813L111.921 290.358L108.449 292.308L107.303 298.69H122.997C121.023 293.268 116.176 292.63 116.176 292.63Z" fill="#0D0B6D"/>
<path fill-rule="evenodd" clip-rule="evenodd" d="M116.236 286.814L109.617 284.807L108.448 292.308L116.176 292.63L116.236 286.814ZM145.607 287.25L138.989 285.244L138.456 292.106L145.548 292.428L145.607 287.25Z" fill="#E576C6"/>
<path d="M146.556 285.552L146.403 290.358H137.673L137.826 285.538C136.848 285.142 136.15 284.19 136.126 283.066L134.72 211.083L119.537 283.756C119.323 284.778 118.571 285.572 117.617 285.864L117.046 290.358H107.892L108.68 285.397C107.918 284.801 107.476 283.821 107.628 282.774L121.607 186.455L134.24 186.455L134.239 186.418H149.539L148.622 282.931C148.61 284.2 147.734 285.262 146.556 285.552Z" fill="#2F2F3D"/>
<path opacity="0.197824" fill-rule="evenodd" clip-rule="evenodd" d="M134.643 212.224L137.322 200.244L135.306 236.566L134.643 212.224Z" fill="black"/>
<path d="M124.875 186.545L126.342 186.787L110.352 284.942L108.881 284.694L124.875 186.545Z" fill="#EFEFEF"/>
<path fill-rule="evenodd" clip-rule="evenodd" d="M59.5997 352.999C63.3908 352.924 65.9862 350.881 67.3324 349.47L68.8776 349.753L74.2167 267L57 274.976L63.5524 348.002C62.4564 348.738 56.1487 353.068 59.5997 352.999ZM108.181 352.704L99.3049 348.851C98.7954 345.47 96.6405 330.755 94.6527 310.987C92.8696 293.252 91.3171 277.019 91.3171 277.019L76.5087 277.71L92.7025 349.588H94.4612C97.2788 351.025 102.741 353.299 108.181 352.704Z" fill="#A15611"/>
<path d="M95.5534 191.957C95.5534 193.495 95.3938 194.997 95.0887 196.446C93.0228 206.313 84.2779 209.681 73.8022 209.681C61.7914 209.681 52.0529 203.979 52.0529 191.957C52.0529 179.935 61.7914 170.191 73.8022 170.191C82.0602 170.191 89.2441 174.795 92.9279 181.58C94.602 184.665 95.5534 188.2 95.5534 191.957Z" fill="#F6B852"/>
<mask id="mask0" mask-type="alpha" maskUnits="userSpaceOnUse" x="52" y="170" width="44" height="40">
<path d="M95.5534 191.957C95.5534 193.495 95.3938 194.997 95.0887 196.446C93.0228 206.313 84.2779 209.681 73.8022 209.681C61.7914 209.681 52.0529 203.979 52.0529 191.957C52.0529 179.935 61.7914 170.191 73.8022 170.191C82.0602 170.191 89.2441 174.795 92.9279 181.58C94.602 184.665 95.5534 188.2 95.5534 191.957Z" fill="white"/>
</mask>
<g mask="url(#mask0)">
</g>
<path fill-rule="evenodd" clip-rule="evenodd" d="M77.5319 206.439C77.5319 206.439 74.9204 206.516 73.8074 205.908L77.3932 208.161L77.5319 206.439Z" fill="#CF3E83"/>
<path d="M76.6589 189.917C79.2022 192.106 82.9666 194.142 87.3856 195.527C87.1042 198.523 86.1701 203.687 83.3522 205.563C82.0211 206.449 79.597 206.558 77.5319 206.439L77.0583 212.309L70.9201 209.903C70.9201 209.903 72.4522 202.769 71.6319 201.458C70.5302 199.691 67.5825 199.122 67.5791 196.681C67.5779 195.958 68.0002 194.707 69.5595 194.704C71.6527 194.701 71.3544 197.211 71.3544 197.211C73.2798 197.96 75.2424 192.826 76.6589 189.917V189.917Z" fill="#A15611"/>
<path fill-rule="evenodd" clip-rule="evenodd" d="M83.2087 197.206L84.7032 200.832L82.9694 200.797L83.2087 197.206Z" fill="#CF8414"/>
<path fill-rule="evenodd" clip-rule="evenodd" d="M81.6177 197.363C81.5803 198.088 81.1548 198.652 80.6669 198.624C80.1789 198.596 79.8136 197.986 79.8507 197.261C79.8881 196.537 80.3138 195.973 80.8016 196.001C81.2895 196.029 81.6551 196.639 81.6177 197.363Z" fill="#1D1D23"/>
<path fill-rule="evenodd" clip-rule="evenodd" d="M86.1996 197.247C86.1622 197.972 85.7367 198.536 85.2487 198.508C84.7608 198.48 84.3954 197.87 84.4328 197.145C84.4702 196.421 84.8957 195.856 85.3836 195.885C85.8716 195.913 86.2369 196.523 86.1996 197.247Z" fill="#1D1D23"/>
<path d="M82.5441 202.534C82.5441 202.534 81.4143 202.899 80.2823 201.639" stroke="#24242B"/>
<path opacity="0.399019" fill-rule="evenodd" clip-rule="evenodd" d="M77.5275 206.439C77.5275 206.439 74.916 206.516 73.803 205.908L77.3888 208.161L77.5275 206.439Z" fill="black"/>
<path d="M97.4336 293.268H49.6641C49.6641 293.268 52.9195 269.36 58.7501 253.51C62.6176 242.996 66.0996 240.047 67.2528 239.316H83.9388C84.3003 240.146 87.768 248.294 91.5243 264.412C96.2766 284.796 97.4336 293.268 97.4336 293.268Z" fill="#FCBDA4"/>
<path d="M95.5894 253.465C96.6484 254.713 97.9384 256.264 98.1264 256.633C98.4523 257.274 99.0552 260.446 99.0265 261.073C98.9976 261.7 97.1192 264.517 97.1192 264.517C95.9537 264.231 96.7149 262.776 96.7149 262.776C96.7149 262.776 95.6707 263.66 95.2369 263.645C91.1492 263.505 91.3682 261.434 91.4647 261.175C91.6818 260.592 92.7732 261.258 92.7732 261.258C92.7732 261.258 90.6751 256.999 91.1803 254.018L91.0627 254.033L84.626 243.771L84.1798 239.772L66.6454 239.513C66.6454 239.513 66.7969 237.878 66.4234 235.515C65.9367 232.425 62.9677 226.685 62.9677 226.685L58.3793 233.625L55.0419 251.734C55.0596 251.723 55.0773 251.712 55.095 251.7L56.6148 256.564C56.6148 256.564 56.7677 258.598 56.7947 259.794C56.8218 260.991 56.8074 260.705 57.4774 262.552C57.9441 263.839 56.0947 263.314 55.625 262.578C55.1405 261.819 55.1346 258.87 54.1739 259.374C53.2131 259.878 52.6656 262.801 52.6095 265.599C52.6006 266.038 52.2445 266.166 52.002 266.273C51.6086 266.446 51.2224 264.882 51.2224 264.882C51.2224 264.882 50.9696 265.47 50.3968 265.169C50.194 265.062 49.674 263.84 49.674 263.84C49.674 263.84 49.241 263.222 49.0449 262.557C48.6987 261.382 48.5262 259.241 48.671 258.628C49.0139 257.177 49.7098 254.736 50.4479 253.422C50.4344 253.129 49.7719 238.409 52.8072 229.791C55.4891 222.178 59.5749 213.909 63.3958 211.5C67.326 209.022 70.8666 209.677 74.1543 209.848C79.8377 210.148 82.649 210.087 85.1896 212.421C90.4891 217.29 88.6553 236.528 88.6553 236.528L95.6712 253.455L95.5894 253.465Z" fill="#A15611"/>
<path opacity="0.152762" d="M93.6078 255.574C93.6078 255.574 94.1814 257.742 96.1499 258.418C96.8382 258.654 96.6663 261.443 98.3535 261.11" stroke="black" stroke-width="3"/>
<path d="M70.7037 209.657L71.3093 209.675C71.3093 209.676 71.3093 209.676 71.3092 209.684C71.3083 209.735 71.3095 209.797 71.3141 209.852C71.3163 209.878 71.3192 209.9 71.3224 209.917C71.3958 210.305 71.7461 213.093 72.3811 218.339L71.7796 218.412C71.1499 213.21 70.7964 210.396 70.7271 210.029C70.7196 209.99 70.7143 209.948 70.7104 209.903C70.7037 209.824 70.7022 209.744 70.7034 209.674C70.7036 209.661 70.7036 209.661 70.7037 209.657Z" fill="#2B2B38"/>
<path d="M82.0412 213.629C82.9847 214.862 83.8301 216.182 84.5661 217.502C84.8237 217.964 85.0494 218.393 85.2415 218.779C85.3089 218.914 85.3674 219.034 85.4167 219.138C85.4466 219.201 85.4669 219.245 85.4775 219.268L84.9332 219.527C84.924 219.506 84.9051 219.466 84.8768 219.406C84.8292 219.306 84.7724 219.189 84.7068 219.057C84.5188 218.68 84.2976 218.259 84.0447 217.806C83.3223 216.51 82.4924 215.214 81.5685 214.007C80.5502 212.676 79.4791 211.534 78.3653 210.64L77.6011 210.027L78.5704 210.093C78.7002 210.102 78.7913 210.167 78.8758 210.271C79.9805 211.18 81.0374 212.316 82.0412 213.629Z" fill="#2B2B38"/>
<path opacity="0.148693" d="M62.9678 226.684L65.4305 222.811" stroke="black" stroke-width="3"/>
<path d="M84.0665 239.77L66.6454 239.513C66.6454 239.513 66.8205 237.874 66.4234 235.515C65.9961 232.978 64.0722 229.25 63.7515 228.279C63.7515 228.279 64.0479 229.224 65.1403 227.963C66.7045 226.156 72.0801 217.769 72.0801 217.769C72.0801 217.769 77.1536 222.901 81.2251 222.744C84.0316 222.635 85.0361 218.287 85.0361 218.287C89.5338 228.069 84.57 226.854 84.0665 239.77Z" fill="#FCBDA4"/>
</svg>
