<svg width="375" height="380" viewBox="0 0 375 380" fill="none" xmlns="http://www.w3.org/2000/svg">
<path fill-rule="evenodd" clip-rule="evenodd" d="M181.168 150.539C181.168 186.146 152.248 215.01 116.574 215.01C80.8999 215.01 51.9801 186.146 51.9801 150.539C51.9801 114.932 80.8999 86.067 116.574 86.067C152.248 86.067 181.168 114.932 181.168 150.539" fill="#ECF6FF"/>
<path d="M116.574 131.906V263.775" stroke="#B6D4FF" stroke-width="8"/>
<path d="M116.574 193.049L130.954 178.697" stroke="#B6D4FF" stroke-width="8"/>
<path d="M117.117 149.969L124.521 142.579" stroke="#B6D4FF" stroke-width="8"/>
<path d="M116.574 171.637L102.793 157.882" stroke="#B6D4FF" stroke-width="8"/>
<path fill-rule="evenodd" clip-rule="evenodd" d="M373.37 207.44C373.37 231.949 357.335 242.948 337.634 242.948C317.935 242.948 301.901 231.949 301.901 207.44C301.901 161.785 321.403 119.15 337.634 119.15C353.868 119.15 373.37 161.785 373.37 207.44" fill="#ECF6FF"/>
<path d="M337.635 167.759V263.291" stroke="#CCE3FF" stroke-width="8" stroke-linecap="square"/>
<path d="M338.285 226.863L351.556 213.618" stroke="#CCE3FF" stroke-width="8" stroke-linecap="square"/>
<path d="M338.069 184.249L346.315 176.018" stroke="#CCE3FF" stroke-width="8" stroke-linecap="square"/>
<path d="M337.202 207.521L324.967 195.309" stroke="#CCE3FF" stroke-width="8" stroke-linecap="square"/>
<path fill-rule="evenodd" clip-rule="evenodd" d="M290.862 198.681C290.862 223.481 274.662 237.317 253.564 237.317C232.464 237.317 216.265 223.481 216.265 198.681C216.265 146.465 240.071 86.268 253.564 86.268C267.056 86.268 290.862 146.465 290.862 198.681" fill="#CCE3FF"/>
<path d="M253.563 161.792V276.26" stroke="#ECF6FF" stroke-width="8" stroke-linecap="square"/>
<path d="M254.009 222.431L267.21 209.242" stroke="#ECF6FF" stroke-width="8" stroke-linecap="square"/>
<path d="M252.458 197.301L241.656 186.509" stroke="#ECF6FF" stroke-width="8" stroke-linecap="square"/>
<path d="M254.214 180.394L262.46 172.155" stroke="#ECF6FF" stroke-width="8" stroke-linecap="square"/>
<path fill-rule="evenodd" clip-rule="evenodd" d="M241.354 288.702L251.563 336.259H258.317L248.108 288.702H241.354Z" fill="#CCE3FF"/>
<path fill-rule="evenodd" clip-rule="evenodd" d="M77.2223 288.701H252.035V281.345H77.2223V288.701Z" fill="#D7EBFF"/>
<path fill-rule="evenodd" clip-rule="evenodd" d="M214.968 315.344H249.051V307.987H214.968V315.344Z" fill="#D7EBFF"/>
<path fill-rule="evenodd" clip-rule="evenodd" d="M113.342 240.286L105.68 281.345H114.926L122.588 240.286H113.342Z" fill="#CCE3FF"/>
<path fill-rule="evenodd" clip-rule="evenodd" d="M246.599 240.286L238.937 281.345H248.183L255.844 240.286H246.599Z" fill="#CCE3FF"/>
<path fill-rule="evenodd" clip-rule="evenodd" d="M211.042 288.702H252.035V281.345H211.042V288.702Z" fill="#B6D4FF"/>
<path fill-rule="evenodd" clip-rule="evenodd" d="M265.065 267.051L263.694 274.409H254.447L255.821 267.051H265.065Z" fill="#CCE3FF"/>
<path fill-rule="evenodd" clip-rule="evenodd" d="M255.821 267.051L254.447 274.409H98.8564L100.23 267.051H255.821Z" fill="#D7EBFF"/>
<path fill-rule="evenodd" clip-rule="evenodd" d="M267.561 253.669L266.191 261.025H256.943L258.317 253.669H267.561Z" fill="#CCE3FF"/>
<path fill-rule="evenodd" clip-rule="evenodd" d="M258.317 253.669L256.944 261.025H101.353L102.726 253.669H258.317Z" fill="#D7EBFF"/>
<path fill-rule="evenodd" clip-rule="evenodd" d="M260.813 240.287L259.442 247.643H268.687L270.057 240.287H260.813Z" fill="#CCE3FF"/>
<path fill-rule="evenodd" clip-rule="evenodd" d="M105.224 240.287L103.851 247.643H259.442L260.813 240.287H105.224Z" fill="#D7EBFF"/>
<path fill-rule="evenodd" clip-rule="evenodd" d="M214.968 288.702L204.759 336.259H211.513L221.722 288.702H214.968Z" fill="#CCE3FF"/>
<path fill-rule="evenodd" clip-rule="evenodd" d="M107.614 288.702L117.823 336.259H124.577L114.368 288.702H107.614Z" fill="#CCE3FF"/>
<path fill-rule="evenodd" clip-rule="evenodd" d="M81.2281 315.343H115.311V307.987H81.2281V315.343Z" fill="#D7EBFF"/>
<path fill-rule="evenodd" clip-rule="evenodd" d="M81.2282 288.702L71.019 336.259H77.773L87.9819 288.702H81.2282Z" fill="#CCE3FF"/>
<path fill-rule="evenodd" clip-rule="evenodd" d="M363.373 242.083H368.184V28.0092H363.373V242.083Z" fill="#D7EBFF"/>
<path fill-rule="evenodd" clip-rule="evenodd" d="M313.935 33.4574L275.857 20.8348C274.267 20.3077 273.396 18.5746 273.924 16.9841L275.823 11.2541C276.351 9.66358 278.084 8.79359 279.674 9.32075L317.752 21.9433C319.342 22.4705 320.212 24.2035 319.685 25.7941L317.786 31.524C317.258 33.1146 315.525 33.9845 313.935 33.4574" fill="#ECF6FF"/>
<path fill-rule="evenodd" clip-rule="evenodd" d="M356.557 321.451H375V250.503H356.557V321.451Z" fill="#CCE3FF"/>
<path fill-rule="evenodd" clip-rule="evenodd" d="M360.466 263.734H371.091V239.458H360.466V263.734Z" fill="#CCE3FF"/>
<path fill-rule="evenodd" clip-rule="evenodd" d="M361.357 33.1266H370.2V22.8335H361.357V33.1266Z" fill="#CCE3FF"/>
<path d="M301.026 16.5014C301.026 16.5014 365.778 30.8185 365.778 65.6173" stroke="#DCEEFF" stroke-width="15" stroke-linejoin="bevel"/>
<path fill-rule="evenodd" clip-rule="evenodd" d="M318.187 29.5863L276.444 15.7486C272.708 14.5105 270.665 10.4405 271.903 6.70491L272.278 5.57359C273.516 1.83801 277.586 -0.205399 281.322 1.03298L323.065 14.8704C326.801 16.1088 328.844 20.1785 327.605 23.9144L327.23 25.0457C325.992 28.7813 321.922 30.8247 318.187 29.5863" fill="#CCE3FF"/>
<path d="M267.403 141.5C267.125 141.875 266.982 142.274 267 142.698C266.458 144.501 266.165 146.409 266.162 148.383C266.162 148.636 266.166 148.888 266.175 149.139L266.145 170.984L307.596 171.049L307.628 148.479L307.613 148.479C307.613 148.467 307.613 148.455 307.613 148.444C307.631 137.267 298.365 128.193 286.919 128.176C277.948 128.164 270.3 133.717 267.403 141.5Z" fill="#19141E"/>
<path fill-rule="evenodd" clip-rule="evenodd" d="M283.564 168.82C283.564 168.82 287.453 168.935 289.11 168.029L283.771 171.382L283.564 168.82Z" fill="#CF3E83"/>
<path d="M291.92 155.176C289.697 154.997 276.006 153.574 268.48 145.146L268.444 145.155C268.444 145.155 268.26 163.707 274.897 167.517C276.963 168.702 280.491 168.997 283.564 168.819L284.271 177.552L294.306 173.423C294.306 173.423 293.343 163.788 292.925 160.089C294.943 158.258 298.377 157.41 298.384 154.3C298.387 153.227 297.758 151.362 295.437 151.359C292.318 151.356 292.763 155.088 292.763 155.088C292.482 155.198 292.201 155.223 291.92 155.176V155.176Z" fill="#5E93D1"/>
<path fill-rule="evenodd" clip-rule="evenodd" d="M275.111 155.082L272.886 160.477L275.468 160.426L275.111 155.082Z" fill="#2437A8"/>
<path fill-rule="evenodd" clip-rule="evenodd" d="M277.48 155.316C277.536 156.394 278.17 157.234 278.896 157.192C279.623 157.15 280.167 156.243 280.111 155.165C280.056 154.087 279.422 153.247 278.695 153.289C277.969 153.331 277.425 154.239 277.48 155.316" fill="#0D0B6D"/>
<path fill-rule="evenodd" clip-rule="evenodd" d="M270.658 155.144C270.713 156.222 271.347 157.062 272.074 157.02C272.8 156.978 273.344 156.07 273.289 154.993C273.233 153.915 272.6 153.075 271.873 153.117C271.146 153.159 270.602 154.066 270.658 155.144" fill="#0D0B6D"/>
<path d="M276.101 163.01C276.101 163.01 277.783 163.553 279.469 161.678" stroke="#1C295E" stroke-width="3"/>
<path opacity="0.395159" fill-rule="evenodd" clip-rule="evenodd" d="M283.571 168.82C283.571 168.82 287.459 168.934 289.117 168.029L283.777 171.381L283.571 168.82Z" fill="black"/>
<path fill-rule="evenodd" clip-rule="evenodd" d="M338.748 350.022L331.376 342.65L333.937 335.192L349.428 347.968L338.927 372.007C338.927 372.007 337.998 365.417 338.045 358.686C338.078 354.036 338.748 350.022 338.748 350.022ZM249.694 367.911L251.355 361.604L258.916 361.887L252.967 379.526L229.376 364.746C236.495 362.236 249.694 367.911 249.694 367.911Z" fill="#0D0B6D"/>
<path fill-rule="evenodd" clip-rule="evenodd" d="M333.235 344.528L334.045 335.186L343.125 342.679L338.748 350.022L333.235 344.528ZM252.616 356.715L260.356 358.158L255.929 370.598L249.694 367.911L252.616 356.715Z" fill="#E576C6"/>
<path d="M291.55 314.258C303.566 338.175 324.252 358.45 324.252 358.45L342.773 330.985C342.773 330.985 318.099 309.322 306.455 261.484C308.412 253.624 309.803 247.15 310.292 243.001C311.894 229.413 303.812 220.264 301.643 218.081H300.648L276.281 218.081C275.761 220.018 273.696 230.879 274.41 246.878C272.259 254.026 269.741 262.655 266.823 273.012C250.214 331.971 242.511 357.972 242.511 357.972L274.086 369.235C274.086 369.235 283.15 342.094 291.55 314.258V314.258Z" fill="#0D0B6D"/>
<path opacity="0.14688" fill-rule="evenodd" clip-rule="evenodd" d="M242.511 357.972L274.086 369.235C274.086 369.235 283.571 340.834 292.127 312.341C297.47 294.566 302.901 275.742 306.455 261.484C308.412 253.624 309.803 247.15 310.292 243.001C311.894 229.413 303.812 220.264 301.643 218.081H283.765C282.278 222.098 279.283 230.712 274.41 246.878C272.259 254.026 269.741 262.655 266.823 273.012C250.214 331.971 242.511 357.972 242.511 357.972" fill="white"/>
<path fill-rule="evenodd" clip-rule="evenodd" d="M262.729 242.575C262.729 242.575 274.407 223.911 274.99 219.282C275.607 214.378 275.053 208.045 275.053 208.045L267.167 203.35L265.172 215.024L256.662 241.732" fill="#E576C6"/>
<path fill-rule="evenodd" clip-rule="evenodd" d="M325.353 241.509C325.353 241.509 325.723 214.458 324.004 210.003C322.286 205.548 319.175 199.575 319.175 199.575L309.95 205.743L314.898 213.756L318.308 241.085" fill="#E576C6"/>
<path fill-rule="evenodd" clip-rule="evenodd" d="M283.297 178.957L281.917 218.388L288.322 218.291L287.769 179.104L287.991 178.942L287.76 178.957C287.76 178.957 291.386 175.198 292.794 173.784C291.868 173.848 290.954 173.917 290.055 173.965C287.607 174.091 285.52 174.175 283.694 174.314C283.466 174.623 282.957 175.468 283.017 176.822C283.069 177.925 283.15 178.461 283.21 178.719C283.252 178.9 283.285 178.945 283.294 178.954L283.297 178.957Z" fill="#CE3D29"/>
<path d="M299.048 195.246L304.908 204.125" stroke="#FF9929" stroke-width="3"/>
<path fill-rule="evenodd" clip-rule="evenodd" d="M286.68 180.091C291.947 179.596 294.294 175.19 295.151 173.506C293.874 173.492 292.628 173.59 291.41 173.687C290.844 173.732 290.284 173.776 289.73 173.809C289.15 173.842 288.593 173.873 288.057 173.902C285.348 174.051 283.179 174.171 281.343 174.501C281.197 175.028 280.105 180.705 286.68 180.091ZM265.971 244.665L259.719 242.029C260.679 240.904 261.422 240.05 261.422 240.05C261.422 240.05 264.821 240.477 265.467 241.998C265.806 242.795 265.955 243.707 265.971 244.665ZM255.512 247.247C255.705 246.868 256.681 245.651 257.785 244.323L265.7 247.507C265.054 250.942 263.484 254.129 263.484 254.129C263.484 254.129 265.108 253.138 265.432 254.005C265.575 254.391 265.902 257.472 259.815 257.68C259.169 257.702 257.614 256.387 257.614 256.387C257.614 256.387 258.747 258.552 257.012 258.977C257.012 258.977 254.215 254.786 254.172 253.854C254.129 252.921 255.027 248.201 255.512 247.247ZM316.172 244.975L317.022 242.257L326.34 242.996C326.981 244.748 327.724 246.878 328 248.044C328.216 248.956 327.959 252.143 327.443 253.891C327.152 254.881 326.507 255.799 326.507 255.799C326.507 255.799 325.732 257.618 325.431 257.777C324.578 258.225 324.201 257.35 324.201 257.35C324.201 257.35 323.626 259.977 323.041 259.72C322.679 259.561 322.149 259.07 322.136 258.416C322.052 254.254 321.237 249.905 319.807 249.155C318.888 248.673 318.556 250.309 318.244 251.841C318.071 252.695 317.904 253.517 317.646 253.922C316.946 255.017 314.192 255.798 314.888 253.883C315.84 251.259 315.864 250.157 315.899 248.513C315.9 248.435 315.902 248.357 315.904 248.276C315.944 246.496 316.172 244.975 316.172 244.975Z" fill="#E576C6"/>
<path opacity="0.146601" d="M262.241 245.671C262.241 245.671 261.386 248.898 258.455 249.903C257.43 250.255 257.686 254.405 255.174 253.908" stroke="black" stroke-width="3"/>
<path fill-rule="evenodd" clip-rule="evenodd" d="M293.127 218.537V176.436H279.479V218.537H293.127ZM269.846 246.3L256.353 240.61L255.329 243.335L269.054 248.856L269.846 246.3ZM311.557 238.955L326.778 240.274L326.731 243.027L311.557 241.824V238.955Z" fill="#FCBDA4"/>
<path fill-rule="evenodd" clip-rule="evenodd" d="M317.021 242.257L311.556 241.824V238.955L326.777 240.274L326.777 240.277L327.99 240.376C327.99 240.376 327.608 216.589 323.043 203.634C319.049 192.306 311.763 180.003 306.073 176.422C305.733 176.208 305.393 176.007 305.056 175.823L306.178 174.299L293.839 170.879C293.839 170.879 294.218 172.362 292.922 173.655C292.897 173.682 292.87 173.709 292.841 173.737C292.825 173.752 292.809 173.768 292.793 173.784C291.386 175.198 287.759 178.957 287.759 178.957L287.99 178.942L287.768 179.104L288.322 218.291L289.091 273.038L320.631 272.088L318.221 251.953C318.055 252.766 317.892 253.535 317.645 253.922C316.945 255.017 314.191 255.797 314.887 253.883C315.839 251.259 315.863 250.157 315.898 248.513L315.903 248.276C315.943 246.496 316.171 244.974 316.171 244.974L317.021 242.257ZM270.547 246.592L267.729 273.038H280.004L281.917 218.388L275.818 218.477L281.917 218.388L283.297 178.957L283.295 178.954C283.285 178.945 283.252 178.9 283.21 178.719C283.15 178.461 283.069 177.925 283.018 176.822C282.958 175.468 283.466 174.623 283.694 174.314C283.76 174.226 283.802 174.181 283.802 174.181L283.58 172.082L273.849 176.903L274.357 177.17L276.155 178.125L274.357 177.171C274.11 177.363 273.867 177.571 273.626 177.793C265.735 185.034 264.583 211.474 264.583 211.474L255.354 240.187L270.547 246.592ZM276.702 188.785L273.756 216.457L276.702 188.784L278.654 178.488L276.408 178.259L278.654 178.488L276.702 188.785Z" fill="#CE3D29"/>
<path fill-rule="evenodd" clip-rule="evenodd" d="M283.295 178.953L283.211 178.719C283.252 178.899 283.286 178.944 283.295 178.953" fill="#CE3D29"/>
<path opacity="0.20459" d="M306.18 174.298C306.18 174.298 302.117 179.506 297.476 180.431C293.086 181.307 287.76 178.956 287.76 178.956" stroke="black" stroke-width="3"/>
<path opacity="0.20459" d="M273.848 176.904C273.848 176.904 274.205 179.489 275.893 180.137C278.851 181.272 282.706 178.76 282.706 178.76" stroke="black" stroke-width="3"/>
<path opacity="0.201265" d="M270.539 246.647L273.969 197.486" stroke="black" stroke-width="3"/>
<path opacity="0.201265" fill-rule="evenodd" clip-rule="evenodd" d="M277.735 199.731C277.766 200.765 278.484 201.583 279.338 201.557C280.193 201.531 280.86 200.672 280.828 199.638C280.797 198.604 280.08 197.787 279.226 197.813C278.371 197.838 277.704 198.698 277.735 199.731" fill="black"/>
<path opacity="0.201265" fill-rule="evenodd" clip-rule="evenodd" d="M278.506 185.94C278.537 186.974 279.255 187.792 280.109 187.766C280.963 187.74 281.63 186.881 281.599 185.847C281.568 184.813 280.85 183.996 279.996 184.022C279.141 184.047 278.474 184.907 278.506 185.94" fill="black"/>
<path opacity="0.201265" fill-rule="evenodd" clip-rule="evenodd" d="M276.965 213.522C276.996 214.556 277.714 215.374 278.568 215.348C279.422 215.322 280.089 214.463 280.058 213.429C280.027 212.395 279.309 211.578 278.455 211.604C277.601 211.629 276.934 212.488 276.965 213.522" fill="black"/>
<path opacity="0.196568" d="M299.048 193.368L304.908 210.903L307.516 238.508L311.556 238.955" stroke="black" stroke-width="3"/>
<path opacity="0.201265" d="M307.09 234.001L324.48 235.532" stroke="black" stroke-width="3"/>
<path opacity="0.201265" d="M270.539 242.575L259.462 237.568" stroke="black" stroke-width="3"/>
<path fill-rule="evenodd" clip-rule="evenodd" d="M65.1816 130.262C65.1816 134.573 62.4095 138.068 58.99 138.068C55.5708 138.068 52.7988 134.573 52.7988 130.262C52.7988 125.951 55.5708 122.456 58.99 122.456C62.4095 122.456 65.1816 125.951 65.1816 130.262" fill="#19141E"/>
<path d="M50.5301 161.186L50.271 152.22C50.271 152.22 61.1414 153.087 63.4669 151.877C63.4669 151.877 66.309 137.201 62.9192 129.074L62.8505 128.757L39.911 126.068L38.6249 139.261C37.8522 136.977 31.4749 134.387 29.8079 137.658C26.1953 144.746 39.1124 149.518 39.1124 149.518L37.8007 161.293" fill="#E576C6"/>
<path opacity="0.398926" fill-rule="evenodd" clip-rule="evenodd" d="M50.2711 152.22L42.9409 150.645L50.2359 155.584L50.2711 152.22Z" fill="black"/>
<path fill-rule="evenodd" clip-rule="evenodd" d="M56.1306 139.094L58.6635 145.3L55.6279 145.339L56.1306 139.094Z" fill="#405FD3"/>
<path fill-rule="evenodd" clip-rule="evenodd" d="M53.4294 139.332C53.5804 140.168 53.0265 140.968 52.1927 141.119C51.3587 141.271 50.5604 140.715 50.4097 139.88C50.2587 139.044 50.8124 138.244 51.6464 138.093C52.4804 137.942 53.2785 138.497 53.4294 139.332" fill="#0D0B6D"/>
<path fill-rule="evenodd" clip-rule="evenodd" d="M61.9411 139.332C62.0921 140.168 61.5382 140.968 60.7044 141.119C59.8704 141.271 59.0721 140.715 58.9214 139.88C58.7704 139.044 59.3241 138.244 60.1581 138.093C60.9921 137.942 61.7902 138.497 61.9411 139.332" fill="#0D0B6D"/>
<path d="M40.3283 141.513C38.1533 137.782 35.0065 136.644 33.5939 136.311C33.0306 134.679 32.6011 132.786 32.2994 130.773C31.4902 125.386 35.3984 120.471 38.5553 119.059C41.7507 117.631 47.2606 115.652 55.3256 118.339C60.7477 120.146 64.2135 115.819 67.4041 117.667C72.8561 120.826 67.785 134.657 53.9603 131.143C44.0713 128.63 43.8171 129.26 43.7324 131.087C43.4582 136.993 42.5394 140.467 40.3283 141.513V141.513Z" fill="#2F2F3D"/>
<path fill-rule="evenodd" clip-rule="evenodd" d="M51.9137 145.569C51.9137 145.569 52.8883 147.344 54.9948 147.302Z" fill="white"/>
<path d="M51.9137 145.569C51.9137 145.569 52.8883 147.344 54.9948 147.302" stroke="#252535" stroke-width="4"/>
<path fill-rule="evenodd" clip-rule="evenodd" d="M55.395 139.407C55.395 141.35 53.8232 142.925 51.8843 142.925C49.9457 142.925 48.3738 141.35 48.3738 139.407C48.3738 137.464 49.9457 135.888 51.8843 135.888C53.8232 135.888 55.395 137.464 55.395 139.407Z" stroke="#252535"/>
<path fill-rule="evenodd" clip-rule="evenodd" d="M64.2345 139.407C64.2345 141.35 62.6627 142.925 60.7241 142.925C58.7852 142.925 57.2133 141.35 57.2133 139.407C57.2133 137.464 58.7852 135.888 60.7241 135.888C62.6627 135.888 64.2345 137.464 64.2345 139.407Z" stroke="#252535"/>
<path d="M56.9274 139.57H55.4095" stroke="#252535" stroke-width="4"/>
<path d="M48.3738 139.407H39.7017" stroke="#252535"/>
<path fill-rule="evenodd" clip-rule="evenodd" d="M59.5576 362.688L59.6428 355.335L50.1691 350.56L48.7942 371.58H81.6169C76.0321 365.285 59.5576 362.688 59.5576 362.688ZM17.5132 362.975L17.5987 354.716L11.4223 359.748L6.45222 362.518L4.81189 371.58H27.2767C24.4522 363.881 17.5132 362.975 17.5132 362.975Z" fill="#0D0B6D"/>
<path fill-rule="evenodd" clip-rule="evenodd" d="M17.5987 354.716L8.125 351.867L6.45193 362.518L17.5132 362.975L17.5987 354.716ZM59.6428 355.335L50.1691 352.487L49.4053 362.231L59.5576 362.688L59.6428 355.335Z" fill="#E576C6"/>
<path d="M61.0005 352.925L60.782 359.749H48.2856L48.5047 352.904C47.1047 352.342 46.1044 350.991 46.0703 349.394L44.0589 247.18L22.3242 350.373C22.018 351.825 20.9421 352.952 19.5758 353.368L18.7587 359.749H5.65604L6.7837 352.704C5.69262 351.858 5.06029 350.466 5.27781 348.979L25.2879 212.21L43.3707 212.209L43.3696 212.157H65.2712L63.9584 349.203C63.9402 351.005 62.6874 352.512 61.0005 352.925V352.925Z" fill="#2F2F3D"/>
<path opacity="0.197824" fill-rule="evenodd" clip-rule="evenodd" d="M43.9477 248.8L47.7824 231.788L44.8973 283.364L43.9477 248.8Z" fill="black"/>
<path d="M29.9664 212.338L32.0652 212.681L9.17689 352.058L7.07187 351.707L29.9664 212.338Z" fill="#EFEFEF"/>
<path fill-rule="evenodd" clip-rule="evenodd" d="M95.3541 165.328L95.2037 162.733C95.2037 162.733 95.2068 160.927 95.4413 158.978C95.5002 158.489 95.6294 157.978 95.7674 157.432L95.7675 157.432C96.1796 155.801 96.67 153.861 95.5977 151.283C94.1663 147.845 97.5885 150.219 98.3463 151.854C98.6391 152.486 98.7244 153.441 98.809 154.389V154.389C98.9068 155.485 99.0038 156.571 99.4199 157.134C100.075 156.778 100.512 156.315 100.512 156.315L107.888 146.802C108.126 146.482 108.565 146.386 108.917 146.574L109.314 146.79C109.732 147.017 109.864 147.549 109.596 147.938C109.085 148.684 108.191 149.944 107.258 151.261L107.257 151.261C105.563 153.65 103.736 156.226 103.813 156.267L104.009 156.503L112.673 147.42C112.943 147.119 113.397 147.065 113.731 147.295L114.252 147.654C114.63 147.914 114.712 148.434 114.429 148.793C113.505 149.979 111.218 152.548 109.314 154.686C107.667 156.536 106.306 158.064 106.364 158.096L106.622 158.344L114.688 151.262C114.973 150.945 115.46 150.909 115.791 151.175L116.185 151.495C116.531 151.773 116.582 152.279 116.299 152.619L108.682 159.741L108.902 160.084L115.515 155.465C115.818 155.196 116.275 155.196 116.582 155.462L116.766 155.627C117.09 155.914 117.126 156.407 116.844 156.739C116.394 157.269 115.503 157.964 114.441 158.794L114.441 158.794C113.218 159.748 111.769 160.879 110.505 162.138C109.808 162.832 109.246 163.512 108.677 164.2L108.677 164.2C107.748 165.326 106.798 166.475 105.209 167.747C104.26 168.509 103.402 168.952 102.585 169.374L102.585 169.374C102.469 169.434 102.355 169.493 102.241 169.552L95.3541 165.328ZM35.8983 159.374C35.8983 159.374 40.9947 159.365 44.6728 159.352C48.3507 159.34 52.9758 160.886 52.9758 160.886C52.9758 160.886 55.3825 166.29 47.0224 165.8C38.6623 165.31 35.8983 159.374 35.8983 159.374ZM8.0234 181.242C8.0234 181.242 -0.134911 193.482 0.0500336 200.289C0.268358 208.315 25.9336 228.036 25.9336 228.036L32.585 222.62L16.4277 200.106L22.3035 187.595L8.0234 181.242Z" fill="#E576C6"/>
<path d="M30.6523 212.807L34.6254 218.135L22.6581 228.56C22.6581 228.56 0.697235 212.473 0.0191043 199.86C-0.412734 191.827 6.61967 180.359 6.61967 180.359C6.61967 180.359 15.4465 166.26 25.65 161.501C27.744 160.525 32.8207 159.71 35.8983 159.374C36.8416 159.271 36.2776 159.639 36.6015 160.26C36.9398 160.91 37.9697 161.872 38.6822 162.592C40.1651 164.089 43.0876 165.223 44.6574 165.455C45.8537 165.632 48.1658 165.906 49.278 165.757C50.3901 165.608 51.5993 165.106 51.9225 164.808C52.2457 164.51 52.7264 164.137 52.9758 163.562C53.2251 162.988 53.2125 163.152 53.2125 162.622C53.2125 162.092 53.1851 162.171 53.1332 161.918C53.0812 161.666 53.0812 161.514 53.0507 161.384C52.9153 160.807 52.9758 160.886 52.9758 160.886C58.9991 162.704 62.0502 163.377 64.2445 166.022L81.0139 177.783L92.4877 162.82L107.292 172.755C107.292 172.755 94.1841 197.162 84.6843 199.86C77.0318 202.034 69.2795 195.274 66.5537 192.563L69.7922 208.993C70.3113 211.83 67.8258 212.904 65.6113 212.803L30.6523 212.807Z" fill="#72A065"/>
<path opacity="0.201242" fill-rule="evenodd" clip-rule="evenodd" d="M66.5029 192.572L64.4985 184.656L69.9103 195.475L66.5029 192.572Z" fill="black"/>
<path opacity="0.200591" d="M29.1661 210.899L19.8205 197.652L31.1094 180.543" stroke="black" stroke-width="5"/>
</svg>
