<svg width="304" height="332" viewBox="0 0 304 332" fill="none" xmlns="http://www.w3.org/2000/svg">
<path d="M109.022 211.587L98.0222 188.279" stroke="#CCE3FF" stroke-width="12"/>
<path d="M121.231 175.01L98.0223 188.279" stroke="#CCE3FF" stroke-width="12"/>
<path d="M120.961 175.296H130.428" stroke="#CCE3FF" stroke-width="12"/>
<path fill-rule="evenodd" clip-rule="evenodd" d="M101.944 213.707H122.585C122.585 211.83 121.063 210.308 119.186 210.308H105.344C103.466 210.308 101.944 211.83 101.944 213.707" fill="#DCEEFF"/>
<path fill-rule="evenodd" clip-rule="evenodd" d="M139.125 183.068C139.125 178.266 135.232 174.374 130.428 174.374C125.625 174.374 121.731 178.266 121.731 183.068" fill="#DCEEFF"/>
<path fill-rule="evenodd" clip-rule="evenodd" d="M78.0169 299.238H79.9663L91.9448 219.457H85.204L78.0169 299.238Z" fill="#B6D4FF"/>
<path fill-rule="evenodd" clip-rule="evenodd" d="M112.143 299.238H114.092L126.071 219.457H119.33L112.143 299.238Z" fill="#B6D4FF"/>
<path fill-rule="evenodd" clip-rule="evenodd" d="M159.959 189.282H189.1L182.263 211.818H153.121L159.959 189.282Z" fill="#DCEEFF"/>
<path fill-rule="evenodd" clip-rule="evenodd" d="M187.049 190.732L181.212 209.974H155.134L160.971 190.732H187.049Z" fill="white"/>
<path fill-rule="evenodd" clip-rule="evenodd" d="M182.289 196.654L182.011 197.574H160.605L160.883 196.654H182.289Z" fill="#B6D4FF"/>
<path fill-rule="evenodd" clip-rule="evenodd" d="M180.924 198.528L180.646 199.448H159.94L160.218 198.528H180.924Z" fill="#B6D4FF"/>
<path fill-rule="evenodd" clip-rule="evenodd" d="M174.437 200.403L174.159 201.323H159.293L159.571 200.403H174.437Z" fill="#B6D4FF"/>
<path fill-rule="evenodd" clip-rule="evenodd" d="M131.813 213.672H160.954V211.818H131.813V213.672Z" fill="#DCEEFF"/>
<path fill-rule="evenodd" clip-rule="evenodd" d="M160.954 213.672H182.252V211.818H160.954V213.672Z" fill="#ECF6FF"/>
<path fill-rule="evenodd" clip-rule="evenodd" d="M189.076 189.282H190.867L184.03 211.818H182.239L189.076 189.282Z" fill="#ECF6FF"/>
<path fill-rule="evenodd" clip-rule="evenodd" d="M70.1386 219.457H180.221V213.672H70.1386V219.457Z" fill="#B6D4FF"/>
<path fill-rule="evenodd" clip-rule="evenodd" d="M172.26 219.457H215.208V213.672H172.26V219.457Z" fill="#DCEEFF"/>
<path fill-rule="evenodd" clip-rule="evenodd" d="M209.758 299.238H211.707L204.52 219.457H197.779L209.758 299.238Z" fill="#DCEEFF"/>
<path fill-rule="evenodd" clip-rule="evenodd" d="M175.5 299.238H177.449L170.262 219.457H163.521L175.5 299.238Z" fill="#DCEEFF"/>
<path fill-rule="evenodd" clip-rule="evenodd" d="M183.358 193.019L183.08 193.939H161.674L161.952 193.019H183.358Z" fill="#B6D4FF"/>
<path fill-rule="evenodd" clip-rule="evenodd" d="M180.51 194.893L180.232 195.813H161.161L161.439 194.893H180.51Z" fill="#B6D4FF"/>
<path fill-rule="evenodd" clip-rule="evenodd" d="M176.055 190.49L172.413 190.931L172.121 190.473L172.313 190.055L172.036 189.723L175.438 189.282L175.952 189.589L175.522 190.019L176.055 190.49Z" fill="#B6D4FF"/>
<path fill-rule="evenodd" clip-rule="evenodd" d="M82.0306 242.246V242.644C82.0306 245.961 79.4564 248.648 76.2838 248.648H31.2675C24.3238 248.648 18.9802 241.988 19.9385 234.525L25.0207 192.942C25.4608 189.497 28.1727 186.935 31.3775 186.935H44.7194C47.922 186.935 50.6337 189.497 51.0764 192.942L56.1586 234.525C56.1975 234.822 56.225 235.119 56.2413 235.413L56.2686 235.408C56.2686 235.408 57.2087 242.246 65.947 242.246H82.0306Z" fill="#DCEEFF"/>
<path fill-rule="evenodd" clip-rule="evenodd" d="M34.1071 295.489C34.1071 297.61 32.387 299.329 30.2656 299.329C28.144 299.329 26.4243 297.61 26.4243 295.489C26.4243 293.368 28.144 291.648 30.2656 291.648C32.387 291.648 34.1071 293.368 34.1071 295.489" fill="#B6D4FF"/>
<path fill-rule="evenodd" clip-rule="evenodd" d="M69.1602 296.259H31.1977C29.7437 296.259 28.554 295.069 28.554 293.616C28.554 292.162 29.7437 290.973 31.1977 290.973H69.1602C70.6142 290.973 71.8039 292.162 71.8039 293.616C71.8039 295.069 70.6142 296.259 69.1602 296.259" fill="#CCE3FF"/>
<path fill-rule="evenodd" clip-rule="evenodd" d="M48.2311 295.002H52.127V248.488H48.2311V295.002Z" fill="#CCE3FF"/>
<path fill-rule="evenodd" clip-rule="evenodd" d="M63.528 248.488L50.1789 254.566L36.83 248.488H63.528Z" fill="#CCE3FF"/>
<path fill-rule="evenodd" clip-rule="evenodd" d="M50.4742 296.259H45.5482C44.094 296.259 42.9043 295.069 42.9043 293.616C42.9043 292.162 44.094 290.973 45.5482 290.973H50.4742C51.9282 290.973 53.1179 292.162 53.1179 293.616C53.1179 295.069 51.9282 296.259 50.4742 296.259" fill="#B6D4FF"/>
<path fill-rule="evenodd" clip-rule="evenodd" d="M47.2428 295.489C47.2428 297.61 45.5229 299.329 43.4015 299.329C41.2796 299.329 39.56 297.61 39.56 295.489C39.56 293.368 41.2796 291.648 43.4015 291.648C45.5229 291.648 47.2428 293.368 47.2428 295.489" fill="#B6D4FF"/>
<path fill-rule="evenodd" clip-rule="evenodd" d="M74.1879 295.489C74.1879 297.61 72.468 299.329 70.3464 299.329C68.2248 299.329 66.5051 297.61 66.5051 295.489C66.5051 293.368 68.2248 291.648 70.3464 291.648C72.468 291.648 74.1879 293.368 74.1879 295.489" fill="#B6D4FF"/>
<path fill-rule="evenodd" clip-rule="evenodd" d="M221.308 299.641H227.664V278.995H221.308V299.641Z" fill="#DCEEFF"/>
<path fill-rule="evenodd" clip-rule="evenodd" d="M274.257 299.641H280.613V278.995H274.257V299.641Z" fill="#DCEEFF"/>
<path fill-rule="evenodd" clip-rule="evenodd" d="M243.854 299.641H250.211V278.995H243.854V299.641Z" fill="#B6D4FF"/>
<path fill-rule="evenodd" clip-rule="evenodd" d="M296.803 299.641H303.16V278.995H296.803V299.641Z" fill="#B6D4FF"/>
<path fill-rule="evenodd" clip-rule="evenodd" d="M243.817 282.658H303.123V107.278H243.817V282.658Z" fill="#B6D4FF"/>
<path fill-rule="evenodd" clip-rule="evenodd" d="M221.427 282.658H280.733V107.278H221.427V282.658Z" fill="#DCEEFF"/>
<path fill-rule="evenodd" clip-rule="evenodd" d="M261.787 95.352C261.787 100.391 259.124 104.813 255.13 107.278H240.467C236.473 104.813 233.81 100.391 233.81 95.352C233.81 93.007 234.387 90.7993 235.404 88.8605H260.193C261.21 90.7993 261.787 93.007 261.787 95.352" fill="#DCEEFF"/>
<path fill-rule="evenodd" clip-rule="evenodd" d="M265.505 107.275H271.551V84.187H265.505V107.275Z" fill="#DCEEFF"/>
<path fill-rule="evenodd" clip-rule="evenodd" d="M259.46 107.275H265.505V84.187H259.46V107.275Z" fill="#CCE3FF"/>
<path fill-rule="evenodd" clip-rule="evenodd" d="M271.551 107.275H277.597V84.187H271.551V107.275Z" fill="#CCE3FF"/>
<path fill-rule="evenodd" clip-rule="evenodd" d="M293.837 107.275H277.597V84.187H293.837C294.516 84.187 295.066 84.7366 295.066 85.4151V106.047C295.066 106.725 294.516 107.275 293.837 107.275" fill="#B6D4FF"/>
<path fill-rule="evenodd" clip-rule="evenodd" d="M282.924 93.3634H289.738V91.0773H282.924V93.3634Z" fill="#CCE3FF"/>
<path fill-rule="evenodd" clip-rule="evenodd" d="M226.736 276.879H275.447V226.4H226.736V276.879Z" fill="#CCE3FF"/>
<path fill-rule="evenodd" clip-rule="evenodd" d="M226.736 276.879H243.541V226.4H226.736V276.879Z" fill="#B6D4FF"/>
<path fill-rule="evenodd" clip-rule="evenodd" d="M226.736 220.136H275.447V169.658H226.736V220.136Z" fill="#CCE3FF"/>
<path fill-rule="evenodd" clip-rule="evenodd" d="M226.736 220.136H243.541V169.658H226.736V220.136Z" fill="#B6D4FF"/>
<path fill-rule="evenodd" clip-rule="evenodd" d="M226.736 163.393H275.447V112.915H226.736V163.393Z" fill="#CCE3FF"/>
<path fill-rule="evenodd" clip-rule="evenodd" d="M226.736 163.393H243.541V112.915H226.736V163.393Z" fill="#B6D4FF"/>
<path fill-rule="evenodd" clip-rule="evenodd" d="M238.399 276.879H243.22V258.467H238.399V276.879Z" fill="#DCEEFF"/>
<path fill-rule="evenodd" clip-rule="evenodd" d="M233.578 276.879H238.399V258.467H233.578V276.879Z" fill="#CCE3FF"/>
<path fill-rule="evenodd" clip-rule="evenodd" d="M243.22 276.879H248.041V258.467H243.22V276.879Z" fill="#CCE3FF"/>
<path fill-rule="evenodd" clip-rule="evenodd" d="M260.744 276.879H248.041V258.467H260.744C261.422 258.467 261.972 259.017 261.972 259.695V275.65C261.972 276.329 261.422 276.879 260.744 276.879" fill="#B6D4FF"/>
<path fill-rule="evenodd" clip-rule="evenodd" d="M250.106 262.972H259.908V261.149H250.106V262.972Z" fill="#CCE3FF"/>
<path fill-rule="evenodd" clip-rule="evenodd" d="M252.29 265.785H257.724V263.962H252.29V265.785Z" fill="#CCE3FF"/>
<path fill-rule="evenodd" clip-rule="evenodd" d="M255.274 155.576C254.9 158.716 253.31 161.485 250.986 163.393H235.79C233.466 161.485 231.875 158.716 231.499 155.576H255.274Z" fill="#DCEEFF"/>
<path fill-rule="evenodd" clip-rule="evenodd" d="M255.274 149.05C254.567 154.984 249.514 159.588 243.387 159.588C237.26 159.588 232.207 154.984 231.5 149.05H255.274Z" fill="#DCEEFF"/>
<path fill-rule="evenodd" clip-rule="evenodd" d="M255.274 142.533C254.9 145.673 253.31 148.442 250.986 150.351H235.79C233.466 148.442 231.875 145.673 231.499 142.533H255.274Z" fill="#DCEEFF"/>
<path fill-rule="evenodd" clip-rule="evenodd" d="M255.274 136.007C254.567 141.942 249.514 146.546 243.387 146.546C237.26 146.546 232.207 141.942 231.5 136.007H255.274Z" fill="#DCEEFF"/>
<path fill-rule="evenodd" clip-rule="evenodd" d="M247.446 208.01C247.446 212.631 246.953 216.858 246.131 220.136H237.52C236.7 216.858 236.206 212.631 236.206 208.01" fill="#ECF6FF"/>
<path d="M247.02 210.041C248.972 210.426 250.243 212.321 249.857 214.273C249.472 216.225 247.576 217.495 245.624 217.11" stroke="#ECF6FF" stroke-width="8"/>
<path fill-rule="evenodd" clip-rule="evenodd" d="M264.695 208.01C264.695 212.631 264.202 216.858 263.381 220.136H254.769C253.949 216.858 253.455 212.631 253.455 208.01" fill="#ECF6FF"/>
<path d="M262.402 210.041C264.355 210.426 265.625 212.321 265.24 214.273C264.854 216.225 262.959 217.495 261.006 217.11" stroke="#ECF6FF" stroke-width="8"/>
<path fill-rule="evenodd" clip-rule="evenodd" d="M118.059 67.368H16.6784V63.1106H118.059V67.368Z" fill="#DCEEFF"/>
<path fill-rule="evenodd" clip-rule="evenodd" d="M16.6785 67.3679H4.80715e-05V63.1105H16.6785V67.3679Z" fill="#CCE3FF"/>
<path fill-rule="evenodd" clip-rule="evenodd" d="M93.3496 67.3678L85.4328 79.7852V67.3678H93.3496Z" fill="#B6D4FF"/>
<path fill-rule="evenodd" clip-rule="evenodd" d="M97.7309 67.3678L89.8141 79.7852H85.4328L93.3497 67.3678H97.7309Z" fill="#CCE3FF"/>
<path fill-rule="evenodd" clip-rule="evenodd" d="M35.2835 67.3678L27.3664 79.7852V67.3678H35.2835Z" fill="#B6D4FF"/>
<path fill-rule="evenodd" clip-rule="evenodd" d="M39.6647 67.3678L31.7476 79.7852H27.3663L35.2834 67.3678H39.6647Z" fill="#CCE3FF"/>
<path fill-rule="evenodd" clip-rule="evenodd" d="M154.666 36.5094H192.165V5H154.666V36.5094Z" fill="#DCEEFF"/>
<path fill-rule="evenodd" clip-rule="evenodd" d="M154.666 36.5094H192.165V5H154.666V36.5094Z" stroke="#DCEEFF" stroke-width="5"/>
<path fill-rule="evenodd" clip-rule="evenodd" d="M152.461 36.5528H189.96V5.0434H152.461V36.5528Z" fill="white"/>
<path fill-rule="evenodd" clip-rule="evenodd" d="M152.461 36.5528H189.96V5.0434H152.461V36.5528Z" stroke="#DCEEFF" stroke-width="5"/>
<path fill-rule="evenodd" clip-rule="evenodd" d="M158.848 30.0422H183.039V11.4676H158.848V30.0422Z" fill="#DCEEFF"/>
<path fill-rule="evenodd" clip-rule="evenodd" d="M161.822 66.8916H184.61V40.3275H161.822V66.8916Z" fill="#DCEEFF"/>
<path fill-rule="evenodd" clip-rule="evenodd" d="M161.822 66.8916H184.61V40.3275H161.822V66.8916Z" stroke="#DCEEFF" stroke-width="5"/>
<path fill-rule="evenodd" clip-rule="evenodd" d="M160.245 66.8919H183.458V40.3277H160.245V66.8919Z" fill="white"/>
<path fill-rule="evenodd" clip-rule="evenodd" d="M160.245 66.8919H183.458V40.3277H160.245V66.8919Z" stroke="#DCEEFF" stroke-width="5"/>
<path fill-rule="evenodd" clip-rule="evenodd" d="M165.739 59.9792H176.894V47.1913H165.739V59.9792Z" fill="#CCE3FF"/>
<path fill-rule="evenodd" clip-rule="evenodd" d="M198.363 53.6355H240.4V5.29968H198.363V53.6355Z" fill="#DCEEFF"/>
<path fill-rule="evenodd" clip-rule="evenodd" d="M198.363 53.6355H240.4V5.29968H198.363V53.6355Z" stroke="#DCEEFF" stroke-width="9"/>
<path fill-rule="evenodd" clip-rule="evenodd" d="M196.77 53.6357H238.808V5.29987H196.77V53.6357Z" fill="white"/>
<path fill-rule="evenodd" clip-rule="evenodd" d="M196.77 53.6357H238.808V5.29987H196.77V53.6357Z" stroke="#DCEEFF" stroke-width="9"/>
<path fill-rule="evenodd" clip-rule="evenodd" d="M205.639 43.5092H229.339V15.426H205.639V43.5092Z" fill="#CCE3FF"/>
<path d="M96.6504 107.786C96.7113 108.144 96.743 108.512 96.743 108.887C96.743 108.897 96.743 108.906 96.7429 108.916C99.9881 112.402 101.701 117.267 100.988 122.322C99.7336 131.212 91.4341 137.46 82.5443 136.206L66.9599 134.007C58.0701 132.753 51.8226 124.453 53.077 115.564C53.9605 109.3 58.3411 104.349 63.9614 102.408C62.4323 100.106 61.7042 97.2602 62.1183 94.3248C62.8774 88.9432 67.2426 84.914 72.4205 84.3397C71.9972 82.9446 71.8629 81.4401 72.079 79.908H72.0793C72.8766 74.256 78.1535 70.2837 83.8055 71.0813C85.2426 71.284 86.5711 71.7763 87.7403 72.4908C91.0103 70.6076 94.8886 69.5171 99.0475 69.5171C110.723 69.5171 120.187 78.1112 120.187 88.7126C120.187 99.314 110.723 107.908 99.0475 107.908C98.237 107.908 97.4371 107.867 96.6504 107.786V107.786Z" fill="#FCBDA4"/>
<path fill-rule="evenodd" clip-rule="evenodd" d="M102.269 111.699C102.269 111.699 98.3977 111.813 96.7475 110.912L102.063 114.249L102.269 111.699Z" fill="#CF3E83"/>
<path d="M92.8591 102.923C90.8391 101.159 87.5194 100.294 87.5149 97.2454C87.5131 96.1745 88.1394 94.3201 90.4509 94.3168C93.3808 94.3123 93.1495 97.6269 93.1147 97.9959L93.1112 98.0146L93.1128 98.0149C93.1118 98.0243 93.1112 98.0291 93.1112 98.0291C93.4442 98.1587 93.778 98.1696 94.1111 98.081C96.4865 98.1079 102.521 97.3876 105.886 89.8786C106.595 90.6243 107.393 91.2791 108.261 91.8311C110.763 93.4192 113.848 94.1561 117.004 93.7895C116.81 97.5818 115.697 107.208 110.897 110.401C108.923 111.714 105.33 111.875 102.269 111.699L101.567 120.394C101.567 120.394 92.2168 116.318 91.831 115.206C94.6541 114.491 96.743 111.933 96.743 108.887C96.743 106.225 95.1467 103.935 92.8591 102.923V102.923Z" fill="#ED4848"/>
<path fill-rule="evenodd" clip-rule="evenodd" d="M110.684 98.0226L112.9 103.394L110.329 103.342L110.684 98.0226Z" fill="#405FD3"/>
<path fill-rule="evenodd" clip-rule="evenodd" d="M108.326 98.2555C108.27 99.3285 107.639 100.164 106.916 100.123C106.193 100.081 105.651 99.1776 105.706 98.1046C105.762 97.0316 106.392 96.1957 107.116 96.2373C107.839 96.2789 108.381 97.1828 108.326 98.2555" fill="#0D0B6D"/>
<path fill-rule="evenodd" clip-rule="evenodd" d="M115.118 98.0841C115.062 99.1571 114.431 99.993 113.708 99.9514C112.985 99.9098 112.443 99.0062 112.498 97.9332C112.554 96.8603 113.184 96.0241 113.908 96.0657C114.631 96.1073 115.173 97.0111 115.118 98.0841" fill="#0D0B6D"/>
<path d="M109.699 105.914C109.699 105.914 108.024 106.455 106.346 104.589" stroke="#1C295E" stroke-width="3"/>
<path opacity="0.401762" fill-rule="evenodd" clip-rule="evenodd" d="M102.262 111.699C102.262 111.699 98.3911 111.813 96.7412 110.911L102.057 114.249L102.262 111.699Z" fill="black"/>
<path fill-rule="evenodd" clip-rule="evenodd" d="M128.098 182.191C128.098 182.191 124.714 182.616 124.07 184.131C122.228 188.463 126.045 196.207 126.045 196.207C126.045 196.207 124.428 195.221 124.106 196.084C123.963 196.468 123.638 199.536 129.698 199.742C130.341 199.764 131.889 198.456 131.889 198.456C131.889 198.456 130.76 200.61 132.488 201.034C132.488 201.034 135.272 196.862 135.315 195.933C135.358 195.005 134.464 190.305 133.981 189.356C133.498 188.407 128.098 182.191 128.098 182.191ZM70.7997 189.796L69.6009 182.343C67.9653 183.099 66.553 183.036 65.3773 182.984C64.1696 182.931 63.2114 182.889 62.5169 183.755C61.1317 185.483 59.5378 189.032 58.7079 191.135C58.3651 192.004 58.1645 195.18 58.4232 196.976C58.5699 197.992 59.0747 198.989 59.0747 198.989C59.0747 198.989 59.5782 200.892 59.853 201.091C60.6293 201.654 61.1251 200.846 61.1251 200.846C61.1251 200.846 61.3176 203.516 61.9311 203.346C62.3095 203.241 62.9023 202.833 63.0082 202.191C63.6836 198.101 65.1063 193.933 66.623 193.397C67.5968 193.053 67.6911 194.713 67.7794 196.267C67.8285 197.133 67.8759 197.967 68.0726 198.402C68.6058 199.581 71.208 200.742 70.7958 198.757C70.2313 196.037 70.365 194.947 70.5643 193.323C70.5737 193.246 70.5834 193.168 70.5931 193.088C70.8071 191.328 70.7997 189.796 70.7997 189.796Z" fill="#E576C6"/>
<path opacity="0.152414" d="M127.283 187.787C127.283 187.787 128.133 191 131.051 192C132.072 192.35 131.817 196.482 134.318 195.988" stroke="black" stroke-width="3"/>
<path d="M91.4799 117.955L92.338 111.73L105.418 113.533L104.705 118.706C108.544 119.077 111.158 119.826 113.604 122.072C121.46 129.284 122.038 156.282 122.038 156.282L130.34 184.649L123.508 185.505C123.508 185.505 112.071 170.35 109.544 162.201H86.1178C86.1178 162.201 86.3394 159.779 85.7885 156.279C85.064 151.702 82.4624 148.289 82.4624 148.289L77.7561 154.079L69.6009 182.963L62.1074 184.308C62.1074 184.308 59.859 160.695 64.4066 147.801C68.3824 136.523 75.6364 124.276 81.3008 120.707C84.8966 118.44 88.2744 117.943 91.4799 117.955V117.955Z" fill="#CE3D29"/>
<path opacity="0.195894" d="M111.869 162.516C112.83 150.318 119.477 147.739 114.687 134.059" stroke="black" stroke-width="3"/>
<path opacity="0.195894" d="M88.2955 139.448L82.4615 148.287" stroke="black" stroke-width="3"/>
<path fill-rule="evenodd" clip-rule="evenodd" d="M93.2318 322.599L85.9464 322.964C85.9464 322.964 80.4425 324.318 76.6404 331.796H94.0105L93.2318 322.599ZM146.486 331.882C141.331 326.536 127.619 322.941 127.619 322.941L122.48 322.783L121.809 331.926L146.486 331.882Z" fill="#0D0B6D"/>
<path fill-rule="evenodd" clip-rule="evenodd" d="M82.7224 327.772C86.9202 327.689 89.7941 325.427 91.2847 323.864L92.9957 324.178L98.9076 232.547L79.8438 241.379L87.0992 322.239C85.8856 323.054 78.9012 327.848 82.7224 327.772ZM139.838 327.445L130.009 323.18C129.445 319.435 127.059 303.142 124.858 281.253C122.884 261.615 121.165 243.64 121.165 243.64L104.767 244.406L122.699 323.996H124.646C127.766 325.587 133.815 328.105 139.838 327.445Z" fill="#E576C6"/>
<path d="M86.8366 159.332C86.8366 159.332 81.7552 161.761 77.3336 174.949C71.4157 192.6 69.682 246.064 69.682 246.064H126.664L111.98 159.715L86.8366 159.332Z" fill="#2F2F3D"/>
</svg>
