<svg width="375" height="397" viewBox="0 0 375 397" fill="none" xmlns="http://www.w3.org/2000/svg">
<path d="M217.03 42.7875V151.119" stroke="#B6D4FF" stroke-width="18"/>
<path d="M162.123 42.7875V151.119" stroke="#B6D4FF" stroke-width="18"/>
<path d="M267.691 42.7875V151.119" stroke="#B6D4FF" stroke-width="18"/>
<path fill-rule="evenodd" clip-rule="evenodd" d="M113.959 153.757H108.737V40.149H113.959V153.757Z" fill="#B6D4FF"/>
<path fill-rule="evenodd" clip-rule="evenodd" d="M272.273 153.757H111.655V40.149H272.273V153.757ZM267.379 148.866H116.548V45.0401H267.379V148.866Z" fill="#DCEEFF"/>
<path fill-rule="evenodd" clip-rule="evenodd" d="M276.965 158.991H120.514V153.757H276.965V158.991Z" fill="#CCE3FF"/>
<path fill-rule="evenodd" clip-rule="evenodd" d="M120.514 158.991H107.404V153.757H120.514V158.991Z" fill="#B6D4FF"/>
<path d="M219.417 41.6019V152.305" stroke="#DCEEFF" stroke-width="16"/>
<path d="M164.511 41.6019V152.305" stroke="#DCEEFF" stroke-width="16"/>
<path d="M269.545 96.9531H115.999" stroke="#DCEEFF" stroke-width="16"/>
<path fill-rule="evenodd" clip-rule="evenodd" d="M250.595 180.846C250.595 132.1 275.792 85.8599 275.792 85.8599H284.411V180.846H250.595Z" fill="#CCE3FF"/>
<path fill-rule="evenodd" clip-rule="evenodd" d="M250.595 28.2148C250.595 57.7979 275.792 85.86 275.792 85.86H284.411V28.2148H250.595Z" fill="#CCE3FF"/>
<path fill-rule="evenodd" clip-rule="evenodd" d="M272.119 90.0153L287.553 90.6848V82.4578L272.119 83.1273V90.0153Z" fill="#ECF6FF"/>
<path fill-rule="evenodd" clip-rule="evenodd" d="M132.876 180.846C132.876 132.1 108.678 85.8599 108.678 85.8599H100.4V180.846H132.876Z" fill="#CCE3FF"/>
<path fill-rule="evenodd" clip-rule="evenodd" d="M132.876 28.2148C132.876 57.7979 108.678 85.86 108.678 85.86H100.4V28.2148H132.876Z" fill="#CCE3FF"/>
<path fill-rule="evenodd" clip-rule="evenodd" d="M112.462 90.0153L98.0397 90.6848V82.4575L112.462 83.1272V90.0153Z" fill="#ECF6FF"/>
<path fill-rule="evenodd" clip-rule="evenodd" d="M298.614 32.5321H87.4481V28.2148H298.614V32.5321Z" fill="#CCE3FF"/>
<path fill-rule="evenodd" clip-rule="evenodd" d="M183.056 146.053C184.725 146.053 186.091 144.689 186.091 143.021V116.04C186.091 114.372 184.725 113.007 183.056 113.007C181.388 113.007 180.022 114.372 180.022 116.04V143.021C180.022 144.689 181.388 146.053 183.056 146.053Z" fill="#CCE3FF"/>
<path fill-rule="evenodd" clip-rule="evenodd" d="M190.857 127.881H183.916C183.018 127.881 182.282 127.147 182.282 126.249V126.167C182.282 125.27 183.018 124.535 183.916 124.535H190.857C191.755 124.535 192.489 125.27 192.489 126.167V126.249C192.489 127.147 191.755 127.881 190.857 127.881Z" fill="#CCE3FF"/>
<path fill-rule="evenodd" clip-rule="evenodd" d="M190.508 127.881H190.508C191.598 127.881 192.489 126.99 192.489 125.901V120.182C192.489 119.092 191.598 118.201 190.508 118.201H190.508C189.419 118.201 188.527 119.092 188.527 120.182V125.901C188.527 126.99 189.419 127.881 190.508 127.881Z" fill="#CCE3FF"/>
<path fill-rule="evenodd" clip-rule="evenodd" d="M174.779 136.82H181.288C182.186 136.82 182.92 136.085 182.92 135.188V134.204C182.92 133.306 182.186 132.572 181.288 132.572H174.779C173.88 132.572 173.146 133.306 173.146 134.204V135.188C173.146 136.085 173.88 136.82 174.779 136.82Z" fill="#CCE3FF"/>
<path fill-rule="evenodd" clip-rule="evenodd" d="M175.181 136.82H174.906C173.938 136.82 173.146 136.028 173.146 135.061V128.726C173.146 127.758 173.938 126.966 174.906 126.966H175.181C176.148 126.966 176.94 127.758 176.94 128.726V135.061C176.94 136.028 176.148 136.82 175.181 136.82Z" fill="#CCE3FF"/>
<path fill-rule="evenodd" clip-rule="evenodd" d="M191.032 140.299H173.979L175.78 153.729H189.232L191.032 140.299Z" fill="#B6D4FF"/>
<path fill-rule="evenodd" clip-rule="evenodd" d="M154.033 144.575C155.788 147.523 154.82 151.334 151.871 153.089C148.922 154.843 145.109 153.875 143.354 150.928C141.599 147.98 142.567 144.168 145.516 142.414C148.464 140.66 152.278 141.627 154.033 144.575Z" fill="#B6D4FF"/>
<path fill-rule="evenodd" clip-rule="evenodd" d="M151.944 139.408C151.247 141.454 149.013 142.544 149.013 142.544C149.013 142.544 147.91 140.318 148.607 138.272C149.305 136.226 151.539 135.135 151.539 135.135C151.539 135.135 152.642 137.362 151.944 139.408Z" fill="#B6D4FF"/>
<path fill-rule="evenodd" clip-rule="evenodd" d="M293.557 30.3734L298.614 35.4285L303.671 30.3734L298.614 25.3187L293.557 30.3734Z" fill="#CCE3FF"/>
<path fill-rule="evenodd" clip-rule="evenodd" d="M82.3911 30.8958L87.448 35.9508L92.5051 30.8958L87.448 25.8407L82.3911 30.8958Z" fill="#CCE3FF"/>
<path fill-rule="evenodd" clip-rule="evenodd" d="M50.6281 170.124H20.4995V125.167H50.6281V170.124Z" fill="#DCEEFF"/>
<path fill-rule="evenodd" clip-rule="evenodd" d="M50.6281 170.124H20.4995V125.167H50.6281V170.124Z" stroke="#DCEEFF" stroke-width="9"/>
<path fill-rule="evenodd" clip-rule="evenodd" d="M78.595 170.124H22.1302V125.167H78.595V170.124Z" fill="white"/>
<path fill-rule="evenodd" clip-rule="evenodd" d="M78.595 170.124H22.1302V125.167H78.595V170.124Z" stroke="#DCEEFF" stroke-width="9"/>
<path fill-rule="evenodd" clip-rule="evenodd" d="M73.3976 165.233H27.3275V130.058H73.3976V165.233Z" fill="white"/>
<path fill-rule="evenodd" clip-rule="evenodd" d="M73.3976 165.233H27.3275V130.058H73.3976V165.233Z" stroke="#DCEEFF" stroke-width="9"/>
<path fill-rule="evenodd" clip-rule="evenodd" d="M61.7433 156.735H38.7479V138.555H61.7433V156.735Z" fill="#B6D4FF"/>
<path fill-rule="evenodd" clip-rule="evenodd" d="M201.914 259.926C201.914 262.919 199.496 265.345 196.513 265.345H153.766V254.507H196.513C199.496 254.507 201.914 256.933 201.914 259.926Z" fill="#CCE3FF"/>
<path fill-rule="evenodd" clip-rule="evenodd" d="M172.769 259.926C172.769 261.658 171.369 263.063 169.642 263.063H153.831C153.794 263.063 153.765 263.034 153.765 262.998V256.853C153.765 256.818 153.794 256.789 153.831 256.789H169.642C171.369 256.789 172.769 258.193 172.769 259.926Z" fill="#DCEEFF"/>
<path fill-rule="evenodd" clip-rule="evenodd" d="M207.962 265.345V276.183H161.25C158.267 276.183 155.849 273.757 155.849 270.764C155.849 267.771 158.267 265.345 161.25 265.345H207.962Z" fill="#CCE3FF"/>
<path fill-rule="evenodd" clip-rule="evenodd" d="M207.962 267.657V273.871H188.85C187.14 273.871 185.754 272.48 185.754 270.764C185.754 269.048 187.14 267.657 188.85 267.657H207.962Z" fill="#DCEEFF"/>
<path d="M338.57 199.638V364.92" stroke="#CCE3FF" stroke-width="24"/>
<path d="M246.189 199.638V364.92" stroke="#CCE3FF" stroke-width="24"/>
<path fill-rule="evenodd" clip-rule="evenodd" d="M328.592 327.134H247.298V252.975C247.298 229.267 266.453 210.048 290.081 210.048C311.35 210.048 328.592 227.348 328.592 248.689V327.134Z" fill="#DCEEFF"/>
<path d="M236.862 199.638V364.92" stroke="#DCEEFF" stroke-width="24"/>
<path d="M329.385 199.638V364.92" stroke="#DCEEFF" stroke-width="24"/>
<path fill-rule="evenodd" clip-rule="evenodd" d="M318.214 278.389H227.643C222.385 278.389 218.122 274.112 218.122 268.836C218.122 263.56 222.385 259.283 227.643 259.283H318.214C323.472 259.283 327.735 263.56 327.735 268.836C327.735 274.112 323.472 278.389 318.214 278.389Z" fill="#ECF6FF"/>
<path fill-rule="evenodd" clip-rule="evenodd" d="M318.214 278.389H272.888C267.63 278.389 263.367 274.112 263.367 268.836C263.367 263.56 267.63 259.283 272.888 259.283H318.214C323.473 259.283 327.735 263.56 327.735 268.836C327.735 274.112 323.473 278.389 318.214 278.389Z" fill="#E3F1FF"/>
<path fill-rule="evenodd" clip-rule="evenodd" d="M137.276 327.134H230.329V276.184H137.276V327.134Z" fill="#B6D4FF"/>
<path d="M141.833 199.638V364.92" stroke="#CCE3FF" stroke-width="24"/>
<path d="M49.4518 199.638V364.92" stroke="#CCE3FF" stroke-width="24"/>
<path fill-rule="evenodd" clip-rule="evenodd" d="M131.855 327.134H50.5607V252.975C50.5607 229.267 69.7152 210.048 93.3437 210.048C114.613 210.048 131.855 227.348 131.855 248.689V327.134Z" fill="#DCEEFF"/>
<path fill-rule="evenodd" clip-rule="evenodd" d="M271.098 335.462H235.944C229.337 335.462 223.982 330.089 223.982 323.46V276.185H283.06V323.46C283.06 330.089 277.705 335.462 271.098 335.462Z" fill="#CCE3FF"/>
<path d="M40.1242 199.638V364.92" stroke="#DCEEFF" stroke-width="24"/>
<path d="M132.648 199.638V364.92" stroke="#DCEEFF" stroke-width="24"/>
<path fill-rule="evenodd" clip-rule="evenodd" d="M283.06 327.134H329.078V278.389H283.06V327.134Z" fill="#B6D4FF"/>
<path fill-rule="evenodd" clip-rule="evenodd" d="M188.238 242.198C190.657 246.276 189.323 251.549 185.259 253.976C181.194 256.403 175.939 255.065 173.52 250.987C171.101 246.909 172.435 241.636 176.499 239.208C180.564 236.782 185.819 238.12 188.238 242.198Z" fill="#CCE3FF"/>
<path fill-rule="evenodd" clip-rule="evenodd" d="M180.721 235.176C179.76 238.007 176.681 239.515 176.681 239.515C176.681 239.515 175.161 236.434 176.122 233.604C177.084 230.773 180.162 229.265 180.162 229.265C180.162 229.265 181.682 232.346 180.721 235.176Z" fill="#CCE3FF"/>
<path d="M141.501 188.699L153.561 196.494L174.247 201.624L182.902 215.363C177.829 217.924 172.692 221.426 164.766 220.239C157.062 219.085 144.875 208.838 135.36 198.65C124.59 187.117 115.43 163.349 115.248 162.875C113.171 161.309 110.379 157.928 108.832 155.871C108.178 155 106.965 151.489 106.698 149.388C106.546 148.198 106.802 146.92 106.802 146.92C106.802 146.92 106.775 144.622 107.022 144.312C107.717 143.435 108.524 144.191 108.524 144.191C108.524 144.191 108.05 141.446 108.791 141.446C109.248 141.446 109.899 141.401 110.218 142.09C112.247 146.481 115.138 150.727 117.005 150.857C118.872 150.987 116.836 146.313 117.075 144.774C117.306 143.281 119.863 141.162 120.018 143.525C120.241 146.916 120.066 146.454 120.853 148.367C121.639 150.28 122.808 153.606 122.808 153.606L123.781 162.366C123.745 162.36 123.709 162.354 123.673 162.349L141.501 188.699Z" fill="#E576C6"/>
<path d="M239.996 196.132L226.558 201.168L205.257 201.757L193.882 213.329C198.295 216.916 202.57 221.437 210.565 221.972C218.338 222.492 232.422 215.086 243.882 207.167C256.854 198.203 270.853 176.94 271.132 176.516C273.494 175.43 276.94 172.724 278.888 171.045C279.712 170.334 281.643 167.163 282.351 165.168C282.752 164.038 282.773 162.734 282.773 162.734C282.773 162.734 283.287 160.494 283.112 160.138C282.619 159.134 281.67 159.699 281.67 159.699C281.67 159.699 282.716 157.119 281.992 156.96C281.546 156.862 280.919 156.679 280.461 157.284C277.547 161.14 273.82 164.671 271.968 164.398C270.116 164.126 273.098 159.995 273.192 158.44C273.283 156.932 271.235 154.315 270.581 156.59C269.644 159.855 269.913 159.442 268.738 161.143C267.563 162.843 265.714 165.843 265.714 165.843L262.903 174.194C262.939 174.196 262.976 174.198 263.012 174.2L239.996 196.132Z" fill="#E576C6"/>
<path d="M178.432 250.372L208.679 250.82L210.421 228.186V203.517C206.038 199.48 201.189 199.585 191.385 199.067C185.713 198.77 179.606 197.637 172.826 201.923C172.826 201.923 170.642 208.818 170.33 213.391C169.935 219.196 172.088 228.186 172.088 228.186C172.088 228.186 177.209 238.113 178.049 243.458C178.693 247.544 178.432 250.372 178.432 250.372Z" fill="#E576C6"/>
<path opacity="0.152762" d="M224.943 278.15C224.943 278.15 225.932 281.9 229.328 283.069C230.515 283.478 230.219 288.301 233.129 287.725" stroke="black" stroke-width="3"/>
<path d="M185.432 198.737L186.477 198.768C186.477 198.769 186.477 198.769 186.477 198.783C186.475 198.872 186.477 198.978 186.485 199.073C186.489 199.118 186.494 199.156 186.499 199.185C186.626 199.857 187.23 204.678 188.326 213.752L187.288 213.878C186.202 204.881 185.592 200.015 185.473 199.381C185.46 199.313 185.451 199.24 185.444 199.161C185.432 199.025 185.43 198.887 185.432 198.766C185.432 198.744 185.432 198.744 185.432 198.737Z" fill="#2B2B38"/>
<path d="M204.99 205.605C206.617 207.738 208.076 210.021 209.345 212.304C209.79 213.103 210.179 213.845 210.51 214.512C210.627 214.746 210.728 214.954 210.813 215.134C210.864 215.243 210.899 215.319 210.918 215.359L209.979 215.806C209.963 215.771 209.93 215.701 209.881 215.597C209.799 215.424 209.701 215.222 209.588 214.994C209.264 214.342 208.882 213.614 208.446 212.83C207.2 210.589 205.768 208.348 204.174 206.259C202.418 203.957 200.57 201.983 198.649 200.437L197.331 199.376L199.003 199.49C199.227 199.505 199.384 199.618 199.53 199.799C201.435 201.371 203.258 203.336 204.99 205.605Z" fill="#2B2B38"/>
<path opacity="0.148693" d="M172.088 228.186L176.336 221.486" stroke="black" stroke-width="3"/>
<path d="M208.483 250.817L178.432 250.373C178.432 250.373 178.734 247.538 178.049 243.459C177.311 239.07 173.993 232.623 173.44 230.944C173.44 230.944 173.951 232.578 175.835 230.396C178.534 227.272 187.807 212.767 187.807 212.767C187.807 212.767 196.559 221.642 203.582 221.37C208.423 221.182 210.156 213.662 210.156 213.662C217.915 230.581 209.352 228.478 208.483 250.817Z" fill="#FCBDA4"/>
<path d="M222.478 342.24L222.373 353.165C222.373 353.165 230.948 354.365 234.438 364.549H206.677L209.453 352.561L210.539 341.633L222.478 342.24Z" fill="#0D0B6D"/>
<path d="M262.423 344.15L262.323 353.336C262.323 353.336 281.548 356.58 288.065 364.443H249.763L251.368 338.185L262.423 344.15Z" fill="#0D0B6D"/>
<path d="M251.368 340.592L262.423 344.15L262.323 353.336L250.476 352.766L251.368 340.592Z" fill="#E576C6"/>
<path d="M210.771 338.471L222.478 342.24L222.373 353.166L209.453 352.562L210.771 338.471Z" fill="#E576C6"/>
<path d="M252.502 247.648H199.595V275.681H246.395L245.452 348.14H265.933L275.607 273.817C277.339 259.92 266.504 247.648 252.502 247.648Z" fill="#1C1818"/>
<path d="M177.298 247.73H221.26C230.342 247.73 237.442 255.493 236.551 264.45L227.894 348.222H207.756L211.164 275.763H196.883C186.067 275.763 177.298 267.074 177.298 256.356V247.73Z" fill="#3D2F2F"/>
<path d="M178.014 160.747C164.877 162.586 170.381 177.767 174.073 185.964C178.407 195.585 174.611 202.036 174.611 202.036L154.305 194.802C161.757 185.293 153.527 179.996 155.553 168.658C157.37 158.486 167.236 153.897 173.469 154.114C176.581 154.222 179.127 155.026 181.143 156.057C181.22 156.096 181.293 156.138 181.363 156.182C185.045 152.388 190.142 150.12 196.033 150.12C208.149 150.12 219.034 159.711 219.034 172.446C219.034 185.181 209.213 195.504 197.097 195.504C184.982 195.504 175.161 185.181 175.161 172.446C175.161 168.093 176.184 164.108 178.014 160.747Z" fill="#19141E"/>
<path fill-rule="evenodd" clip-rule="evenodd" d="M199.24 196.113C199.24 196.113 194.735 196.246 192.815 195.194L199.001 199.091L199.24 196.113Z" fill="#CF3E83"/>
<path d="M216.034 179.077C215.359 184.321 213.607 191.711 209.28 194.598C206.984 196.129 202.803 196.318 199.239 196.112L198.424 206.266L186.795 201.463C186.795 201.463 187.913 190.256 188.398 185.96C186.06 183.835 182.078 182.849 182.071 179.238C182.071 177.987 182.799 175.823 185.489 175.816C189.098 175.813 188.582 180.154 188.582 180.154C189.029 180.328 189.478 180.318 189.925 180.158C193.499 180.009 203.439 178.508 210.198 166.92C210.987 170.821 212.626 175.682 216.034 179.077Z" fill="#E576C6"/>
<path fill-rule="evenodd" clip-rule="evenodd" d="M209.033 180.145L211.611 186.416L208.62 186.356L209.033 180.145Z" fill="#405FD3"/>
<path fill-rule="evenodd" clip-rule="evenodd" d="M206.288 180.418C206.224 181.67 205.49 182.646 204.648 182.598C203.807 182.549 203.176 181.494 203.24 180.241C203.305 178.989 204.039 178.013 204.881 178.061C205.722 178.11 206.353 179.165 206.288 180.418Z" fill="#0D0B6D"/>
<path fill-rule="evenodd" clip-rule="evenodd" d="M214.192 180.217C214.128 181.469 213.394 182.445 212.552 182.397C211.71 182.348 211.08 181.293 211.144 180.04C211.209 178.788 211.943 177.811 212.784 177.86C213.626 177.908 214.256 178.964 214.192 180.217Z" fill="#0D0B6D"/>
<path d="M207.887 189.36C207.887 189.36 205.938 189.991 203.985 187.813" stroke="#1C295E" stroke-width="3"/>
<path opacity="0.402786" fill-rule="evenodd" clip-rule="evenodd" d="M199.233 196.113C199.233 196.113 194.728 196.247 192.808 195.194L198.993 199.091L199.233 196.113Z" fill="black"/>
<path d="M177.98 165.39C177.98 165.39 173.788 150.3 185.851 141.972C200.782 131.665 218.064 158.746 218.064 158.746" fill="#CE3D29"/>
<path fill-rule="evenodd" clip-rule="evenodd" d="M188.747 138.415C189.417 141.823 187.206 145.131 183.81 145.803C180.413 146.475 177.117 144.257 176.447 140.849C175.777 137.441 177.988 134.133 181.384 133.462C184.781 132.79 188.077 135.007 188.747 138.415ZM174.905 167.126C174.626 165.554 175.646 164.046 177.204 163.725L216.871 155.547C218.365 155.239 219.846 156.132 220.277 157.601L222.522 165.257C223.019 166.952 221.926 168.702 220.189 168.993L179.398 175.823C177.812 176.089 176.308 175.024 176.026 173.435L174.905 167.126ZM184.192 149.207L177.282 158.729L194.703 154.578L194.746 154.601L194.772 154.562L211.646 150.542L200.815 145.478L194.772 154.562L194.703 154.578L184.192 149.207Z" fill="#2437A8"/>
</svg>
