<svg width="371" height="307" viewBox="0 0 371 307" fill="none" xmlns="http://www.w3.org/2000/svg">
<path fill-rule="evenodd" clip-rule="evenodd" d="M271.347 171.75C269.76 167.005 261.06 167.809 261.059 154.577C261.057 134.655 288.537 136.929 290.157 121.918C291.778 106.908 274.119 107.266 273.573 94.6055C273.026 81.9445 286.453 55.82 306.825 55.82C322.889 55.82 309.584 75.9777 322.548 84.9921C335.513 94.0065 350.319 82.4581 357.647 96.6332C367.741 116.159 341.93 139.609 344.477 154.577C347.023 169.546 362.154 166.007 362.618 182.454C363.08 198.901 341.1 201.795 343.171 215.898C344.477 224.788 358.387 221.82 359.116 239.35C359.734 254.192 311.941 272.557 276.039 242.355C240.137 212.152 277.406 189.861 271.347 171.75" fill="#72A065"/>
<path d="M310.917 135.8V281.665" stroke="#80450F" stroke-width="8" stroke-linecap="square"/>
<path d="M311.669 234.563L330.442 215.819" stroke="#80450F" stroke-width="8" stroke-linecap="square"/>
<path d="M311.92 181.173L321.464 171.645" stroke="#80450F" stroke-width="8" stroke-linecap="square"/>
<path d="M309.914 202.386L294.944 187.44" stroke="#80450F" stroke-width="8" stroke-linecap="square"/>
<path d="M310.259 156.24L302.986 148.978" stroke="#80450F" stroke-width="8" stroke-linecap="square"/>
<path d="M121.367 177.063L120.594 149.524C120.594 149.524 153.035 152.189 159.975 148.47C159.975 148.47 168.456 103.393 158.341 78.4309L158.136 77.4589L89.677 69.1979L85.418 109.23C83.112 102.215 64.5022 94.7483 59.5267 104.796C48.7456 126.567 87.2938 141.226 87.2938 141.226L83.3803 177.394" fill="#A15611"/>
<path opacity="0.400274" fill-rule="evenodd" clip-rule="evenodd" d="M120.594 149.524L98.7199 144.686L120.489 159.856L120.594 149.524Z" fill="black"/>
<path fill-rule="evenodd" clip-rule="evenodd" d="M138.639 104.523L146.198 123.586L137.139 123.705L138.639 104.523Z" fill="#19141E"/>
<path fill-rule="evenodd" clip-rule="evenodd" d="M130.02 109.94C130.471 112.507 128.818 114.964 126.329 115.428C123.841 115.893 121.458 114.188 121.008 111.622C120.558 109.054 122.21 106.597 124.699 106.132C127.188 105.669 129.57 107.373 130.02 109.94" fill="#19141E"/>
<path fill-rule="evenodd" clip-rule="evenodd" d="M153.795 109.94C154.246 112.507 152.593 114.964 150.104 115.428C147.616 115.893 145.233 114.188 144.783 111.622C144.333 109.054 145.985 106.597 148.474 106.132C150.963 105.669 153.345 107.373 153.795 109.94" fill="#19141E"/>
<path fill-rule="evenodd" clip-rule="evenodd" d="M129.24 129.103C129.24 129.103 132.406 134.399 138.678 133.95Z" fill="white"/>
<path d="M129.24 129.103C129.24 129.103 132.406 134.399 138.678 133.95" stroke="#252535" stroke-width="4"/>
<path fill-rule="evenodd" clip-rule="evenodd" d="M85.8315 109.657C80.7196 104.19 75.1561 101.873 71.7814 100.911L72.4252 87.1142L104.583 81.3298C102.367 96.7219 93.7595 105.12 85.8315 109.657V109.657Z" fill="#EACB47"/>
<path fill-rule="evenodd" clip-rule="evenodd" d="M160.239 83.8134C157.341 80.9703 138.458 80.0897 115.76 81.8929C110.48 82.3122 105.418 82.8406 100.738 83.4528C85.2652 85.4573 73.8808 88.3088 72.0277 90.8164C69.9722 59.4833 88.5754 40.8226 112.932 39.0865C128.912 37.9459 143.403 44.3786 152.077 57.7807C156.516 64.6495 159.437 73.3551 160.239 83.8134" fill="#393954"/>
<path fill-rule="evenodd" clip-rule="evenodd" d="M160.605 84.4339H160.596C160.566 84.2159 160.441 84.0062 160.239 83.8133C157.342 80.9702 138.459 80.0896 115.76 81.8927C110.479 82.3121 105.418 82.8404 100.738 83.4527C107.396 76.9277 119.575 66.6119 133.942 61.9824C140.086 60.0031 146.316 58.5606 152.077 57.7806C166.063 55.8684 177.284 57.8309 177.845 65.3204C178.569 75.0659 163.019 83.2262 160.605 84.4339" fill="#161629"/>
<path fill-rule="evenodd" clip-rule="evenodd" d="M82.1662 163.465C84.0379 166.841 92.2458 179.324 111.7 180.505C130.49 181.636 129.096 171.365 128.116 167.931C127.677 167.807 127.237 167.681 126.793 167.554C122.661 166.373 118.264 165.116 112.241 164.472C95.7996 162.714 94.5097 162.585 82.1662 163.465ZM231.098 217.919C222.156 236.046 190.765 295.554 168.386 286.062C151.631 278.955 131.572 220.036 131.572 220.036L164.178 200.002L178.829 240.492L208.744 206.938C207.729 200.29 206.915 191.598 208.94 188.534C212.388 183.319 229.831 167.251 229.831 167.251L233.007 194.475L233.562 192.18C233.561 192.053 233.591 191.914 233.654 191.765C233.66 191.75 233.666 191.736 233.673 191.722L234.957 186.409C234.418 186.128 234.197 185.728 234.43 185.174C234.619 184.724 235.032 184.231 235.608 183.713L239.993 165.576C239.993 165.576 241.431 166.236 243.541 167.226C246.934 166.504 259.22 175.127 259.406 175.258L259.409 175.26C261.911 176.928 255.96 204.5 251.127 209.622C247.689 213.266 236.989 216.408 231.098 217.919ZM31.3452 340.868L33.3425 344.782C33.3425 344.782 35.1502 347.98 37.0429 353.563C37.7423 355.626 38.0757 357.393 38.425 359.245C39.0205 362.401 39.6621 365.801 42.2423 371.328C46.8892 381.281 38.5775 377.177 35.5974 372.832C34.6181 371.405 34.0978 369.766 33.5987 368.193C32.9122 366.03 32.2657 363.993 30.5195 362.804C30.4322 362.948 30.3351 363.097 30.2298 363.259C29.1175 364.97 27.0885 368.09 25.9116 381.209C25.6807 383.785 26.8118 392.139 26.8118 392.139C26.8136 392.326 26.817 392.527 26.8206 392.74C26.8654 395.395 26.9418 399.922 24.3867 400.659C23.7029 400.857 22.8124 400.076 22.8124 400.076C22.8124 400.076 23.0798 403.343 20.2593 403.993C19.15 404.249 16.9469 397.196 16.9469 397.196C16.9469 397.196 16.6115 400.777 14.5048 401.176C13.9093 401.288 6.87787 380.853 6.87787 380.853L7.30082 385.469L8.23424 390.196C8.23424 390.196 8.15888 392.741 6.17942 393.19C5.39348 393.369 3.88478 389.126 2.47088 384.132C0.271841 376.363 0.316405 370.525 0.963801 364.72C1.12057 363.312 1.23188 362.091 1.33411 360.97L1.33412 360.97C1.74121 356.507 2.0044 353.621 4.42198 346.744C4.78369 345.715 5.26918 344.534 5.81139 343.319C4.15182 328.529 -0.524788 285.235 0.0483724 271.944C0.742763 255.823 17.2866 220.036 17.2866 220.036L50.8742 239.422L32.3614 274.247L31.3452 340.868Z" fill="#A15611"/>
<path fill-rule="evenodd" clip-rule="evenodd" d="M49.861 311.07H157.617L161.565 242.401L180.478 231.021L167.227 199.57L167.111 199.593C166.559 198.45 165.953 197.263 165.29 196.031C157.067 180.738 143 172.114 128.116 167.931C127.876 167.863 127.778 167.815 127.767 167.83C127.737 167.87 128.254 168.318 128.402 169.888C128.608 172.08 127.938 175.056 127.232 175.961C125.569 178.094 123.055 179.304 122.044 179.589C121.033 179.874 120.231 180.04 119.337 180.223C118.71 180.352 115.145 180.624 114.529 180.591C109.455 180.318 106.968 180.076 103.773 179.292C102.642 179.015 101.472 178.699 100.084 178.096C99.8237 177.983 99.5388 177.862 99.2333 177.732C97.7337 177.096 95.7363 176.249 93.7078 175.079C91.563 173.841 89.377 172.209 87.7945 170.542C87.6416 170.381 87.4928 170.225 87.3481 170.072C85.6864 168.325 84.5528 167.133 83.7676 165.937C83.2362 165.128 83.0356 164.859 82.9179 164.701C82.8465 164.605 82.8056 164.55 82.7399 164.441C82.5657 164.15 82.4157 163.894 82.3728 163.722C82.3266 163.537 82.4921 163.458 82.4856 163.44C82.4815 163.428 82.4079 163.44 82.1662 163.465C74.5822 164.238 66.4308 166.259 57.5423 170.542C30.0502 183.782 13.9828 217.046 13.9828 217.046L48.0542 243.351L49.861 311.07Z" fill="#1C1C5E"/>
<path opacity="0.200521" d="M48.0526 243.347L56.6956 249.385L77.4714 224.48" stroke="black" stroke-width="5"/>
<path fill-rule="evenodd" clip-rule="evenodd" d="M219.485 206.926H215.451L226.951 146.392H230.984L219.485 206.926Z" fill="#020101"/>
<path fill-rule="evenodd" clip-rule="evenodd" d="M235.183 153.421C234.846 155.189 233.847 156.477 232.951 156.297C232.057 156.117 231.604 154.538 231.941 152.77C232.278 151.001 233.277 149.714 234.172 149.893C235.068 150.074 235.52 151.653 235.183 153.421" fill="#020101"/>
</svg>
