<svg width="358" height="234" viewBox="0 0 358 234" fill="none" xmlns="http://www.w3.org/2000/svg">
<path fill-rule="evenodd" clip-rule="evenodd" d="M205.165 26.0856H222.278L224.589 3.00006H207.476L205.165 26.0856Z" fill="#DCEEFF"/>
<path fill-rule="evenodd" clip-rule="evenodd" d="M205.165 26.0856H222.278L224.589 3.00006H207.476L205.165 26.0856Z" stroke="#DCEEFF" stroke-width="5"/>
<path fill-rule="evenodd" clip-rule="evenodd" d="M204.241 26.0856H221.673L223.984 3.00006H206.552L204.241 26.0856Z" fill="white"/>
<path fill-rule="evenodd" clip-rule="evenodd" d="M204.241 26.0856H221.673L223.984 3.00006H206.552L204.241 26.0856Z" stroke="#DCEEFF" stroke-width="5"/>
<path fill-rule="evenodd" clip-rule="evenodd" d="M207.58 23.0375H218.944L220.645 6.04828H209.281L207.58 23.0375Z" fill="#DCEEFF"/>
<path fill-rule="evenodd" clip-rule="evenodd" d="M250.361 9.86609L248.759 25.8605H227.731L229.332 9.86609H250.361Z" fill="#DCEEFF"/>
<path fill-rule="evenodd" clip-rule="evenodd" d="M250.361 9.86609L248.759 25.8605H227.731L229.332 9.86609H250.361Z" stroke="#DCEEFF" stroke-width="5"/>
<path fill-rule="evenodd" clip-rule="evenodd" d="M249.89 9.86609L248.289 25.8605H226.869L228.471 9.86609H249.89Z" fill="white"/>
<path fill-rule="evenodd" clip-rule="evenodd" d="M249.89 9.86609L248.289 25.8605H226.869L228.471 9.86609H249.89Z" stroke="#DCEEFF" stroke-width="5"/>
<path fill-rule="evenodd" clip-rule="evenodd" d="M245.374 13.0038L244.401 22.7228H231.385L232.359 13.0038H245.374Z" fill="#CCE3FF"/>
<path fill-rule="evenodd" clip-rule="evenodd" d="M179.275 19.8824V19.8824C179.275 21.1067 180.267 22.0994 181.492 22.0994H201.439V17.6652H181.492C180.267 17.6652 179.275 18.6579 179.275 19.8824" fill="#CCE3FF"/>
<path fill-rule="evenodd" clip-rule="evenodd" d="M192.691 19.8824V19.8824C192.691 20.5911 193.265 21.1658 193.974 21.1658H201.385C201.415 21.1658 201.439 21.142 201.439 21.1126V18.6521C201.439 18.6226 201.415 18.5989 201.385 18.5989H193.974C193.265 18.5989 192.691 19.1735 192.691 19.8824" fill="#DCEEFF"/>
<path fill-rule="evenodd" clip-rule="evenodd" d="M176.49 22.0994V26.5335H198.263C199.487 26.5335 200.48 25.5408 200.48 24.3165C200.48 23.092 199.487 22.0994 198.263 22.0994H176.49Z" fill="#CCE3FF"/>
<path fill-rule="evenodd" clip-rule="evenodd" d="M176.49 23.0453V25.5876H185.442C186.144 25.5876 186.714 25.0185 186.714 24.3165C186.714 23.6143 186.144 23.0453 185.442 23.0453H176.49Z" fill="#DCEEFF"/>
<path fill-rule="evenodd" clip-rule="evenodd" d="M169.422 29.4792H244.476V26.3263H169.422V29.4792Z" fill="#DCEEFF"/>
<path fill-rule="evenodd" clip-rule="evenodd" d="M244.476 29.4792H256.824V26.3263H244.476V29.4792Z" fill="#CCE3FF"/>
<path fill-rule="evenodd" clip-rule="evenodd" d="M187.715 29.4792L193.576 38.6745V29.4792H187.715Z" fill="#B6D4FF"/>
<path fill-rule="evenodd" clip-rule="evenodd" d="M184.471 29.4792L190.333 38.6745H193.576L187.715 29.4792H184.471Z" fill="#CCE3FF"/>
<path fill-rule="evenodd" clip-rule="evenodd" d="M230.703 29.4792L236.564 38.6745V29.4792H230.703Z" fill="#B6D4FF"/>
<path fill-rule="evenodd" clip-rule="evenodd" d="M227.459 29.4792L233.32 38.6745H236.564L230.703 29.4792H227.459Z" fill="#CCE3FF"/>
<path fill-rule="evenodd" clip-rule="evenodd" d="M213.41 51.2844C212.793 56.4633 208.385 60.4812 203.039 60.4812C197.693 60.4812 193.285 56.4633 192.668 51.2844H213.41Z" fill="#ECF6FF"/>
<path fill-rule="evenodd" clip-rule="evenodd" d="M173.257 44.9897C172.64 50.1686 168.232 54.1865 162.886 54.1865C157.541 54.1865 153.133 50.1686 152.516 44.9897H173.257Z" fill="#ECF6FF"/>
<path fill-rule="evenodd" clip-rule="evenodd" d="M173.257 51.2844C172.64 56.4633 168.232 60.4812 162.886 60.4812C157.541 60.4812 153.133 56.4633 152.516 51.2844H173.257Z" fill="#ECF6FF"/>
<path fill-rule="evenodd" clip-rule="evenodd" d="M179.765 52.743H188.233L185.953 60.2435H182.046L179.765 52.743Z" fill="#DCEEFF"/>
<path fill-rule="evenodd" clip-rule="evenodd" d="M138.727 52.743H147.195L144.915 60.2435H141.007L138.727 52.743Z" fill="#DCEEFF"/>
<path fill-rule="evenodd" clip-rule="evenodd" d="M179.765 47.8451H188.233L185.953 55.3458H182.046L179.765 47.8451Z" fill="#DCEEFF"/>
<path fill-rule="evenodd" clip-rule="evenodd" d="M131.733 62.03H206.788V58.8773H131.733V62.03Z" fill="#DCEEFF"/>
<path fill-rule="evenodd" clip-rule="evenodd" d="M206.788 62.03H219.135V58.8773H206.788V62.03Z" fill="#CCE3FF"/>
<path fill-rule="evenodd" clip-rule="evenodd" d="M150.026 62.0301L155.887 71.2254V62.0301H150.026Z" fill="#B6D4FF"/>
<path fill-rule="evenodd" clip-rule="evenodd" d="M146.783 62.0301L152.644 71.2254H155.887L150.026 62.0301H146.783Z" fill="#CCE3FF"/>
<path fill-rule="evenodd" clip-rule="evenodd" d="M193.014 62.0301L198.875 71.2254V62.0301H193.014Z" fill="#B6D4FF"/>
<path fill-rule="evenodd" clip-rule="evenodd" d="M189.77 62.0301L195.631 71.2254H198.875L193.014 62.0301H189.77Z" fill="#CCE3FF"/>
<path fill-rule="evenodd" clip-rule="evenodd" d="M208.251 184.947H212.017V172.723H208.251V184.947Z" fill="#DCEEFF"/>
<path fill-rule="evenodd" clip-rule="evenodd" d="M239.621 184.947H243.387V172.723H239.621V184.947Z" fill="#DCEEFF"/>
<path fill-rule="evenodd" clip-rule="evenodd" d="M221.529 184.947H225.295V172.723H221.529V184.947Z" fill="#B6D4FF"/>
<path fill-rule="evenodd" clip-rule="evenodd" d="M252.898 184.947H256.665V172.723H252.898V184.947Z" fill="#B6D4FF"/>
<path fill-rule="evenodd" clip-rule="evenodd" d="M221.587 174.892H256.723V150.347H221.587V174.892Z" fill="#B6D4FF"/>
<path fill-rule="evenodd" clip-rule="evenodd" d="M208.251 174.892H243.387V150.347H208.251V174.892Z" fill="#DCEEFF"/>
<path fill-rule="evenodd" clip-rule="evenodd" d="M211.511 171.714H240.127V153.524H211.511V171.714Z" fill="#ECF6FF"/>
<path fill-rule="evenodd" clip-rule="evenodd" d="M230.751 153.524V153.524C230.751 154.818 229.701 155.866 228.407 155.866H223.231C221.937 155.866 220.888 154.818 220.888 153.524H230.751Z" fill="#CCE3FF"/>
<path fill-rule="evenodd" clip-rule="evenodd" d="M241.469 150.391H248.776V139.919H241.469V150.391Z" fill="#CCE3FF"/>
<path fill-rule="evenodd" clip-rule="evenodd" d="M246.294 150.391H234.627L239.031 134.596H250.698L246.294 150.391Z" fill="#DCEEFF"/>
<path fill-rule="evenodd" clip-rule="evenodd" d="M243.881 150.391H232.214L236.618 134.596H248.285L243.881 150.391Z" fill="#ECF6FF"/>
<path fill-rule="evenodd" clip-rule="evenodd" d="M242.414 147.954H235.04L238.085 137.033H245.459L242.414 147.954Z" fill="#CCE3FF"/>
<path fill-rule="evenodd" clip-rule="evenodd" d="M225.234 150.391H230.402V142.985H225.234V150.391Z" fill="#CCE3FF"/>
<path fill-rule="evenodd" clip-rule="evenodd" d="M228.221 150.391H219.97L223.085 139.22H231.336L228.221 150.391Z" fill="#DCEEFF"/>
<path fill-rule="evenodd" clip-rule="evenodd" d="M226.514 150.391H218.263L221.378 139.22H229.629L226.514 150.391Z" fill="#ECF6FF"/>
<path fill-rule="evenodd" clip-rule="evenodd" d="M225.253 148.103H220.8L222.639 141.508H227.092L225.253 148.103Z" fill="#DCEEFF"/>
<path fill-rule="evenodd" clip-rule="evenodd" d="M124.001 125.943C124.001 125.943 112.093 152.195 110.671 180.739C110.671 180.739 117.336 151.814 124.001 125.943" fill="#DCEEFF"/>
<path fill-rule="evenodd" clip-rule="evenodd" d="M102.695 146.118C102.695 146.118 111.265 146.34 112.57 174.884C112.57 174.884 108.913 153.341 102.695 146.118" fill="#DCEEFF"/>
<path fill-rule="evenodd" clip-rule="evenodd" d="M111.447 117.388C111.447 117.388 116.45 147.587 111.525 178.317C111.525 178.317 111.818 146.222 111.447 117.388" fill="#DCEEFF"/>
<path fill-rule="evenodd" clip-rule="evenodd" d="M118.196 186.398H105.822C105.729 186.398 105.636 186.396 105.544 186.393C99.9014 186.182 96.7622 179.053 99.9578 173.91L102.793 169.348H121.225L124.059 173.91C127.255 179.053 124.116 186.182 118.474 186.393C118.381 186.396 118.289 186.398 118.196 186.398" fill="#ECF6FF"/>
<path d="M98.679 179.841H125.338" stroke="#B6D4FF" stroke-width="9"/>
<path d="M99.2978 175.431H124.805" stroke="#B6D4FF" stroke-width="9"/>
<path fill-rule="evenodd" clip-rule="evenodd" d="M319.458 59.6656H316.321C313.613 59.6656 311.418 57.4708 311.418 54.7632V46.5164C311.418 45.7011 312.079 45.0402 312.895 45.0402H322.884C323.7 45.0402 324.361 45.7011 324.361 46.5164V54.7632C324.361 57.4708 322.166 59.6656 319.458 59.6656" fill="#DCEEFF"/>
<path fill-rule="evenodd" clip-rule="evenodd" d="M314.534 52.3528H321.245V39.1376H314.534V52.3528Z" fill="#DCEEFF"/>
<path fill-rule="evenodd" clip-rule="evenodd" d="M282.241 51.2064V51.2064C282.241 52.4309 283.233 53.4234 284.458 53.4234H304.405V48.9894H284.458C283.233 48.9894 282.241 49.9819 282.241 51.2064" fill="#CCE3FF"/>
<path fill-rule="evenodd" clip-rule="evenodd" d="M295.657 51.2065V51.2065C295.657 51.9154 296.232 52.49 296.94 52.49H304.352C304.381 52.49 304.405 52.4661 304.405 52.4366V49.9763C304.405 49.9469 304.381 49.9229 304.352 49.9229H296.94C296.232 49.9229 295.657 50.4976 295.657 51.2065" fill="#DCEEFF"/>
<path fill-rule="evenodd" clip-rule="evenodd" d="M279.457 53.4234V57.8576H301.229C302.454 57.8576 303.446 56.8649 303.446 55.6404C303.446 54.4161 302.454 53.4234 301.229 53.4234H279.457Z" fill="#CCE3FF"/>
<path fill-rule="evenodd" clip-rule="evenodd" d="M279.457 54.3694V56.9116H288.409C289.111 56.9116 289.68 56.3425 289.68 55.6405C289.68 54.9384 289.111 54.3694 288.409 54.3694H279.457Z" fill="#DCEEFF"/>
<path fill-rule="evenodd" clip-rule="evenodd" d="M287.821 46.286L289.237 32.4858H293.665L295.082 46.286C295.23 47.7321 294.095 48.9893 292.642 48.9893H290.261C288.808 48.9893 287.673 47.7321 287.821 46.286" fill="#DCEEFF"/>
<path fill-rule="evenodd" clip-rule="evenodd" d="M251.473 176.819H317.158V59.8391H251.473V176.819Z" fill="#E6F4FF"/>
<path fill-rule="evenodd" clip-rule="evenodd" d="M251.473 185.206H255.255V59.8391H251.473V185.206Z" fill="#E6F4FF"/>
<path fill-rule="evenodd" clip-rule="evenodd" d="M255.255 185.206H259.037V176.819H255.255V185.206Z" fill="#B6D4FF"/>
<path fill-rule="evenodd" clip-rule="evenodd" d="M278.278 185.206H282.06V176.819H278.278V185.206Z" fill="#B6D4FF"/>
<path fill-rule="evenodd" clip-rule="evenodd" d="M317.158 185.206H320.94V176.819H317.158V185.206Z" fill="#B6D4FF"/>
<path fill-rule="evenodd" clip-rule="evenodd" d="M332.617 185.206H336.399V176.819H332.617V185.206Z" fill="#C5E0FC"/>
<path fill-rule="evenodd" clip-rule="evenodd" d="M313.376 185.206H317.158V59.8391H313.376V185.206Z" fill="#E6F4FF"/>
<path fill-rule="evenodd" clip-rule="evenodd" d="M336.399 185.321H340.181V176.819H336.399V185.321Z" fill="#B6D4FF"/>
<path fill-rule="evenodd" clip-rule="evenodd" d="M274.496 185.206H278.278V176.819H274.496V185.206Z" fill="#C5E0FC"/>
<path fill-rule="evenodd" clip-rule="evenodd" d="M255.255 171.628H281.809V149.179H255.255V171.628Z" fill="#CCE3FF"/>
<path fill-rule="evenodd" clip-rule="evenodd" d="M286.823 171.628H313.377V149.179H286.823V171.628Z" fill="#CCE3FF"/>
<path fill-rule="evenodd" clip-rule="evenodd" d="M255.255 144.165H281.809V121.719H255.255V144.165Z" fill="#CCE3FF"/>
<path fill-rule="evenodd" clip-rule="evenodd" d="M286.823 144.165H313.377V121.719H286.823V144.165Z" fill="#CCE3FF"/>
<path fill-rule="evenodd" clip-rule="evenodd" d="M255.255 116.705H313.376V94.2574H255.255V116.705Z" fill="#CCE3FF"/>
<path fill-rule="evenodd" clip-rule="evenodd" d="M255.255 116.705H273.235V94.2574H255.255V116.705Z" fill="#B6D4FF"/>
<path fill-rule="evenodd" clip-rule="evenodd" d="M255.255 89.2434H313.376V66.7962H255.255V89.2434Z" fill="#CCE3FF"/>
<path fill-rule="evenodd" clip-rule="evenodd" d="M255.255 89.2434H273.235V66.7962H255.255V89.2434Z" fill="#B6D4FF"/>
<path fill-rule="evenodd" clip-rule="evenodd" d="M317.158 176.819H340.181V59.8391H317.158V176.819Z" fill="#B6D4FF"/>
<path fill-rule="evenodd" clip-rule="evenodd" d="M316.405 61.517H250.021C248.092 61.517 246.529 59.9532 246.529 58.0244V57.8142H316.405V61.517Z" fill="#E6F4FF"/>
<path fill-rule="evenodd" clip-rule="evenodd" d="M341.593 61.517H316.404V57.8142H345.086V58.0244C345.086 59.9532 343.522 61.517 341.593 61.517" fill="#B6D4FF"/>
<path fill-rule="evenodd" clip-rule="evenodd" d="M251.473 63.1367H317.158V61.5169H251.473V63.1367Z" fill="#CCE3FF"/>
<path fill-rule="evenodd" clip-rule="evenodd" d="M268.277 89.2434H271.846V75.6092H268.277V89.2434Z" fill="#DCEEFF"/>
<path fill-rule="evenodd" clip-rule="evenodd" d="M264.708 89.2434H268.277V75.6092H264.708V89.2434Z" fill="#CCE3FF"/>
<path fill-rule="evenodd" clip-rule="evenodd" d="M271.846 89.2434H275.416V75.6092H271.846V89.2434Z" fill="#CCE3FF"/>
<path fill-rule="evenodd" clip-rule="evenodd" d="M284.819 89.2434H275.415V75.6091H284.819C285.321 75.6091 285.729 76.0163 285.729 76.5186V88.3339C285.729 88.8362 285.321 89.2434 284.819 89.2434" fill="#B6D4FF"/>
<path fill-rule="evenodd" clip-rule="evenodd" d="M276.944 78.9455H284.201V77.5956H276.944V78.9455Z" fill="#CCE3FF"/>
<path fill-rule="evenodd" clip-rule="evenodd" d="M278.561 81.0282H282.584V79.6783H278.561V81.0282Z" fill="#CCE3FF"/>
<path fill-rule="evenodd" clip-rule="evenodd" d="M306.904 108.88V109.17C306.904 110.504 305.823 111.585 304.49 111.585H283.57V106.465H304.49C305.823 106.465 306.904 107.546 306.904 108.88" fill="#B6D4FF"/>
<path fill-rule="evenodd" clip-rule="evenodd" d="M292.78 108.941V109.109C292.78 109.881 292.154 110.507 291.382 110.507H283.599C283.583 110.507 283.57 110.494 283.57 110.478V107.572C283.57 107.556 283.583 107.543 283.599 107.543H291.382C292.154 107.543 292.78 108.169 292.78 108.941" fill="#DCEEFF"/>
<path fill-rule="evenodd" clip-rule="evenodd" d="M309.836 111.585V116.705H286.994C285.66 116.705 284.579 115.624 284.579 114.29V113.999C284.579 112.666 285.66 111.585 286.994 111.585H309.836Z" fill="#B6D4FF"/>
<path fill-rule="evenodd" clip-rule="evenodd" d="M309.836 112.677V115.613H300.457C299.692 115.613 299.072 114.993 299.072 114.228V114.062C299.072 113.297 299.692 112.677 300.457 112.677H309.836Z" fill="#DCEEFF"/>
<path fill-rule="evenodd" clip-rule="evenodd" d="M275.03 150.953H262.033C261.054 150.953 260.26 150.159 260.26 149.179H276.804C276.804 150.159 276.01 150.953 275.03 150.953" fill="#B6D4FF"/>
<path fill-rule="evenodd" clip-rule="evenodd" d="M306.598 150.953H293.601C292.622 150.953 291.828 150.159 291.828 149.179H308.372C308.372 150.159 307.578 150.953 306.598 150.953" fill="#B6D4FF"/>
<path fill-rule="evenodd" clip-rule="evenodd" d="M306.598 123.493H293.601C292.622 123.493 291.828 122.698 291.828 121.719H308.372C308.372 122.698 307.578 123.493 306.598 123.493" fill="#B6D4FF"/>
<path fill-rule="evenodd" clip-rule="evenodd" d="M275.03 123.493H262.033C261.054 123.493 260.26 122.698 260.26 121.719H276.804C276.804 122.698 276.01 123.493 275.03 123.493" fill="#B6D4FF"/>
<path d="M290.08 69.6514L290.27 63.1419C290.27 63.1419 282.31 63.7717 280.607 62.8927C280.607 62.8927 278.771 53.3048 281.058 46.1067L297.857 44.1541L299.052 53.7529C299.618 52.0943 304.035 50.1938 305.256 52.5688C307.901 57.7152 298.442 61.1804 298.442 61.1804L299.402 69.7297" fill="#80450F"/>
<path opacity="0.399344" fill-rule="evenodd" clip-rule="evenodd" d="M290.27 63.1429L295.638 61.9992L290.296 65.5851L290.27 63.1429Z" fill="black"/>
<path fill-rule="evenodd" clip-rule="evenodd" d="M285.842 52.5042L283.987 57.0104L286.21 57.0385L285.842 52.5042Z" fill="#2437A8"/>
<path fill-rule="evenodd" clip-rule="evenodd" d="M287.957 53.7851C287.847 54.392 288.252 54.9728 288.863 55.0825C289.474 55.1923 290.058 54.7893 290.169 54.1826C290.279 53.5758 289.874 52.9949 289.263 52.8851C288.652 52.7755 288.068 53.1783 287.957 53.7851" fill="#0D0B6D"/>
<path fill-rule="evenodd" clip-rule="evenodd" d="M282.123 53.7851C282.013 54.392 282.418 54.9728 283.029 55.0825C283.64 55.1923 284.224 54.7893 284.335 54.1826C284.445 53.5758 284.039 52.9949 283.429 52.8851C282.818 52.7755 282.234 53.1783 282.123 53.7851" fill="#0D0B6D"/>
<path fill-rule="evenodd" clip-rule="evenodd" d="M288.149 58.3155C288.149 58.3155 287.372 59.5674 285.833 59.4614Z" fill="white"/>
<path d="M288.149 58.3155C288.149 58.3155 287.372 59.5674 285.833 59.4614" stroke="#252535"/>
<path d="M302.227 51.7019C302.973 48.9455 305.672 38.7707 305.354 37.0338C304.986 35.0208 303.576 32.5496 296.33 29.9577C290.19 27.7617 286.727 29.3518 285.678 30.7049C284.082 32.7637 281.058 46.1075 281.058 46.1075C281.058 46.1075 283.56 47.8765 292.431 47.5714C292.431 47.5714 291.203 52.8783 296.238 52.5734C296.238 52.5734 295.698 54.3606 298.134 54.9227C299.471 52.8572 301.245 52.0224 302.227 51.7019V51.7019Z" fill="#19141E"/>
<path fill-rule="evenodd" clip-rule="evenodd" d="M286.928 217.667L286.865 212.27L293.823 208.764L294.833 224.194H270.727C274.828 219.573 286.928 217.667 286.928 217.667ZM314.912 217.878L314.849 211.815L321.52 216.479L322.59 217.543L324.24 224.195H307.742C309.816 218.543 314.912 217.878 314.912 217.878Z" fill="#0D0B6D"/>
<path fill-rule="evenodd" clip-rule="evenodd" d="M314.182 211.814L321.139 209.723L322.59 217.542L314.912 217.877L314.182 211.814ZM286.865 212.269L293.823 210.178L294.384 217.331L286.928 217.667L286.865 212.269Z" fill="#E576C6"/>
<path d="M307.48 209.27H306.388L307.056 215.506H325.453L324.785 209.27H323.568L309.87 107.206L301.264 107.206L280.332 107.206L282.07 209.381H281.132V215.395H299.529V209.381H298.488L299.529 171.062L307.48 209.27Z" fill="#2F2F3D"/>
<path opacity="0.200358" fill-rule="evenodd" clip-rule="evenodd" d="M299.837 174.605L292.172 125.192L299.142 188.878L299.837 174.605Z" fill="black"/>
<path d="M275.045 87.3021L279.317 89.57L280.375 107.358H309.858L310.353 89.4113L319.675 82.4401C319.675 82.4401 315.279 73.6242 307.757 70.1155C305.797 69.203 303.332 68.7181 300.868 68.4867C295.929 68.0217 291.005 68.5616 290.205 68.6586L290.092 68.6718C289.952 68.7137 289.812 68.7556 289.677 68.7975C289.675 68.7975 289.673 68.7997 289.671 68.7997C289.271 68.9231 288.895 69.0421 288.535 69.1589C283.545 70.7921 281.967 72.1145 279.171 76.0287C276.513 79.7491 275.045 87.3021 275.045 87.3021" fill="#FCBDA4"/>
<path opacity="0.200219" d="M310.353 89.4112L307.988 91.0115L302.303 84.4108" stroke="black" stroke-width="5"/>
<path fill-rule="evenodd" clip-rule="evenodd" d="M287.09 102.164C287.09 102.164 286.159 102.399 286.141 102.981C286.141 103.147 291.814 104.213 291.814 104.213L290.579 104.286L289.296 104.224C289.296 104.224 288.628 104.348 288.591 104.899C288.578 105.117 289.759 105.351 291.134 105.529C293.271 105.809 294.807 105.562 296.311 105.154C296.437 105.119 296.559 105.088 296.676 105.057L295.455 97.2487C295.045 97.6212 294.269 98.2824 290.93 99.1111C290.26 99.2764 288.012 99.3073 288.012 99.3073C287.352 99.402 285.964 99.5299 285.868 100.303C285.844 100.495 286.086 100.702 286.086 100.702C286.086 100.702 285.215 100.762 285.161 101.547C285.139 101.855 287.09 102.164 287.09 102.164" fill="#18181C"/>
<path fill-rule="evenodd" clip-rule="evenodd" d="M277.421 113.038H298.046L293.42 84.7362H272.795L277.421 113.038Z" fill="#18181C"/>
<path fill-rule="evenodd" clip-rule="evenodd" d="M276.312 113.038H296.937L292.312 84.7362H271.687L276.312 113.038Z" fill="#5E93D1"/>
<path fill-rule="evenodd" clip-rule="evenodd" d="M300.868 68.4867C300.141 69.6262 297.851 72.4671 292.936 72.7558C287.066 73.0974 288.398 69.5005 288.535 69.1589C288.544 69.1413 288.549 69.1325 288.549 69.1325C288.549 69.1325 288.986 68.987 289.671 68.7997C289.672 68.7997 289.673 68.7992 289.674 68.7986C289.675 68.7981 289.676 68.7975 289.677 68.7975C289.839 68.7534 290.016 68.7071 290.205 68.6586C291.005 68.5616 295.929 68.0217 300.868 68.4867ZM301.65 96.1328L300.219 95.6462C300.219 95.6462 299.301 95.2891 297.751 95.0048C297.179 94.8998 296.699 94.881 296.196 94.8613C295.845 94.8475 295.482 94.8333 295.069 94.7888L295.41 96.9686C295.474 97.0149 295.532 97.07 295.588 97.1295C295.556 97.1557 295.525 97.1843 295.491 97.2154L295.454 97.2485C295.045 97.6209 294.269 98.2821 290.93 99.1108C290.26 99.2761 288.012 99.307 288.012 99.307C287.982 99.3113 287.951 99.3156 287.919 99.3201C287.898 99.323 287.876 99.3259 287.854 99.3289C287.153 99.4243 285.957 99.587 285.868 100.303C285.844 100.495 286.086 100.702 286.086 100.702C286.086 100.702 285.214 100.762 285.161 101.546C285.139 101.855 287.09 102.163 287.09 102.163C287.09 102.163 286.159 102.399 286.141 102.981C286.141 103.146 291.814 104.213 291.814 104.213L290.579 104.286L289.296 104.224C289.296 104.224 288.628 104.347 288.591 104.898C288.578 105.117 289.759 105.35 291.134 105.529C293.271 105.809 294.807 105.562 296.31 105.154C296.403 105.128 296.492 105.105 296.579 105.082L296.676 105.057C296.898 104.999 297.103 104.948 297.297 104.9L297.297 104.9C298.449 104.612 299.2 104.424 300.904 103.501C301.088 103.401 301.291 103.281 301.501 103.149C306.61 103.631 322.097 104.817 323.649 101.645C326.719 95.372 318.64 83.2324 318.64 83.2324L309.698 89.4494L312.54 94.2484L301.65 96.1328ZM281.114 112.066H276.365L275.3 105.548L273.116 114.822C271.769 116.359 270.213 118.173 269.977 118.62C269.551 119.43 268.762 123.439 268.8 124.231C268.837 125.024 271.295 128.583 271.295 128.583C272.82 128.222 271.824 126.384 271.824 126.384C271.824 126.384 273.19 127.5 273.758 127.481C279.105 127.305 278.819 124.687 278.692 124.36C278.408 123.624 276.981 124.466 276.981 124.466C276.981 124.466 279.46 119.603 279.138 115.888C279.694 114.845 280.377 113.536 281.114 112.066Z" fill="#80450F"/>
<path opacity="0.199382" d="M275.836 118.253C275.836 118.253 275.085 120.993 272.51 121.847C271.61 122.146 271.835 125.67 269.627 125.249" stroke="black" stroke-width="3"/>
<path fill-rule="evenodd" clip-rule="evenodd" d="M290.386 87.0191C290.478 87.4877 290.751 87.8291 290.996 87.7813C291.241 87.7337 291.365 87.3151 291.273 86.8466C291.18 86.378 290.907 86.0366 290.662 86.0844C290.417 86.132 290.293 86.5506 290.386 87.0191" fill="#020101"/>
<path fill-rule="evenodd" clip-rule="evenodd" d="M26.4237 59.361H26.7383C31.0856 59.361 34.6099 55.8369 34.6099 51.4897V46.8076H18.5521V51.4897C18.5521 55.8369 22.0763 59.361 26.4237 59.361" fill="#DCEEFF"/>
<path fill-rule="evenodd" clip-rule="evenodd" d="M84.5374 186.642H88.1708V177.846H82.6631L84.5374 186.642Z" fill="#B6D4FF"/>
<path fill-rule="evenodd" clip-rule="evenodd" d="M91.8045 177.846H28.6969V61.6728H91.8045V177.846Z" fill="#ECF6FF"/>
<path fill-rule="evenodd" clip-rule="evenodd" d="M88.1709 186.642H91.8045V177.846H86.4671L88.1709 186.642Z" fill="#ECF6FF"/>
<path fill-rule="evenodd" clip-rule="evenodd" d="M25.7756 186.642H28.6969V177.846H24.4057L25.7756 186.642Z" fill="#CCE3FF"/>
<path fill-rule="evenodd" clip-rule="evenodd" d="M32.3302 186.642H28.6968V177.846H34.0341L32.3302 186.642Z" fill="#ECF6FF"/>
<path fill-rule="evenodd" clip-rule="evenodd" d="M62.4178 186.642H66.0514V177.846H61.0547L62.4178 186.642Z" fill="#B6D4FF"/>
<path fill-rule="evenodd" clip-rule="evenodd" d="M9.92357 186.642H13.2702L14.5257 177.846H9.92357V186.642Z" fill="#B6D4FF"/>
<path fill-rule="evenodd" clip-rule="evenodd" d="M6.57717 186.642H9.92357L11.0221 177.846H6.57717V186.642Z" fill="#CCE3FF"/>
<path fill-rule="evenodd" clip-rule="evenodd" d="M66.0514 186.642H69.6848L71.048 177.846H66.0514V186.642Z" fill="#C5E0FC"/>
<path fill-rule="evenodd" clip-rule="evenodd" d="M89.1358 128.42H31.3656V107.889H89.1358V128.42Z" fill="#B6D4FF"/>
<path fill-rule="evenodd" clip-rule="evenodd" d="M89.1358 128.42H71.2639V107.889H89.1358V128.42Z" fill="#CCE3FF"/>
<path fill-rule="evenodd" clip-rule="evenodd" d="M89.1358 150.928H31.3656V130.396H89.1358V150.928Z" fill="#B6D4FF"/>
<path fill-rule="evenodd" clip-rule="evenodd" d="M89.1358 150.928H71.2639V130.396H89.1358V150.928Z" fill="#CCE3FF"/>
<path fill-rule="evenodd" clip-rule="evenodd" d="M89.1358 173.436H31.3656V152.904H89.1358V173.436Z" fill="#B6D4FF"/>
<path fill-rule="evenodd" clip-rule="evenodd" d="M89.1358 173.436H71.2639V152.904H89.1358V173.436Z" fill="#CCE3FF"/>
<path fill-rule="evenodd" clip-rule="evenodd" d="M89.1358 84.2116H31.3656V63.6804H89.1358V84.2116Z" fill="#B6D4FF"/>
<path fill-rule="evenodd" clip-rule="evenodd" d="M89.1358 84.2116H71.2639V63.6804H89.1358V84.2116Z" fill="#CCE3FF"/>
<path fill-rule="evenodd" clip-rule="evenodd" d="M89.1358 105.912H31.3656V86.3285H89.1358V105.912Z" fill="#B6D4FF"/>
<path fill-rule="evenodd" clip-rule="evenodd" d="M89.1358 105.912H71.2639V86.3285H89.1358V105.912Z" fill="#CCE3FF"/>
<path fill-rule="evenodd" clip-rule="evenodd" d="M28.6968 177.846H6.57717V61.6728H28.6968V177.846Z" fill="#CCE3FF"/>
<path fill-rule="evenodd" clip-rule="evenodd" d="M93.2907 61.6728H30.7848V57.9039H93.2907V61.6728Z" fill="#E6F4FF"/>
<path fill-rule="evenodd" clip-rule="evenodd" d="M30.7849 61.6728H5.12868V57.9039H30.7849V61.6728Z" fill="#CCE3FF"/>
<path fill-rule="evenodd" clip-rule="evenodd" d="M39.2429 145.496V145.497C39.2429 146.496 40.0535 147.307 41.0534 147.307H55.5986V143.686H41.0534C40.0535 143.686 39.2429 144.497 39.2429 145.496" fill="#CCE3FF"/>
<path fill-rule="evenodd" clip-rule="evenodd" d="M49.1431 145.496V145.497C49.1431 146.075 49.6124 146.545 50.1911 146.545H55.5768C55.5889 146.545 55.5984 146.535 55.5984 146.523V144.47C55.5984 144.458 55.5889 144.448 55.5768 144.448H50.1911C49.6124 144.448 49.1431 144.917 49.1431 145.496" fill="#DCEEFF"/>
<path fill-rule="evenodd" clip-rule="evenodd" d="M37.1884 147.307V150.928H53.0806C54.0804 150.928 54.8911 150.117 54.8911 149.117C54.8911 148.117 54.0804 147.307 53.0806 147.307H37.1884Z" fill="#CCE3FF"/>
<path fill-rule="evenodd" clip-rule="evenodd" d="M37.1884 148.079V150.155H43.6945C44.2677 150.155 44.7324 149.691 44.7324 149.117C44.7324 148.544 44.2677 148.079 43.6945 148.079H37.1884Z" fill="#DCEEFF"/>
<path fill-rule="evenodd" clip-rule="evenodd" d="M37.2559 140.065V143.686H52.1053C53.1051 143.686 53.9158 142.876 53.9158 141.876C53.9158 140.876 53.1051 140.065 52.1053 140.065H37.2559Z" fill="#CCE3FF"/>
<path fill-rule="evenodd" clip-rule="evenodd" d="M37.256 140.838V142.914H42.7192C43.2924 142.914 43.7572 142.449 43.7572 141.876C43.7572 141.302 43.2924 140.838 42.7192 140.838H37.256Z" fill="#DCEEFF"/>
<path fill-rule="evenodd" clip-rule="evenodd" d="M75.407 128.46H65.4504V114.54H75.407V128.46Z" fill="#DCEEFF"/>
<path fill-rule="evenodd" clip-rule="evenodd" d="M75.407 114.048H65.4504V113.188H75.407V114.048Z" fill="#DCEEFF"/>
<path fill-rule="evenodd" clip-rule="evenodd" d="M65.0741 116.457H75.7837C76.3761 116.457 76.8562 115.977 76.8562 115.384V115.121C76.8562 114.529 76.3761 114.048 75.7837 114.048H65.0741C64.4817 114.048 64.0016 114.529 64.0016 115.121V115.384C64.0016 115.977 64.4817 116.457 65.0741 116.457" fill="#E6F4FF"/>
<path fill-rule="evenodd" clip-rule="evenodd" d="M83.2933 173.436H67.9142V162.651H83.2933V173.436Z" fill="#ECF6FF"/>
<path fill-rule="evenodd" clip-rule="evenodd" d="M67.9142 173.436H56.5768V162.651H67.9142V173.436Z" fill="#CCE3FF"/>
<path fill-rule="evenodd" clip-rule="evenodd" d="M70.9335 168.043H80.1322C80.1322 167.099 79.3671 166.334 78.423 166.334H72.6429C71.6988 166.334 70.9335 167.099 70.9335 168.043" fill="#CCE3FF"/>
<path fill-rule="evenodd" clip-rule="evenodd" d="M61.4236 173.436H46.0444V162.651H61.4236V173.436Z" fill="#ECF6FF"/>
<path fill-rule="evenodd" clip-rule="evenodd" d="M46.0446 173.436H34.7071V162.651H46.0446V173.436Z" fill="#CCE3FF"/>
<path fill-rule="evenodd" clip-rule="evenodd" d="M49.0638 168.043H58.2625C58.2625 167.099 57.4974 166.334 56.5533 166.334H50.7732C49.8291 166.334 49.0638 167.099 49.0638 168.043" fill="#CCE3FF"/>
<path fill-rule="evenodd" clip-rule="evenodd" d="M79.1396 84.2116H63.7604V73.4274H79.1396V84.2116Z" fill="#ECF6FF"/>
<path fill-rule="evenodd" clip-rule="evenodd" d="M63.7605 84.2116H52.423V73.4274H63.7605V84.2116Z" fill="#CCE3FF"/>
<path fill-rule="evenodd" clip-rule="evenodd" d="M66.7797 78.8196H75.9785V78.8196C75.9785 77.8755 75.2133 77.1102 74.2692 77.1102H68.4891C67.545 77.1102 66.7797 77.8755 66.7797 78.8196Z" fill="#CCE3FF"/>
<path fill-rule="evenodd" clip-rule="evenodd" d="M46.5163 103.209L45.1003 89.4088H40.672L39.2558 103.209C39.1075 104.655 40.2423 105.912 41.6961 105.912H44.0762C45.5299 105.912 46.6648 104.655 46.5163 103.209" fill="#CCE3FF"/>
<path fill-rule="evenodd" clip-rule="evenodd" d="M80.8654 150.928H77.2962V137.293H80.8654V150.928Z" fill="#DCEEFF"/>
<path fill-rule="evenodd" clip-rule="evenodd" d="M84.4347 150.928H80.8655V137.293H84.4347V150.928Z" fill="#ECF6FF"/>
<path fill-rule="evenodd" clip-rule="evenodd" d="M77.2961 150.928H73.727V137.293H77.2961V150.928Z" fill="#ECF6FF"/>
<path fill-rule="evenodd" clip-rule="evenodd" d="M64.3234 150.928H73.727V137.294H64.3234C63.8211 137.294 63.4139 137.701 63.4139 138.203V150.018C63.4139 150.521 63.8211 150.928 64.3234 150.928" fill="#DCEEFF"/>
<path fill-rule="evenodd" clip-rule="evenodd" d="M72.1987 140.63H64.9421V139.28H72.1987V140.63Z" fill="#CCE3FF"/>
<path fill-rule="evenodd" clip-rule="evenodd" d="M70.5819 142.712H66.559V141.363H70.5819V142.712Z" fill="#CCE3FF"/>
<path fill-rule="evenodd" clip-rule="evenodd" d="M52.6378 129.541V129.541C56.9852 129.541 60.5093 126.016 60.5093 121.669V119.409H44.7662V121.669C44.7662 126.016 48.2903 129.541 52.6378 129.541" fill="#ECF6FF"/>
<path fill-rule="evenodd" clip-rule="evenodd" d="M44.4008 99.6366C44.4008 102.288 45.8016 104.615 47.903 105.912H55.6168C57.7182 104.615 59.119 102.288 59.119 99.6366C59.119 98.4027 58.8153 97.2409 58.2802 96.2205H45.2396C44.7045 97.2409 44.4008 98.4027 44.4008 99.6366" fill="#DCEEFF"/>
<path fill-rule="evenodd" clip-rule="evenodd" d="M174.517 188.047C177.459 188.047 179.843 191.49 179.843 195.738C179.843 199.986 177.459 203.429 174.517 203.429C171.576 203.429 169.191 199.986 169.191 195.738C169.191 191.49 171.576 188.047 174.517 188.047" fill="#202128"/>
<path d="M174.484 196.139V111.045" stroke="#202128"/>
<path fill-rule="evenodd" clip-rule="evenodd" d="M212.266 152.976H170.062V109.244H212.266V152.976Z" fill="#3D3E44"/>
<path d="M212.551 196.139V111.045L228.111 115.739" stroke="#202128" stroke-linejoin="round"/>
<path d="M192.957 172.148L156.078 219.328" stroke="#202128"/>
<path d="M156.078 172.148L192.957 219.328" stroke="#202128"/>
<path d="M196.658 195.738H152.377" stroke="#202128"/>
<path d="M174.517 161.363V230.112" stroke="#202128"/>
<path fill-rule="evenodd" clip-rule="evenodd" d="M174.483 158.278C188.963 158.278 200.702 175.229 200.702 196.139C200.702 217.049 188.963 234 174.483 234C160.004 234 148.265 217.049 148.265 196.139C148.265 175.229 160.004 158.278 174.483 158.278M174.483 164.209C169.5 164.209 164.659 167.235 160.853 172.732C158.807 175.686 157.191 179.162 156.048 183.061C154.839 187.19 154.226 191.59 154.226 196.139C154.226 200.689 154.839 205.089 156.048 209.217C157.191 213.117 158.807 216.592 160.853 219.547C164.659 225.043 169.5 228.07 174.483 228.07C179.467 228.07 184.307 225.043 188.114 219.547C190.16 216.592 191.776 213.117 192.918 209.217C194.128 205.089 194.741 200.689 194.741 196.139C194.741 191.59 194.128 187.19 192.918 183.061C191.776 179.162 190.16 175.686 188.114 172.732C184.307 167.235 179.467 164.209 174.483 164.209" fill="#868B9B"/>
<path d="M212.585 161.363V230.112" stroke="#202128"/>
<path d="M140.672 214.093V151.317" stroke="#202128"/>
<path fill-rule="evenodd" clip-rule="evenodd" d="M139.683 211.671C143.953 211.671 147.414 216.67 147.414 222.836C147.414 229.001 143.953 234 139.683 234C135.413 234 131.952 229.001 131.952 222.836C131.952 216.67 135.413 211.671 139.683 211.671M139.683 216.542C138.86 216.542 136.848 218.748 136.848 222.836C136.848 226.924 138.86 229.129 139.683 229.129C140.505 229.129 142.517 226.924 142.517 222.836C142.517 218.748 140.505 216.542 139.683 216.542" fill="#202128"/>
<path fill-rule="evenodd" clip-rule="evenodd" d="M202.268 175.146H140.672V165.633H202.268V175.146Z" fill="#202128"/>
<path fill-rule="evenodd" clip-rule="evenodd" d="M211.635 175.146H178.243V165.633H211.635V175.146Z" fill="#3D3E44"/>
<path fill-rule="evenodd" clip-rule="evenodd" d="M127.875 213.491L127.814 207.919L134.569 204.301L135.549 220.229H112.144C116.127 215.459 127.875 213.491 127.875 213.491ZM156.839 213.271L156.775 206.643L164.07 206.275L164.734 212.904L166.431 220.176H149.467C151.599 213.998 156.839 213.271 156.839 213.271Z" fill="#0D0B6D"/>
<path fill-rule="evenodd" clip-rule="evenodd" d="M156.775 206.643L163.929 204.357L164.734 212.904L156.839 213.271L156.775 206.643ZM127.814 207.919L134.569 205.761L135.113 213.145L127.874 213.491L127.814 207.919Z" fill="#E576C6"/>
<path fill-rule="evenodd" clip-rule="evenodd" d="M168.549 225.442H110.366V220.229H168.549V225.442Z" fill="#202128"/>
<path fill-rule="evenodd" clip-rule="evenodd" d="M170.848 225.442H151.371V220.229H170.848V225.442Z" fill="#3D3E44"/>
<path fill-rule="evenodd" clip-rule="evenodd" d="M212.551 158.278C227.031 158.278 238.769 175.229 238.769 196.139C238.769 217.049 227.031 234 212.551 234C198.071 234 186.333 217.049 186.333 196.139C186.333 175.229 198.071 158.278 212.551 158.278M212.551 164.209C207.568 164.209 202.727 167.235 198.921 172.732C196.875 175.686 195.258 179.162 194.116 183.061C192.907 187.19 192.294 191.59 192.294 196.139C192.294 200.689 192.907 205.089 194.116 209.217C195.258 213.117 196.875 216.592 198.921 219.547C202.727 225.043 207.568 228.07 212.551 228.07C217.535 228.07 222.375 225.043 226.181 219.547C228.227 216.592 229.844 213.117 230.986 209.217C232.195 205.089 232.808 200.689 232.808 196.139C232.808 191.59 232.195 187.19 230.986 183.061C229.844 179.162 228.227 175.686 226.181 172.732C222.375 167.235 217.535 164.209 212.551 164.209" fill="#BFC4D6"/>
<path d="M180.443 214.093L180.506 166.318" stroke="#3D3E44"/>
<path fill-rule="evenodd" clip-rule="evenodd" d="M177.75 211.671C182.02 211.671 185.481 216.67 185.481 222.836C185.481 229.001 182.02 234 177.75 234C173.481 234 170.019 229.001 170.019 222.836C170.019 216.67 173.481 211.671 177.75 211.671M177.75 216.542C176.928 216.542 174.916 218.748 174.916 222.836C174.916 226.924 176.928 229.129 177.75 229.129C178.573 229.129 180.585 226.924 180.585 222.836C180.585 218.748 178.573 216.542 177.75 216.542" fill="#3D3E44"/>
<path fill-rule="evenodd" clip-rule="evenodd" d="M212.782 187.794C215.724 187.794 218.108 191.238 218.108 195.485C218.108 199.733 215.724 203.177 212.782 203.177C209.841 203.177 207.456 199.733 207.456 195.485C207.456 191.238 209.841 187.794 212.782 187.794" fill="#202128"/>
<path d="M228.681 175.146L196.883 215.825" stroke="#202128"/>
<path d="M197.117 175.949L229.266 217.078" stroke="#202128"/>
<path d="M233.907 195.738H192.421" stroke="#202128"/>
<path d="M148.89 166.318L153.466 210.272H165.771L163.688 166.318H178.802C185.412 166.318 190.77 161.047 190.77 154.545V149.313H173.104L132.298 149.313C123.742 149.313 117.121 156.757 118.18 165.188L124.091 210.272H136.607L136.03 166.318H148.89Z" fill="#19141E"/>
<path fill-rule="evenodd" clip-rule="evenodd" d="M190.77 149.313H157.519C151.97 149.313 147.631 154.022 148.175 159.455L153.466 210.272H165.771L163.688 166.318H178.802C185.412 166.318 190.77 161.047 190.77 154.545V149.313Z" fill="white" fill-opacity="0.1"/>
<path fill-rule="evenodd" clip-rule="evenodd" d="M161.603 86.1547C161.603 86.1547 155.98 93.5033 163.615 95.454L161.603 86.1547Z" fill="#19141E"/>
<path d="M172.08 111.416L172.267 104.937C172.267 104.937 164.22 105.564 162.541 104.689C162.541 104.689 161.264 96.8152 162.478 91.2327L169.085 85.2491L179.749 86.0365L180.96 95.7162C181.518 94.0653 186.598 91.9958 187.817 95.6992C189.389 100.475 180.326 102.984 180.326 102.984L181.273 111.494" fill="#FFC709"/>
<path d="M184.655 85.6677L187.266 82.9998L185.841 81.6042L183.456 84.0405L183.224 83.9291L183.839 80.4966L181.875 80.1446L181.382 82.8953C176.626 79.9837 172.869 82.2533 172.869 82.2533C172.869 82.2533 171.353 75.8764 167.157 75.8947C161.179 75.9206 160.256 85.1839 160.256 85.1839C160.256 85.1839 157.243 80.1461 155.53 80.8662C153.817 81.5865 153.769 98.319 177.555 90.1647C177.555 90.1647 175.51 94.7792 180.96 95.7163C180.96 95.7163 181.91 93.7467 185.131 93.6354C185.131 93.6354 190.085 91.6141 184.655 85.6677Z" fill="#19141E"/>
<path opacity="0.4" fill-rule="evenodd" clip-rule="evenodd" d="M172.267 104.937L177.561 103.798L172.293 107.368L172.267 104.937Z" fill="black"/>
<path fill-rule="evenodd" clip-rule="evenodd" d="M167.8 95.1871L165.971 99.6725L168.163 99.7005L167.8 95.1871Z" fill="#125475"/>
<path fill-rule="evenodd" clip-rule="evenodd" d="M169.986 95.6228C169.877 96.2268 170.277 96.805 170.88 96.9141C171.482 97.0235 172.058 96.6225 172.167 96.0184C172.276 95.4144 171.876 94.8362 171.274 94.7271C170.672 94.6177 170.095 95.0187 169.986 95.6228" fill="#0D0B6D"/>
<path fill-rule="evenodd" clip-rule="evenodd" d="M164.233 95.6228C164.124 96.2268 164.524 96.805 165.126 96.9141C165.728 97.0235 166.305 96.6225 166.414 96.0184C166.523 95.4144 166.123 94.8362 165.521 94.7271C164.918 94.6177 164.342 95.0187 164.233 95.6228" fill="#0D0B6D"/>
<path fill-rule="evenodd" clip-rule="evenodd" d="M170.633 100.409C170.633 100.409 169.929 101.691 168.408 101.661Z" fill="white"/>
<path d="M170.633 100.409C170.633 100.409 169.929 101.691 168.408 101.661" stroke="#252535"/>
<path fill-rule="evenodd" clip-rule="evenodd" d="M183.032 110.098C182.52 110.993 180.275 114.301 174.952 114.614C169.81 114.914 170.192 112.192 170.46 111.281C170.58 111.249 170.701 111.215 170.822 111.182C171.952 110.869 173.156 110.536 174.803 110.365C179.302 109.899 179.655 109.865 183.032 110.098ZM142.282 124.529C144.729 129.334 153.318 145.104 159.441 142.589C164.026 140.705 169.514 125.09 169.514 125.09L160.593 119.781L156.584 130.512L148.399 121.619C148.677 119.857 148.899 117.554 148.345 116.742C147.402 115.36 142.629 111.101 142.629 111.101L141.76 118.316L141.608 117.708C141.609 117.674 141.6 117.638 141.583 117.598L141.578 117.587L141.227 116.179C141.374 116.104 141.435 115.998 141.371 115.851C141.319 115.732 141.206 115.601 141.048 115.464L139.849 110.657C139.849 110.657 139.455 110.832 138.878 111.095C137.95 110.903 134.588 113.189 134.537 113.223L134.536 113.224C133.852 113.666 135.48 120.973 136.802 122.331C137.743 123.296 140.671 124.129 142.282 124.529ZM196.938 157.114L196.391 158.151C196.391 158.151 195.897 158.999 195.379 160.478C195.187 161.025 195.096 161.493 195.001 161.984C194.838 162.82 194.662 163.721 193.956 165.186C192.685 167.824 194.959 166.736 195.774 165.585C196.042 165.207 196.185 164.772 196.321 164.355C196.509 163.782 196.686 163.242 197.164 162.927C197.188 162.965 197.214 163.005 197.243 163.048L197.243 163.048C197.547 163.501 198.103 164.328 198.425 167.805C198.488 168.488 198.178 170.702 198.178 170.702C198.178 170.751 198.177 170.804 198.176 170.861L198.176 170.861C198.164 171.564 198.143 172.764 198.842 172.96C199.029 173.012 199.273 172.805 199.273 172.805C199.273 172.805 199.199 173.671 199.971 173.843C200.275 173.911 200.877 172.042 200.877 172.042C200.877 172.042 200.969 172.991 201.546 173.097C201.709 173.126 203.632 167.711 203.632 167.711L203.517 168.934L203.261 170.187C203.261 170.187 203.282 170.861 203.824 170.98C204.039 171.028 204.451 169.903 204.838 168.58C205.44 166.521 205.428 164.974 205.251 163.435C205.208 163.062 205.177 162.738 205.149 162.441L205.149 162.441C205.038 161.258 204.966 160.493 204.304 158.671C204.205 158.398 204.073 158.085 203.924 157.763C204.378 153.843 205.658 142.37 205.501 138.847C205.311 134.575 200.784 125.091 200.784 125.091L191.594 130.228L196.66 139.458L196.938 157.114Z" fill="#FFC709"/>
<path fill-rule="evenodd" clip-rule="evenodd" d="M191.872 149.216H162.388L161.308 131.018L156.133 128.002L159.758 119.666L159.79 119.673C159.941 119.37 160.107 119.055 160.288 118.729C162.539 114.676 166.387 112.39 170.46 111.281C170.526 111.263 170.552 111.251 170.556 111.255C170.563 111.266 170.422 111.385 170.382 111.8C170.325 112.381 170.509 113.17 170.702 113.41C171.157 113.975 171.845 114.296 172.121 114.371C172.398 114.447 172.617 114.491 172.862 114.539C173.034 114.573 174.009 114.646 174.178 114.637C175.566 114.564 176.246 114.5 177.121 114.293C177.43 114.219 177.75 114.135 178.13 113.976C178.201 113.946 178.279 113.914 178.363 113.879C178.773 113.711 179.319 113.486 179.875 113.176C180.461 112.848 181.06 112.415 181.493 111.974C181.534 111.931 181.575 111.889 181.615 111.849C182.069 111.386 182.379 111.07 182.594 110.753C182.74 110.539 182.795 110.467 182.827 110.426C182.846 110.4 182.858 110.386 182.876 110.357C182.923 110.28 182.964 110.212 182.976 110.166C182.989 110.117 182.943 110.096 182.945 110.091C182.946 110.088 182.966 110.091 183.032 110.098C185.108 110.303 187.338 110.839 189.77 111.974C197.292 115.482 201.688 124.298 201.688 124.298L192.366 131.269L191.872 149.216Z" fill="#5E93D1"/>
<path opacity="0.200521" d="M192.366 131.268L190.002 132.869L184.317 126.268" stroke="black" stroke-width="5"/>
<path d="M138.377 119.601L138.788 121.616H145.459L142.313 105.573H135.642C135.815 106.455 136.222 108.531 136.864 111.803L138.175 111.196L138.584 111.083L138.906 111.101L139.045 111.196V111.586L137.619 113.631L138.71 114.105L140.388 114.983L140.873 115.318L141.061 115.491L141.214 115.628L141.312 115.746L141.371 115.851L141.396 115.988L141.371 116.048L141.342 116.095L141.299 116.137L140.749 116.331L139.494 115.988H138.254L139.909 116.331L141 116.982L141.371 117.33L141.58 117.586V117.82L141.214 117.984L138.906 117.72L139.67 118.135L140.177 118.448L140.641 118.687L141 119.149V119.377L140.873 119.511L140.551 119.682H140.059H139.068L138.377 119.601Z" fill="#5E93D1"/>
<path fill-rule="evenodd" clip-rule="evenodd" d="M145.46 121.616H146.564L143.417 105.573H142.314L145.46 121.616Z" fill="#020101"/>
<path fill-rule="evenodd" clip-rule="evenodd" d="M141.165 107.436C141.257 107.905 141.53 108.246 141.775 108.198C142.02 108.151 142.144 107.732 142.052 107.264C141.96 106.795 141.686 106.454 141.441 106.501C141.196 106.549 141.073 106.968 141.165 107.436" fill="#020101"/>
<path d="M32.3681 55.143C32.3681 52.3536 42.8225 29.153 56.3975 29.5652C75.2297 30.1369 80.0596 59.3289 79.1974 62.2023C78.5111 64.4905 75.2031 65.3227 60.6998 64.9172C38.9166 64.308 32.3681 57.6411 32.3681 55.143Z" fill="#2437A8"/>
<path fill-rule="evenodd" clip-rule="evenodd" d="M57.7259 60.3168C57.7259 60.3168 54.8591 60.4015 53.6373 59.7342L57.5736 62.2055L57.7259 60.3168Z" fill="#CF3E83"/>
<path d="M57.2093 41.3299C60.5137 42.9985 65.7173 46.0585 68.3637 49.8759C67.9006 53.1717 66.7687 57.5916 64.1145 59.3565C62.6535 60.3275 59.9931 60.4472 57.7253 60.3164L57.2066 66.7545L50.028 64.3757C50.028 64.3757 50.7396 56.8313 51.0478 54.1022C49.5602 52.7521 46.8045 51.9052 46.7998 49.6128C46.7998 48.8214 47.2632 47.4468 48.9749 47.4446C51.2715 47.4424 50.9458 50.1937 50.9458 50.1937C53.2672 51.0977 55.6383 44.2124 57.2093 41.3299L57.2093 41.3299Z" fill="#E576C6"/>
<path fill-rule="evenodd" clip-rule="evenodd" d="M63.9577 50.1895L65.5983 54.1668L63.6948 54.1287L63.9577 50.1895Z" fill="#405FD3"/>
<path fill-rule="evenodd" clip-rule="evenodd" d="M62.211 50.3617C62.17 51.1563 61.7028 51.7752 61.1672 51.7444C60.6316 51.7136 60.2305 51.0445 60.2716 50.25C60.3124 49.4554 60.7797 48.8364 61.3153 48.8672C61.8509 48.898 62.252 49.5671 62.211 50.3617" fill="#0D0B6D"/>
<path fill-rule="evenodd" clip-rule="evenodd" d="M67.2408 50.2348C67.1998 51.0293 66.7324 51.6483 66.197 51.6175C65.6614 51.5867 65.2601 50.9176 65.3011 50.123C65.3421 49.3285 65.8093 48.7093 66.3449 48.7401C66.8805 48.7709 67.2816 49.4402 67.2408 50.2348" fill="#0D0B6D"/>
<path d="M63.2279 56.0331C63.2279 56.0331 61.9877 56.4335 60.7451 55.0516" stroke="#1C295E"/>
<path opacity="0.398182" fill-rule="evenodd" clip-rule="evenodd" d="M57.7212 60.3163C57.7212 60.3163 54.8544 60.401 53.6326 59.7336L57.5689 62.2049L57.7212 60.3163Z" fill="black"/>
<path fill-rule="evenodd" clip-rule="evenodd" d="M64.521 211.856L65.0534 207.209L60.3769 205.038L59.892 218.346L78.1489 218.314C74.4255 214.452 64.521 211.856 64.521 211.856ZM37.3394 205.94L32.1651 206.053L32.2174 211.967C32.2174 211.967 27.2251 212.833 25.4954 218.346H38.4747L37.9123 211.704L37.3394 205.94Z" fill="#0D0B6D"/>
<path fill-rule="evenodd" clip-rule="evenodd" d="M37.9007 206.269L32.8533 204.495L32.1773 211.703L37.8722 211.967L37.9007 206.269ZM65.1752 207.999L60.2694 206.049L60.1187 211.672L65.133 211.856L65.1752 207.999Z" fill="#E576C6"/>
<path d="M31.0535 207.233C31.2849 200.025 32.7791 154.497 34.3145 127.41C35.3784 108.635 43.3406 98.2985 44.8349 96.5125H63.8062C63.8408 96.7524 66.3945 114.829 66.8618 152.652C67.2813 186.525 66.8488 205.04 66.7948 207.218L66.7947 207.219L67.4006 207.218L67.4045 210.134L57.5806 210.15L57.5767 207.234L57.9155 207.233L57.9155 207.233L52.9269 147.957L51.4326 130.217L40.0904 207.218L40.0904 207.218L40.5809 207.217L40.4097 210.134L30.2387 210.15L30.41 207.234L31.0535 207.233L31.0535 207.233Z" fill="#2F2F3D"/>
<path opacity="0.398065" fill-rule="evenodd" clip-rule="evenodd" d="M51.4326 130.217L53.4738 112.862L52.9262 147.957L51.4326 130.217Z" fill="#0A0A0F"/>
<path fill-rule="evenodd" clip-rule="evenodd" d="M46.1137 96.6658L44.5818 96.6434C44.5818 96.6434 44.584 96.6192 44.586 96.5682C45.1136 96.6057 45.6238 96.6367 46.1137 96.6658" fill="#C83820"/>
<path d="M77.3288 113.266L72.2717 113.9L64.1267 101.161L63.8294 96.9271L51.4211 96.7431L46.1248 96.6655H46.1137C45.6237 96.6364 45.1136 96.6056 44.5862 96.5679C37.9153 96.1024 28.6727 94.8052 28.0386 91.2137C26.888 84.709 35.5919 72.0858 36.6206 70.6225C36.6848 70.5317 36.7179 70.4829 36.7179 70.4829C38.1767 68.3989 39.6445 66.7783 41.0146 65.9159C43.6794 64.2376 46.178 63.8694 48.5524 63.8763L49.1884 59.2672L58.8747 60.6038L58.347 64.4349C61.1914 64.7076 63.1266 65.2639 64.9379 66.9266C70.7533 72.2653 71.1811 92.2603 71.1811 92.2603L77.3288 113.266Z" fill="#CE3D29"/>
<path fill-rule="evenodd" clip-rule="evenodd" d="M51.4211 96.7432V96.8319C51.4211 96.8319 49.1997 96.8363 46.1247 96.6656L51.4211 96.7432Z" fill="#C83820"/>
<path opacity="0.201149" d="M63.6513 96.876C64.3625 87.8434 69.2853 85.9334 65.7382 75.8033" stroke="black" stroke-width="3"/>
<path fill-rule="evenodd" clip-rule="evenodd" d="M72.0263 108.051L53.5282 105.918C52.9223 105.848 52.5235 105.253 52.6895 104.666L59.9985 78.8433C60.1306 78.3767 60.5815 78.0747 61.0635 78.1301L79.5616 80.2622C80.1672 80.332 80.5663 80.9277 80.4 81.5144L73.0913 107.337C72.9592 107.804 72.508 108.106 72.0263 108.051" fill="#18181C"/>
<path d="M55.6001 98.4005C55.6353 98.4099 55.6709 98.4196 55.7069 98.4297C56.9921 98.7805 58.3056 98.9926 60.1327 98.7519C61.3079 98.5982 62.3182 98.3974 62.3068 98.2098C62.2745 97.7361 61.704 97.6299 61.704 97.6299L60.6066 97.6828L59.5509 97.6203C59.5509 97.6203 64.4012 96.7029 64.4012 96.5608C64.3862 96.0605 63.59 95.8576 63.59 95.8576C63.59 95.8576 65.2579 95.5922 65.2388 95.3269C65.1934 94.6522 64.4487 94.601 64.4487 94.601C64.4487 94.601 64.6553 94.4228 64.6345 94.2578C64.5529 93.5925 63.3663 93.4825 62.8015 93.4012C62.8015 93.4012 60.8796 93.3748 60.3071 93.2325C58.8017 92.8566 57.9057 92.5208 57.3436 92.2404L61.0996 78.9702C61.2317 78.5036 61.6829 78.2016 62.1646 78.257L80.6627 80.3893C81.2684 80.4589 81.6675 81.0546 81.5012 81.6413L74.1925 107.464C74.0603 107.931 73.6094 108.233 73.1274 108.177L54.6293 106.045C54.0237 105.975 53.6246 105.38 53.7907 104.793L55.6001 98.4005V98.4005Z" fill="#FCBDA4"/>
<path fill-rule="evenodd" clip-rule="evenodd" d="M64.4012 96.5606C64.3862 96.0603 63.59 95.8574 63.59 95.8574C63.59 95.8574 65.2579 95.592 65.2388 95.3267C65.1934 94.652 64.4487 94.6008 64.4487 94.6008C64.4487 94.6008 64.6553 94.4226 64.6345 94.2576C64.5589 93.6415 63.5357 93.5016 62.9362 93.4197C62.8883 93.4132 62.8432 93.407 62.8015 93.401C62.8015 93.401 60.8795 93.3746 60.3071 93.2323C57.4525 92.5195 56.7892 91.9511 56.4387 91.6307C56.428 91.621 56.4176 91.6114 56.4075 91.6021C56.3785 91.5755 56.3517 91.5509 56.3248 91.5285C56.3444 91.5072 56.3668 91.4715 56.3902 91.4343C56.4231 91.3818 56.458 91.3263 56.4901 91.3031L56.9779 89.5155C56.6207 89.5541 56.2716 89.5662 55.9258 89.5781C55.4402 89.5949 54.9611 89.6115 54.4751 89.7011C53.15 89.9456 52.3654 90.2529 52.3654 90.2529L50.6748 90.8308L49.4485 95.3683C49.9128 95.7816 51.0253 96.5966 51.7799 97.0078C53.2369 97.8014 53.8786 97.9628 54.8634 98.2106C55.0288 98.2522 55.204 98.2963 55.3943 98.3462C55.4158 98.3519 55.4376 98.3575 55.4595 98.3633C55.5396 98.3842 55.6221 98.4057 55.7069 98.4296C56.9921 98.7803 58.3056 98.9924 60.1326 98.7517C61.3079 98.598 62.3181 98.3972 62.3068 98.2096C62.2745 97.7359 61.704 97.6297 61.704 97.6297L60.6066 97.6827L59.5509 97.6201C59.5509 97.6201 64.4012 96.7027 64.4012 96.5606ZM80.0255 116.752C79.8192 116.347 78.4035 114.646 77.241 113.278L72.4005 113.884C71.8463 117.153 74.1491 121.825 74.1491 121.825C74.1491 121.825 72.9513 121.095 72.713 121.734C72.6068 122.018 72.3665 124.29 76.8536 124.443C77.3301 124.459 78.476 123.49 78.476 123.49C78.476 123.49 77.6404 125.086 78.9199 125.399C78.9199 125.399 80.9821 122.31 81.0136 121.622C81.0451 120.935 80.3833 117.455 80.0255 116.752Z" fill="#E576C6"/>
<path opacity="0.148065" d="M75.0653 115.589C75.0653 115.589 75.6949 117.968 77.8558 118.709C78.6116 118.968 78.4229 122.028 80.2748 121.662" stroke="black" stroke-width="3"/>
<path fill-rule="evenodd" clip-rule="evenodd" d="M62.979 80.6625C62.8334 81.1201 62.5226 81.4298 62.2847 81.3542C62.0468 81.2786 61.9721 80.846 62.1178 80.3885C62.2634 79.9307 62.5742 79.6209 62.8121 79.6965C63.05 79.7724 63.1247 80.2047 62.979 80.6625" fill="#020101"/>
<path opacity="0.200498" d="M44.3462 77.5943L39.6772 85.3253L51.286 89.9187" stroke="black" stroke-width="3"/>
</svg>
