<svg width="375" height="378" viewBox="0 0 375 378" fill="none" xmlns="http://www.w3.org/2000/svg">
<path d="M281.098 22.4592V120.987" stroke="#ECF6FF" stroke-width="22"/>
<path d="M279.814 18.9266V121.305" stroke="#DCEEFF" stroke-width="17"/>
<path d="M309.027 18.4862V121.554" stroke="#B6D4FF" stroke-width="20"/>
<path d="M254.038 19.3285V120.635" stroke="#ECF6FF" stroke-width="22"/>
<path fill-rule="evenodd" clip-rule="evenodd" d="M250.684 121.554H308.042V18.486H250.684V121.554ZM254.186 117.567H304.54V22.4734H254.186V117.567Z" fill="#DCEEFF"/>
<path fill-rule="evenodd" clip-rule="evenodd" d="M239.548 126.634H310.594V121.554H239.548V126.634Z" fill="#CCE3FF"/>
<path fill-rule="evenodd" clip-rule="evenodd" d="M294.073 126.634H311.671V121.554H294.073V126.634Z" fill="#B6D4FF"/>
<path d="M255.039 54.5162H308.042" stroke="#DCEEFF" stroke-width="17"/>
<path d="M255.039 86.5308H308.042" stroke="#DCEEFF" stroke-width="17"/>
<path fill-rule="evenodd" clip-rule="evenodd" d="M291.213 115.638C290.964 118.015 289.908 120.11 288.364 121.554H278.268C276.724 120.11 275.667 118.015 275.417 115.638H291.213Z" fill="#B6D4FF"/>
<path fill-rule="evenodd" clip-rule="evenodd" d="M291.213 110.7C290.743 115.191 287.386 118.675 283.315 118.675C279.244 118.675 275.887 115.191 275.418 110.7H291.213Z" fill="#B6D4FF"/>
<path fill-rule="evenodd" clip-rule="evenodd" d="M261.577 117.828L263.291 98.8093H268.651L270.365 117.828C270.545 119.821 269.171 121.554 267.412 121.554H264.531C262.771 121.554 261.398 119.821 261.577 117.828" fill="#CCE3FF"/>
<path d="M77.6666 22.4592V120.987" stroke="#ECF6FF" stroke-width="22"/>
<path d="M78.9507 18.9266V121.305" stroke="#DCEEFF" stroke-width="17"/>
<path d="M49.7379 18.4862V121.554" stroke="#B6D4FF" stroke-width="20"/>
<path d="M104.726 19.3285V120.635" stroke="#ECF6FF" stroke-width="22"/>
<path fill-rule="evenodd" clip-rule="evenodd" d="M108.081 121.554H50.7226V18.486H108.081V121.554ZM104.579 117.567H54.2243V22.4734H104.579V117.567Z" fill="#DCEEFF"/>
<path fill-rule="evenodd" clip-rule="evenodd" d="M119.217 126.634H48.1707V121.554H119.217V126.634Z" fill="#CCE3FF"/>
<path fill-rule="evenodd" clip-rule="evenodd" d="M64.6918 126.634H47.0933V121.554H64.6918V126.634Z" fill="#B6D4FF"/>
<path d="M103.726 54.5162H50.7227" stroke="#DCEEFF" stroke-width="17"/>
<path d="M103.726 86.5308H50.7227" stroke="#DCEEFF" stroke-width="17"/>
<path fill-rule="evenodd" clip-rule="evenodd" d="M67.5518 115.638C67.8003 118.015 68.857 120.11 70.4009 121.554H80.497C82.0409 120.11 83.0978 118.015 83.3477 115.638H67.5518Z" fill="#B6D4FF"/>
<path fill-rule="evenodd" clip-rule="evenodd" d="M67.5518 110.7C68.0218 115.191 71.3785 118.675 75.4496 118.675C79.5205 118.675 82.8773 115.191 83.3472 110.7H67.5518Z" fill="#B6D4FF"/>
<path fill-rule="evenodd" clip-rule="evenodd" d="M97.1874 117.828L95.4733 98.8093H90.1137L88.3996 117.828C88.2201 119.821 89.5935 121.554 91.3531 121.554H94.2339C95.9935 121.554 97.3671 119.821 97.1874 117.828" fill="#CCE3FF"/>
<path fill-rule="evenodd" clip-rule="evenodd" d="M181.537 111.856H200.924L203.542 82.066H184.155L181.537 111.856Z" fill="#DCEEFF"/>
<path fill-rule="evenodd" clip-rule="evenodd" d="M181.537 111.856H200.924L203.542 82.066H184.155L181.537 111.856Z" stroke="#DCEEFF" stroke-width="5"/>
<path fill-rule="evenodd" clip-rule="evenodd" d="M180.49 111.856H200.238L202.856 82.066H183.108L180.49 111.856Z" fill="white"/>
<path fill-rule="evenodd" clip-rule="evenodd" d="M180.49 111.856H200.238L202.856 82.066H183.108L180.49 111.856Z" stroke="#DCEEFF" stroke-width="5"/>
<path fill-rule="evenodd" clip-rule="evenodd" d="M184.273 107.923H197.147L199.074 85.9996H186.2L184.273 107.923Z" fill="#DCEEFF"/>
<path fill-rule="evenodd" clip-rule="evenodd" d="M169.092 106.11H168.219C164.153 106.11 160.856 102.354 160.856 97.7219H176.455C176.455 102.354 173.158 106.11 169.092 106.11" fill="#ECF6FF"/>
<path fill-rule="evenodd" clip-rule="evenodd" d="M161.1 106.11V106.11C161.1 107.111 161.812 107.923 162.691 107.923H177.012V104.297H162.691C161.812 104.297 161.1 105.109 161.1 106.11" fill="#DCEEFF"/>
<path fill-rule="evenodd" clip-rule="evenodd" d="M170.732 106.11V106.11C170.732 106.69 171.144 107.159 171.653 107.159H176.974C176.995 107.159 177.012 107.14 177.012 107.116V105.104C177.012 105.08 176.995 105.06 176.974 105.06H171.653C171.144 105.06 170.732 105.53 170.732 106.11" fill="#ECF6FF"/>
<path fill-rule="evenodd" clip-rule="evenodd" d="M159.101 107.923V111.549H174.732C175.611 111.549 176.324 110.737 176.324 109.736C176.324 108.735 175.611 107.923 174.732 107.923H159.101Z" fill="#DCEEFF"/>
<path fill-rule="evenodd" clip-rule="evenodd" d="M159.101 108.696V110.776H165.528C166.032 110.776 166.441 110.31 166.441 109.736C166.441 109.162 166.032 108.696 165.528 108.696H159.101Z" fill="#ECF6FF"/>
<path fill-rule="evenodd" clip-rule="evenodd" d="M159.101 176.807H201.88V126.656H159.101V176.807Z" fill="#CCE3FF"/>
<path fill-rule="evenodd" clip-rule="evenodd" d="M199.126 176.807H205.226V128.085H199.126V176.807Z" fill="#DCEEFF"/>
<path fill-rule="evenodd" clip-rule="evenodd" d="M153.817 128.859H205.226V115.872H153.817V128.859Z" fill="#DCEEFF"/>
<path fill-rule="evenodd" clip-rule="evenodd" d="M147.772 115.872H211.925V111.422H147.772V115.872Z" fill="#CCE3FF"/>
<path fill-rule="evenodd" clip-rule="evenodd" d="M205.226 176.807H208.203V115.872H205.226V176.807Z" fill="#B6D4FF"/>
<path fill-rule="evenodd" clip-rule="evenodd" d="M159.917 176.807H161.855V128.907H159.917V176.807Z" fill="#B6D4FF"/>
<path fill-rule="evenodd" clip-rule="evenodd" d="M207.599 115.872H213.764V111.422H207.599V115.872Z" fill="#B6D4FF"/>
<path fill-rule="evenodd" clip-rule="evenodd" d="M153.817 176.807H159.917V126.597H153.817V176.807Z" fill="#DCEEFF"/>
<path fill-rule="evenodd" clip-rule="evenodd" d="M152.11 176.807H159.918V164.528H152.11V176.807Z" fill="#DCEEFF"/>
<path fill-rule="evenodd" clip-rule="evenodd" d="M199.126 176.807H206.997V164.528H199.126V176.807Z" fill="#DCEEFF"/>
<path fill-rule="evenodd" clip-rule="evenodd" d="M172.689 174.914C172.689 174.914 165.667 170.224 174.129 156.58C174.129 156.58 178.486 162.374 180.163 155.508C180.163 155.508 184.911 164.082 181.828 169.26" fill="#ECF6FF"/>
<path fill-rule="evenodd" clip-rule="evenodd" d="M188.258 175.39C188.258 175.39 194.581 169.611 189.462 157.978C189.462 157.978 182.122 166.903 180.268 150.361C180.268 150.361 174.908 162.851 178.275 168.845" fill="#ECF6FF"/>
<path fill-rule="evenodd" clip-rule="evenodd" d="M171.028 176.807H190.157V172.29H171.028V176.807Z" fill="#DCEEFF"/>
<path fill-rule="evenodd" clip-rule="evenodd" d="M189.221 169.732L187.909 165.491L172.253 172.287L173.565 176.528L189.221 169.732Z" fill="#DCEEFF"/>
<path fill-rule="evenodd" clip-rule="evenodd" d="M188.267 176.722L189.641 171.994L174.329 165.754L172.956 170.483L188.267 176.722Z" fill="#DCEEFF"/>
<path fill-rule="evenodd" clip-rule="evenodd" d="M206.539 176.807H209.959V164.528H206.539V176.807Z" fill="#B6D4FF"/>
<path fill-rule="evenodd" clip-rule="evenodd" d="M166.239 175.806H171.072V138.801H166.239V175.806Z" stroke="#B6D4FF" stroke-width="5"/>
<path fill-rule="evenodd" clip-rule="evenodd" d="M171.072 175.806H175.904V138.801H171.072V175.806Z" stroke="#B6D4FF" stroke-width="5"/>
<path fill-rule="evenodd" clip-rule="evenodd" d="M175.904 175.806H180.737V138.801H175.904V175.806Z" stroke="#B6D4FF" stroke-width="5"/>
<path fill-rule="evenodd" clip-rule="evenodd" d="M180.737 175.806H185.569V138.801H180.737V175.806Z" stroke="#B6D4FF" stroke-width="5"/>
<path fill-rule="evenodd" clip-rule="evenodd" d="M185.569 175.806H190.402V138.801H185.569V175.806Z" stroke="#B6D4FF" stroke-width="5"/>
<path fill-rule="evenodd" clip-rule="evenodd" d="M190.402 175.806H195.234V138.801H190.402V175.806Z" stroke="#B6D4FF" stroke-width="5"/>
<path fill-rule="evenodd" clip-rule="evenodd" d="M107.064 152.591V152.892C107.064 155.402 105.353 157.435 103.246 157.435H73.3373C68.7239 157.435 65.1737 152.395 65.8104 146.748L69.187 115.281C69.4794 112.675 71.2811 110.736 73.4103 110.736H82.2746C84.4023 110.736 86.2039 112.675 86.4981 115.281L89.8747 146.748C89.9005 146.972 89.9188 147.197 89.9296 147.42L89.9477 147.417C89.9477 147.417 90.5723 152.591 96.378 152.591H107.064Z" fill="#DCEEFF"/>
<path fill-rule="evenodd" clip-rule="evenodd" d="M75.2239 192.88C75.2239 194.485 74.081 195.786 72.6716 195.786C71.262 195.786 70.1195 194.485 70.1195 192.88C70.1195 191.275 71.262 189.974 72.6716 189.974C74.081 189.974 75.2239 191.275 75.2239 192.88" fill="#B6D4FF"/>
<path fill-rule="evenodd" clip-rule="evenodd" d="M98.5128 193.463H73.2908C72.3249 193.463 71.5344 192.563 71.5344 191.463C71.5344 190.363 72.3249 189.463 73.2908 189.463H98.5128C99.4788 189.463 100.269 190.363 100.269 191.463C100.269 192.563 99.4788 193.463 98.5128 193.463" fill="#CCE3FF"/>
<path fill-rule="evenodd" clip-rule="evenodd" d="M84.6077 192.512H87.196V157.314H84.6077V192.512Z" fill="#CCE3FF"/>
<path fill-rule="evenodd" clip-rule="evenodd" d="M94.7707 157.314L85.9017 161.913L77.0329 157.314H94.7707Z" fill="#CCE3FF"/>
<path fill-rule="evenodd" clip-rule="evenodd" d="M86.0981 193.463H82.8252C81.8591 193.463 81.0687 192.563 81.0687 191.463C81.0687 190.363 81.8591 189.463 82.8252 189.463H86.0981C87.064 189.463 87.8545 190.363 87.8545 191.463C87.8545 192.563 87.064 193.463 86.0981 193.463" fill="#B6D4FF"/>
<path fill-rule="evenodd" clip-rule="evenodd" d="M83.9511 192.88C83.9511 194.485 82.8084 195.786 81.399 195.786C79.9892 195.786 78.8467 194.485 78.8467 192.88C78.8467 191.275 79.9892 189.974 81.399 189.974C82.8084 189.974 83.9511 191.275 83.9511 192.88" fill="#B6D4FF"/>
<path fill-rule="evenodd" clip-rule="evenodd" d="M101.853 192.88C101.853 194.485 100.711 195.786 99.3009 195.786C97.8914 195.786 96.7488 194.485 96.7488 192.88C96.7488 191.275 97.8914 189.974 99.3009 189.974C100.711 189.974 101.853 191.275 101.853 192.88" fill="#B6D4FF"/>
<path fill-rule="evenodd" clip-rule="evenodd" d="M49.551 154.651C49.551 157.977 47.7766 160.674 45.5877 160.674C43.3988 160.674 41.6244 157.977 41.6244 154.651C41.6244 151.325 43.3988 148.628 45.5877 148.628C47.7766 148.628 49.551 151.325 49.551 154.651" fill="#CCE3FF"/>
<path d="M45.6174 186.284V154.957" stroke="#DCEEFF" stroke-width="9"/>
<path fill-rule="evenodd" clip-rule="evenodd" d="M41.3491 163.498C43.2206 165.631 43.6 168.657 42.1963 170.257C40.7926 171.857 38.1375 171.425 36.2659 169.292C34.3943 167.158 34.0151 164.132 35.4187 162.533C36.8224 160.933 39.4775 161.365 41.3491 163.498" fill="#CCE3FF"/>
<path fill-rule="evenodd" clip-rule="evenodd" d="M54.7125 167.881C56.2217 169.601 55.8139 172.854 53.8017 175.148C51.7894 177.441 48.9347 177.906 47.4255 176.186" fill="#CCE3FF"/>
<path d="M52.6793 170.911L45.7347 178.848" stroke="#DCEEFF" stroke-width="9"/>
<path d="M50.6725 163.32L45.5974 169.036" stroke="#DCEEFF" stroke-width="9"/>
<path d="M40.3279 175.867L45.6299 181.978" stroke="#DCEEFF" stroke-width="9"/>
<path d="M38.5004 166.086L45.5878 174.26" stroke="#DCEEFF" stroke-width="9"/>
<path fill-rule="evenodd" clip-rule="evenodd" d="M47.7426 197.043H43.4921C40.2274 197.043 37.5563 193.999 37.5563 190.278V183.912H53.6783V190.278C53.6783 193.999 51.0073 197.043 47.7426 197.043" fill="#ECF6FF"/>
<path d="M53.6784 187.45H37.5565" stroke="#DCEEFF" stroke-width="9"/>
<path d="M53.6784 190.999H37.5565" stroke="#DCEEFF" stroke-width="9"/>
<path fill-rule="evenodd" clip-rule="evenodd" d="M303.006 164.63C303.4 167.67 302.06 170.263 302.06 170.263C302.06 170.263 300.082 167.927 299.688 164.887C299.294 161.847 300.633 159.254 300.633 159.254C300.633 159.254 302.612 161.59 303.006 164.63" fill="#E9F6FF"/>
<path fill-rule="evenodd" clip-rule="evenodd" d="M302.429 166.616C304.191 169.351 304.128 172.142 304.128 172.142C304.128 172.142 301.207 170.5 299.444 167.765C297.682 165.03 297.746 162.239 297.746 162.239C297.746 162.239 300.667 163.881 302.429 166.616" fill="#E9F6FF"/>
<path fill-rule="evenodd" clip-rule="evenodd" d="M304.642 164.961C304.174 167.995 302.139 170.301 302.139 170.301C302.139 170.301 300.862 167.689 301.33 164.656C301.799 161.622 303.834 159.315 303.834 159.315C303.834 159.315 305.11 161.927 304.642 164.961" fill="#E9F6FF"/>
<path fill-rule="evenodd" clip-rule="evenodd" d="M306.109 167.159C304.634 169.993 301.892 171.81 301.892 171.81C301.892 171.81 301.541 169.032 303.015 166.197C304.49 163.362 307.233 161.545 307.233 161.545C307.233 161.545 307.584 164.324 306.109 167.159" fill="#E9F6FF"/>
<path fill-rule="evenodd" clip-rule="evenodd" d="M316.359 176.204C316.359 182.211 310.158 187.08 302.507 187.08C294.857 187.08 288.655 182.211 288.655 176.204C288.655 170.197 294.857 165.327 302.507 165.327C310.158 165.327 316.359 170.197 316.359 176.204" fill="#CCE3FF"/>
<path fill-rule="evenodd" clip-rule="evenodd" d="M311.087 195.592H295.332C292.914 195.592 290.953 193.358 290.953 190.602V189.742C290.953 186.986 292.914 184.752 295.332 184.752H311.087C313.506 184.752 315.466 186.986 315.466 189.742V190.602C315.466 193.358 313.506 195.592 311.087 195.592" fill="#DCEEFF"/>
<path d="M294.592 168.528L292.039 166.273" stroke="#B6D4FF" stroke-width="9"/>
<path d="M290.953 180.198L288.655 181.992" stroke="#B6D4FF" stroke-width="9"/>
<path d="M297.632 179.22L301.598 179.953" stroke="#B6D4FF" stroke-width="9"/>
<path d="M307.773 168.162L310.167 164.808" stroke="#B6D4FF" stroke-width="9"/>
<path d="M312.146 171.81L314.764 169.911" stroke="#B6D4FF" stroke-width="9"/>
<path d="M312.657 181.624L315.147 183.443" stroke="#B6D4FF" stroke-width="9"/>
<path d="M298.784 172.561L297.599 169.44" stroke="white" stroke-width="9"/>
<path d="M310.116 175.965L307.269 177.502" stroke="white" stroke-width="9"/>
<path d="M296.345 174.18L293.635 172.137" stroke="white" stroke-width="9"/>
<path d="M290.953 189.083L295.856 191.261L300.758 189.083L305.66 191.261L310.563 189.083L315.466 191.261" stroke="#B6D4FF" stroke-width="9"/>
<path fill-rule="evenodd" clip-rule="evenodd" d="M337.281 152.565C337.281 152.565 329.959 170.984 329.084 191.012C329.084 191.012 333.183 170.717 337.281 152.565" fill="#DCEEFF"/>
<path fill-rule="evenodd" clip-rule="evenodd" d="M324.18 166.72C324.18 166.72 329.45 166.876 330.252 186.904C330.252 186.904 328.003 171.788 324.18 166.72" fill="#DCEEFF"/>
<path fill-rule="evenodd" clip-rule="evenodd" d="M329.561 146.562C329.561 146.562 332.638 167.751 329.61 189.312C329.61 189.312 329.79 166.793 329.561 146.562" fill="#DCEEFF"/>
<path fill-rule="evenodd" clip-rule="evenodd" d="M333.712 194.982H326.102C326.045 194.982 325.988 194.981 325.932 194.979C322.462 194.831 320.532 189.829 322.497 186.22L324.24 183.02H335.574L337.317 186.22C339.282 189.829 337.352 194.831 333.882 194.979C333.826 194.981 333.769 194.982 333.712 194.982" fill="#ECF6FF"/>
<path d="M321.71 190.381H338.104" stroke="#B6D4FF" stroke-width="9"/>
<path d="M322.091 187.288H337.776" stroke="#B6D4FF" stroke-width="9"/>
<path fill-rule="evenodd" clip-rule="evenodd" d="M192.976 31.8548C192.976 38.9377 187.933 44.6797 181.712 44.6797C175.492 44.6797 170.449 38.9377 170.449 31.8548C170.449 24.7717 175.492 19.0299 181.712 19.0299C187.933 19.0299 192.976 24.7717 192.976 31.8548" fill="#CCE3FF"/>
<path fill-rule="evenodd" clip-rule="evenodd" d="M190.767 31.8548C190.767 38.9377 185.724 44.6797 179.504 44.6797C173.283 44.6797 168.241 38.9377 168.241 31.8548C168.241 24.7717 173.283 19.0299 179.504 19.0299C185.724 19.0299 190.767 24.7717 190.767 31.8548" fill="#DCEEFF"/>
<path fill-rule="evenodd" clip-rule="evenodd" d="M188.039 31.8539C188.039 36.86 184.716 40.981 180.446 41.5151C180.136 41.554 179.823 41.5734 179.505 41.5734C174.79 41.5734 170.969 37.2225 170.969 31.8539C170.969 26.4872 174.79 22.1361 179.505 22.1361C179.823 22.1361 180.136 22.1557 180.446 22.1946C184.716 22.7287 188.039 26.8497 188.039 31.8539" fill="#CCE3FF"/>
<path fill-rule="evenodd" clip-rule="evenodd" d="M188.039 31.8539C188.039 36.86 184.716 40.981 180.446 41.5151C176.175 40.981 172.852 36.86 172.852 31.8539C172.852 26.8497 176.175 22.7287 180.446 22.1946C184.716 22.7287 188.039 26.8497 188.039 31.8539" fill="#ECF6FF"/>
<path d="M179.874 26.4503L182.64 33.3183" stroke="#CCE3FF" stroke-width="8"/>
<path d="M182.903 30.439L176.845 37.9368" stroke="#CCE3FF" stroke-width="8"/>
<path d="M273.549 162.988C273.545 163.139 273.543 163.29 273.543 163.442C273.542 163.551 273.542 163.657 273.545 163.767L273.542 163.767L273.537 167.262L273.498 192.946L308.289 192.997L308.333 163.818L308.291 163.818C308.319 163.419 308.334 163.016 308.334 162.61C308.34 158.692 307.033 155.077 304.824 152.175C308.849 151.149 311.827 147.523 311.833 143.204C311.841 138.081 307.666 133.922 302.508 133.915C297.35 133.907 293.162 138.054 293.155 143.176C293.154 143.973 293.254 144.747 293.443 145.485C292.634 145.369 291.806 145.309 290.965 145.307C281.358 145.293 273.558 153.017 273.544 162.558C273.544 162.702 273.545 162.845 273.549 162.988V162.988Z" fill="#19141E"/>
<path d="M291.082 162.56C290.795 162.65 290.499 162.726 290.195 162.789C289.949 162.841 289.699 162.883 289.442 162.914C289.029 162.969 288.604 162.995 288.173 162.994C285.435 162.99 283.046 161.892 281.767 160.264C281.7 160.523 281.622 160.779 281.535 161.029C281.488 161.156 281.441 161.289 281.386 161.416C281.044 162.273 280.587 163.068 280.036 163.776C279.269 164.762 278.317 165.584 277.237 166.183C277.722 169.63 278.911 174.265 281.71 176.115C283.25 177.132 286.05 177.257 288.434 177.12L288.983 183.85C288.983 183.85 292.854 182.172 295.07 180.93C295.453 180.717 295.784 180.515 296.039 180.337C295.997 179.941 295.901 179.018 295.78 177.867V177.862C295.56 175.788 295.262 172.967 295.066 171.109C296.372 169.141 299.931 168.699 299.935 165.932C299.935 165.102 299.448 163.667 297.646 163.665C295.229 163.66 295.572 166.539 295.572 166.539C294.203 167.068 292.571 165.008 291.082 162.56Z" fill="#B4833B"/>
<path fill-rule="evenodd" clip-rule="evenodd" d="M281.875 167.402L280.149 171.56L282.152 171.52L281.875 167.402Z" fill="#A15611"/>
<path fill-rule="evenodd" clip-rule="evenodd" d="M283.713 167.582C283.757 168.413 284.248 169.06 284.812 169.028C285.376 168.996 285.798 168.296 285.755 167.466C285.712 166.635 285.22 165.988 284.656 166.02C284.093 166.052 283.671 166.752 283.713 167.582" fill="#0D0B6D"/>
<path fill-rule="evenodd" clip-rule="evenodd" d="M278.42 167.45C278.463 168.28 278.955 168.927 279.518 168.895C280.082 168.863 280.504 168.163 280.461 167.333C280.418 166.502 279.926 165.855 279.363 165.887C278.799 165.92 278.377 166.619 278.42 167.45" fill="#0D0B6D"/>
<path d="M282.643 173.512C282.643 173.512 283.948 173.93 285.256 172.486" stroke="#1C295E"/>
<path opacity="0.401344" fill-rule="evenodd" clip-rule="evenodd" d="M288.435 177.12C288.435 177.12 291.452 177.208 292.738 176.51L288.596 179.094L288.435 177.12Z" fill="black"/>
<path fill-rule="evenodd" clip-rule="evenodd" d="M330.248 318.673L324.437 312.851L326.455 306.961L338.667 317.051L330.389 336.037C330.389 336.037 329.657 330.832 329.694 325.516C329.72 321.844 330.248 318.673 330.248 318.673ZM260.049 332.802L261.359 327.821L267.319 328.044L262.63 341.976L244.034 330.302C249.646 328.32 260.049 332.802 260.049 332.802Z" fill="#0D0B6D"/>
<path fill-rule="evenodd" clip-rule="evenodd" d="M325.902 314.335L326.54 306.956L333.698 312.875L330.248 318.674L325.902 314.335ZM261.128 328.663L267.025 329.123L264.965 334.924L260.049 332.803L261.128 328.663Z" fill="#E576C6"/>
<path d="M281.906 238.521C280.717 243.694 279.301 249.821 277.616 257.056C266.634 304.183 259.653 330.189 259.653 330.189L260.651 330.491L260.656 330.493L265.953 332.099L265.967 332.101L270.216 333.389C270.216 333.389 282.982 303.189 293.44 275.186C295.472 279.089 297.822 282.999 300.538 286.849C314.702 306.934 327.443 319.789 327.443 319.789L328.827 317.255L328.829 317.252L331.963 311.514L331.991 311.463L333.359 308.958C333.359 308.958 312.513 287.023 303.828 245.014C305.44 239.567 306.509 235.112 306.778 232.191C307.572 223.572 301.959 215.833 300.795 214.33H287.346L281.085 214.33C280.95 215.419 280.016 225.061 281.906 238.521L281.906 238.521Z" fill="#19141E"/>
<path opacity="0.145182" fill-rule="evenodd" clip-rule="evenodd" d="M259.653 330.189L260.651 330.491L260.655 330.493L265.953 332.099L265.967 332.101L270.216 333.389C270.216 333.389 282.982 303.189 293.44 275.186C297.572 264.119 301.345 253.395 303.828 245.014C305.44 239.567 306.509 235.112 306.778 232.191C307.571 223.572 301.959 215.833 300.795 214.33H287.346C286.673 217.472 285.13 224.495 281.906 238.521C280.717 243.694 279.301 249.821 277.616 257.056C266.634 304.183 259.653 330.189 259.653 330.189" fill="white"/>
<path fill-rule="evenodd" clip-rule="evenodd" d="M287.407 180.696C287.798 180.353 288.053 180.174 288.053 180.174L296.641 179.734C296.641 179.734 295.91 181.635 295.135 184.043C293.604 188.803 289.973 189.873 286.808 189.868C283.853 189.863 282.849 187.079 284.77 183.852C285.657 182.362 286.734 181.286 287.407 180.696ZM314.366 229.807L313.111 235.001C313.111 235.001 313.014 236.183 313.077 237.554L313.085 237.737C313.144 239.002 313.183 239.851 312.584 241.917C312.146 243.426 314.237 242.682 314.721 241.803C314.9 241.479 314.986 240.839 315.075 240.173C315.236 238.978 315.407 237.703 316.144 238.026C317.291 238.529 318.15 241.829 318.432 245.026C318.477 245.528 318.913 245.878 319.201 245.981C319.668 246.148 319.975 244.098 319.975 244.098C319.975 244.098 320.313 244.752 320.95 244.362C321.175 244.224 321.679 242.786 321.679 242.786C321.679 242.786 322.13 242.046 322.304 241.27C322.612 239.899 322.644 237.436 322.429 236.745C321.94 235.175 321.002 232.58 320.083 231.098C320.12 226.974 320.188 210.764 319.026 207.773C317.693 204.34 315.279 199.737 315.279 199.737L308.121 204.491L311.961 210.666L314.366 229.807ZM280.529 214.924C281.008 211.145 280.578 206.264 280.578 206.264L274.459 202.646L272.911 211.643L266.604 231.304C265.366 232.749 263.811 234.6 263.589 235.033C263.213 235.768 262.516 239.406 262.549 240.125C262.582 240.843 264.753 244.073 264.753 244.073C266.099 243.745 265.22 242.077 265.22 242.077C265.22 242.077 266.426 243.091 266.928 243.073C271.65 242.913 271.397 240.539 271.285 240.241C271.035 239.573 269.774 240.337 269.774 240.337C269.774 240.337 272.243 235.361 271.597 231.94C273.605 228.696 280.146 217.941 280.529 214.924Z" fill="#B4833B"/>
<path opacity="0.146833" d="M268.81 233.819C268.81 233.819 268.147 236.306 265.873 237.08C265.077 237.351 265.276 240.549 263.327 240.167" stroke="black" stroke-width="3"/>
<path fill-rule="evenodd" clip-rule="evenodd" d="M295.136 184.043C295.854 181.809 296.536 180.01 296.63 179.763C299.081 179.753 301.664 180.136 304.415 181.895C308.147 184.279 313.745 191.773 317.758 199.041L305.5 206.219L303.529 203.243C303.529 203.243 301.542 205.887 300.991 209.431C300.569 212.14 300.781 214.341 300.781 214.341H281.151L279.495 206.983L272.033 204.309C272.572 197.746 275.671 186.768 279.769 182.951C281.921 180.946 284.245 180.481 287.977 180.23C287.612 180.504 286.006 181.775 284.77 183.852C282.849 187.079 283.853 189.863 286.809 189.868C289.973 189.873 293.605 188.803 295.136 184.043ZM295.471 179.794L295.07 179.815C295.203 179.808 295.337 179.801 295.471 179.794Z" fill="#72A065"/>
<path opacity="0.204148" d="M281.056 214.489C280.308 205.047 275.36 202.819 279.093 192.229" stroke="black" stroke-width="4"/>
<path opacity="0.195638" d="M287.166 180.288C287.163 180.29 287.161 180.292 287.159 180.294C286.578 180.814 285.832 181.574 285.29 182.27C284.956 182.698 284.647 183.147 284.368 183.617C282.297 187.095 283.415 190.326 286.808 190.331C291.045 190.339 294.183 188.53 295.58 184.185C295.917 183.137 296.27 182.108 296.618 181.142C296.74 180.804 296.852 180.498 296.953 180.23C296.988 180.136 297.019 180.054 297.045 179.984C297.061 179.942 297.09 179.777 297.095 179.763H296.63C296.503 179.763 296.165 179.713 296.12 179.8C295.985 180.063 295.863 180.488 295.74 180.83C295.388 181.805 295.032 182.844 294.691 183.902C293.431 187.821 290.672 189.411 286.809 189.404C284.25 189.4 283.427 187.019 285.172 184.088C285.431 183.653 285.718 183.236 286.028 182.836C286.534 182.187 287.076 181.616 287.618 181.131C287.806 180.962 287.981 180.816 288.137 180.694C288.218 180.63 288.605 180.272 288.71 180.181L287.166 180.288V180.288Z" fill="black"/>
<path opacity="0.204148" d="M298.496 197.096L303.043 203.939" stroke="black" stroke-width="4"/>
<path fill-rule="evenodd" clip-rule="evenodd" d="M234.984 123.484C235.242 129.709 238.528 133.439 238.835 139.249C239.23 146.722 234.954 145.932 235.278 152.064C235.446 155.242 207.2 162.913 199.24 152.92C194.132 146.508 199.199 145.709 198.739 137.009C198.284 128.398 204.47 127.105 204.23 122.565C203.911 116.523 208.753 108.473 216.659 108.052C226.288 107.54 234.595 114.075 234.984 123.484Z" fill="#19141E"/>
<path fill-rule="evenodd" clip-rule="evenodd" d="M220.59 138.1C220.59 138.1 217.759 138.335 216.515 137.738L220.538 139.981L220.59 138.1Z" fill="#CF3E83"/>
<path d="M214.104 132.793C215.07 134.171 214.805 136.069 214.355 137.194C214.204 137.58 213.256 140.802 213.101 140.954C212.499 141.543 220.413 144.511 220.413 144.511L220.59 138.1C222.839 138.111 225.465 137.852 226.86 136.812C231.014 133.712 230.742 123.746 230.645 123.251L226.819 119.394C226.819 119.394 221.24 117.163 220.468 118.278C219.055 120.32 215.972 129.286 213.351 128.421C213.351 128.421 213.53 125.675 211.258 125.799C209.565 125.892 209.178 127.278 209.221 128.064C209.365 130.718 212.806 130.935 214.104 132.793" fill="#FCBDA4"/>
<path fill-rule="evenodd" clip-rule="evenodd" d="M226.244 128.116L228.076 131.973L226.191 132.036L226.244 128.116Z" fill="#125475"/>
<path fill-rule="evenodd" clip-rule="evenodd" d="M224.526 128.38C224.527 129.17 224.097 129.808 223.566 129.806C223.034 129.803 222.603 129.161 222.601 128.371C222.6 127.581 223.03 126.943 223.561 126.945C224.093 126.947 224.524 127.59 224.526 128.38" fill="#0D0B6D"/>
<path fill-rule="evenodd" clip-rule="evenodd" d="M229.494 127.989C229.496 128.779 229.066 129.418 228.534 129.415C228.003 129.413 227.571 128.77 227.57 127.981C227.568 127.191 227.998 126.552 228.53 126.555C229.061 126.557 229.493 127.2 229.494 127.989" fill="#0D0B6D"/>
<path fill-rule="evenodd" clip-rule="evenodd" d="M227.509 112.878C227.696 112.668 227.895 112.468 228.103 112.279C228.572 112.682 229.016 113.112 229.431 113.569C231.664 116.025 233.091 119.218 233.284 122.765C233.289 122.854 233.294 122.942 233.297 123.032H233.299L233.455 125.906C233.344 125.907 233.235 125.905 233.124 125.9C230.949 125.802 228.983 124.843 227.596 123.343C227.082 122.787 226.646 122.155 226.308 121.466C226.255 121.364 226.207 121.257 226.16 121.155C225.925 120.609 225.749 120.032 225.642 119.43C218.211 129.95 213.351 128.421 213.351 128.421L214.055 122.919L208.639 117.08C208.639 117.08 224.084 110.392 227.509 112.878V112.878Z" fill="#19141E"/>
<path fill-rule="evenodd" clip-rule="evenodd" d="M227.509 112.878C227.696 112.668 227.895 112.468 228.103 112.279C228.572 112.682 229.016 113.112 229.431 113.569C231.664 116.025 233.091 119.218 233.284 122.765C233.289 122.854 233.294 122.942 233.297 123.032H233.299L233.455 125.906C233.344 125.907 233.235 125.905 233.124 125.9C230.949 125.802 228.983 124.843 227.596 123.343C227.082 122.787 226.646 122.155 226.308 121.466C226.255 121.364 226.207 121.257 226.16 121.155C225.925 120.609 225.749 120.032 225.642 119.43C218.211 129.95 213.351 128.421 213.351 128.421L214.055 122.919L208.639 117.08C208.639 117.08 224.084 110.392 227.509 112.878V112.878Z" fill="#19141E"/>
<path d="M225.829 133.949C225.829 133.949 224.624 134.411 223.322 133.107" stroke="#1C295E"/>
<path opacity="0.396996" fill-rule="evenodd" clip-rule="evenodd" d="M220.585 138.101C220.585 138.101 217.754 138.335 216.51 137.738L220.534 139.981L220.585 138.101Z" fill="black"/>
<path fill-rule="evenodd" clip-rule="evenodd" d="M213.337 293.209L207.993 293.478C207.993 293.478 203.956 294.473 201.167 299.971H213.909L213.337 293.209ZM252.401 300.034C248.62 296.103 238.562 293.461 238.562 293.461L234.792 293.345L234.3 300.066L252.401 300.034Z" fill="#0D0B6D"/>
<path fill-rule="evenodd" clip-rule="evenodd" d="M205.628 297.013C208.708 296.952 210.816 295.289 211.909 294.14L213.164 294.37L217.501 227.003L203.517 233.496L208.839 292.945C207.949 293.544 202.825 297.069 205.628 297.013ZM247.525 296.772L240.315 293.636C239.901 290.883 238.151 278.904 236.536 262.812C235.088 248.373 233.827 235.159 233.827 235.159L221.799 235.722L234.952 294.236H236.381C238.669 295.406 243.106 297.257 247.525 296.772Z" fill="#FCBDA4"/>
<path d="M208.646 173.175C208.646 173.175 204.919 174.962 201.675 184.657C197.334 197.634 196.063 236.941 196.063 236.941H237.861L227.09 173.457L208.646 173.175Z" fill="#2F2F3D"/>
<path fill-rule="evenodd" clip-rule="evenodd" d="M238.913 189.982C238.913 189.982 236.431 190.294 235.958 191.408C234.607 194.593 237.407 200.287 237.407 200.287C237.407 200.287 236.221 199.561 235.985 200.196C235.88 200.478 235.642 202.734 240.086 202.886C240.558 202.902 241.694 201.94 241.694 201.94C241.694 201.94 240.866 203.524 242.133 203.835C242.133 203.835 244.176 200.768 244.207 200.085C244.238 199.402 243.583 195.947 243.228 195.25C242.874 194.552 238.913 189.982 238.913 189.982ZM196.882 195.573L196.003 190.093C194.803 190.648 193.767 190.603 192.905 190.565C192.019 190.525 191.316 190.494 190.807 191.131C189.791 192.402 188.621 195.011 188.013 196.557C187.761 197.195 187.614 199.531 187.804 200.851C187.911 201.598 188.282 202.331 188.282 202.331C188.282 202.331 188.651 203.73 188.853 203.876C189.422 204.291 189.786 203.696 189.786 203.696C189.786 203.696 189.927 205.659 190.377 205.535C190.655 205.457 191.089 205.157 191.167 204.685C191.663 201.678 192.706 198.614 193.819 198.22C194.533 197.967 194.602 199.187 194.667 200.33C194.703 200.967 194.738 201.579 194.882 201.899C195.273 202.766 197.182 203.62 196.88 202.16C196.466 200.16 196.564 199.359 196.71 198.166C196.717 198.109 196.724 198.051 196.731 197.992C196.888 196.699 196.882 195.573 196.882 195.573Z" fill="#FCBDA4"/>
<path opacity="0.152414" d="M238.315 194.096C238.315 194.096 238.939 196.458 241.079 197.194C241.828 197.451 241.641 200.488 243.475 200.125" stroke="black"/>
<path d="M212.052 142.755L212.682 138.179L222.276 139.504L221.753 143.308C224.57 143.58 226.487 144.131 228.281 145.782C234.044 151.084 234.467 170.934 234.467 170.934L240.557 191.789L235.546 192.418C235.546 192.418 227.157 181.276 225.303 175.285H208.119C208.119 175.285 208.281 173.504 207.877 170.931C207.346 167.566 205.438 165.057 205.438 165.057L201.985 169.314L196.003 190.549L190.506 191.538C190.506 191.538 188.857 174.178 192.193 164.698C195.109 156.407 200.43 147.402 204.585 144.778C207.223 143.112 209.701 142.747 212.052 142.755V142.755Z" fill="#CE3D29"/>
<path opacity="0.195894" d="M227.008 175.516C227.713 166.549 232.589 164.652 229.076 154.595" stroke="black" stroke-width="3"/>
<path opacity="0.195894" d="M209.716 158.557L205.437 165.056" stroke="black" stroke-width="3"/>
<path d="M138.158 166.521L137.967 159.752C137.967 159.752 145.974 160.407 147.688 159.493C147.688 159.493 149.781 148.414 147.284 142.278L147.234 142.039L130.336 140.009L129.284 149.848C128.715 148.124 124.121 146.289 122.893 148.758C120.232 154.109 129.747 157.713 129.747 157.713L128.781 166.602" fill="#A15611"/>
<path opacity="0.400274" fill-rule="evenodd" clip-rule="evenodd" d="M137.967 159.751L132.568 158.562L137.941 162.291L137.967 159.751Z" fill="black"/>
<path fill-rule="evenodd" clip-rule="evenodd" d="M142.421 148.691L144.287 153.377L142.051 153.406L142.421 148.691Z" fill="#19141E"/>
<path fill-rule="evenodd" clip-rule="evenodd" d="M140.294 150.022C140.405 150.653 139.997 151.257 139.382 151.371C138.768 151.485 138.18 151.066 138.069 150.435C137.958 149.804 138.366 149.2 138.98 149.086C139.595 148.972 140.182 149.391 140.294 150.022" fill="#19141E"/>
<path fill-rule="evenodd" clip-rule="evenodd" d="M146.162 150.022C146.273 150.653 145.865 151.257 145.251 151.371C144.637 151.485 144.049 151.066 143.938 150.435C143.827 149.804 144.234 149.2 144.849 149.086C145.463 148.972 146.051 149.391 146.162 150.022" fill="#19141E"/>
<path fill-rule="evenodd" clip-rule="evenodd" d="M140.101 154.731C140.101 154.731 140.883 156.033 142.431 155.923Z" fill="white"/>
<path d="M140.101 154.731C140.101 154.731 140.883 156.033 142.431 155.923" stroke="#252535" stroke-width="2"/>
<path fill-rule="evenodd" clip-rule="evenodd" d="M129.386 149.953C128.124 148.609 126.751 148.04 125.918 147.803L126.077 144.412L134.015 142.99C133.468 146.774 131.343 148.838 129.386 149.953V149.953Z" fill="#EACB47"/>
<path fill-rule="evenodd" clip-rule="evenodd" d="M147.753 143.6C147.037 142.902 142.376 142.685 136.774 143.128C135.47 143.231 134.221 143.361 133.066 143.512C129.246 144.005 126.436 144.705 125.979 145.322C125.472 137.62 130.064 133.034 136.076 132.607C140.02 132.327 143.597 133.908 145.738 137.202C146.834 138.89 147.555 141.03 147.753 143.6" fill="#393954"/>
<path fill-rule="evenodd" clip-rule="evenodd" d="M147.843 143.753H147.841C147.833 143.7 147.803 143.648 147.753 143.601C147.038 142.902 142.377 142.686 136.774 143.129C135.47 143.232 134.221 143.362 133.066 143.512C134.709 141.908 137.715 139.373 141.262 138.235C142.778 137.749 144.316 137.394 145.738 137.202C149.19 136.732 151.96 137.215 152.099 139.056C152.277 141.451 148.439 143.457 147.843 143.753" fill="#161629"/>
<path fill-rule="evenodd" clip-rule="evenodd" d="M129.2 164.104C129.691 164.974 131.847 168.187 136.957 168.491C141.892 168.782 141.526 166.138 141.269 165.254C141.153 165.222 141.038 165.19 140.921 165.157C139.836 164.853 138.681 164.53 137.099 164.364C132.781 163.911 132.442 163.878 129.2 164.104ZM168.318 178.122C165.969 182.789 157.724 198.107 151.846 195.664C147.445 193.834 142.177 178.667 142.177 178.667L150.741 173.51L154.589 183.933L162.446 175.296C162.18 173.584 161.966 171.347 162.498 170.558C163.403 169.216 167.985 165.08 167.985 165.08L168.819 172.088L168.965 171.497C168.965 171.464 168.973 171.428 168.989 171.39L168.994 171.379L169.331 170.011C169.19 169.939 169.132 169.836 169.193 169.693C169.243 169.577 169.351 169.45 169.502 169.317L170.654 164.648C170.654 164.648 171.032 164.818 171.586 165.073C172.477 164.887 175.704 167.107 175.753 167.141L175.754 167.141C176.411 167.57 174.848 174.668 173.579 175.987C172.675 176.925 169.865 177.733 168.318 178.122ZM115.851 209.771L116.376 210.778C116.376 210.778 116.851 211.602 117.348 213.039C117.531 213.57 117.619 214.025 117.711 214.501C117.867 215.314 118.036 216.189 118.713 217.612C119.934 220.174 117.751 219.118 116.968 217.999C116.711 217.632 116.574 217.21 116.443 216.805C116.263 216.248 116.093 215.724 115.634 215.418C115.611 215.455 115.586 215.493 115.558 215.535C115.266 215.975 114.733 216.779 114.424 220.156C114.363 220.819 114.66 222.969 114.66 222.969C114.661 223.017 114.662 223.069 114.663 223.124C114.674 223.807 114.695 224.973 114.023 225.162C113.844 225.213 113.61 225.012 113.61 225.012C113.61 225.012 113.68 225.853 112.939 226.021C112.648 226.086 112.069 224.271 112.069 224.271C112.069 224.271 111.981 225.193 111.428 225.295C111.271 225.324 109.425 220.064 109.425 220.064L109.536 221.252L109.781 222.469C109.781 222.469 109.761 223.124 109.241 223.24C109.035 223.286 108.638 222.193 108.267 220.908C107.689 218.908 107.701 217.405 107.871 215.911C107.912 215.548 107.942 215.234 107.968 214.946C108.075 213.797 108.145 213.054 108.78 211.284C108.875 211.019 109.002 210.715 109.144 210.402C108.709 206.595 107.48 195.45 107.631 192.029C107.813 187.879 112.159 178.666 112.159 178.666L120.981 183.657L116.118 192.621L115.851 209.771Z" fill="#A15611"/>
<path fill-rule="evenodd" clip-rule="evenodd" d="M120.714 202.1H149.017L150.055 184.423L155.022 181.493L151.542 173.397L151.511 173.403C151.366 173.109 151.207 172.804 151.033 172.487C148.873 168.55 145.178 166.33 141.269 165.253C141.206 165.236 141.18 165.223 141.177 165.227C141.169 165.238 141.305 165.353 141.344 165.757C141.398 166.321 141.222 167.087 141.037 167.32C140.6 167.869 139.939 168.181 139.674 168.254C139.408 168.328 139.198 168.37 138.963 168.418C138.798 168.451 137.862 168.521 137.7 168.512C136.367 168.442 135.714 168.38 134.875 168.178C134.578 168.107 134.27 168.025 133.906 167.87C133.838 167.841 133.763 167.81 133.682 167.776C133.289 167.613 132.764 167.394 132.231 167.093C131.668 166.775 131.094 166.355 130.678 165.925C130.638 165.884 130.599 165.844 130.561 165.805C130.124 165.355 129.826 165.048 129.62 164.74C129.481 164.532 129.428 164.462 129.397 164.422C129.378 164.397 129.368 164.383 129.35 164.355C129.305 164.28 129.265 164.214 129.254 164.17C129.242 164.122 129.285 164.102 129.284 164.097C129.282 164.094 129.263 164.097 129.2 164.104C127.208 164.303 125.067 164.823 122.732 165.925C115.511 169.334 111.291 177.897 111.291 177.897L120.24 184.668L120.714 202.1Z" fill="#5E93D1"/>
<path opacity="0.200521" d="M120.239 184.667L122.51 186.222L127.967 179.81" stroke="black" stroke-width="5"/>
<path d="M172.067 173.335L171.672 175.292H165.268L168.289 159.709H174.692C174.526 160.566 174.135 162.583 173.52 165.76L172.26 165.171L171.868 165.061L171.56 165.079L171.426 165.171V165.55L172.795 167.536L171.747 167.996L170.136 168.849L169.671 169.174L169.49 169.343L169.343 169.476L169.249 169.59L169.193 169.693L169.169 169.825L169.193 169.884L169.221 169.929L169.262 169.97L169.79 170.158L170.994 169.825H172.185L170.596 170.158L169.549 170.79L169.193 171.129L168.992 171.378V171.605L169.343 171.765L171.56 171.508L170.826 171.911L170.339 172.215L169.894 172.447L169.549 172.896V173.117L169.671 173.247L169.98 173.414H170.452H171.403L172.067 173.335Z" fill="#5E93D1"/>
<path fill-rule="evenodd" clip-rule="evenodd" d="M165.268 175.292H164.208L167.228 159.709H168.288L165.268 175.292Z" fill="#020101"/>
<path fill-rule="evenodd" clip-rule="evenodd" d="M169.391 161.519C169.302 161.974 169.04 162.306 168.805 162.259C168.57 162.213 168.451 161.806 168.539 161.351C168.628 160.896 168.89 160.564 169.125 160.611C169.36 160.657 169.479 161.064 169.391 161.519" fill="#020101"/>
<path fill-rule="evenodd" clip-rule="evenodd" d="M144.548 308.428L144.607 303.25L137.989 299.887L137.029 314.69H159.958C156.057 310.257 144.548 308.428 144.548 308.428ZM115.176 308.63L115.236 302.813L110.921 306.358L107.449 308.308L106.303 314.69H121.997C120.023 309.268 115.176 308.63 115.176 308.63Z" fill="#0D0B6D"/>
<path fill-rule="evenodd" clip-rule="evenodd" d="M115.236 302.814L108.617 300.807L107.449 308.308L115.176 308.63L115.236 302.814ZM144.607 303.25L137.989 301.244L137.456 308.106L144.548 308.428L144.607 303.25Z" fill="#E576C6"/>
<path d="M145.556 301.552L145.403 306.358H136.673L136.826 301.538C135.848 301.142 135.15 300.19 135.126 299.066L133.72 227.083L118.537 299.756C118.323 300.778 117.571 301.572 116.617 301.865L116.046 306.358H106.892L107.68 301.397C106.918 300.801 106.476 299.821 106.628 298.774L120.607 202.455L133.24 202.455L133.239 202.418H148.539L147.622 298.931C147.61 300.2 146.734 301.262 145.556 301.552V301.552Z" fill="#2F2F3D"/>
<path opacity="0.197824" fill-rule="evenodd" clip-rule="evenodd" d="M133.643 228.224L136.322 216.244L134.306 252.566L133.643 228.224Z" fill="black"/>
<path d="M123.875 202.545L125.342 202.787L109.352 300.942L107.881 300.694L123.875 202.545Z" fill="#EFEFEF"/>
<path fill-rule="evenodd" clip-rule="evenodd" d="M58.5997 368.999C62.3908 368.924 64.9862 366.881 66.3324 365.47L67.8776 365.753L73.2167 283L56 290.976L62.5524 364.002C61.4564 364.738 55.1487 369.068 58.5997 368.999ZM107.181 368.704L98.3049 364.851C97.7954 361.47 95.6405 346.755 93.6527 326.987C91.8696 309.252 90.3171 293.019 90.3171 293.019L75.5087 293.71L91.7025 365.588H93.4612C96.2788 367.025 101.741 369.299 107.181 368.704Z" fill="#A15611"/>
<path d="M94.5534 207.957C94.5534 209.495 94.3938 210.997 94.0887 212.446C92.0228 222.313 83.2779 225.681 72.8022 225.681C60.7914 225.681 51.0529 219.979 51.0529 207.957C51.0529 195.935 60.7914 186.191 72.8022 186.191C81.0602 186.191 88.2441 190.795 91.9279 197.58C93.602 200.665 94.5534 204.2 94.5534 207.957" fill="#F6B852"/>
<mask id="mask0" mask-type="alpha" maskUnits="userSpaceOnUse" x="51" y="186" width="44" height="40">
<path d="M94.5534 207.957C94.5534 209.495 94.3938 210.997 94.0887 212.446C92.0228 222.313 83.2779 225.681 72.8022 225.681C60.7914 225.681 51.0529 219.979 51.0529 207.957C51.0529 195.935 60.7914 186.191 72.8022 186.191C81.0602 186.191 88.2441 190.795 91.9279 197.58C93.602 200.665 94.5534 204.2 94.5534 207.957" fill="white"/>
</mask>
<g mask="url(#mask0)">
</g>
<path fill-rule="evenodd" clip-rule="evenodd" d="M76.5319 222.439C76.5319 222.439 73.9204 222.516 72.8074 221.908L76.3932 224.161L76.5319 222.439Z" fill="#CF3E83"/>
<path d="M75.659 205.917C78.2023 208.106 81.9667 210.142 86.3857 211.527C86.1043 214.523 85.1702 219.687 82.3523 221.563C81.0212 222.449 78.597 222.558 76.532 222.439L76.0584 228.309L69.9202 225.903C69.9202 225.903 71.4523 218.769 70.6319 217.458C69.5302 215.691 66.5826 215.122 66.5792 212.681C66.578 211.958 67.0003 210.707 68.5596 210.704C70.6527 210.701 70.3544 213.211 70.3544 213.211C72.2798 213.96 74.2425 208.826 75.659 205.917V205.917Z" fill="#A15611"/>
<path fill-rule="evenodd" clip-rule="evenodd" d="M82.2087 213.206L83.7033 216.832L81.9694 216.797L82.2087 213.206Z" fill="#CF8414"/>
<path fill-rule="evenodd" clip-rule="evenodd" d="M80.6177 213.363C80.5803 214.088 80.1548 214.652 79.6669 214.624C79.1789 214.596 78.8136 213.986 78.8507 213.261C78.8881 212.537 79.3138 211.973 79.8016 212.001C80.2895 212.029 80.6551 212.639 80.6177 213.363" fill="#1D1D23"/>
<path fill-rule="evenodd" clip-rule="evenodd" d="M85.1995 213.247C85.1621 213.972 84.7366 214.536 84.2487 214.508C83.7607 214.48 83.3954 213.87 83.4327 213.145C83.4701 212.421 83.8956 211.856 84.3836 211.885C84.8715 211.913 85.2369 212.523 85.1995 213.247" fill="#1D1D23"/>
<path d="M81.5441 218.534C81.5441 218.534 80.4143 218.899 79.2823 217.639" stroke="#24242B"/>
<path opacity="0.399019" fill-rule="evenodd" clip-rule="evenodd" d="M76.5276 222.439C76.5276 222.439 73.916 222.516 72.803 221.908L76.3889 224.161L76.5276 222.439Z" fill="black"/>
<path d="M96.4336 309.269H48.6641C48.6641 309.269 51.9195 285.36 57.7501 269.51C61.6176 258.996 65.0996 256.047 66.2528 255.316H82.9388C83.3003 256.146 86.768 264.294 90.5243 280.412C95.2766 300.796 96.4336 309.269 96.4336 309.269" fill="#FCBDA4"/>
<path d="M94.5893 269.465C95.6483 270.713 96.9383 272.264 97.1263 272.633C97.4523 273.274 98.0551 276.446 98.0265 277.073C97.9976 277.7 96.1191 280.517 96.1191 280.517C94.9536 280.231 95.7148 278.776 95.7148 278.776C95.7148 278.776 94.6707 279.66 94.2369 279.645C90.1492 279.505 90.3681 277.434 90.4646 277.175C90.6817 276.592 91.7731 277.258 91.7731 277.258C91.7731 277.258 89.6751 272.999 90.1803 270.018L90.0626 270.033L83.6259 259.771L83.1798 255.772L65.6453 255.513C65.6453 255.513 65.7968 253.878 65.4234 251.515C64.9366 248.425 61.9676 242.685 61.9676 242.685L57.3793 249.625L54.0419 267.735C54.0596 267.723 54.0772 267.712 54.095 267.7L55.6147 272.564C55.6147 272.564 55.7676 274.598 55.7947 275.794C55.8217 276.991 55.8074 276.705 56.4773 278.552C56.944 279.839 55.0947 279.314 54.6249 278.578C54.1404 277.819 54.1345 274.87 53.1738 275.374C52.2131 275.878 51.6656 278.801 51.6094 281.599C51.6005 282.038 51.2445 282.166 51.0019 282.273C50.6085 282.446 50.2224 280.882 50.2224 280.882C50.2224 280.882 49.9695 281.47 49.3967 281.169C49.194 281.062 48.6739 279.84 48.6739 279.84C48.6739 279.84 48.2409 279.223 48.0448 278.557C47.6987 277.382 47.5262 275.241 47.671 274.628C48.0139 273.177 48.7098 270.736 49.4479 269.422C49.4343 269.129 48.7718 254.409 51.8072 245.791C54.489 238.178 58.5749 229.909 62.3958 227.5C66.3259 225.022 69.8665 225.677 73.1542 225.848C78.8376 226.148 81.6489 226.087 84.1896 228.421C89.489 233.29 87.6552 252.528 87.6552 252.528L94.6711 269.455L94.5893 269.465V269.465Z" fill="#A15611"/>
<path opacity="0.152762" d="M92.6077 271.574C92.6077 271.574 93.1812 273.742 95.1498 274.418C95.838 274.654 95.6662 277.443 97.3534 277.11" stroke="black" stroke-width="3"/>
<path d="M69.7036 225.657L70.3092 225.675C70.3092 225.676 70.3092 225.676 70.309 225.684C70.3082 225.735 70.3094 225.797 70.314 225.852C70.3162 225.878 70.3191 225.9 70.3222 225.917C70.3957 226.305 70.7459 229.093 71.3809 234.339L70.7794 234.412C70.1498 229.21 69.7963 226.396 69.7269 226.029C69.7195 225.99 69.7141 225.948 69.7103 225.903C69.7036 225.824 69.7021 225.744 69.7032 225.674C69.7035 225.661 69.7035 225.661 69.7036 225.657Z" fill="#2B2B38"/>
<path d="M81.0411 229.629C81.9845 230.862 82.83 232.182 83.566 233.502C83.8236 233.964 84.0492 234.393 84.2414 234.779C84.3088 234.914 84.3673 235.034 84.4166 235.138C84.4465 235.201 84.4668 235.245 84.4774 235.268L83.933 235.527C83.9239 235.506 83.905 235.466 83.8767 235.406C83.829 235.306 83.7723 235.189 83.7067 235.057C83.5186 234.68 83.2974 234.259 83.0446 233.806C82.3222 232.51 81.4923 231.214 80.5684 230.007C79.5501 228.676 78.4789 227.534 77.3652 226.64L76.601 226.027L77.5703 226.093C77.7001 226.102 77.7912 226.167 77.8757 226.271C78.9803 227.18 80.0373 228.316 81.0411 229.629Z" fill="#2B2B38"/>
<path opacity="0.148693" d="M61.9677 242.684L64.4304 238.811" stroke="black" stroke-width="3"/>
<path d="M83.0665 255.77L65.6454 255.513C65.6454 255.513 65.8205 253.874 65.4234 251.515C64.9961 248.978 63.0722 245.25 62.7515 244.279C62.7515 244.279 63.0479 245.224 64.1403 243.963C65.7045 242.156 71.0801 233.769 71.0801 233.769C71.0801 233.769 76.1536 238.901 80.2251 238.744C83.0316 238.635 84.0361 234.287 84.0361 234.287C88.5338 244.069 83.57 242.854 83.0665 255.77" fill="#FCBDA4"/>
</svg>
