<svg width="341" height="379" viewBox="0 0 341 379" fill="none" xmlns="http://www.w3.org/2000/svg">
<path d="M78.299 6.11802V157.834" stroke="#ECF6FF" stroke-width="22"/>
<path d="M80.7055 0.678352V158.325" stroke="#DCEEFF" stroke-width="17"/>
<path d="M25.9563 0.000289917V158.708" stroke="#B6D4FF" stroke-width="20"/>
<path d="M129.013 1.29731V157.293" stroke="#ECF6FF" stroke-width="22"/>
<path fill-rule="evenodd" clip-rule="evenodd" d="M135.3 158.708H27.8019V0H135.3V158.708ZM128.737 152.568H34.3646V6.13997H128.737V152.568Z" fill="#DCEEFF"/>
<path fill-rule="evenodd" clip-rule="evenodd" d="M156.17 166.531H23.0192V158.708H156.17V166.531Z" fill="#CCE3FF"/>
<path fill-rule="evenodd" clip-rule="evenodd" d="M53.9821 166.531H21.0001V158.708H53.9821V166.531Z" fill="#B6D4FF"/>
<path d="M127.138 55.4806H27.8021" stroke="#DCEEFF" stroke-width="17"/>
<path d="M127.138 104.778H27.8021" stroke="#DCEEFF" stroke-width="17"/>
<path fill-rule="evenodd" clip-rule="evenodd" d="M59.3424 149.599C59.808 153.258 61.7885 156.484 64.682 158.708H83.6035C86.4971 156.484 88.4778 153.258 88.9462 149.599H59.3424Z" fill="#B6D4FF"/>
<path fill-rule="evenodd" clip-rule="evenodd" d="M59.3423 141.994C60.2232 148.909 66.5142 154.274 74.1439 154.274C81.7734 154.274 88.0646 148.909 88.9452 141.994H59.3423Z" fill="#B6D4FF"/>
<path fill-rule="evenodd" clip-rule="evenodd" d="M114.884 152.971L111.671 123.685H101.627L98.4142 152.971C98.0777 156.04 100.652 158.708 103.95 158.708H109.349C112.646 158.708 115.221 156.04 114.884 152.971Z" fill="#CCE3FF"/>
<path fill-rule="evenodd" clip-rule="evenodd" d="M271.971 176.58H312.977L318.514 124.813H277.509L271.971 176.58Z" fill="#DCEEFF"/>
<path fill-rule="evenodd" clip-rule="evenodd" d="M271.971 176.58H312.977L318.514 124.813H277.509L271.971 176.58Z" stroke="#DCEEFF" stroke-width="5"/>
<path fill-rule="evenodd" clip-rule="evenodd" d="M269.758 176.58H311.526L317.064 124.813H275.295L269.758 176.58Z" fill="white"/>
<path fill-rule="evenodd" clip-rule="evenodd" d="M269.758 176.58H311.526L317.064 124.813H275.295L269.758 176.58Z" stroke="#DCEEFF" stroke-width="5"/>
<path fill-rule="evenodd" clip-rule="evenodd" d="M277.758 169.745H304.989L309.064 131.649H281.833L277.758 169.745Z" fill="#DCEEFF"/>
<path fill-rule="evenodd" clip-rule="evenodd" d="M245.648 166.594H243.803C235.201 166.594 228.228 160.068 228.228 152.018H261.223C261.223 160.068 254.25 166.594 245.648 166.594Z" fill="#ECF6FF"/>
<path fill-rule="evenodd" clip-rule="evenodd" d="M228.744 166.594C228.744 168.334 230.251 169.745 232.11 169.745H262.401V163.444H232.11C230.251 163.444 228.744 164.854 228.744 166.594Z" fill="#DCEEFF"/>
<path fill-rule="evenodd" clip-rule="evenodd" d="M249.117 166.594C249.117 167.601 249.989 168.418 251.066 168.418H262.32C262.365 168.418 262.401 168.384 262.401 168.342V164.846C262.401 164.804 262.365 164.77 262.32 164.77H251.066C249.989 164.77 249.117 165.587 249.117 166.594Z" fill="#ECF6FF"/>
<path fill-rule="evenodd" clip-rule="evenodd" d="M224.516 169.745V176.046H257.578C259.438 176.046 260.945 174.635 260.945 172.895C260.945 171.155 259.438 169.745 257.578 169.745H224.516Z" fill="#DCEEFF"/>
<path fill-rule="evenodd" clip-rule="evenodd" d="M224.516 171.089V174.702H238.11C239.176 174.702 240.04 173.893 240.04 172.895C240.04 171.898 239.176 171.089 238.11 171.089H224.516Z" fill="#ECF6FF"/>
<path fill-rule="evenodd" clip-rule="evenodd" d="M224.516 289.444H314.999V202.298H224.516V289.444Z" fill="#CCE3FF"/>
<path fill-rule="evenodd" clip-rule="evenodd" d="M309.173 289.444H322.077V204.78H309.173V289.444Z" fill="#DCEEFF"/>
<path fill-rule="evenodd" clip-rule="evenodd" d="M213.34 206.125H322.077V183.558H213.34V206.125Z" fill="#DCEEFF"/>
<path fill-rule="evenodd" clip-rule="evenodd" d="M200.554 183.558H336.245V175.824H200.554V183.558Z" fill="#CCE3FF"/>
<path fill-rule="evenodd" clip-rule="evenodd" d="M322.077 289.444H328.372V183.558H322.077V289.444Z" fill="#B6D4FF"/>
<path fill-rule="evenodd" clip-rule="evenodd" d="M226.243 289.444H230.342V206.209H226.243V289.444Z" fill="#B6D4FF"/>
<path fill-rule="evenodd" clip-rule="evenodd" d="M327.096 183.558H340.134V175.824H327.096V183.558Z" fill="#B6D4FF"/>
<path fill-rule="evenodd" clip-rule="evenodd" d="M213.34 289.444H226.243V202.194H213.34V289.444Z" fill="#DCEEFF"/>
<path fill-rule="evenodd" clip-rule="evenodd" d="M209.731 289.444H226.244V268.107H209.731V289.444Z" fill="#DCEEFF"/>
<path fill-rule="evenodd" clip-rule="evenodd" d="M309.173 289.444H325.822V268.107H309.173V289.444Z" fill="#DCEEFF"/>
<path fill-rule="evenodd" clip-rule="evenodd" d="M253.257 286.154C253.257 286.154 238.404 278.005 256.303 254.295C256.303 254.295 265.518 264.364 269.065 252.434C269.065 252.434 279.107 267.332 272.588 276.33" fill="#ECF6FF"/>
<path fill-rule="evenodd" clip-rule="evenodd" d="M286.187 286.982C286.187 286.982 299.561 276.939 288.733 256.725C288.733 256.725 273.209 272.235 269.286 243.49C269.286 243.49 257.95 265.192 265.072 275.608" fill="#ECF6FF"/>
<path fill-rule="evenodd" clip-rule="evenodd" d="M249.743 289.444H290.204V281.595H249.743V289.444Z" fill="#DCEEFF"/>
<path fill-rule="evenodd" clip-rule="evenodd" d="M288.223 277.151L285.448 269.781L252.334 281.589L255.109 288.959L288.223 277.151Z" fill="#DCEEFF"/>
<path fill-rule="evenodd" clip-rule="evenodd" d="M286.207 289.297L289.112 281.081L256.726 270.238L253.821 278.454L286.207 289.297Z" fill="#DCEEFF"/>
<path fill-rule="evenodd" clip-rule="evenodd" d="M324.854 289.444H332.087V268.107H324.854V289.444Z" fill="#B6D4FF"/>
<path fill-rule="evenodd" clip-rule="evenodd" d="M239.615 287.705H249.836V223.402H239.615V287.705Z" stroke="#B6D4FF" stroke-width="5"/>
<path fill-rule="evenodd" clip-rule="evenodd" d="M249.836 287.705H260.057V223.402H249.836V287.705Z" stroke="#B6D4FF" stroke-width="5"/>
<path fill-rule="evenodd" clip-rule="evenodd" d="M260.057 287.705H270.279V223.402H260.057V287.705Z" stroke="#B6D4FF" stroke-width="5"/>
<path fill-rule="evenodd" clip-rule="evenodd" d="M270.279 287.705H280.5V223.402H270.279V287.705Z" stroke="#B6D4FF" stroke-width="5"/>
<path fill-rule="evenodd" clip-rule="evenodd" d="M280.5 287.705H290.721V223.402H280.5V287.705Z" stroke="#B6D4FF" stroke-width="5"/>
<path fill-rule="evenodd" clip-rule="evenodd" d="M290.721 287.705H300.943V223.402H290.721V287.705Z" stroke="#B6D4FF" stroke-width="5"/>
<path fill-rule="evenodd" clip-rule="evenodd" d="M100.452 263.543V264.066C100.452 268.428 96.8344 271.961 92.376 271.961H29.1165C19.3588 271.961 11.8497 263.203 13.1963 253.39L20.3382 198.711C20.9566 194.182 24.7676 190.812 29.2711 190.812H48.0199C52.5204 190.812 56.331 194.182 56.9531 198.711L64.095 253.39C64.1496 253.78 64.1883 254.171 64.2112 254.558L64.2495 254.552C64.2495 254.552 65.5706 263.543 77.8502 263.543H100.452Z" fill="#DCEEFF"/>
<path fill-rule="evenodd" clip-rule="evenodd" d="M33.1069 333.554C33.1069 336.342 30.6897 338.603 27.7086 338.603C24.7271 338.603 22.3106 336.342 22.3106 333.554C22.3106 330.765 24.7271 328.504 27.7086 328.504C30.6897 328.504 33.1069 330.765 33.1069 333.554Z" fill="#B6D4FF"/>
<path fill-rule="evenodd" clip-rule="evenodd" d="M82.3656 334.566H29.0183C26.9752 334.566 25.3033 333.002 25.3033 331.091C25.3033 329.179 26.9752 327.615 29.0183 327.615H82.3656C84.4087 327.615 86.0806 329.179 86.0806 331.091C86.0806 333.002 84.4087 334.566 82.3656 334.566Z" fill="#CCE3FF"/>
<path fill-rule="evenodd" clip-rule="evenodd" d="M52.9547 332.913H58.4294V271.75H52.9547V332.913Z" fill="#CCE3FF"/>
<path fill-rule="evenodd" clip-rule="evenodd" d="M74.4507 271.75L55.6918 279.742L36.9332 271.75H74.4507Z" fill="#CCE3FF"/>
<path fill-rule="evenodd" clip-rule="evenodd" d="M56.107 334.566H49.1846C47.1411 334.566 45.4692 333.002 45.4692 331.091C45.4692 329.179 47.1411 327.615 49.1846 327.615H56.107C58.1502 327.615 59.822 329.179 59.822 331.091C59.822 333.002 58.1502 334.566 56.107 334.566Z" fill="#B6D4FF"/>
<path fill-rule="evenodd" clip-rule="evenodd" d="M51.5659 333.554C51.5659 336.342 49.1491 338.603 46.168 338.603C43.1862 338.603 40.7697 336.342 40.7697 333.554C40.7697 330.765 43.1862 328.504 46.168 328.504C49.1491 328.504 51.5659 330.765 51.5659 333.554Z" fill="#B6D4FF"/>
<path fill-rule="evenodd" clip-rule="evenodd" d="M89.4309 333.554C89.4309 336.342 87.014 338.603 84.0326 338.603C81.0511 338.603 78.6346 336.342 78.6346 333.554C78.6346 330.765 81.0511 328.504 84.0326 328.504C87.014 328.504 89.4309 330.765 89.4309 333.554Z" fill="#B6D4FF"/>
<path fill-rule="evenodd" clip-rule="evenodd" d="M271.165 81.8301C271.165 94.138 260.499 104.116 247.342 104.116C234.185 104.116 223.519 94.138 223.519 81.8301C223.519 69.5218 234.185 59.5443 247.342 59.5443C260.499 59.5443 271.165 69.5218 271.165 81.8301Z" fill="#CCE3FF"/>
<path fill-rule="evenodd" clip-rule="evenodd" d="M266.494 81.8301C266.494 94.138 255.828 104.116 242.671 104.116C229.514 104.116 218.848 94.138 218.848 81.8301C218.848 69.5218 229.514 59.5443 242.671 59.5443C255.828 59.5443 266.494 69.5218 266.494 81.8301Z" fill="#DCEEFF"/>
<path fill-rule="evenodd" clip-rule="evenodd" d="M260.724 81.8284C260.724 90.5275 253.695 97.6885 244.664 98.6166C244.009 98.6844 243.346 98.7181 242.673 98.7181C232.7 98.7181 224.618 91.1574 224.618 81.8284C224.618 72.5029 232.7 64.9419 242.673 64.9419C243.346 64.9419 244.009 64.976 244.664 65.0437C253.695 65.9718 260.724 73.1328 260.724 81.8284Z" fill="#CCE3FF"/>
<path fill-rule="evenodd" clip-rule="evenodd" d="M260.724 81.8284C260.724 90.5275 253.695 97.6885 244.664 98.6166C235.629 97.6885 228.601 90.5275 228.601 81.8284C228.601 73.1327 235.629 65.9718 244.664 65.0437C253.695 65.9718 260.724 73.1327 260.724 81.8284Z" fill="#ECF6FF"/>
<path d="M243.454 72.4387L249.303 84.3731" stroke="#CCE3FF" stroke-width="8"/>
<path d="M249.861 79.3699L237.047 92.3987" stroke="#CCE3FF" stroke-width="8"/>
<path d="M48.3139 155.104C48.3139 151.554 62.5531 122.03 81.0428 122.554C106.693 123.282 113.271 160.43 112.097 164.087C111.162 166.999 106.657 168.058 86.9026 167.542C57.2332 166.767 48.3139 158.283 48.3139 155.104Z" fill="#19141E"/>
<path fill-rule="evenodd" clip-rule="evenodd" d="M82.8521 161.687C82.8521 161.687 78.9474 161.795 77.2833 160.946L82.6446 164.091L82.8521 161.687Z" fill="#CF3E83"/>
<path d="M82.1485 137.525C86.6491 139.649 93.7366 143.543 97.3411 148.401C96.7103 152.595 95.1687 158.219 91.5535 160.465C89.5636 161.701 85.9401 161.853 82.8513 161.687L82.1447 169.88L72.3672 166.853C72.3672 166.853 73.3365 157.252 73.7562 153.779C71.7301 152.061 67.9767 150.983 67.9704 148.066C67.9704 147.059 68.6015 145.31 70.9329 145.307C74.0609 145.304 73.6173 148.805 73.6173 148.805C76.7792 149.956 80.0087 141.194 82.1485 137.525L82.1485 137.525Z" fill="#B4833B"/>
<path fill-rule="evenodd" clip-rule="evenodd" d="M91.34 148.8L93.5745 153.861L90.9819 153.813L91.34 148.8Z" fill="#80450F"/>
<path fill-rule="evenodd" clip-rule="evenodd" d="M88.9609 149.019C88.905 150.03 88.2688 150.818 87.5393 150.779C86.8097 150.739 86.2635 149.888 86.3194 148.877C86.3749 147.866 87.0115 147.078 87.741 147.117C88.4705 147.156 89.0168 148.008 88.9609 149.019" fill="#19141E"/>
<path fill-rule="evenodd" clip-rule="evenodd" d="M95.8116 148.858C95.7558 149.869 95.1193 150.656 94.39 150.617C93.6605 150.578 93.1139 149.726 93.1698 148.715C93.2257 147.704 93.8619 146.916 94.5914 146.955C95.321 146.995 95.8672 147.846 95.8116 148.858" fill="#19141E"/>
<path d="M90.346 156.236C90.346 156.236 88.6568 156.746 86.9643 154.987" stroke="#19141E" stroke-width="3"/>
<path opacity="0.398182" fill-rule="evenodd" clip-rule="evenodd" d="M82.8456 161.687C82.8456 161.687 78.941 161.795 77.2769 160.946L82.6382 164.09L82.8456 161.687Z" fill="black"/>
<path fill-rule="evenodd" clip-rule="evenodd" d="M29.014 340.855C28.9883 336.457 28.3165 332.659 28.3165 332.659L33.2092 318.64L18.4197 331.197L28.101 353.454C28.101 353.454 29.0518 347.222 29.014 340.855ZM132.887 348.031C125.802 345.354 112.195 350.151 112.195 350.151L106.372 352.192L108.958 360.755L132.887 348.031Z" fill="#0D0B6D"/>
<path d="M85.5462 237.35L86.0145 239.338L106.803 327.333L112.195 350.151L106.373 352.191C106.373 352.191 102.717 343.136 97.4744 329.986C91.0697 313.93 82.3029 291.766 74.9381 272.534C74.5107 271.415 74.0892 270.311 73.6707 269.214C73.0501 270.535 72.4062 271.867 71.7388 273.204C68.7999 279.114 65.422 285.164 61.5435 291.235C54.7846 301.82 47.8619 310.798 42.0983 317.663C34.0895 327.202 28.3172 332.658 28.3172 332.658L24.7899 325.933C24.7899 325.933 29.8364 321.565 36.4518 312.076C45.1864 299.544 56.6551 278.089 62.849 245.976C63.1124 244.619 63.3642 243.241 63.6071 241.846C63.3963 241.228 63.1943 240.632 63.004 240.063C63.007 240.063 63.004 240.06 63.004 240.06C61.7366 236.272 60.9462 233.573 60.7852 232.328C59.3158 221.039 65.7175 209.959 65.7175 209.959L67.023 209.536C67.0466 209.038 67.0641 208.535 67.0817 208.031H91.5236C91.2543 209.744 90.4639 217.237 87.8997 228.218C87.2382 231.043 86.4625 234.101 85.5463 237.35L85.5462 237.35Z" fill="#B4833B"/>
<path d="M88.21 229.834C89.3428 235.728 90.7127 242.841 92.349 251.347C99.945 290.836 108.425 326.874 108.425 326.874L106.803 327.334L97.4745 329.986L93.8506 331.015C93.8506 331.015 82.7127 303.857 73.0267 276.814C72.6813 277.564 72.3271 278.311 71.97 279.057C59.2895 305.457 44.9346 320.471 44.9346 320.471L42.0982 317.663L36.4517 312.076L35.3189 310.954C35.3189 310.954 52.5248 289.264 62.2342 243.804C60.5833 237.85 59.4534 232.793 59.0963 229.191C58.1157 219.247 64.7721 210.282 66.5957 208.031L91.9421 208.031C91.6084 209.848 90.6717 218.175 88.21 229.834L88.21 229.834Z" fill="#19141E"/>
<path opacity="0.145368" fill-rule="evenodd" clip-rule="evenodd" d="M108.425 326.874L106.803 327.334L97.4745 329.986L93.8506 331.015C93.8506 331.015 82.7127 303.857 73.0267 276.814C72.5935 275.611 72.1632 274.408 71.7388 273.204C68.3257 263.539 65.1673 254.043 62.8489 245.976C62.6353 245.24 62.4333 244.515 62.2342 243.804C60.5833 237.85 59.4534 232.793 59.0963 229.191C58.1157 219.247 64.7721 210.282 66.5957 208.031H84.0124C84.6476 211.333 85.8741 217.7 87.8997 228.218C87.9992 228.746 88.1046 229.284 88.21 229.834C89.3428 235.728 90.7127 242.841 92.349 251.347C99.945 290.836 108.425 326.874 108.425 326.874" fill="white"/>
<path fill-rule="evenodd" clip-rule="evenodd" d="M85.8644 171.126C84.0478 168.255 81.6158 166.649 81.6158 166.649L70.5012 166.148C70.5012 166.148 71.4479 168.428 72.4501 171.359C74.4313 177.154 79.131 178.456 83.2259 178.45C87.0508 178.444 88.3504 175.055 85.8644 171.126ZM113.245 187.961C113.046 186.136 112.968 183.953 113.588 183.171C114.727 181.736 120.357 177.399 120.357 177.399L120.657 181.018L121.99 176.769C121.99 176.769 123.466 177.178 124.894 177.876C125.924 178.379 126.912 179.062 127.531 179.491C127.679 179.593 127.805 179.68 127.907 179.748C128.664 180.25 126.463 187.986 124.894 189.378C123.817 190.333 120.642 191.074 118.757 191.445C115.157 196.876 105.564 210.446 100.264 209.326C94.7582 208.163 89.6499 190.181 89.6499 190.181L98.9367 185.954L102.98 197.599L113.245 187.961ZM50.1392 227.369L52.3995 232.77C52.3995 232.77 52.7429 234.161 52.9348 235.804L52.9602 236.024C53.1353 237.541 53.2528 238.559 54.3647 240.913C55.1764 242.631 52.5497 242.118 51.8048 241.158C51.53 240.804 51.3038 240.056 51.0686 239.28C50.6466 237.886 50.1959 236.397 49.384 236.913C48.1197 237.716 47.7387 241.8 48.0215 245.657C48.0659 246.262 47.6157 246.757 47.2938 246.931C46.7717 247.214 46.0098 244.827 46.0098 244.827C46.0098 244.827 45.7358 245.666 44.9044 245.315C44.61 245.191 43.7332 243.568 43.7332 243.568C43.7332 243.568 43.0542 242.767 42.6971 241.874C42.0667 240.296 41.5521 237.369 41.6734 236.508C41.96 234.481 42.6049 231.058 43.4526 229.163C42.9522 224.291 41.0337 204.733 42.092 201.017C43.3033 196.766 45.6767 191.005 45.6767 191.005L54.7839 196.01L50.8797 203.797L50.1392 227.369Z" fill="#B4833B"/>
<path fill-rule="evenodd" clip-rule="evenodd" d="M125.069 177.986C124.23 177.537 123.432 177.2 123.041 177.286C122.357 177.435 123.609 179.112 124.523 180.216L124.513 180.258C123.038 180.812 121.105 181.635 120.795 182.236C120.578 182.657 121.425 182.794 122.475 182.812C121.509 183.245 120.666 183.713 120.47 184.093C120.218 184.58 121.395 184.687 122.66 184.67C121.542 185.146 120.496 185.687 120.274 186.117C119.992 186.664 121.515 186.731 122.94 186.681L122.573 188.177C122.461 188.635 122.015 188.953 121.511 188.933L116.045 188.709C115.395 188.683 114.929 188.112 115.075 187.519L118.948 171.704C119.06 171.245 119.506 170.927 120.009 170.947L125.476 171.171C126.126 171.197 126.591 171.768 126.446 172.361L125.069 177.986V177.986Z" fill="#020101"/>
<path d="M126.183 178.627C125.024 177.921 123.607 177.162 123.041 177.286C122.351 177.436 123.632 179.142 124.547 180.245C123.068 180.8 121.108 181.63 120.795 182.236C120.578 182.657 121.425 182.794 122.475 182.812C121.509 183.245 120.666 183.713 120.47 184.093C120.218 184.58 121.395 184.687 122.66 184.67C121.543 185.146 120.496 185.687 120.274 186.117C119.9 186.841 122.693 186.725 124.229 186.608L123.832 188.228C123.72 188.686 123.273 189.005 122.77 188.984L117.304 188.761C116.654 188.734 116.188 188.163 116.333 187.57L120.206 171.755C120.319 171.296 120.765 170.978 121.268 170.999L126.734 171.222C127.385 171.249 127.85 171.82 127.705 172.412L126.183 178.627Z" fill="#5E93D1"/>
<path fill-rule="evenodd" clip-rule="evenodd" d="M121.616 173.094C121.488 173.612 121.161 173.98 120.885 173.915C120.609 173.851 120.488 173.378 120.615 172.86C120.743 172.341 121.07 171.974 121.346 172.038C121.622 172.103 121.743 172.575 121.616 173.094" fill="#020101"/>
<path fill-rule="evenodd" clip-rule="evenodd" d="M120.977 175.776C120.849 176.294 120.522 176.662 120.246 176.598C119.97 176.533 119.849 176.06 119.976 175.542C120.104 175.024 120.431 174.656 120.707 174.72C120.983 174.785 121.104 175.258 120.977 175.776" fill="#020101"/>
<path d="M74.1644 166.313L70.5012 166.148C70.5012 166.148 71.4479 168.427 72.4501 171.359C74.4312 177.153 79.1309 178.456 83.2258 178.449C87.0508 178.444 88.3504 175.054 85.8644 171.126C84.2643 168.597 82.1869 167.05 81.7143 166.717C86.5441 167.022 89.5515 167.588 92.3366 170.029C97.6393 174.676 101.933 183.242 103.699 191.706L94.0085 195.746L90.5571 208.207L65.1969 207.845C65.1969 207.845 65.4189 205.563 64.872 202.265C64.1597 197.951 61.5882 194.732 61.5882 194.732L59.0375 198.355L43.174 189.617C48.3675 180.769 55.6115 171.646 60.4414 168.742C63.8535 166.691 66.9775 166.176 70.0301 166.148C71.4183 166.135 72.812 166.223 74.1644 166.313Z" fill="#5E93D1"/>
<path opacity="0.202962" d="M90.6705 208.423C91.6392 196.929 98.0423 194.216 93.2109 181.325" stroke="black" stroke-width="3"/>
<path opacity="0.202055" d="M81.6158 166.649C81.6158 166.649 84.0478 168.255 85.8644 171.126C88.3504 175.055 87.0508 178.444 83.2258 178.45C79.131 178.456 74.4312 177.154 72.4501 171.359C71.4479 168.428 70.5012 166.148 70.5012 166.148" stroke="black" stroke-width="3"/>
<path opacity="0.202962" d="M68.1016 186.685L62.2173 195.015" stroke="black" stroke-width="3"/>
</svg>
