<svg width="350" height="360" viewBox="0 0 350 360" fill="none" xmlns="http://www.w3.org/2000/svg">
<g clip-path="url(#clip0)">
<path d="M76.7443 30.9142V171.138" stroke="#ECF6FF" stroke-width="22"/>
<path d="M79.1064 25.8866V171.592" stroke="#DCEEFF" stroke-width="17"/>
<path d="M25.3685 25.2607V171.946" stroke="#B6D4FF" stroke-width="20"/>
<path d="M126.522 26.4587V170.637" stroke="#ECF6FF" stroke-width="22"/>
<path fill-rule="evenodd" clip-rule="evenodd" d="M132.692 171.946H27.1796V25.2605H132.692V171.946ZM126.25 166.271H33.6211V30.9345H126.25V166.271Z" fill="#DCEEFF"/>
<path fill-rule="evenodd" clip-rule="evenodd" d="M153.177 179.176H22.4853V171.946H153.177V179.176Z" fill="#CCE3FF"/>
<path fill-rule="evenodd" clip-rule="evenodd" d="M52.8763 179.176H20.5034V171.946H52.8763V179.176Z" fill="#B6D4FF"/>
<path d="M124.681 76.5381H27.1798" stroke="#DCEEFF" stroke-width="17"/>
<path d="M124.681 122.101H27.1798" stroke="#DCEEFF" stroke-width="17"/>
<path fill-rule="evenodd" clip-rule="evenodd" d="M58.1375 163.527C58.5945 166.908 60.5384 169.89 63.3785 171.946H81.9505C84.7906 169.89 86.7347 166.908 87.1944 163.527H58.1375Z" fill="#B6D4FF"/>
<path fill-rule="evenodd" clip-rule="evenodd" d="M58.1374 156.498C59.002 162.889 65.1768 167.848 72.6656 167.848C80.1541 167.848 86.3292 162.889 87.1935 156.498H58.1374Z" fill="#B6D4FF"/>
<path fill-rule="evenodd" clip-rule="evenodd" d="M112.653 166.643L109.5 139.575H99.6407L96.4876 166.643C96.1573 169.48 98.6838 171.946 101.921 171.946H107.22C110.457 171.946 112.984 169.48 112.653 166.643" fill="#CCE3FF"/>
<path fill-rule="evenodd" clip-rule="evenodd" d="M265.657 219.389H307.708L313.386 169.305H271.336L265.657 219.389Z" fill="#DCEEFF"/>
<path fill-rule="evenodd" clip-rule="evenodd" d="M265.657 219.389H307.708L313.386 169.305H271.336L265.657 219.389Z" stroke="#DCEEFF" stroke-width="5"/>
<path fill-rule="evenodd" clip-rule="evenodd" d="M263.388 219.389H306.221L311.899 169.305H269.066L263.388 219.389Z" fill="white"/>
<path fill-rule="evenodd" clip-rule="evenodd" d="M263.388 219.389H306.221L311.899 169.305H269.066L263.388 219.389Z" stroke="#DCEEFF" stroke-width="5"/>
<path fill-rule="evenodd" clip-rule="evenodd" d="M271.591 212.776H299.517L303.696 175.918H275.77L271.591 212.776Z" fill="#DCEEFF"/>
<path fill-rule="evenodd" clip-rule="evenodd" d="M238.663 209.727H236.772C227.951 209.727 220.8 203.414 220.8 195.626H254.635C254.635 203.414 247.484 209.727 238.663 209.727" fill="#ECF6FF"/>
<path fill-rule="evenodd" clip-rule="evenodd" d="M221.329 209.727V209.727C221.329 211.411 222.875 212.776 224.781 212.776H255.844V206.679H224.781C222.875 206.679 221.329 208.044 221.329 209.727" fill="#DCEEFF"/>
<path fill-rule="evenodd" clip-rule="evenodd" d="M242.221 209.727V209.727C242.221 210.702 243.116 211.492 244.22 211.492H255.76C255.806 211.492 255.844 211.459 255.844 211.419V208.036C255.844 207.996 255.806 207.963 255.76 207.963H244.22C243.116 207.963 242.221 208.753 242.221 209.727" fill="#ECF6FF"/>
<path fill-rule="evenodd" clip-rule="evenodd" d="M216.993 212.776V218.872H250.898C252.805 218.872 254.35 217.507 254.35 215.824C254.35 214.14 252.805 212.776 250.898 212.776H216.993Z" fill="#DCEEFF"/>
<path fill-rule="evenodd" clip-rule="evenodd" d="M216.993 214.076V217.572H230.934C232.027 217.572 232.913 216.789 232.913 215.824C232.913 214.859 232.027 214.076 230.934 214.076H216.993Z" fill="#ECF6FF"/>
<path fill-rule="evenodd" clip-rule="evenodd" d="M216.993 328.584H309.782V244.27H216.993V328.584Z" fill="#CCE3FF"/>
<path fill-rule="evenodd" clip-rule="evenodd" d="M303.808 328.584H317.04V246.672H303.808V328.584Z" fill="#DCEEFF"/>
<path fill-rule="evenodd" clip-rule="evenodd" d="M205.533 247.973H317.04V226.14H205.533V247.973Z" fill="#DCEEFF"/>
<path fill-rule="evenodd" clip-rule="evenodd" d="M192.421 226.14H331.569V218.657H192.421V226.14Z" fill="#CCE3FF"/>
<path fill-rule="evenodd" clip-rule="evenodd" d="M317.04 328.584H323.496V226.14H317.04V328.584Z" fill="#B6D4FF"/>
<path fill-rule="evenodd" clip-rule="evenodd" d="M218.764 328.584H222.967V248.055H218.764V328.584Z" fill="#B6D4FF"/>
<path fill-rule="evenodd" clip-rule="evenodd" d="M322.187 226.14H335.557V218.657H322.187V226.14Z" fill="#B6D4FF"/>
<path fill-rule="evenodd" clip-rule="evenodd" d="M205.533 328.584H218.765V244.17H205.533V328.584Z" fill="#DCEEFF"/>
<path fill-rule="evenodd" clip-rule="evenodd" d="M201.831 328.584H218.765V307.941H201.831V328.584Z" fill="#DCEEFF"/>
<path fill-rule="evenodd" clip-rule="evenodd" d="M303.808 328.584H320.881V307.941H303.808V328.584Z" fill="#DCEEFF"/>
<path fill-rule="evenodd" clip-rule="evenodd" d="M246.467 325.401C246.467 325.401 231.235 317.516 249.59 294.577C249.59 294.577 259.039 304.319 262.677 292.776C262.677 292.776 272.976 307.191 266.29 315.896" fill="#ECF6FF"/>
<path fill-rule="evenodd" clip-rule="evenodd" d="M280.236 326.201C280.236 326.201 293.95 316.485 282.846 296.928C282.846 296.928 266.927 311.934 262.904 284.123C262.904 284.123 251.279 305.12 258.582 315.198" fill="#ECF6FF"/>
<path fill-rule="evenodd" clip-rule="evenodd" d="M242.863 328.584H284.355V320.99H242.863V328.584Z" fill="#DCEEFF"/>
<path fill-rule="evenodd" clip-rule="evenodd" d="M282.324 316.69L279.478 309.56L245.52 320.984L248.366 328.115L282.324 316.69Z" fill="#DCEEFF"/>
<path fill-rule="evenodd" clip-rule="evenodd" d="M280.256 328.441L283.235 320.492L250.024 310.002L247.045 317.951L280.256 328.441Z" fill="#DCEEFF"/>
<path fill-rule="evenodd" clip-rule="evenodd" d="M319.888 328.584H327.305V307.941H319.888V328.584Z" fill="#B6D4FF"/>
<path fill-rule="evenodd" clip-rule="evenodd" d="M232.477 326.902H242.959V264.689H232.477V326.902Z" stroke="#B6D4FF" stroke-width="5"/>
<path fill-rule="evenodd" clip-rule="evenodd" d="M242.959 326.902H253.44V264.689H242.959V326.902Z" stroke="#B6D4FF" stroke-width="5"/>
<path fill-rule="evenodd" clip-rule="evenodd" d="M253.44 326.902H263.922V264.689H253.44V326.902Z" stroke="#B6D4FF" stroke-width="5"/>
<path fill-rule="evenodd" clip-rule="evenodd" d="M263.922 326.902H274.404V264.689H263.922V326.902Z" stroke="#B6D4FF" stroke-width="5"/>
<path fill-rule="evenodd" clip-rule="evenodd" d="M274.404 326.902H284.885V264.689H274.404V326.902Z" stroke="#B6D4FF" stroke-width="5"/>
<path fill-rule="evenodd" clip-rule="evenodd" d="M284.885 326.902H295.367V264.689H284.885V326.902Z" stroke="#B6D4FF" stroke-width="5"/>
<path fill-rule="evenodd" clip-rule="evenodd" d="M104.125 287.871V288.377C104.125 292.597 100.415 296.016 95.8434 296.016H30.9722C20.9659 296.016 13.2654 287.542 14.6463 278.048L21.9702 225.147C22.6044 220.765 26.5124 217.505 31.1306 217.505H50.3572C54.9723 217.505 58.88 220.765 59.518 225.147L66.8418 278.048C66.8978 278.426 66.9375 278.804 66.9609 279.178L67.0003 279.172C67.0003 279.172 68.355 287.871 80.9475 287.871H104.125Z" fill="#DCEEFF"/>
<path fill-rule="evenodd" clip-rule="evenodd" d="M35.0642 355.606C35.0642 358.304 32.5854 360.491 29.5284 360.491C26.471 360.491 23.9929 358.304 23.9929 355.606C23.9929 352.908 26.471 350.72 29.5284 350.72C32.5854 350.72 35.0642 352.908 35.0642 355.606" fill="#B6D4FF"/>
<path fill-rule="evenodd" clip-rule="evenodd" d="M85.5779 356.585H30.8715C28.7762 356.585 27.0618 355.072 27.0618 353.223C27.0618 351.374 28.7762 349.86 30.8715 349.86H85.5779C87.6731 349.86 89.3875 351.374 89.3875 353.223C89.3875 355.072 87.6731 356.585 85.5779 356.585" fill="#CCE3FF"/>
<path fill-rule="evenodd" clip-rule="evenodd" d="M55.4177 354.986H61.0319V295.812H55.4177V354.986Z" fill="#CCE3FF"/>
<path fill-rule="evenodd" clip-rule="evenodd" d="M77.4613 295.812L58.2245 303.544L38.988 295.812H77.4613Z" fill="#CCE3FF"/>
<path fill-rule="evenodd" clip-rule="evenodd" d="M58.6503 356.585H51.5515C49.456 356.585 47.7415 355.072 47.7415 353.223C47.7415 351.374 49.456 349.86 51.5515 349.86H58.6503C60.7455 349.86 62.46 351.374 62.46 353.223C62.46 355.072 60.7455 356.585 58.6503 356.585" fill="#B6D4FF"/>
<path fill-rule="evenodd" clip-rule="evenodd" d="M53.9936 355.606C53.9936 358.304 51.5151 360.491 48.4581 360.491C45.4003 360.491 42.9222 358.304 42.9222 355.606C42.9222 352.908 45.4003 350.72 48.4581 350.72C51.5151 350.72 53.9936 352.908 53.9936 355.606" fill="#B6D4FF"/>
<path fill-rule="evenodd" clip-rule="evenodd" d="M92.8232 355.606C92.8232 358.304 90.3448 360.491 87.2874 360.491C84.2299 360.491 81.7518 358.304 81.7518 355.606C81.7518 352.908 84.2299 350.72 87.2874 350.72C90.3448 350.72 92.8232 352.908 92.8232 355.606" fill="#B6D4FF"/>
<path fill-rule="evenodd" clip-rule="evenodd" d="M317.286 62.8524C317.286 74.7602 306.348 84.4136 292.856 84.4136C279.364 84.4136 268.426 74.7602 268.426 62.8524C268.426 50.9442 279.364 41.2911 292.856 41.2911C306.348 41.2911 317.286 50.9442 317.286 62.8524" fill="#CCE3FF"/>
<path fill-rule="evenodd" clip-rule="evenodd" d="M312.496 62.8524C312.496 74.7602 301.558 84.4136 288.066 84.4136C274.573 84.4136 263.636 74.7602 263.636 62.8524C263.636 50.9442 274.573 41.2911 288.066 41.2911C301.558 41.2911 312.496 50.9442 312.496 62.8524" fill="#DCEEFF"/>
<path fill-rule="evenodd" clip-rule="evenodd" d="M306.579 62.8508C306.579 71.2671 299.371 78.1953 290.11 79.0932C289.438 79.1587 288.758 79.1913 288.068 79.1913C277.841 79.1913 269.553 71.8765 269.553 62.8508C269.553 53.8284 277.841 46.5132 288.068 46.5132C288.758 46.5132 289.438 46.5462 290.11 46.6117C299.371 47.5096 306.579 54.4378 306.579 62.8508" fill="#CCE3FF"/>
<path fill-rule="evenodd" clip-rule="evenodd" d="M306.579 62.8508C306.579 71.2671 299.371 78.1953 290.11 79.0932C280.845 78.1953 273.638 71.2671 273.638 62.8508C273.638 54.4378 280.845 47.5096 290.11 46.6117C299.371 47.5096 306.579 54.4378 306.579 62.8508" fill="#ECF6FF"/>
<path d="M288.869 53.7663L294.867 65.3128" stroke="#CCE3FF" stroke-width="8"/>
<path d="M295.439 60.4722L282.299 73.0775" stroke="#CCE3FF" stroke-width="8"/>
<g clip-path="url(#clip1)">
<path fill-rule="evenodd" clip-rule="evenodd" d="M199 87.6571C198.69 95.3867 194.744 100.019 194.375 107.232C193.901 116.511 199.036 115.53 198.647 123.144C198.445 127.09 232.37 136.616 241.931 124.208C248.067 116.246 241.981 115.253 242.533 104.451C243.08 93.7584 235.65 92.1533 235.938 86.5158C236.321 79.0139 230.505 69.0184 221.01 68.4956C209.445 67.8591 199.468 75.9745 199 87.6571Z" fill="#19141E"/>
<path fill-rule="evenodd" clip-rule="evenodd" d="M216.289 105.806C216.289 105.806 219.689 106.098 221.183 105.356L216.351 108.141L216.289 105.806Z" fill="#CF3E83"/>
<path d="M224.079 99.2154C222.918 100.927 223.237 103.284 223.777 104.68C223.959 105.16 225.097 109.161 225.283 109.349C226.007 110.081 216.501 113.766 216.501 113.766L216.289 105.806C213.587 105.819 210.433 105.498 208.758 104.206C203.769 100.358 204.095 87.9818 204.212 87.3682L208.807 82.5789C208.807 82.5789 215.508 79.8087 216.435 81.1932C218.132 83.7289 221.835 94.8619 224.984 93.7876C224.984 93.7876 224.768 90.3778 227.497 90.532C229.531 90.6468 229.995 92.3675 229.944 93.3437C229.77 96.6395 225.637 96.9092 224.079 99.2154" fill="#FCBDA4"/>
<path fill-rule="evenodd" clip-rule="evenodd" d="M209.497 93.4091L207.297 98.1982L209.561 98.2756L209.497 93.4091Z" fill="#125475"/>
<path fill-rule="evenodd" clip-rule="evenodd" d="M211.561 93.7359C211.56 94.7168 212.076 95.5094 212.714 95.5064C213.353 95.5034 213.871 94.7056 213.873 93.725C213.874 92.7441 213.358 91.9515 212.72 91.9545C212.082 91.9575 211.563 92.7553 211.561 93.7359" fill="#0D0B6D"/>
<path fill-rule="evenodd" clip-rule="evenodd" d="M205.594 93.2512C205.592 94.2321 206.109 95.0247 206.747 95.0217C207.385 95.0187 207.904 94.2209 207.905 93.2403C207.907 92.2594 207.391 91.4669 206.752 91.4699C206.114 91.4729 205.596 92.2706 205.594 93.2512" fill="#0D0B6D"/>
<path fill-rule="evenodd" clip-rule="evenodd" d="M207.978 74.4881C207.753 74.2274 207.515 73.9789 207.264 73.7437C206.701 74.2441 206.168 74.7781 205.669 75.346C202.988 78.3958 201.273 82.3595 201.042 86.7638C201.036 86.8753 201.03 86.9841 201.027 87.0956H201.024L200.836 90.6641C200.97 90.6663 201.101 90.663 201.235 90.6573C203.846 90.5359 206.208 89.3443 207.874 87.4826C208.491 86.7911 209.014 86.0065 209.421 85.151C209.485 85.0242 209.542 84.8917 209.598 84.7646C209.881 84.0878 210.092 83.3708 210.22 82.6238C219.146 95.6864 224.983 93.7875 224.983 93.7875L224.137 86.9552L230.642 79.7058C230.642 79.7058 212.092 71.4012 207.978 74.4881V74.4881Z" fill="#19141E"/>
<path fill-rule="evenodd" clip-rule="evenodd" d="M207.978 74.4881C207.753 74.2274 207.515 73.9789 207.264 73.7437C206.701 74.2441 206.168 74.7781 205.669 75.346C202.988 78.3958 201.273 82.3595 201.042 86.7638C201.036 86.8753 201.03 86.9841 201.027 87.0956H201.024L200.836 90.6641C200.97 90.6663 201.101 90.663 201.235 90.6573C203.846 90.5359 206.208 89.3443 207.874 87.4826C208.491 86.7911 209.014 86.0065 209.421 85.151C209.485 85.0242 209.542 84.8917 209.598 84.7646C209.881 84.0878 210.092 83.3708 210.22 82.6238C219.146 95.6864 224.983 93.7875 224.983 93.7875L224.137 86.9552L230.642 79.7058C230.642 79.7058 212.092 71.4012 207.978 74.4881V74.4881Z" fill="#19141E"/>
<path d="M209.996 100.652C209.996 100.652 211.444 101.225 213.008 99.6055" stroke="#1C295E"/>
<path opacity="0.396996" fill-rule="evenodd" clip-rule="evenodd" d="M216.294 105.806C216.294 105.806 219.695 106.098 221.189 105.356L216.356 108.141L216.294 105.806Z" fill="black"/>
<path fill-rule="evenodd" clip-rule="evenodd" d="M224.999 298.403L231.418 298.737C231.418 298.737 236.267 299.972 239.617 306.799H224.313L224.999 298.403ZM178.081 306.877C182.622 301.997 194.703 298.715 194.703 298.715L199.231 298.571L199.822 306.918L178.081 306.877Z" fill="#0D0B6D"/>
<path fill-rule="evenodd" clip-rule="evenodd" d="M234.259 303.126C230.56 303.05 228.028 300.985 226.715 299.558L225.207 299.845L219.999 216.195L236.795 224.258L230.402 298.075C231.472 298.819 237.625 303.195 234.259 303.126ZM183.938 302.827L192.597 298.933C193.094 295.515 195.197 280.641 197.136 260.659C198.875 242.731 200.39 226.323 200.39 226.323L214.836 227.021L199.038 299.678H197.323C194.574 301.131 189.245 303.429 183.938 302.827Z" fill="#FCBDA4"/>
<path d="M230.634 149.358C230.634 149.358 235.111 151.576 239.006 163.615C244.22 179.729 245.747 228.535 245.747 228.535H195.545L208.482 149.708L230.634 149.358Z" fill="#2F2F3D"/>
<path fill-rule="evenodd" clip-rule="evenodd" d="M194.281 170.227C194.281 170.227 197.263 170.615 197.83 171.997C199.453 175.952 196.09 183.022 196.09 183.022C196.09 183.022 197.515 182.121 197.798 182.909C197.925 183.26 198.21 186.061 192.872 186.249C192.305 186.269 190.942 185.075 190.942 185.075C190.942 185.075 191.936 187.042 190.414 187.428C190.414 187.428 187.96 183.619 187.923 182.772C187.885 181.924 188.672 177.634 189.098 176.768C189.524 175.901 194.281 170.227 194.281 170.227ZM244.763 177.168L245.819 170.365C247.26 171.054 248.504 170.997 249.54 170.95C250.604 170.901 251.448 170.863 252.06 171.654C253.281 173.231 254.685 176.471 255.416 178.391C255.718 179.184 255.895 182.083 255.667 183.723C255.538 184.651 255.093 185.56 255.093 185.56C255.093 185.56 254.649 187.297 254.407 187.479C253.723 187.994 253.286 187.255 253.286 187.255C253.286 187.255 253.117 189.693 252.576 189.538C252.243 189.442 251.721 189.07 251.627 188.483C251.032 184.75 249.779 180.945 248.443 180.455C247.585 180.142 247.502 181.657 247.424 183.076C247.381 183.866 247.339 184.627 247.166 185.024C246.696 186.101 244.403 187.161 244.766 185.348C245.264 182.865 245.146 181.871 244.97 180.388C244.962 180.318 244.953 180.246 244.945 180.173C244.756 178.567 244.763 177.168 244.763 177.168Z" fill="#FCBDA4"/>
<path opacity="0.152414" d="M195 175.335C195 175.335 194.251 178.268 191.68 179.181C190.781 179.501 191.005 183.272 188.802 182.821" stroke="black"/>
<path d="M226.543 111.586L225.787 105.903L214.263 107.549L214.892 112.272C211.509 112.61 209.206 113.294 207.051 115.344C200.13 121.928 199.621 146.575 199.621 146.575L192.306 172.47L198.326 173.252C198.326 173.252 208.401 159.417 210.628 151.978H231.267C231.267 151.978 231.072 149.767 231.557 146.572C232.196 142.393 234.488 139.277 234.488 139.277L238.634 144.563L245.819 170.931L252.421 172.159C252.421 172.159 254.402 150.603 250.395 138.832C246.893 128.537 240.502 117.356 235.511 114.098C232.343 112.029 229.367 111.575 226.543 111.586V111.586Z" fill="#CE3D29"/>
<path opacity="0.195894" d="M208.58 152.265C207.733 141.13 201.876 138.775 206.097 126.288" stroke="black" stroke-width="3"/>
<path opacity="0.195894" d="M229.349 131.207L234.489 139.276" stroke="black" stroke-width="3"/>
<g clip-path="url(#clip2)">
<path d="M166.229 129.528L165.992 121.495C165.992 121.495 175.906 122.272 178.026 121.187C178.026 121.187 180.618 108.037 177.527 100.755L177.464 100.471L156.545 98.0615L155.243 109.74C154.539 107.693 148.852 105.515 147.331 108.446C144.037 114.798 155.816 119.074 155.816 119.074L154.621 129.625" fill="#A15611"/>
<path opacity="0.400274" fill-rule="evenodd" clip-rule="evenodd" d="M165.992 121.494L159.308 120.083L165.96 124.508L165.992 121.494Z" fill="black"/>
<path fill-rule="evenodd" clip-rule="evenodd" d="M171.506 108.367L173.816 113.928L171.048 113.963L171.506 108.367Z" fill="#19141E"/>
<path fill-rule="evenodd" clip-rule="evenodd" d="M168.873 109.947C169.01 110.695 168.505 111.412 167.745 111.548C166.984 111.683 166.256 111.186 166.119 110.437C165.981 109.688 166.486 108.971 167.247 108.836C168.007 108.7 168.735 109.198 168.873 109.947" fill="#19141E"/>
<path fill-rule="evenodd" clip-rule="evenodd" d="M176.138 109.947C176.276 110.695 175.77 111.412 175.01 111.548C174.25 111.683 173.522 111.186 173.384 110.437C173.246 109.688 173.751 108.971 174.512 108.836C175.272 108.7 176 109.198 176.138 109.947" fill="#19141E"/>
<path fill-rule="evenodd" clip-rule="evenodd" d="M168.634 115.536C168.634 115.536 169.602 117.081 171.518 116.95Z" fill="white"/>
<path d="M168.634 115.536C168.634 115.536 169.602 117.081 171.518 116.95" stroke="#252535" stroke-width="2"/>
<path fill-rule="evenodd" clip-rule="evenodd" d="M155.37 109.864C153.807 108.269 152.107 107.593 151.076 107.313L151.273 103.288L161.1 101.6C160.423 106.091 157.792 108.541 155.37 109.864V109.864Z" fill="#EACB47"/>
<path fill-rule="evenodd" clip-rule="evenodd" d="M178.107 102.325C177.221 101.495 171.451 101.238 164.515 101.764C162.902 101.887 161.355 102.041 159.925 102.219C155.197 102.804 151.718 103.636 151.151 104.368C150.523 95.2269 156.208 89.7831 163.651 89.2766C168.534 88.9439 172.962 90.8205 175.613 94.7302C176.969 96.734 177.862 99.2737 178.107 102.325" fill="#393954"/>
<path fill-rule="evenodd" clip-rule="evenodd" d="M178.219 102.506H178.216C178.207 102.442 178.169 102.381 178.107 102.325C177.222 101.496 171.451 101.239 164.515 101.765C162.901 101.887 161.355 102.041 159.925 102.22C161.959 100.316 165.681 97.3069 170.071 95.9563C171.949 95.3789 173.852 94.9581 175.613 94.7306C179.887 94.1727 183.316 94.7453 183.487 96.9301C183.708 99.7731 178.956 102.154 178.219 102.506" fill="#161629"/>
<path fill-rule="evenodd" clip-rule="evenodd" d="M155.139 126.661C155.747 127.693 158.416 131.507 164.742 131.867C170.852 132.213 170.399 129.075 170.08 128.026C169.937 127.988 169.794 127.949 169.65 127.91C168.306 127.55 166.876 127.166 164.918 126.969C159.572 126.432 159.152 126.392 155.139 126.661ZM203.566 143.299C200.659 148.838 190.451 167.019 183.174 164.119C177.726 161.948 171.204 143.946 171.204 143.946L181.806 137.825L186.57 150.196L196.298 139.944C195.967 137.913 195.703 135.257 196.361 134.321C197.482 132.728 203.154 127.818 203.154 127.818L204.187 136.136L204.367 135.435C204.367 135.396 204.377 135.354 204.397 135.308L204.403 135.295L204.821 133.672C204.646 133.586 204.574 133.464 204.65 133.294C204.711 133.157 204.845 133.006 205.033 132.848L206.459 127.306C206.459 127.306 206.926 127.508 207.612 127.811C208.716 127.59 212.711 130.225 212.771 130.265L212.772 130.265C213.586 130.775 211.651 139.199 210.079 140.764C208.961 141.877 205.482 142.837 203.566 143.299ZM138.613 180.863L139.263 182.059C139.263 182.059 139.85 183.036 140.466 184.742C140.693 185.372 140.802 185.912 140.915 186.478C141.109 187.442 141.318 188.481 142.157 190.17C143.668 193.211 140.965 191.957 139.996 190.629C139.677 190.193 139.508 189.692 139.346 189.212C139.123 188.551 138.912 187.929 138.345 187.565C138.316 187.609 138.285 187.655 138.251 187.704C137.889 188.227 137.229 189.181 136.846 193.189C136.771 193.976 137.139 196.528 137.139 196.528C137.14 196.585 137.141 196.647 137.142 196.712C137.157 197.523 137.181 198.906 136.351 199.132C136.128 199.192 135.839 198.953 135.839 198.953C135.839 198.953 135.926 199.951 135.008 200.15C134.648 200.228 133.931 198.073 133.931 198.073C133.931 198.073 133.822 199.168 133.137 199.289C132.944 199.324 130.657 193.08 130.657 193.08L130.795 194.49L131.098 195.935C131.098 195.935 131.074 196.712 130.43 196.85C130.175 196.904 129.684 195.608 129.224 194.082C128.509 191.708 128.524 189.925 128.734 188.151C128.785 187.721 128.821 187.348 128.855 187.005C128.987 185.641 129.073 184.76 129.859 182.659C129.976 182.344 130.134 181.983 130.31 181.612C129.771 177.093 128.25 163.866 128.436 159.805C128.662 154.879 134.042 143.945 134.042 143.945L144.963 149.868L138.944 160.508L138.613 180.863Z" fill="#A15611"/>
<path fill-rule="evenodd" clip-rule="evenodd" d="M144.634 171.759H179.673L180.957 150.777L187.106 147.3L182.798 137.691L182.76 137.698C182.58 137.349 182.383 136.987 182.168 136.61C179.494 131.938 174.92 129.303 170.08 128.025C170.001 128.004 169.97 127.989 169.966 127.994C169.957 128.007 170.125 128.144 170.173 128.623C170.24 129.293 170.022 130.202 169.793 130.478C169.252 131.13 168.434 131.5 168.105 131.587C167.777 131.674 167.516 131.724 167.225 131.781C167.021 131.82 165.862 131.903 165.662 131.893C164.012 131.81 163.203 131.735 162.164 131.496C161.797 131.411 161.416 131.315 160.965 131.131C160.88 131.096 160.788 131.059 160.688 131.019C160.201 130.825 159.551 130.566 158.891 130.209C158.194 129.831 157.483 129.332 156.969 128.823C156.919 128.773 156.871 128.726 156.823 128.679C156.283 128.145 155.915 127.781 155.659 127.416C155.486 127.168 155.421 127.086 155.383 127.038C155.36 127.009 155.346 126.992 155.325 126.958C155.268 126.87 155.22 126.791 155.206 126.739C155.191 126.682 155.244 126.658 155.242 126.653C155.241 126.649 155.217 126.653 155.139 126.66C152.672 126.897 150.022 127.514 147.132 128.823C138.192 132.868 132.967 143.031 132.967 143.031L144.046 151.068L144.634 171.759Z" fill="#5E93D1"/>
<path opacity="0.200521" d="M144.046 151.067L146.856 152.912L153.612 145.303" stroke="black" stroke-width="5"/>
<path d="M208.208 137.617L207.719 139.94H199.791L203.53 121.445H211.458C211.253 122.461 210.769 124.855 210.006 128.626L208.447 127.927L207.962 127.797L207.58 127.818L207.414 127.927V128.377L209.108 130.734L207.812 131.281L205.818 132.293L205.241 132.679L205.018 132.879L204.836 133.037L204.72 133.172L204.65 133.294L204.62 133.451L204.65 133.521L204.684 133.575L204.735 133.623L205.389 133.847L206.88 133.451H208.354L206.386 133.847L205.09 134.597L204.65 134.998L204.401 135.294V135.564L204.836 135.753L207.58 135.448L206.671 135.926L206.069 136.288L205.517 136.563L205.09 137.096V137.359L205.241 137.513L205.625 137.71H206.209H207.386L208.208 137.617Z" fill="#5E93D1"/>
<path fill-rule="evenodd" clip-rule="evenodd" d="M199.79 139.94H198.478L202.218 121.445H203.529L199.79 139.94Z" fill="#020101"/>
<path fill-rule="evenodd" clip-rule="evenodd" d="M204.895 123.592C204.785 124.132 204.46 124.526 204.169 124.471C203.878 124.416 203.731 123.933 203.84 123.393C203.95 122.853 204.275 122.459 204.566 122.514C204.857 122.569 205.004 123.052 204.895 123.592" fill="#020101"/>
<path fill-rule="evenodd" clip-rule="evenodd" d="M174.139 297.96L174.213 291.814L166.02 287.823L164.831 305.392H193.218C188.388 300.13 174.139 297.96 174.139 297.96ZM137.777 298.199L137.851 291.296L132.509 295.502L128.211 297.817L126.792 305.392H146.221C143.778 298.957 137.777 298.199 137.777 298.199Z" fill="#0D0B6D"/>
<path fill-rule="evenodd" clip-rule="evenodd" d="M137.851 291.296L129.658 288.915L128.211 297.817L137.777 298.199L137.851 291.296ZM174.213 291.814L166.02 289.433L165.359 297.578L174.14 297.96L174.213 291.814Z" fill="#E576C6"/>
<path d="M175.387 289.799L175.198 295.503H164.391L164.58 289.782C163.37 289.312 162.504 288.182 162.475 286.848L160.735 201.411L141.938 287.667C141.673 288.88 140.743 289.822 139.561 290.169L138.854 295.503H127.522L128.498 289.614C127.554 288.907 127.007 287.744 127.195 286.501L144.501 172.18L160.14 172.18L160.139 172.136H179.081L177.946 286.688C177.93 288.194 176.846 289.454 175.387 289.799V289.799Z" fill="#2F2F3D"/>
<path opacity="0.197824" fill-rule="evenodd" clip-rule="evenodd" d="M160.639 202.765L163.956 188.545L161.461 231.656L160.639 202.765Z" fill="black"/>
<path d="M148.547 172.287L150.363 172.573L130.567 289.074L128.747 288.78L148.547 172.287Z" fill="#EFEFEF"/>
</g>
<path fill-rule="evenodd" clip-rule="evenodd" d="M94.109 332.232C99.8978 332.122 103.861 329.136 105.916 327.073L108.276 327.487L116.428 206.536L90.1395 218.194L100.145 324.928C98.4711 326.003 88.8395 332.332 94.109 332.232ZM168.29 331.8L154.737 326.169C153.959 321.226 150.668 299.72 147.633 270.827C144.91 244.905 142.54 221.179 142.54 221.179L119.928 222.19L144.655 327.246H147.34C151.643 329.347 159.984 332.67 168.29 331.8Z" fill="#A15611"/>
<path d="M138.828 120.809C138.828 122.845 138.607 124.833 138.184 126.752C135.324 139.814 123.216 144.272 108.712 144.272C92.0816 144.272 78.5979 136.724 78.5979 120.809C78.5979 104.895 92.0816 91.9957 108.712 91.9957C120.145 91.9957 130.092 98.0907 135.193 107.073C137.51 111.156 138.828 115.835 138.828 120.809" fill="#F6B852"/>
<mask id="mask0" mask-type="alpha" maskUnits="userSpaceOnUse" x="78" y="91" width="61" height="54">
<path d="M138.828 120.809C138.828 122.845 138.607 124.833 138.184 126.752C135.324 139.814 123.216 144.272 108.712 144.272C92.0816 144.272 78.5979 136.724 78.5979 120.809C78.5979 104.895 92.0816 91.9957 108.712 91.9957C120.145 91.9957 130.092 98.0907 135.193 107.073C137.51 111.156 138.828 115.835 138.828 120.809" fill="white"/>
</mask>
<g mask="url(#mask0)">
</g>
<path fill-rule="evenodd" clip-rule="evenodd" d="M113.876 139.981C113.876 139.981 110.26 140.083 108.719 139.277L113.684 142.26L113.876 139.981Z" fill="#CF3E83"/>
<path d="M112.667 118.108C116.188 121.007 121.4 123.702 127.519 125.535C127.129 129.501 125.836 136.338 121.934 138.821C120.091 139.994 116.735 140.138 113.876 139.98L113.22 147.751L104.721 144.566C104.721 144.566 106.842 135.122 105.707 133.386C104.181 131.048 100.1 130.295 100.095 127.063C100.094 126.106 100.678 124.449 102.837 124.446C105.735 124.442 105.322 127.764 105.322 127.764C107.988 128.756 110.706 121.959 112.667 118.108V118.108Z" fill="#A15611"/>
<path fill-rule="evenodd" clip-rule="evenodd" d="M121.736 127.758L123.805 132.558L121.404 132.512L121.736 127.758Z" fill="#CF8414"/>
<path fill-rule="evenodd" clip-rule="evenodd" d="M119.533 127.966C119.481 128.925 118.892 129.672 118.216 129.635C117.541 129.598 117.035 128.79 117.086 127.831C117.138 126.872 117.727 126.125 118.403 126.162C119.078 126.2 119.584 127.007 119.533 127.966" fill="#1D1D23"/>
<path fill-rule="evenodd" clip-rule="evenodd" d="M125.877 127.812C125.825 128.771 125.236 129.518 124.56 129.481C123.884 129.444 123.379 128.637 123.43 127.678C123.482 126.719 124.071 125.971 124.747 126.009C125.422 126.046 125.928 126.853 125.877 127.812" fill="#1D1D23"/>
<path d="M120.815 134.811C120.815 134.811 119.251 135.294 117.684 133.626" stroke="#24242B"/>
<path opacity="0.399019" fill-rule="evenodd" clip-rule="evenodd" d="M113.87 139.98C113.87 139.98 110.254 140.082 108.713 139.277L113.678 142.259L113.87 139.98Z" fill="black"/>
<path d="M141.431 254.925H75.2904C75.2904 254.925 79.7978 223.275 87.8707 202.293C93.2256 188.375 98.0467 184.471 99.6434 183.502H122.746C123.247 184.602 128.048 195.387 133.249 216.725C139.829 243.709 141.431 254.925 141.431 254.925" fill="#FCBDA4"/>
<path d="M138.877 202.234C140.344 203.885 142.13 205.938 142.39 206.427C142.842 207.275 143.676 211.475 143.637 212.305C143.597 213.134 140.996 216.863 140.996 216.863C139.382 216.485 140.436 214.559 140.436 214.559C140.436 214.559 138.99 215.729 138.39 215.709C132.73 215.525 133.033 212.783 133.167 212.439C133.467 211.668 134.978 212.55 134.978 212.55C134.978 212.55 132.073 206.911 132.773 202.966L132.61 202.985L123.698 189.4L123.08 184.106L98.8023 183.764C98.8023 183.764 99.0121 181.599 98.495 178.471C97.8211 174.38 93.7103 166.781 93.7103 166.781L87.3574 175.97L82.7365 199.942C82.761 199.928 82.7855 199.912 82.81 199.897L84.9142 206.336C84.9142 206.336 85.1259 209.028 85.1633 210.612C85.2008 212.195 85.181 211.818 86.1085 214.262C86.7547 215.966 84.1941 215.271 83.5437 214.297C82.8729 213.292 82.8648 209.388 81.5346 210.055C80.2044 210.723 79.4463 214.592 79.3686 218.296C79.3563 218.877 78.8633 219.047 78.5274 219.188C77.9827 219.417 77.4481 217.347 77.4481 217.347C77.4481 217.347 77.098 218.126 76.3049 217.727C76.0242 217.585 75.3041 215.967 75.3041 215.967C75.3041 215.967 74.7046 215.15 74.4331 214.269C73.9538 212.714 73.715 209.879 73.9155 209.067C74.3902 207.148 75.3537 203.916 76.3757 202.177C76.357 201.788 75.4397 182.303 79.6424 170.894C83.3556 160.815 89.0128 149.869 94.3031 146.68C99.7447 143.399 104.647 144.266 109.199 144.494C117.068 144.89 120.961 144.809 124.478 147.9C131.816 154.345 129.277 179.812 129.277 179.812L138.991 202.22L138.877 202.234V202.234Z" fill="#A15611"/>
<path opacity="0.152762" d="M136.134 205.025C136.134 205.025 136.928 207.895 139.654 208.79C140.607 209.103 140.369 212.795 142.705 212.353" stroke="black" stroke-width="3"/>
<path d="M104.421 144.24L105.26 144.265C105.26 144.265 105.26 144.265 105.26 144.276C105.258 144.344 105.26 144.425 105.267 144.498C105.27 144.532 105.273 144.562 105.278 144.584C105.38 145.098 105.865 148.788 106.744 155.734L105.911 155.83C105.039 148.944 104.55 145.219 104.454 144.733C104.443 144.681 104.436 144.625 104.431 144.566C104.421 144.461 104.419 144.355 104.421 144.263C104.421 144.246 104.421 144.246 104.421 144.24Z" fill="#2B2B38"/>
<path d="M120.119 149.498C121.425 151.13 122.596 152.878 123.615 154.625C123.972 155.237 124.284 155.805 124.55 156.315C124.643 156.494 124.724 156.654 124.793 156.791C124.834 156.874 124.862 156.932 124.877 156.963L124.123 157.305C124.11 157.279 124.084 157.225 124.045 157.146C123.979 157.013 123.901 156.858 123.81 156.684C123.549 156.185 123.243 155.628 122.893 155.027C121.893 153.312 120.744 151.597 119.464 149.998C118.055 148.236 116.571 146.725 115.029 145.542L113.971 144.73L115.313 144.817C115.493 144.829 115.619 144.915 115.736 145.053C117.266 146.257 118.729 147.761 120.119 149.498Z" fill="#2B2B38"/>
<path opacity="0.148693" d="M93.7104 166.781L97.1202 161.653" stroke="black" stroke-width="3"/>
<path d="M122.923 184.103L98.8024 183.764C98.8024 183.764 99.0448 181.594 98.495 178.471C97.9033 175.112 95.2396 170.177 94.7955 168.892C94.7955 168.892 95.206 170.143 96.7185 168.473C98.8843 166.082 106.327 154.979 106.327 154.979C106.327 154.979 113.352 161.773 118.989 161.564C122.875 161.42 124.266 155.664 124.266 155.664C130.493 168.614 123.62 167.005 122.923 184.103" fill="#FCBDA4"/>
<path d="M242.034 93.4452C242.029 93.6658 242.026 93.887 242.025 94.1088C242.025 94.2683 242.025 94.4238 242.028 94.5836L242.025 94.5836L242.016 99.6922L241.958 137.231L295.081 137.307L295.148 94.6588L295.084 94.6587C295.127 94.0753 295.149 93.4863 295.15 92.8926C295.159 87.1662 293.162 81.8821 289.79 77.6412C295.936 76.1408 300.483 70.842 300.493 64.5294C300.505 57.042 294.13 50.963 286.254 50.9519C278.378 50.9407 271.984 57.0014 271.972 64.4887C271.97 65.6535 272.123 66.7841 272.412 67.8631C271.176 67.6938 269.913 67.6053 268.628 67.6035C253.959 67.5825 242.049 78.8713 242.027 92.8174C242.027 93.0273 242.029 93.2366 242.034 93.4452V93.4452Z" fill="#19141E"/>
<path d="M268.807 92.82C268.369 92.951 267.917 93.0629 267.453 93.1545C267.077 93.2307 266.695 93.2917 266.302 93.3374C265.673 93.4173 265.024 93.4549 264.365 93.4539C260.184 93.448 256.537 91.844 254.584 89.4633C254.481 89.8427 254.363 90.2159 254.23 90.5821C254.158 90.7684 254.086 90.9618 254.002 91.1477C253.479 92.4007 252.782 93.5618 251.941 94.5976C250.769 96.0387 249.316 97.2389 247.666 98.1146C248.407 103.153 250.223 109.928 254.496 112.631C256.847 114.118 261.123 114.301 264.764 114.101L265.601 123.937C265.601 123.937 271.512 121.485 274.897 119.67C275.481 119.358 275.987 119.063 276.376 118.802C276.311 118.223 276.165 116.875 275.98 115.192V115.185C275.645 112.153 275.189 108.031 274.89 105.315C276.885 102.439 282.318 101.792 282.326 97.7477C282.326 96.5351 281.581 94.4384 278.83 94.435C275.139 94.4282 275.663 98.6351 275.663 98.6351C273.572 99.4092 271.081 96.3976 268.807 92.82Z" fill="#B4833B"/>
<path fill-rule="evenodd" clip-rule="evenodd" d="M254.749 99.8975L252.112 105.974L255.171 105.916L254.749 99.8975Z" fill="#A15611"/>
<path fill-rule="evenodd" clip-rule="evenodd" d="M257.556 100.161C257.621 101.375 258.372 102.32 259.233 102.273C260.094 102.226 260.738 101.204 260.673 99.9899C260.607 98.7759 259.856 97.8299 258.995 97.8773C258.135 97.9244 257.49 98.9467 257.556 100.161" fill="#0D0B6D"/>
<path fill-rule="evenodd" clip-rule="evenodd" d="M249.473 99.9668C249.538 101.18 250.289 102.127 251.15 102.079C252.011 102.032 252.655 101.01 252.59 99.7961C252.524 98.5822 251.773 97.6361 250.912 97.6832C250.051 97.7303 249.407 98.7529 249.473 99.9668" fill="#0D0B6D"/>
<path d="M255.921 108.827C255.921 108.827 257.914 109.438 259.911 107.327" stroke="#1C295E"/>
<path opacity="0.401344" fill-rule="evenodd" clip-rule="evenodd" d="M264.766 114.1C264.766 114.1 269.372 114.229 271.336 113.21L265.01 116.986L264.766 114.1Z" fill="black"/>
<path fill-rule="evenodd" clip-rule="evenodd" d="M328.61 320.994L319.738 312.484L322.82 303.876L341.466 318.624L328.826 346.373C328.826 346.373 327.708 338.766 327.765 330.996C327.804 325.628 328.61 320.994 328.61 320.994ZM221.422 341.645L223.421 334.364L232.522 334.691L225.362 355.053L196.967 337.991C205.536 335.093 221.422 341.645 221.422 341.645Z" fill="#0D0B6D"/>
<path fill-rule="evenodd" clip-rule="evenodd" d="M321.975 314.653L322.95 303.869L333.879 312.519L328.611 320.995L321.975 314.653ZM223.068 335.595L232.074 336.268L228.927 344.747L221.422 341.645L223.068 335.595Z" fill="#E576C6"/>
<path d="M254.796 203.845C252.981 211.405 250.818 220.36 248.245 230.935C231.476 299.815 220.817 337.826 220.817 337.826L222.341 338.267L222.348 338.27L230.437 340.617L230.458 340.62L236.946 342.503C236.946 342.503 256.439 298.363 272.407 257.434C275.511 263.138 279.099 268.853 283.246 274.481C304.873 303.837 324.327 322.626 324.327 322.626L326.441 318.921L326.445 318.917L331.23 310.53L331.272 310.456L333.361 306.794C333.361 306.794 301.531 274.734 288.27 213.334C290.731 205.373 292.364 198.861 292.774 194.592C293.986 181.995 285.415 170.683 283.639 168.487H263.103L253.543 168.487C253.335 170.079 251.91 184.171 254.796 203.845L254.796 203.845Z" fill="#19141E"/>
<path opacity="0.145182" fill-rule="evenodd" clip-rule="evenodd" d="M220.817 337.826L222.341 338.267L222.348 338.27L230.437 340.617L230.458 340.62L236.946 342.503C236.946 342.503 256.439 298.363 272.407 257.434C278.716 241.259 284.478 225.584 288.27 213.334C290.731 205.373 292.363 198.861 292.774 194.592C293.986 181.995 285.415 170.683 283.639 168.487H263.103C262.074 173.08 259.718 183.344 254.796 203.845C252.981 211.405 250.818 220.36 248.245 230.935C231.476 299.815 220.817 337.826 220.817 337.826" fill="white"/>
<path fill-rule="evenodd" clip-rule="evenodd" d="M263.195 119.328C263.793 118.826 264.182 118.565 264.182 118.565L277.296 117.921C277.296 117.921 276.179 120.7 274.996 124.22C272.659 131.177 267.114 132.74 262.282 132.733C257.769 132.726 256.235 128.657 259.169 123.94C260.523 121.762 262.168 120.19 263.195 119.328ZM304.36 191.108L302.444 198.7C302.444 198.7 302.296 200.427 302.392 202.43L302.404 202.698C302.494 204.547 302.554 205.788 301.639 208.808C300.97 211.013 304.163 209.926 304.902 208.642C305.175 208.168 305.307 207.231 305.443 206.258C305.689 204.513 305.95 202.649 307.075 203.121C308.826 203.855 310.138 208.68 310.569 213.351C310.637 214.085 311.304 214.597 311.743 214.747C312.456 214.992 312.926 211.995 312.926 211.995C312.926 211.995 313.441 212.951 314.413 212.382C314.757 212.18 315.526 210.077 315.526 210.077C315.526 210.077 316.215 208.996 316.482 207.862C316.951 205.858 317 202.258 316.672 201.249C315.925 198.954 314.494 195.161 313.09 192.995C313.146 186.967 313.25 163.275 311.476 158.903C309.44 153.885 305.755 147.158 305.755 147.158L294.825 154.106L300.687 163.131L304.36 191.108ZM252.693 169.355C253.424 163.831 252.768 156.698 252.768 156.698L243.425 151.41L241.061 164.559L231.431 193.295C229.54 195.409 227.166 198.114 226.827 198.747C226.252 199.821 225.188 205.138 225.239 206.188C225.29 207.238 228.604 211.959 228.604 211.959C230.66 211.48 229.317 209.042 229.317 209.042C229.317 209.042 231.159 210.523 231.925 210.498C239.136 210.264 238.749 206.793 238.579 206.358C238.196 205.382 236.271 206.499 236.271 206.499C236.271 206.499 240.042 199.226 239.055 194.226C242.121 189.484 252.109 173.765 252.693 169.355Z" fill="#B4833B"/>
<path opacity="0.146833" d="M234.799 196.972C234.799 196.972 233.787 200.606 230.314 201.739C229.099 202.135 229.403 206.809 226.426 206.25" stroke="black" stroke-width="3"/>
<path fill-rule="evenodd" clip-rule="evenodd" d="M274.997 124.22C276.094 120.954 277.135 118.325 277.279 117.964C281.021 117.948 284.964 118.508 289.166 121.079C294.864 124.564 303.412 135.518 309.54 146.141L290.822 156.631L287.812 152.282C287.812 152.282 284.779 156.147 283.938 161.326C283.293 165.285 283.616 168.503 283.616 168.503H253.642L251.114 157.749L239.72 153.84C240.543 144.247 245.275 128.202 251.532 122.624C254.818 119.693 258.367 119.013 264.066 118.647C263.508 119.047 261.057 120.904 259.169 123.941C256.236 128.657 257.769 132.726 262.282 132.733C267.114 132.741 272.659 131.177 274.997 124.22ZM275.509 118.009L274.896 118.039C275.1 118.028 275.304 118.018 275.509 118.009Z" fill="#72A065"/>
<path opacity="0.204148" d="M253.498 168.719C252.355 154.918 244.8 151.662 250.501 136.185" stroke="black" stroke-width="4"/>
<path opacity="0.195638" d="M262.827 118.731C262.823 118.733 262.82 118.736 262.816 118.739C261.93 119.5 260.79 120.61 259.963 121.627C259.453 122.254 258.982 122.91 258.555 123.596C255.393 128.68 257.099 133.403 262.28 133.41C268.75 133.421 273.541 130.777 275.675 124.426C276.19 122.894 276.729 121.391 277.261 119.979C277.446 119.485 277.618 119.038 277.771 118.646C277.824 118.509 277.872 118.389 277.912 118.287C277.937 118.225 277.98 117.984 277.989 117.963H277.279C277.085 117.963 276.568 117.89 276.499 118.018C276.293 118.402 276.107 119.024 275.919 119.523C275.382 120.948 274.838 122.466 274.318 124.014C272.393 129.741 268.181 132.065 262.283 132.055C258.375 132.05 257.118 128.57 259.782 124.285C260.178 123.649 260.616 123.039 261.09 122.456C261.862 121.506 262.69 120.672 263.517 119.963C263.805 119.716 264.072 119.503 264.31 119.324C264.434 119.23 265.025 118.708 265.185 118.574L262.827 118.731V118.731Z" fill="black"/>
<path opacity="0.204148" d="M280.127 143.298L287.07 153.299" stroke="black" stroke-width="4"/>
<path d="M48.1379 138.127C48.1379 134.202 63.5042 101.556 83.4573 102.136C111.138 102.94 118.237 144.017 116.97 148.06C115.961 151.28 111.098 152.451 89.781 151.881C57.7632 151.023 48.1379 141.642 48.1379 138.127Z" fill="#19141E"/>
<path fill-rule="evenodd" clip-rule="evenodd" d="M85.4098 145.407C85.4098 145.407 81.1961 145.526 79.4003 144.587L85.186 148.065L85.4098 145.407Z" fill="#CF3E83"/>
<path d="M84.6505 118.69C89.5074 121.038 97.1559 125.344 101.046 130.716C100.365 135.353 98.7013 141.572 94.8 144.056C92.6525 145.422 88.7422 145.591 85.409 145.407L84.6465 154.466L74.0951 151.119C74.0951 151.119 75.1411 140.503 75.594 136.662C73.4075 134.763 69.3571 133.571 69.3502 130.345C69.3502 129.232 70.0313 127.297 72.5472 127.294C75.9228 127.291 75.4441 131.163 75.4441 131.163C78.8563 132.435 82.3413 122.746 84.6505 118.69L84.6505 118.69Z" fill="#B4833B"/>
<path fill-rule="evenodd" clip-rule="evenodd" d="M94.5696 131.157L96.981 136.753L94.1831 136.7L94.5696 131.157Z" fill="#80450F"/>
<path fill-rule="evenodd" clip-rule="evenodd" d="M92.0021 131.399C91.9419 132.517 91.2553 133.388 90.468 133.345C89.6807 133.301 89.0912 132.36 89.1515 131.242C89.2115 130.124 89.8984 129.253 90.6857 129.296C91.4729 129.34 92.0624 130.281 92.0021 131.399" fill="#19141E"/>
<path fill-rule="evenodd" clip-rule="evenodd" d="M99.3951 131.221C99.3348 132.339 98.6479 133.21 97.861 133.166C97.0737 133.123 96.4839 132.181 96.5442 131.063C96.6044 129.945 97.291 129.074 98.0783 129.117C98.8656 129.161 99.4551 130.102 99.3951 131.221" fill="#19141E"/>
<path d="M93.4969 139.38C93.4969 139.38 91.674 139.943 89.8475 137.999" stroke="#19141E" stroke-width="3"/>
<path opacity="0.398182" fill-rule="evenodd" clip-rule="evenodd" d="M85.4028 145.407C85.4028 145.407 81.1891 145.526 79.3933 144.587L85.179 148.064L85.4028 145.407Z" fill="black"/>
<path fill-rule="evenodd" clip-rule="evenodd" d="M27.3105 343.519C27.2827 338.656 26.5577 334.457 26.5577 334.457L31.8377 318.956L15.8776 332.84L26.3252 357.45C26.3252 357.45 27.3512 350.559 27.3105 343.519ZM139.405 351.454C131.76 348.494 117.075 353.798 117.075 353.798L110.791 356.054L113.582 365.523L139.405 351.454Z" fill="#0D0B6D"/>
<path d="M88.3172 229.07L88.8226 231.268L111.257 328.568L117.075 353.798L110.792 356.054C110.792 356.054 106.847 346.041 101.19 331.501C94.2779 313.747 84.8172 289.24 76.8695 267.974C76.4083 266.737 75.9534 265.516 75.5017 264.303C74.8321 265.764 74.1371 267.236 73.417 268.715C70.2455 275.25 66.6001 281.939 62.4147 288.653C55.1209 300.356 47.6502 310.284 41.4304 317.875C32.7877 328.423 26.5585 334.456 26.5585 334.456L22.752 327.02C22.752 327.02 28.1979 322.19 35.3369 311.697C44.763 297.84 57.1394 274.116 63.8235 238.607C64.1078 237.108 64.3795 235.583 64.6416 234.042C64.4141 233.357 64.1961 232.699 63.9908 232.069C63.994 232.069 63.9908 232.066 63.9908 232.066C62.623 227.878 61.7701 224.893 61.5964 223.517C60.0106 211.034 66.9191 198.783 66.9191 198.783L68.3279 198.315C68.3533 197.765 68.3723 197.208 68.3912 196.651H94.7677C94.4771 198.544 93.6242 206.83 90.857 218.972C90.1431 222.096 89.306 225.477 88.3173 229.069L88.3172 229.07Z" fill="#B4833B"/>
<path d="M91.1918 220.76C92.4142 227.276 93.8926 235.142 95.6584 244.547C103.856 288.211 113.007 328.06 113.007 328.06L111.257 328.568L101.19 331.501L97.2789 332.638C97.2789 332.638 85.2594 302.609 74.8068 272.707C74.434 273.536 74.0518 274.361 73.6664 275.187C59.9822 304.378 44.4912 320.98 44.4912 320.98L41.4303 317.875L35.3368 311.697L34.1143 310.457C34.1143 310.457 52.6821 286.473 63.16 236.206C61.3785 229.623 60.1592 224.031 59.7738 220.049C58.7156 209.053 65.8988 199.14 67.8668 196.651L95.2193 196.651C94.8592 198.66 93.8483 207.868 91.1918 220.76L91.1918 220.76Z" fill="#19141E"/>
<path opacity="0.145368" fill-rule="evenodd" clip-rule="evenodd" d="M113.007 328.06L111.257 328.568L101.19 331.501L97.2789 332.638C97.2789 332.638 85.2594 302.609 74.8068 272.707C74.3393 271.377 73.8749 270.046 73.4169 268.715C69.7337 258.028 66.3253 247.528 63.8234 238.607C63.5928 237.794 63.3749 236.993 63.1601 236.206C61.3785 229.623 60.1592 224.031 59.7738 220.049C58.7156 209.053 65.8988 199.14 67.8668 196.651H86.662C87.3474 200.301 88.671 207.342 90.8569 218.972C90.9643 219.556 91.0781 220.151 91.1918 220.76C92.4143 227.276 93.8926 235.142 95.6584 244.547C103.856 288.211 113.007 328.06 113.007 328.06" fill="white"/>
<path fill-rule="evenodd" clip-rule="evenodd" d="M88.6605 155.844C86.7002 152.669 84.0757 150.893 84.0757 150.893L72.0814 150.339C72.0814 150.339 73.103 152.86 74.1845 156.101C76.3225 162.509 81.3942 163.949 85.8132 163.942C89.9409 163.935 91.3434 160.188 88.6605 155.844ZM118.208 174.459C117.993 172.441 117.909 170.027 118.579 169.163C119.808 167.576 125.883 162.78 125.883 162.78L126.207 166.782L127.645 162.083C127.645 162.083 129.238 162.535 130.78 163.307C131.891 163.864 132.957 164.619 133.626 165.093L133.626 165.093C133.785 165.206 133.921 165.302 134.031 165.377C134.848 165.933 132.473 174.486 130.78 176.025C129.617 177.082 126.19 177.901 124.156 178.311C120.272 184.316 109.919 199.321 104.2 198.083C98.2583 196.797 92.7457 176.914 92.7457 176.914L102.768 172.24L107.131 185.115L118.208 174.459ZM50.1077 218.034L52.5469 224.006C52.5469 224.006 52.9175 225.543 53.1246 227.36L53.152 227.603C53.341 229.281 53.4677 230.406 54.6677 233.009C55.5436 234.909 52.709 234.342 51.9052 233.281C51.6086 232.889 51.3644 232.063 51.1107 231.204C50.6553 229.663 50.1689 228.017 49.2928 228.587C47.9283 229.475 47.5172 233.99 47.8224 238.255C47.8703 238.925 47.3845 239.471 47.0371 239.664C46.4737 239.976 45.6515 237.337 45.6515 237.337C45.6515 237.337 45.3558 238.265 44.4585 237.877C44.1409 237.74 43.1946 235.945 43.1946 235.945C43.1946 235.945 42.4619 235.06 42.0766 234.072C41.3963 232.328 40.8409 229.09 40.9719 228.139C41.2811 225.897 41.9771 222.113 42.8919 220.017C42.3518 214.63 40.2815 193.004 41.4236 188.896C42.7307 184.195 45.292 177.825 45.292 177.825L55.12 183.359L50.9068 191.97L50.1077 218.034Z" fill="#B4833B"/>
<path d="M76.0345 150.522L72.0814 150.339C72.0814 150.339 73.1029 152.86 74.1845 156.101C76.3225 162.508 81.3941 163.948 85.8132 163.941C89.9408 163.935 91.3433 160.188 88.6605 155.844C86.9339 153.047 84.692 151.336 84.182 150.968C89.394 151.305 92.6395 151.932 95.645 154.631C101.367 159.769 106.001 169.241 107.906 178.599L97.4493 183.067L93.7247 196.845L66.3573 196.446C66.3573 196.446 66.5968 193.922 66.0066 190.275C65.2379 185.505 62.4629 181.946 62.4629 181.946L59.7104 185.951L42.5912 176.29C48.1957 166.506 56.0131 156.418 61.2253 153.208C64.9074 150.939 68.2788 150.37 71.573 150.339C73.0711 150.325 74.5751 150.422 76.0345 150.522Z" fill="#5E93D1"/>
<path opacity="0.202962" d="M93.8471 197.085C94.8925 184.375 101.802 181.375 96.5886 167.121" stroke="black" stroke-width="3"/>
<path opacity="0.202055" d="M84.0757 150.893C84.0757 150.893 86.7002 152.669 88.6605 155.844C91.3434 160.188 89.9409 163.935 85.8132 163.942C81.3942 163.949 76.3225 162.509 74.1845 156.101C73.103 152.86 72.0814 150.339 72.0814 150.339" stroke="black" stroke-width="3"/>
<path opacity="0.202962" d="M69.4918 173.048L63.1418 182.258" stroke="black" stroke-width="3"/>
</g>
</g>
<defs>
<clipPath id="clip0">
<rect width="350" height="360" fill="white"/>
</clipPath>
<clipPath id="clip1">
<rect width="354" height="344" fill="white" transform="translate(-4 54)"/>
</clipPath>
<clipPath id="clip2">
<rect width="154.749" height="227.886" fill="white" transform="translate(88.04 77.8738)"/>
</clipPath>
</defs>
</svg>
