<svg width="350" height="376" viewBox="0 0 350 376" fill="none" xmlns="http://www.w3.org/2000/svg">
<path d="M66.1284 16.9083V149.022" stroke="#ECF6FF" stroke-width="22"/>
<path d="M68.0834 12.1714V149.449" stroke="#DCEEFF" stroke-width="17"/>
<path d="M23.6079 11.581V149.782" stroke="#B6D4FF" stroke-width="20"/>
<path d="M107.326 12.7104V148.55" stroke="#ECF6FF" stroke-width="22"/>
<path fill-rule="evenodd" clip-rule="evenodd" d="M112.433 149.782H25.1071V11.5807H112.433V149.782ZM107.102 144.436H30.4384V16.9274H107.102V144.436Z" fill="#DCEEFF"/>
<path fill-rule="evenodd" clip-rule="evenodd" d="M129.387 156.594H21.2219V149.782H129.387V156.594Z" fill="#CCE3FF"/>
<path fill-rule="evenodd" clip-rule="evenodd" d="M46.3746 156.594H19.5816V149.782H46.3746V156.594Z" fill="#B6D4FF"/>
<path d="M105.803 59.8928H25.1073" stroke="#DCEEFF" stroke-width="17"/>
<path d="M105.803 102.82H25.1073" stroke="#DCEEFF" stroke-width="17"/>
<path fill-rule="evenodd" clip-rule="evenodd" d="M50.729 141.85C51.1073 145.036 52.7161 147.845 55.0667 149.782H70.4376C72.7882 147.845 74.3972 145.036 74.7777 141.85H50.729Z" fill="#B6D4FF"/>
<path fill-rule="evenodd" clip-rule="evenodd" d="M50.729 135.228C51.4446 141.25 56.5551 145.921 62.7531 145.921C68.9509 145.921 74.0616 141.25 74.7769 135.228H50.729Z" fill="#B6D4FF"/>
<path fill-rule="evenodd" clip-rule="evenodd" d="M95.8482 144.787L93.2386 119.284H85.0787L82.469 144.787C82.1957 147.459 84.2867 149.782 86.9657 149.782H91.3516C94.0305 149.782 96.1218 147.459 95.8482 144.787" fill="#CCE3FF"/>
<path fill-rule="evenodd" clip-rule="evenodd" d="M239.971 167.78H280.977L286.514 112.442H245.509L239.971 167.78Z" fill="#DCEEFF"/>
<path fill-rule="evenodd" clip-rule="evenodd" d="M239.971 167.78H280.977L286.514 112.442H245.509L239.971 167.78Z" stroke="#DCEEFF" stroke-width="5"/>
<path fill-rule="evenodd" clip-rule="evenodd" d="M237.758 167.78H279.526L285.064 112.442H243.295L237.758 167.78Z" fill="white"/>
<path fill-rule="evenodd" clip-rule="evenodd" d="M237.758 167.78H279.526L285.064 112.442H243.295L237.758 167.78Z" stroke="#DCEEFF" stroke-width="5"/>
<path fill-rule="evenodd" clip-rule="evenodd" d="M245.758 160.473H272.989L277.064 119.749H249.833L245.758 160.473Z" fill="#DCEEFF"/>
<path fill-rule="evenodd" clip-rule="evenodd" d="M213.648 157.105H211.803C203.201 157.105 196.228 150.129 196.228 141.524H229.223C229.223 150.129 222.25 157.105 213.648 157.105Z" fill="#ECF6FF"/>
<path fill-rule="evenodd" clip-rule="evenodd" d="M196.744 157.105C196.744 158.965 198.251 160.473 200.11 160.473H230.401V153.737H200.11C198.251 153.737 196.744 155.245 196.744 157.105Z" fill="#DCEEFF"/>
<path fill-rule="evenodd" clip-rule="evenodd" d="M217.117 157.105C217.117 158.182 217.989 159.055 219.066 159.055H230.32C230.365 159.055 230.401 159.019 230.401 158.974V155.236C230.401 155.191 230.365 155.155 230.32 155.155H219.066C217.989 155.155 217.117 156.028 217.117 157.105Z" fill="#ECF6FF"/>
<path fill-rule="evenodd" clip-rule="evenodd" d="M192.516 160.473V167.209H225.578C227.438 167.209 228.945 165.701 228.945 163.841C228.945 161.981 227.438 160.473 225.578 160.473H192.516Z" fill="#DCEEFF"/>
<path fill-rule="evenodd" clip-rule="evenodd" d="M192.516 161.91V165.772H206.11C207.176 165.772 208.04 164.907 208.04 163.841C208.04 162.774 207.176 161.91 206.11 161.91H192.516Z" fill="#ECF6FF"/>
<path fill-rule="evenodd" clip-rule="evenodd" d="M192.516 288.429H282.999V195.271H192.516V288.429Z" fill="#CCE3FF"/>
<path fill-rule="evenodd" clip-rule="evenodd" d="M277.173 288.429H290.077V197.924H277.173V288.429Z" fill="#DCEEFF"/>
<path fill-rule="evenodd" clip-rule="evenodd" d="M181.34 199.362H290.077V175.239H181.34V199.362Z" fill="#DCEEFF"/>
<path fill-rule="evenodd" clip-rule="evenodd" d="M168.554 175.239H304.245V166.972H168.554V175.239Z" fill="#CCE3FF"/>
<path fill-rule="evenodd" clip-rule="evenodd" d="M290.077 288.429H296.373V175.239H290.077V288.429Z" fill="#B6D4FF"/>
<path fill-rule="evenodd" clip-rule="evenodd" d="M194.243 288.429H198.342V199.453H194.243V288.429Z" fill="#B6D4FF"/>
<path fill-rule="evenodd" clip-rule="evenodd" d="M295.096 175.239H308.134V166.972H295.096V175.239Z" fill="#B6D4FF"/>
<path fill-rule="evenodd" clip-rule="evenodd" d="M181.34 288.429H194.243V195.161H181.34V288.429Z" fill="#DCEEFF"/>
<path fill-rule="evenodd" clip-rule="evenodd" d="M177.731 288.429H194.244V265.62H177.731V288.429Z" fill="#DCEEFF"/>
<path fill-rule="evenodd" clip-rule="evenodd" d="M277.173 288.429H293.822V265.62H277.173V288.429Z" fill="#DCEEFF"/>
<path fill-rule="evenodd" clip-rule="evenodd" d="M221.258 284.912C221.258 284.912 206.404 276.2 224.303 250.855C224.303 250.855 233.518 261.619 237.065 248.866C237.065 248.866 247.107 264.792 240.588 274.41" fill="#ECF6FF"/>
<path fill-rule="evenodd" clip-rule="evenodd" d="M254.187 285.797C254.187 285.797 267.561 275.062 256.733 253.453C256.733 253.453 241.209 270.033 237.286 239.305C237.286 239.305 225.95 262.504 233.072 273.639" fill="#ECF6FF"/>
<path fill-rule="evenodd" clip-rule="evenodd" d="M217.743 288.429H258.204V280.038H217.743V288.429Z" fill="#DCEEFF"/>
<path fill-rule="evenodd" clip-rule="evenodd" d="M256.224 275.287L253.448 267.409L220.334 280.032L223.11 287.911L256.224 275.287Z" fill="#DCEEFF"/>
<path fill-rule="evenodd" clip-rule="evenodd" d="M254.207 288.272L257.112 279.488L224.726 267.898L221.821 276.681L254.207 288.272Z" fill="#DCEEFF"/>
<path fill-rule="evenodd" clip-rule="evenodd" d="M292.854 288.429H300.087V265.62H292.854V288.429Z" fill="#B6D4FF"/>
<path fill-rule="evenodd" clip-rule="evenodd" d="M207.615 286.57H217.836V217.831H207.615V286.57Z" stroke="#B6D4FF" stroke-width="5"/>
<path fill-rule="evenodd" clip-rule="evenodd" d="M217.836 286.57H228.057V217.831H217.836V286.57Z" stroke="#B6D4FF" stroke-width="5"/>
<path fill-rule="evenodd" clip-rule="evenodd" d="M228.058 286.57H238.279V217.831H228.058V286.57Z" stroke="#B6D4FF" stroke-width="5"/>
<path fill-rule="evenodd" clip-rule="evenodd" d="M238.279 286.57H248.5V217.831H238.279V286.57Z" stroke="#B6D4FF" stroke-width="5"/>
<path fill-rule="evenodd" clip-rule="evenodd" d="M248.5 286.57H258.721V217.831H248.5V286.57Z" stroke="#B6D4FF" stroke-width="5"/>
<path fill-rule="evenodd" clip-rule="evenodd" d="M258.721 286.57H268.943V217.831H258.721V286.57Z" stroke="#B6D4FF" stroke-width="5"/>
<path fill-rule="evenodd" clip-rule="evenodd" d="M76.6486 239.102V239.589C76.6486 243.651 73.499 246.942 69.6171 246.942H14.5384C6.04254 246.942 -0.495538 238.786 0.676949 229.647L6.89524 178.724C7.4337 174.507 10.7518 171.369 14.6729 171.369H30.9972C34.9156 171.369 38.2335 174.507 38.7752 178.724L44.9934 229.647C45.0409 230.01 45.0746 230.374 45.0946 230.735L45.128 230.729C45.128 230.729 46.2782 239.102 56.9698 239.102H76.6486Z" fill="#DCEEFF"/>
<path fill-rule="evenodd" clip-rule="evenodd" d="M18.0127 304.303C18.0127 306.9 15.9081 309.005 13.3125 309.005C10.7166 309.005 8.61261 306.9 8.61261 304.303C8.61261 301.706 10.7166 299.6 13.3125 299.6C15.9081 299.6 18.0127 301.706 18.0127 304.303" fill="#B6D4FF"/>
<path fill-rule="evenodd" clip-rule="evenodd" d="M60.9013 305.246H14.4529C12.6739 305.246 11.2183 303.789 11.2183 302.009C11.2183 300.229 12.6739 298.772 14.4529 298.772H60.9013C62.6802 298.772 64.1359 300.229 64.1359 302.009C64.1359 303.789 62.6802 305.246 60.9013 305.246" fill="#CCE3FF"/>
<path fill-rule="evenodd" clip-rule="evenodd" d="M35.2938 303.706H40.0605V246.746H35.2938V303.706Z" fill="#CCE3FF"/>
<path fill-rule="evenodd" clip-rule="evenodd" d="M54.0099 246.746L37.6769 254.189L21.3442 246.746H54.0099Z" fill="#CCE3FF"/>
<path fill-rule="evenodd" clip-rule="evenodd" d="M38.0384 305.246H32.0113C30.232 305.246 28.7764 303.789 28.7764 302.009C28.7764 300.229 30.232 298.772 32.0113 298.772H38.0384C39.8174 298.772 41.273 300.229 41.273 302.009C41.273 303.789 39.8174 305.246 38.0384 305.246" fill="#B6D4FF"/>
<path fill-rule="evenodd" clip-rule="evenodd" d="M34.0847 304.303C34.0847 306.9 31.9803 309.005 29.3847 309.005C26.7886 309.005 24.6845 306.9 24.6845 304.303C24.6845 301.706 26.7886 299.6 29.3847 299.6C31.9803 299.6 34.0847 301.706 34.0847 304.303" fill="#B6D4FF"/>
<path fill-rule="evenodd" clip-rule="evenodd" d="M67.0529 304.303C67.0529 306.9 64.9486 309.005 62.3527 309.005C59.7568 309.005 57.6528 306.9 57.6528 304.303C57.6528 301.706 59.7568 299.6 62.3527 299.6C64.9486 299.6 67.0529 301.706 67.0529 304.303" fill="#B6D4FF"/>
<path fill-rule="evenodd" clip-rule="evenodd" d="M260.165 24.1721C260.165 37.329 249.499 47.995 236.342 47.995C223.185 47.995 212.519 37.329 212.519 24.1721C212.519 11.0148 223.185 0.349117 236.342 0.349117C249.499 0.349117 260.165 11.0148 260.165 24.1721" fill="#CCE3FF"/>
<path fill-rule="evenodd" clip-rule="evenodd" d="M255.494 24.1721C255.494 37.329 244.828 47.995 231.671 47.995C218.514 47.995 207.848 37.329 207.848 24.1721C207.848 11.0148 218.514 0.349117 231.671 0.349117C244.828 0.349117 255.494 11.0148 255.494 24.1721" fill="#DCEEFF"/>
<path fill-rule="evenodd" clip-rule="evenodd" d="M249.724 24.1703C249.724 33.4695 242.695 41.1244 233.664 42.1166C233.009 42.189 232.346 42.225 231.673 42.225C221.7 42.225 213.618 34.1428 213.618 24.1703C213.618 14.2015 221.7 6.11905 231.673 6.11905C232.346 6.11905 233.009 6.15541 233.664 6.22779C242.695 7.21992 249.724 14.8749 249.724 24.1703" fill="#CCE3FF"/>
<path fill-rule="evenodd" clip-rule="evenodd" d="M249.724 24.1703C249.724 33.4695 242.695 41.1244 233.664 42.1166C224.63 41.1244 217.601 33.4695 217.601 24.1703C217.601 14.8748 224.63 7.2199 233.664 6.22777C242.695 7.2199 249.724 14.8748 249.724 24.1703" fill="#ECF6FF"/>
<path d="M232.454 14.1329L238.303 26.8906" stroke="#CCE3FF" stroke-width="8"/>
<path d="M238.861 21.5422L226.047 35.4697" stroke="#CCE3FF" stroke-width="8"/>
<path d="M294.634 116.44C310.467 118.649 303.834 136.884 299.384 146.73C294.16 158.287 298.736 166.035 298.736 166.035L323.209 157.346C314.227 145.923 324.147 139.561 321.705 125.941C319.514 113.724 307.624 108.212 300.111 108.471C296.361 108.601 293.292 109.567 290.863 110.805C290.77 110.852 290.682 110.903 290.598 110.956C286.16 106.398 280.017 103.674 272.916 103.674C258.315 103.674 245.196 115.195 245.196 130.492C245.196 145.789 257.032 158.189 271.634 158.189C286.236 158.189 298.073 145.789 298.073 130.492C298.073 125.263 296.84 120.477 294.634 116.44V116.44Z" fill="#19141E"/>
<path fill-rule="evenodd" clip-rule="evenodd" d="M269.051 158.921C269.051 158.921 274.481 159.081 276.795 157.817L269.34 162.498L269.051 158.921Z" fill="#CF3E83"/>
<path d="M248.811 138.457C249.625 144.757 251.737 153.633 256.951 157.101C259.719 158.94 264.757 159.167 269.053 158.919L270.035 171.117L284.051 165.348C284.051 165.348 282.703 151.886 282.119 146.726C284.937 144.173 289.736 142.989 289.745 138.651C289.745 137.148 288.867 134.549 285.626 134.54C281.276 134.536 281.897 139.751 281.897 139.751C281.358 139.96 280.818 139.948 280.279 139.756C275.971 139.577 263.991 137.773 255.845 123.855C254.895 128.54 252.919 134.38 248.811 138.457V138.457Z" fill="#FCBDA4"/>
<path fill-rule="evenodd" clip-rule="evenodd" d="M257.249 139.74L254.142 147.273L257.746 147.2L257.249 139.74Z" fill="#EA847A"/>
<path fill-rule="evenodd" clip-rule="evenodd" d="M260.557 140.066C260.634 141.571 261.519 142.744 262.534 142.685C263.548 142.627 264.308 141.36 264.23 139.855C264.152 138.35 263.268 137.178 262.253 137.236C261.239 137.294 260.479 138.562 260.557 140.066" fill="#0D0B6D"/>
<path fill-rule="evenodd" clip-rule="evenodd" d="M251.031 139.826C251.108 141.331 251.993 142.503 253.008 142.445C254.022 142.387 254.782 141.119 254.704 139.614C254.627 138.11 253.742 136.937 252.728 136.995C251.713 137.054 250.954 138.321 251.031 139.826" fill="#0D0B6D"/>
<path d="M258.631 150.808C258.631 150.808 260.979 151.567 263.333 148.95" stroke="#1C295E" stroke-width="3"/>
<path fill-rule="evenodd" clip-rule="evenodd" d="M290.877 227.411L293.779 227.369C293.779 227.369 293.774 227.323 293.771 227.226C292.771 227.297 291.805 227.356 290.877 227.411" fill="#C83820"/>
<path d="M231.757 258.852L241.335 260.053L256.761 235.926L257.324 227.907L280.825 227.558L290.856 227.411H290.877C291.805 227.356 292.771 227.298 293.77 227.226C306.405 226.345 323.91 223.888 325.111 217.086C327.29 204.766 310.805 180.858 308.857 178.087C308.735 177.915 308.672 177.822 308.672 177.822C305.91 173.875 303.13 170.806 300.535 169.173C295.488 165.994 290.755 165.297 286.258 165.31L285.054 156.58L266.708 159.112L267.708 166.368C262.321 166.884 258.655 167.938 255.225 171.087C244.211 181.198 243.4 219.068 243.4 219.068L231.757 258.852Z" fill="#CE3D29"/>
<path fill-rule="evenodd" clip-rule="evenodd" d="M280.825 227.558V227.726C280.825 227.726 285.032 227.734 290.856 227.411L280.825 227.558Z" fill="#C83820"/>
<path opacity="0.201149" d="M257.662 227.809C256.315 210.702 246.991 207.084 253.709 187.899" stroke="black" stroke-width="3"/>
<path fill-rule="evenodd" clip-rule="evenodd" d="M241.8 248.974L276.834 244.935C277.982 244.803 278.737 243.675 278.423 242.564L264.58 193.656C264.33 192.772 263.476 192.2 262.563 192.305L227.528 196.343C226.381 196.476 225.625 197.604 225.94 198.715L239.783 247.622C240.033 248.507 240.887 249.078 241.8 248.974" fill="#18181C"/>
<path d="M272.91 230.697C272.844 230.714 272.776 230.733 272.708 230.752C270.274 231.416 267.786 231.818 264.326 231.362C262.1 231.071 260.187 230.691 260.208 230.336C260.269 229.438 261.35 229.237 261.35 229.237L263.428 229.337L265.428 229.219C265.428 229.219 256.241 227.482 256.241 227.212C256.27 226.265 257.778 225.881 257.778 225.881C257.778 225.881 254.619 225.378 254.655 224.875C254.741 223.598 256.151 223.501 256.151 223.501C256.151 223.501 255.76 223.163 255.8 222.851C255.954 221.591 258.201 221.382 259.271 221.228C259.271 221.228 262.911 221.178 263.995 220.909C266.847 220.197 268.544 219.561 269.608 219.03L262.494 193.896C262.244 193.013 261.39 192.441 260.477 192.546L225.443 196.584C224.296 196.716 223.54 197.844 223.855 198.955L237.697 247.863C237.947 248.747 238.801 249.319 239.714 249.214L274.749 245.176C275.896 245.043 276.652 243.915 276.337 242.804L272.91 230.697V230.697Z" fill="#B9ABA6"/>
<path fill-rule="evenodd" clip-rule="evenodd" d="M256.241 227.212C256.27 226.265 257.778 225.88 257.778 225.88C257.778 225.88 254.619 225.378 254.655 224.875C254.741 223.598 256.151 223.501 256.151 223.501C256.151 223.501 255.76 223.163 255.8 222.851C255.943 221.684 257.881 221.419 259.016 221.264C259.107 221.251 259.192 221.24 259.271 221.228C259.271 221.228 262.911 221.178 263.995 220.909C269.402 219.559 270.658 218.482 271.322 217.875C271.342 217.857 271.362 217.839 271.381 217.821C271.436 217.771 271.487 217.724 271.538 217.682C271.501 217.641 271.458 217.574 271.414 217.503C271.352 217.404 271.286 217.299 271.225 217.255L270.301 213.869C270.977 213.942 271.638 213.965 272.293 213.988C273.213 214.02 274.121 214.051 275.041 214.221C277.551 214.684 279.037 215.266 279.037 215.266L282.239 216.36L284.561 224.954C283.682 225.737 281.575 227.28 280.146 228.059C277.386 229.562 276.171 229.868 274.306 230.337C273.992 230.416 273.661 230.5 273.3 230.594C273.259 230.605 273.218 230.616 273.177 230.627C273.025 230.666 272.869 230.707 272.708 230.752C270.274 231.416 267.786 231.818 264.326 231.362C262.1 231.071 260.187 230.691 260.208 230.336C260.269 229.438 261.35 229.237 261.35 229.237L263.428 229.337L265.428 229.219C265.428 229.219 256.241 227.482 256.241 227.212ZM226.65 265.453C227.04 264.686 229.722 261.465 231.923 258.873L241.091 260.022C242.141 266.214 237.779 275.062 237.779 275.062C237.779 275.062 240.048 273.678 240.499 274.889C240.7 275.428 241.155 279.73 232.657 280.02C231.755 280.051 229.584 278.216 229.584 278.216C229.584 278.216 231.167 281.238 228.744 281.831C228.744 281.831 224.838 275.979 224.778 274.678C224.719 273.375 225.972 266.784 226.65 265.453Z" fill="#FCBDA4"/>
<path opacity="0.148065" d="M236.044 263.253C236.044 263.253 234.851 267.758 230.759 269.162C229.327 269.652 229.685 275.447 226.177 274.754" stroke="black" stroke-width="3"/>
<path fill-rule="evenodd" clip-rule="evenodd" d="M258.935 197.102C259.211 197.969 259.799 198.555 260.25 198.412C260.7 198.269 260.842 197.45 260.566 196.583C260.29 195.716 259.702 195.129 259.251 195.272C258.8 195.416 258.659 196.235 258.935 197.102" fill="#020101"/>
<path opacity="0.200498" d="M294.225 191.291L303.068 205.933L281.081 214.633" stroke="black" stroke-width="3"/>
<path fill-rule="evenodd" clip-rule="evenodd" d="M163.633 306.074L167.963 297.553L178.381 299.123L164.21 322.354L133.125 301.724C143.824 299.337 163.633 306.074 163.633 306.074ZM212.31 350.981L211.227 341.522L220.748 337.101L222.155 364.194L184.567 364.128C192.147 356.267 212.31 350.981 212.31 350.981Z" fill="#0D0B6D"/>
<path fill-rule="evenodd" clip-rule="evenodd" d="M166.866 298.762L177.425 300.967L171.345 310.721L162.59 305.384L166.866 298.762ZM211.216 343.451L221.203 339.482L221.51 350.929L211.301 351.304L211.216 343.451Z" fill="#FCBDA4"/>
<path d="M196.123 289.726L201.292 345.833H225.234L224.171 264.369L269.87 264.684C282.906 264.684 295.515 253.488 294.611 240.476L293.19 227.229L223.402 206.611C210.483 203.69 206.003 207.549 197.627 222.46L160.645 298.266L180.961 311.842L196.123 289.726Z" fill="#2F2F3D"/>
<path opacity="0.150484" fill-rule="evenodd" clip-rule="evenodd" d="M217.572 232.053V232.053L269.87 264.684L224.171 264.369L225.234 345.833H201.292L193.084 256.74C191.059 240.529 201.204 232.053 217.572 232.053" fill="#18181C"/>
<path fill-rule="evenodd" clip-rule="evenodd" d="M220.805 256.806V257.631C220.805 264.522 226.151 270.104 232.74 270.104H326.227C340.647 270.104 351.745 256.268 349.755 240.765L339.2 154.385C338.286 147.231 332.654 141.907 325.999 141.907H298.291C291.64 141.907 286.009 147.231 285.089 154.385L274.535 240.765C274.454 241.382 274.397 241.999 274.363 242.611L274.306 242.601C274.306 242.601 272.354 256.806 254.207 256.806H220.805Z" fill="#DCEEFF"/>
<path fill-rule="evenodd" clip-rule="evenodd" d="M320.33 367.407C320.33 371.812 323.902 375.384 328.308 375.384C332.714 375.384 336.285 371.812 336.285 367.407C336.285 363.001 332.714 359.429 328.308 359.429C323.902 359.429 320.33 363.001 320.33 367.407" fill="#B6D4FF"/>
<path fill-rule="evenodd" clip-rule="evenodd" d="M247.534 369.006H326.372C329.392 369.006 331.862 366.535 331.862 363.516C331.862 360.496 329.392 358.025 326.372 358.025H247.534C244.514 358.025 242.044 360.496 242.044 363.516C242.044 366.535 244.514 369.006 247.534 369.006" fill="#CCE3FF"/>
<path fill-rule="evenodd" clip-rule="evenodd" d="M290.998 366.395H282.907V269.771H290.998V366.395Z" fill="#CCE3FF"/>
<path fill-rule="evenodd" clip-rule="evenodd" d="M259.23 269.771L286.953 282.397L314.675 269.771H259.23Z" fill="#CCE3FF"/>
<path fill-rule="evenodd" clip-rule="evenodd" d="M286.34 369.006H296.57C299.59 369.006 302.061 366.535 302.061 363.516C302.061 360.496 299.59 358.025 296.57 358.025H286.34C283.32 358.025 280.85 360.496 280.85 363.516C280.85 366.535 283.32 369.006 286.34 369.006" fill="#B6D4FF"/>
<path fill-rule="evenodd" clip-rule="evenodd" d="M293.051 367.407C293.051 371.812 296.622 375.384 301.028 375.384C305.434 375.384 309.006 371.812 309.006 367.407C309.006 363.001 305.434 359.429 301.028 359.429C296.622 359.429 293.051 363.001 293.051 367.407" fill="#B6D4FF"/>
<path fill-rule="evenodd" clip-rule="evenodd" d="M237.092 367.407C237.092 371.812 240.664 375.384 245.07 375.384C249.476 375.384 253.048 371.812 253.048 367.407C253.048 363.001 249.476 359.429 245.07 359.429C240.664 359.429 237.092 363.001 237.092 367.407" fill="#B6D4FF"/>
</svg>
