<svg width="279" height="217" viewBox="0 0 279 217" fill="none" xmlns="http://www.w3.org/2000/svg">
<g filter="url(#filter0_d)">
<path d="M111.775 32.375C109.15 31.8282 106.635 32.7032 104.119 33.6875C92.4167 49.5469 81.2611 65.625 70.4336 81.9219C69.668 83.125 69.2305 84.6563 69.1212 86.1875C69.0118 87.6094 69.3399 89.25 70.3242 90.2344C70.4336 90.0157 70.6523 90.5625 70.7617 90.7813L215.566 149.844C217.535 150.5 222.128 151.813 227.815 150.5C232.3 149.406 235.471 147.984 236.893 145.797C243.893 128.734 250.892 111.672 257.892 94.6094C258.001 94.1719 259.095 89.1407 255.158 83.8907C251.548 79.0782 246.955 77.7657 246.299 77.7657C201.458 62.5625 156.616 47.4688 111.775 32.375Z" fill="#97999C" stroke="black" stroke-miterlimit="10"/>
<path d="M81.3705 88.8125L113.744 38.8281L239.737 81.8125C240.612 82.3594 242.143 83.4531 243.018 85.4219C245.096 89.7969 242.252 94.2812 242.033 94.5C235.799 108.938 229.565 123.266 223.441 137.703C223.222 138.359 222.238 140.547 219.722 141.859C216.332 143.719 213.051 142.297 212.613 142.188C168.866 124.359 125.118 106.531 81.3705 88.8125Z" fill="#ECEADA" stroke="black" stroke-miterlimit="10"/>
<path d="M137.367 19.9062C133.539 20.3437 130.477 23.1875 128.618 26.5781C126.758 29.9687 126.102 33.6875 125.337 37.5156C123.806 45.9375 122.165 54.3594 120.634 62.7812C120.306 64.3125 120.087 65.9531 120.306 67.4844C120.743 70.6562 123.259 73.2812 126.212 74.4844C129.165 75.6875 132.446 75.7969 135.727 75.4687C138.133 68.3594 139.445 60.9219 139.664 53.375C139.664 53.1562 139.336 52.7187 139.227 52.9375C139.117 53.1562 139.555 53.375 139.445 53.5937C144.804 59.7187 149.835 65.1875 155.741 70.875C159.241 68.3594 162.085 64.75 163.835 60.7031C158.913 57.3125 154.538 53.2656 150.71 48.7812C155.194 48.125 159.46 46.2656 162.85 43.3125C165.366 41.125 167.553 38.1719 167.881 34.7812C168.319 30.2969 165.366 26.0312 161.428 23.7344C157.6 21.4375 153.007 20.7812 148.523 20.3437C144.039 20.0156 141.633 19.3594 137.367 19.9062Z" fill="#00779E" stroke="black" stroke-miterlimit="10"/>
<path d="M213.488 89.4688C213.16 91.875 212.832 94.1719 212.504 96.5781C212.285 97.7813 212.066 99.2031 211.191 99.9688C210.644 100.406 209.988 100.625 209.332 100.844C203.535 102.594 197.52 103.906 191.396 104.563C189.208 104.781 186.474 104.672 185.599 102.703C184.943 101.281 185.599 99.5313 186.255 98.1094C188.333 93.625 190.411 89.1406 192.599 84.7656C194.567 80.6094 196.536 76.3438 196.426 71.75C195.88 75.4688 192.161 78.2031 188.333 78.3125C184.615 78.4219 181.005 76.4531 178.381 73.7188C175.1 70.3281 173.131 65.625 173.24 60.8125C173.24 56.1094 175.318 51.2969 178.818 48.2344C180.896 46.375 183.521 45.0625 186.146 43.9688C191.724 41.6719 197.739 40.3594 203.864 40.1406C206.379 40.0313 209.004 40.1406 211.082 41.4531C214.254 43.4219 213.707 46.8125 214.035 49.875C214.472 54.25 214.691 58.625 214.8 63C214.91 71.8594 214.472 80.7188 213.488 89.4688Z" fill="#00779E" stroke="black" stroke-miterlimit="10"/>
<path d="M138.789 30.5156C140.211 33.4688 140.43 36.8594 140.648 40.25C140.758 41.5625 140.758 42.7656 140.867 44.0781" stroke="black" stroke-miterlimit="10"/>
<path d="M140.102 37.5156C145.023 37.4063 151.038 36.6406 155.741 35.2188" stroke="black" stroke-miterlimit="10"/>
<path d="M182.537 66.5C182.865 66.9375 183.63 66.7187 184.068 66.5C188.443 64.6406 192.599 62.3437 196.536 59.7188C197.52 63 198.723 66.1719 200.254 69.3437" stroke="black" stroke-miterlimit="10"/>
<path d="M164.272 53.375C158.694 59.5 152.679 65.1875 146.117 70.4375C145.351 71.0938 144.586 71.75 143.711 72.2969C151.913 74.7031 158.585 75.5781 165.366 77.2188C165.584 75.6875 165.475 74.1563 165.366 72.7344C165.038 66.2813 164.71 59.7188 164.272 53.375Z" fill="#FFC709" stroke="black" stroke-miterlimit="10" stroke-linejoin="round"/>
<path d="M97.229 51.7344C96.6821 52.7187 96.0259 53.8125 95.3697 54.7969C94.1666 56.7656 92.9636 58.7344 91.7605 60.7031C91.2137 61.5781 90.6668 62.5625 90.12 63.4375C90.9949 63.5469 91.7605 64.2031 92.3074 64.8594C95.151 60.375 97.9945 55.7812 100.838 51.2969C100.182 50.6406 99.307 50.3125 98.432 50.0938C97.7758 50.8594 97.7758 50.75 97.229 51.7344Z" fill="black" stroke="black" stroke-miterlimit="10" stroke-linejoin="round"/>
<path d="M87.4951 67.0469C87.4951 66.9375 87.2764 66.8282 87.167 66.9375C87.0576 67.0469 87.0576 67.1563 87.0576 67.2657C87.0576 68.0313 87.167 68.9063 87.8232 69.4531C88.4794 70 89.5731 69.8906 89.9012 69.125C90.0106 68.7969 90.0106 68.4688 89.9012 68.1407C89.7918 67.7032 89.6825 67.2657 89.3544 66.9375C89.0262 66.5 88.4794 66.0625 87.9326 66.1719C87.3857 66.2813 87.0576 66.8282 87.0576 67.2657C87.0576 67.7032 87.167 68.25 87.2764 68.7969" stroke="black" stroke-miterlimit="10" stroke-linejoin="round"/>
<path d="M99.7444 46.5937C99.9631 47.5781 101.057 47.9062 102.041 48.125C102.26 48.125 102.369 48.2344 102.588 48.125C102.807 48.0156 102.916 47.7969 103.025 47.5781C103.244 46.7031 102.807 45.6094 102.041 45.2813C101.494 45.0625 100.729 45.1719 100.182 45.6094C99.7444 46.0469 99.635 46.9219 100.072 47.3594" stroke="black" stroke-miterlimit="10" stroke-linejoin="round"/>
<path d="M27.7796 145.25C27.4515 146.891 27.1234 148.641 26.5766 150.281C25.3735 154.109 23.0768 157.5 20.78 160.781C22.858 160.672 25.0454 161 27.0141 161.766C28.3265 154.547 30.2951 147.437 32.8106 140.547C33.0293 140.109 33.1387 139.453 32.7012 139.125C32.5919 139.016 32.4825 139.016 32.2638 138.906C30.1857 138.25 29.7483 137.812 28.764 139.672C28.1077 141.203 28.1077 143.719 27.7796 145.25Z" stroke="black" stroke-width="2" stroke-miterlimit="10" stroke-linejoin="round"/>
<path d="M24.4987 161.656C22.9675 165.266 19.7958 168 18.2646 171.719C15.7492 177.406 17.8272 184.516 22.2019 189C26.5767 193.484 32.7013 195.891 38.7166 197.203C46.9193 198.953 55.9969 198.844 63.2152 194.359C68.7931 190.859 72.7303 184.625 73.3865 178.062C73.824 174.344 73.1678 170.516 71.0898 167.453C66.8244 161.328 57.7468 160.562 52.6065 155.094C48.1223 150.281 47.6849 142.625 50.3097 136.609C52.9346 130.594 58.1843 126 63.8715 122.719C70.8711 118.562 78.855 116.047 86.9483 115.281C86.4014 115.828 85.8546 116.266 85.3078 116.813C81.9173 116.156 77.2145 117.906 73.9334 118.781C71.746 119.437 69.5586 119.984 67.6994 121.188C64.7464 123.047 62.7778 126 61.2466 129.172C59.8248 131.906 58.6217 134.859 58.2936 137.922C57.9655 140.984 58.6217 144.266 60.481 146.672C63.434 150.391 68.5743 151.375 73.2772 152.031C77.98 152.578 83.1204 153.344 86.5108 156.734C90.7762 161.109 90.2294 168 91.4324 173.906C92.8542 181.344 97.3383 188.234 103.682 192.391C105.432 193.484 107.291 194.469 109.15 195.344C116.915 198.734 125.774 200.266 133.758 197.641C141.742 195.125 148.523 188.781 148.742 180.359C148.195 180.797 147.648 181.234 147.211 181.672" stroke="black" stroke-width="2" stroke-miterlimit="10" stroke-linejoin="round"/>
<path d="M141.633 166.469C144.476 170.734 145.679 178.391 144.695 183.531C146.445 181.672 148.632 180.141 151.148 179.375C152.351 178.938 152.132 177.078 151.585 175.875C150.163 172.594 148.742 169.203 147.32 165.922C146.445 163.844 147.757 161.656 148.523 159.578C149.617 156.844 149.617 153.563 148.195 150.938C146.773 148.313 143.82 146.453 140.867 146.781C143.383 151.594 144.148 157.281 142.945 162.531C142.726 163.625 142.289 164.828 141.633 165.703C140.867 166.578 139.773 167.125 138.68 167.344C135.071 168.109 131.133 165.922 129.602 162.422C128.071 158.922 128.946 154.766 131.243 151.922C133.649 149.078 137.367 147.438 141.086 147.328" stroke="black" stroke-width="2" stroke-miterlimit="10" stroke-linejoin="round"/>
<path d="M96.5727 132.234C98.76 130.813 101.822 127.531 100.182 124.906C98.4319 122.172 93.7291 119.766 91.2136 117.469C90.3386 116.594 88.2606 113.75 87.0576 113.641C84.9796 113.313 85.0889 115.5 84.214 116.266C83.4484 116.813 82.0266 118.453 82.4641 119.328C82.5735 119.219 82.5735 118.891 82.5735 119C82.5735 119.109 82.5735 119.219 82.6828 119.328C84.214 121.078 85.7451 122.828 87.495 124.359C90.6667 126.984 93.7291 129.281 96.5727 132.234Z" fill="#FFC709" stroke="black" stroke-miterlimit="10" stroke-linejoin="round"/>
<path d="M31.4982 125.344C32.1544 124.578 33.0294 124.031 33.9043 123.484C36.5292 122.063 39.9196 122.281 42.2163 124.031C44.8412 126 46.0442 129.719 46.0442 132.891C46.0442 134.203 46.0442 135.516 45.6068 136.719C44.9506 138.25 43.6381 139.453 42.107 140.219C40.2477 141.203 36.2011 142.625 34.123 142.078C31.9357 141.641 31.6076 139.016 30.0764 137.266C28.764 135.734 27.5609 135.297 27.5609 132.891C27.5609 130.266 29.7483 127.203 31.4982 125.344Z" fill="white" stroke="black" stroke-width="2" stroke-miterlimit="10" stroke-linejoin="round"/>
<path d="M43.5288 125.344C44.8412 128.734 44.6225 134.641 42.4351 137.594C41.7789 138.469 41.0133 139.234 40.2477 139.891C38.6072 141.203 36.5292 141.969 34.4512 142.297" fill="white"/>
<path d="M43.5288 125.344C44.8412 128.734 44.6225 134.641 42.4351 137.594C41.7789 138.469 41.0133 139.234 40.2477 139.891C38.6072 141.203 36.5292 141.969 34.4512 142.297" stroke="black" stroke-width="2" stroke-miterlimit="10" stroke-linejoin="round"/>
<path d="M97.7758 87.2813L104.338 76.2344L113.415 79.9531L111.884 82.5781L106.088 80.2813L105.213 81.8125L109.697 83.6719L108.166 86.1875L103.572 84.2188L102.588 85.9688L108.494 88.375L106.963 91L97.7758 87.2813Z" fill="#138A48" stroke="#27AAE1" stroke-width="2" stroke-miterlimit="10" stroke-linejoin="round"/>
<path d="M116.697 94.9375L119.649 90.0156L115.603 93.8438L112.978 92.75L114.181 87.7187L111.228 92.6406L107.947 91.3281L114.509 80.2812L118.009 81.7031L116.915 88.5937H117.025L123.04 83.6719L126.54 85.0938L119.978 96.1406L116.697 94.9375Z" fill="#138A48" stroke="#27AAE1" stroke-width="2" stroke-miterlimit="10" stroke-linejoin="round"/>
<path d="M131.571 97.0156L126.54 94.9375L124.68 98.1094L121.399 96.7969L127.962 85.75L136.383 89.1406C137.258 89.4688 137.367 90.125 136.93 91L133.867 96.1406C133.211 97.0156 132.446 97.3438 131.571 97.0156ZM132.774 90.8906L129.711 89.6875L127.962 92.5312L131.024 93.7344L132.774 90.8906Z" fill="#138A48" stroke="#27AAE1" stroke-width="2" stroke-miterlimit="10" stroke-linejoin="round"/>
<path d="M138.898 103.906L138.57 98.6563L139.664 96.7969L142.289 97.8906L143.82 95.375L140.758 94.1719L135.727 102.703L132.446 101.391L139.008 90.3438L147.32 93.7344C148.195 94.0625 148.304 94.8281 147.867 95.5938L145.242 99.9688C144.695 100.844 143.929 101.172 143.054 100.844L142.398 100.516L142.617 105.328L142.508 105.438L138.898 103.906Z" fill="#138A48" stroke="#27AAE1" stroke-width="2" stroke-miterlimit="10" stroke-linejoin="round"/>
<path d="M143.383 105.656L149.945 94.6094L159.022 98.3281L157.491 100.953L151.695 98.6562L150.82 100.188L155.304 102.047L153.773 104.563L149.288 102.703L148.304 104.453L154.21 106.859L152.679 109.484L143.383 105.656Z" fill="#138A48" stroke="#27AAE1" stroke-width="2" stroke-miterlimit="10" stroke-linejoin="round"/>
<path d="M153.663 109.813L160.225 98.7656L169.303 102.484L167.772 105.109L161.975 102.812L161.1 104.344L165.584 106.203L164.053 108.719L159.569 106.859L158.585 108.609L164.491 111.016L162.96 113.641L153.663 109.813Z" fill="#138A48" stroke="#27AAE1" stroke-width="2" stroke-miterlimit="10" stroke-linejoin="round"/>
<path d="M170.943 116.703L170.615 109.703L167.334 115.172L164.053 113.859L170.615 102.812L173.896 104.125L174.225 111.125L177.506 105.656L180.787 106.969L174.225 118.016L170.943 116.703Z" fill="#138A48" stroke="#27AAE1" stroke-width="2" stroke-miterlimit="10" stroke-linejoin="round"/>
<path d="M182.208 121.297L175.646 118.672L182.208 107.625L188.771 110.25C190.958 111.125 191.614 112.875 190.302 115.062L187.677 119.437C186.365 121.516 184.396 122.172 182.208 121.297ZM186.693 114.078C187.239 113.203 186.911 112.766 186.036 112.437L183.849 111.562L180.349 117.359L182.537 118.234C183.412 118.562 184.068 118.453 184.505 117.687L186.693 114.078Z" fill="#138A48" stroke="#27AAE1" stroke-width="2" stroke-miterlimit="10" stroke-linejoin="round"/>
<path d="M186.911 123.156L193.474 112.109L202.551 115.828L201.02 118.453L195.223 116.156L194.348 117.688L198.833 119.547L197.301 122.063L192.817 120.203L191.833 121.953L197.739 124.359L196.208 126.984L186.911 123.156Z" fill="#138A48" stroke="#27AAE1" stroke-width="2" stroke-miterlimit="10" stroke-linejoin="round"/>
<path d="M203.864 129.938L203.426 124.688L204.52 122.828L207.145 123.922L208.676 121.406L205.613 120.203L200.582 128.734L197.301 127.422L203.864 116.375L212.176 119.766C213.051 120.094 213.16 120.859 212.722 121.625L210.098 126C209.551 126.875 208.785 127.203 207.91 126.875L207.254 126.547L207.473 131.359L207.363 131.469L203.864 129.938Z" fill="#138A48" stroke="#27AAE1" stroke-width="2" stroke-miterlimit="10" stroke-linejoin="round"/>
<path d="M97.7758 87.2813L104.338 76.2344L113.415 79.9531L111.884 82.5781L106.088 80.2813L105.213 81.8125L109.697 83.6719L108.166 86.1875L103.572 84.2188L102.588 85.9688L108.494 88.375L106.963 91L97.7758 87.2813Z" fill="black"/>
<path d="M116.697 94.9375L119.649 90.0156L115.603 93.8438L112.978 92.75L114.181 87.7187L111.228 92.6406L107.947 91.3281L114.509 80.2812L118.009 81.7031L116.915 88.5937H117.025L123.04 83.6719L126.54 85.0938L119.978 96.1406L116.697 94.9375Z" fill="black"/>
<path d="M131.571 97.0156L126.54 94.9375L124.68 98.1094L121.399 96.7969L127.962 85.75L136.383 89.1406C137.258 89.4688 137.367 90.125 136.93 91L133.867 96.1406C133.211 97.0156 132.446 97.3438 131.571 97.0156ZM132.774 90.8906L129.711 89.6875L127.962 92.5312L131.024 93.7344L132.774 90.8906Z" fill="black"/>
<path d="M138.898 103.906L138.57 98.6563L139.664 96.7969L142.289 97.8906L143.82 95.375L140.758 94.1719L135.727 102.703L132.446 101.391L139.008 90.3438L147.32 93.7344C148.195 94.0625 148.304 94.8281 147.867 95.5938L145.242 99.9688C144.695 100.844 143.929 101.172 143.054 100.844L142.398 100.516L142.617 105.328L142.508 105.438L138.898 103.906Z" fill="black"/>
<path d="M143.383 105.656L149.945 94.6094L159.022 98.3281L157.491 100.953L151.695 98.6562L150.82 100.188L155.304 102.047L153.773 104.563L149.288 102.703L148.304 104.453L154.21 106.859L152.679 109.484L143.383 105.656Z" fill="black"/>
<path d="M153.663 109.813L160.225 98.7656L169.303 102.484L167.772 105.109L161.975 102.812L161.1 104.344L165.584 106.203L164.053 108.719L159.569 106.859L158.585 108.609L164.491 111.016L162.96 113.641L153.663 109.813Z" fill="black"/>
<path d="M170.943 116.703L170.615 109.703L167.334 115.172L164.053 113.859L170.615 102.812L173.896 104.125L174.225 111.125L177.506 105.656L180.787 106.969L174.225 118.016L170.943 116.703Z" fill="black"/>
<path d="M182.208 121.297L175.646 118.672L182.208 107.625L188.771 110.25C190.958 111.125 191.614 112.875 190.302 115.062L187.677 119.437C186.365 121.516 184.396 122.172 182.208 121.297ZM186.693 114.078C187.239 113.203 186.911 112.766 186.036 112.437L183.849 111.562L180.349 117.359L182.537 118.234C183.412 118.562 184.068 118.453 184.505 117.687L186.693 114.078Z" fill="black"/>
<path d="M186.911 123.156L193.474 112.109L202.551 115.828L201.02 118.453L195.223 116.156L194.348 117.688L198.833 119.547L197.301 122.063L192.817 120.203L191.833 121.953L197.739 124.359L196.208 126.984L186.911 123.156Z" fill="black"/>
<path d="M203.864 129.938L203.426 124.688L204.52 122.828L207.145 123.922L208.676 121.406L205.613 120.203L200.582 128.734L197.301 127.422L203.864 116.375L212.176 119.766C213.051 120.094 213.16 120.859 212.722 121.625L210.098 126C209.551 126.875 208.785 127.203 207.91 126.875L207.254 126.547L207.473 131.359L207.363 131.469L203.864 129.938Z" fill="black"/>
<path d="M256.907 118.344C255.486 118.016 254.064 117.359 252.751 116.484C251.876 115.937 251.002 115.281 250.017 115.281C249.142 115.391 248.377 115.937 248.049 116.703C247.72 117.469 247.611 118.344 247.72 119.219C249.58 119.875 252.423 121.844 254.392 122.062C256.032 122.172 255.048 122.391 255.923 120.969C256.032 120.859 256.579 118.344 256.907 118.344Z" fill="black" stroke="black" stroke-miterlimit="10" stroke-linejoin="round"/>
<path d="M99.4163 128.625C99.9631 130.266 101.932 130.922 103.572 131.141C115.603 133 127.633 125.234 139.555 127.859C150.163 130.156 157.272 140.109 162.194 149.844C165.803 156.844 168.975 164.391 174.771 169.641C178.818 173.359 184.068 175.656 189.427 177.078C203.426 180.797 219.066 178.062 231.096 169.859C235.909 166.578 240.174 162.422 244.221 158.156C248.705 153.453 252.423 147.437 256.907 142.734C263.032 136.172 260.954 124.578 255.814 120.531" stroke="black" stroke-width="2" stroke-miterlimit="10" stroke-linejoin="round"/>
<path d="M244.434 116.097C245.973 112.485 245.644 108.885 243.699 108.057C241.754 107.228 238.93 109.485 237.391 113.097C235.852 116.709 236.182 120.309 238.127 121.138C240.071 121.966 242.896 119.71 244.434 116.097Z" fill="black" stroke="black" stroke-miterlimit="10" stroke-linejoin="round"/>
</g>
<defs>
<filter id="filter0_d" x="-4" y="0" width="287" height="225" filterUnits="userSpaceOnUse" color-interpolation-filters="sRGB">
<feFlood flood-opacity="0" result="BackgroundImageFix"/>
<feColorMatrix in="SourceAlpha" type="matrix" values="0 0 0 0 0 0 0 0 0 0 0 0 0 0 0 0 0 0 127 0"/>
<feOffset dy="4"/>
<feGaussianBlur stdDeviation="2"/>
<feColorMatrix type="matrix" values="0 0 0 0 0 0 0 0 0 0 0 0 0 0 0 0 0 0 0.25 0"/>
<feBlend mode="normal" in2="BackgroundImageFix" result="effect1_dropShadow"/>
<feBlend mode="normal" in="SourceGraphic" in2="effect1_dropShadow" result="shape"/>
</filter>
</defs>
</svg>
