<svg width="375" height="667" viewBox="0 0 375 667" fill="none" xmlns="http://www.w3.org/2000/svg">
<g clip-path="url(#clip0)">
<rect width="375" height="667" fill="white"/>
<g clip-path="url(#clip1)">
<g clip-path="url(#clip2)">
<path d="M308.747 611.262C308.747 614.604 309.091 617.867 309.75 621.016C314.205 642.454 333.066 649.77 355.661 649.77C381.566 649.77 402.57 637.382 402.57 611.262C402.57 585.142 381.566 563.971 355.661 563.971C337.85 563.971 322.355 573.975 314.41 588.717C310.799 595.418 308.747 603.099 308.747 611.262" fill="#F6B852"/>
<mask id="mask0" mask-type="alpha" maskUnits="userSpaceOnUse" x="308" y="563" width="95" height="87">
<path d="M308.747 611.262C308.747 614.604 309.091 617.867 309.75 621.016C314.205 642.454 333.066 649.77 355.661 649.77C381.566 649.77 402.57 637.382 402.57 611.262C402.57 585.142 381.566 563.971 355.661 563.971C337.85 563.971 322.355 573.975 314.41 588.717C310.799 595.418 308.747 603.099 308.747 611.262" fill="white"/>
</mask>
<g mask="url(#mask0)">
</g>
<path fill-rule="evenodd" clip-rule="evenodd" d="M347.616 642.727C347.616 642.727 353.249 642.895 355.649 641.573L347.915 646.468L347.616 642.727Z" fill="#CF3E83"/>
<path d="M349.499 606.829C344.014 611.586 335.895 616.01 326.364 619.018C326.971 625.528 328.985 636.748 335.063 640.824C337.934 642.749 343.162 642.986 347.616 642.727L348.638 655.481L361.877 650.254C361.877 650.254 358.572 634.753 360.342 631.904C362.718 628.067 369.075 626.83 369.083 621.526C369.085 619.956 368.175 617.236 364.811 617.231C360.297 617.224 360.94 622.677 360.94 622.677C356.787 624.305 352.554 613.149 349.499 606.829V606.829Z" fill="#A15611"/>
<path fill-rule="evenodd" clip-rule="evenodd" d="M335.372 622.666L332.149 630.545L335.889 630.469L335.372 622.666Z" fill="#CF8414"/>
<path fill-rule="evenodd" clip-rule="evenodd" d="M338.804 623.008C338.885 624.582 339.802 625.808 340.855 625.747C341.907 625.686 342.695 624.361 342.615 622.787C342.534 621.213 341.616 619.986 340.564 620.048C339.512 620.109 338.723 621.434 338.804 623.008" fill="#1D1D23"/>
<path fill-rule="evenodd" clip-rule="evenodd" d="M328.922 622.756C329.002 624.33 329.92 625.556 330.973 625.495C332.025 625.434 332.813 624.109 332.732 622.535C332.652 620.961 331.734 619.735 330.682 619.796C329.629 619.857 328.841 621.183 328.922 622.756" fill="#1D1D23"/>
<path d="M336.806 634.243C336.806 634.243 339.243 635.035 341.684 632.299" stroke="#24242B"/>
<path opacity="0.399019" fill-rule="evenodd" clip-rule="evenodd" d="M347.626 642.727C347.626 642.727 353.258 642.894 355.659 641.573L347.925 646.468L347.626 642.727Z" fill="black"/>
<g clip-path="url(#clip3)">
<path d="M376.575 81.5302C361.087 83.0693 311.085 149.938 297.785 151.648C226.402 161.396 220.004 216.464 179.43 213.899C130.775 210.821 79.4269 200.902 35.1492 220.911C19.8288 227.923 3.49827 238.697 -5.08789 252.721V487.53C10.9059 474.875 41.0417 459.483 51.8165 455.378C69.1572 448.709 88.3497 447.854 107.037 447.512C125.725 446.999 144.581 429.042 162.426 423.227C182.966 416.386 206.704 407.835 224.718 396.377C242.732 384.919 257.884 389.365 281.959 388.51C299.132 387.997 311.758 379.515 329.099 379.686C342.399 379.857 356.373 366.106 365.632 357.213C371.693 351.399 375.229 354.477 376.912 353.964V81.5302H376.575Z" fill="#F7941D"/>
<path d="M375.229 324.502C375.229 327.473 375.229 321.759 375.229 325.644C375.398 342.33 372.2 331.082 362.776 343.196C353.353 355.311 339.554 363.871 326.259 363.642C309.094 363.414 285.473 380.757 268.14 371.443C244.076 372.586 236.099 376.752 217.924 392.066C199.918 407.381 180.022 396.887 159.66 406.029C141.991 413.801 122.975 437.898 104.295 438.355C81.6161 439.04 65.9121 441.355 43.0989 451.869C30.9826 453.513 6.52356 459.058 -5.08789 475.744V665.53H376.912V313.53C376.407 314.444 375.734 324.044 375.229 324.502Z" fill="#0288B9"/>
<path d="M376.736 -55.4698H-5.33659C-4.1584 -14.8908 -6.17816 25.8566 -4.99997 66.4357L-6.68311 293.914C4.76225 290.547 9.81167 278.592 17.8907 270.51C24.7916 263.606 34.0489 259.228 43.1378 255.187C64.0088 245.59 87.0678 249.631 109.79 254.514C116.859 256.029 123.76 258.891 131.166 259.06C135.879 259.06 140.592 257.881 145.304 256.871C174.759 250.641 207.917 253.167 232.659 237.339C240.907 232.119 247.808 211.241 256.728 207.031C272.045 199.959 291.064 202.317 306.381 195.076C323.886 186.826 331.965 167.967 346.44 156.013C357.38 146.92 371.182 133.282 376.568 118.296V-55.4698H376.736Z" fill="#2D9445"/>
</g>
<g clip-path="url(#clip4)">
<path d="M376.575 81.5302C361.087 83.0693 311.085 149.938 297.785 151.648C226.402 161.396 220.004 216.464 179.43 213.899C130.775 210.821 79.4269 200.902 35.1492 220.911C19.8288 227.923 3.49827 238.697 -5.08789 252.721V487.53C10.9059 474.875 41.0417 459.483 51.8165 455.378C69.1572 448.709 88.3497 447.854 107.037 447.512C125.725 446.999 144.581 429.042 162.426 423.227C182.966 416.386 206.704 407.835 224.718 396.377C242.732 384.919 257.884 389.365 281.959 388.51C299.132 387.997 311.758 379.515 329.099 379.686C342.399 379.857 356.373 366.106 365.632 357.213C371.693 351.399 375.229 354.477 376.912 353.964V81.5302H376.575Z" fill="#F7941D"/>
<path d="M375.229 324.502C375.229 327.473 375.229 321.759 375.229 325.644C375.398 342.33 372.2 331.082 362.776 343.196C353.353 355.311 339.554 363.871 326.259 363.642C309.094 363.414 285.473 380.757 268.14 371.443C244.076 372.586 236.099 376.752 217.924 392.066C199.918 407.381 180.022 396.887 159.66 406.029C141.991 413.801 122.975 437.898 104.295 438.355C81.6161 439.04 65.9121 441.355 43.0989 451.869C30.9826 453.513 6.52356 459.058 -5.08789 475.744V665.53H376.912V313.53C376.407 314.444 375.734 324.044 375.229 324.502Z" fill="#0288B9"/>
<path d="M376.736 -55.4698H-5.33659C-4.1584 -14.8908 -6.17816 25.8566 -4.99997 66.4357L-6.68311 293.914C4.76225 290.547 9.81167 278.592 17.8907 270.51C24.7916 263.606 34.0489 259.228 43.1378 255.187C64.0088 245.59 87.0678 249.631 109.79 254.514C116.859 256.029 123.76 258.891 131.166 259.06C135.879 259.06 140.592 257.881 145.304 256.871C174.759 250.641 207.917 253.167 232.659 237.339C240.907 232.119 247.808 211.241 256.728 207.031C272.045 199.959 291.064 202.317 306.381 195.076C323.886 186.826 331.965 167.967 346.44 156.013C357.38 146.92 371.182 133.282 376.568 118.296V-55.4698H376.736Z" fill="#2D9445"/>
</g>
</g>
<path d="M47.666 625.292H36.9785V632.528H49.5215V637H31.4121V609.984H49.4844V614.493H36.9785V620.932H47.666V625.292ZM60.0791 622.917L63.4561 616.924H69.1895L63.4746 626.758L69.4307 637H63.6787L60.0977 630.691L56.5352 637H50.7646L56.7207 626.758L51.0244 616.924H56.7764L60.0791 622.917ZM89.8408 627.147C89.8408 630.24 89.1357 632.72 87.7256 634.588C86.3278 636.443 84.4352 637.371 82.0479 637.371C80.0192 637.371 78.3802 636.666 77.1309 635.256V644.719H71.7686V616.924H76.7412L76.9268 618.891C78.2256 617.332 79.9202 616.553 82.0107 616.553C84.4847 616.553 86.4082 617.468 87.7812 619.299C89.1543 621.13 89.8408 623.653 89.8408 626.869V627.147ZM84.4785 626.758C84.4785 624.89 84.1445 623.449 83.4766 622.435C82.821 621.42 81.8623 620.913 80.6006 620.913C78.9183 620.913 77.7617 621.556 77.1309 622.843V631.062C77.7865 632.386 78.9554 633.048 80.6377 633.048C83.1982 633.048 84.4785 630.951 84.4785 626.758ZM102.421 637.371C99.4769 637.371 97.0771 636.468 95.2217 634.662C93.3786 632.856 92.457 630.45 92.457 627.444V626.925C92.457 624.909 92.8467 623.109 93.626 621.525C94.4053 619.93 95.5062 618.705 96.9287 617.852C98.3636 616.986 99.9964 616.553 101.827 616.553C104.573 616.553 106.732 617.419 108.303 619.15C109.886 620.882 110.678 623.338 110.678 626.517V628.706H97.8936C98.0667 630.017 98.5863 631.069 99.4521 631.86C100.33 632.652 101.438 633.048 102.773 633.048C104.839 633.048 106.453 632.299 107.616 630.803L110.251 633.753C109.447 634.891 108.358 635.782 106.985 636.425C105.612 637.056 104.091 637.371 102.421 637.371ZM101.809 620.895C100.745 620.895 99.8789 621.253 99.2109 621.971C98.5553 622.688 98.1348 623.715 97.9492 625.051H105.408V624.624C105.383 623.437 105.062 622.521 104.443 621.878C103.825 621.222 102.947 620.895 101.809 620.895ZM125.021 621.952C124.291 621.853 123.647 621.804 123.091 621.804C121.062 621.804 119.732 622.49 119.102 623.863V637H113.739V616.924H118.805L118.953 619.317C120.029 617.474 121.52 616.553 123.425 616.553C124.019 616.553 124.575 616.633 125.095 616.794L125.021 621.952ZM133.277 637H127.896V616.924H133.277V637ZM127.581 611.729C127.581 610.924 127.847 610.263 128.379 609.743C128.923 609.224 129.659 608.964 130.587 608.964C131.502 608.964 132.232 609.224 132.776 609.743C133.321 610.263 133.593 610.924 133.593 611.729C133.593 612.545 133.314 613.213 132.758 613.732C132.214 614.252 131.49 614.512 130.587 614.512C129.684 614.512 128.954 614.252 128.397 613.732C127.853 613.213 127.581 612.545 127.581 611.729ZM142.74 616.924L142.907 619.169C144.33 617.425 146.253 616.553 148.678 616.553C151.263 616.553 153.038 617.573 154.003 619.614C155.413 617.573 157.423 616.553 160.033 616.553C162.21 616.553 163.831 617.19 164.895 618.464C165.958 619.726 166.49 621.631 166.49 624.179V637H161.109V624.197C161.109 623.059 160.887 622.23 160.441 621.711C159.996 621.179 159.211 620.913 158.085 620.913C156.477 620.913 155.364 621.68 154.745 623.214L154.764 637H149.401V624.216C149.401 623.053 149.173 622.212 148.715 621.692C148.257 621.173 147.478 620.913 146.377 620.913C144.855 620.913 143.755 621.544 143.074 622.806V637H137.712V616.924H142.74ZM179.868 637.371C176.924 637.371 174.524 636.468 172.669 634.662C170.826 632.856 169.904 630.45 169.904 627.444V626.925C169.904 624.909 170.294 623.109 171.073 621.525C171.853 619.93 172.953 618.705 174.376 617.852C175.811 616.986 177.444 616.553 179.274 616.553C182.021 616.553 184.179 617.419 185.75 619.15C187.333 620.882 188.125 623.338 188.125 626.517V628.706H175.341C175.514 630.017 176.034 631.069 176.899 631.86C177.778 632.652 178.885 633.048 180.221 633.048C182.286 633.048 183.901 632.299 185.063 630.803L187.698 633.753C186.894 634.891 185.806 635.782 184.433 636.425C183.06 637.056 181.538 637.371 179.868 637.371ZM179.256 620.895C178.192 620.895 177.326 621.253 176.658 621.971C176.003 622.688 175.582 623.715 175.396 625.051H182.855V624.624C182.831 623.437 182.509 622.521 181.891 621.878C181.272 621.222 180.394 620.895 179.256 620.895ZM196.122 616.924L196.289 619.243C197.724 617.45 199.647 616.553 202.06 616.553C204.187 616.553 205.771 617.177 206.81 618.427C207.849 619.676 208.381 621.544 208.405 624.03V637H203.043V624.16C203.043 623.022 202.796 622.2 202.301 621.692C201.806 621.173 200.983 620.913 199.833 620.913C198.324 620.913 197.192 621.556 196.438 622.843V637H191.075V616.924H196.122ZM218.907 611.988V616.924H222.34V620.857H218.907V630.877C218.907 631.619 219.049 632.151 219.334 632.473C219.618 632.794 220.163 632.955 220.967 632.955C221.561 632.955 222.086 632.912 222.544 632.825V636.889C221.493 637.21 220.41 637.371 219.297 637.371C215.536 637.371 213.619 635.472 213.545 631.675V620.857H210.613V616.924H213.545V611.988H218.907ZM236.961 637C236.714 636.518 236.534 635.918 236.423 635.2C235.124 636.647 233.436 637.371 231.357 637.371C229.391 637.371 227.758 636.802 226.459 635.664C225.173 634.526 224.529 633.091 224.529 631.359C224.529 629.232 225.315 627.599 226.886 626.461C228.469 625.323 230.751 624.748 233.732 624.735H236.2V623.585C236.2 622.657 235.959 621.915 235.477 621.358C235.007 620.802 234.258 620.523 233.231 620.523C232.328 620.523 231.617 620.74 231.098 621.173C230.59 621.606 230.337 622.2 230.337 622.954H224.975C224.975 621.791 225.333 620.715 226.051 619.726C226.768 618.736 227.783 617.963 229.094 617.406C230.405 616.837 231.877 616.553 233.51 616.553C235.984 616.553 237.944 617.177 239.392 618.427C240.851 619.664 241.581 621.408 241.581 623.659V632.361C241.593 634.266 241.859 635.707 242.379 636.685V637H236.961ZM232.526 633.271C233.318 633.271 234.048 633.097 234.716 632.751C235.384 632.392 235.879 631.916 236.2 631.322V627.871H234.196C231.512 627.871 230.083 628.799 229.91 630.654L229.892 630.97C229.892 631.638 230.127 632.188 230.597 632.621C231.067 633.054 231.71 633.271 232.526 633.271ZM261.305 631.434H251.545L249.689 637H243.771L253.827 609.984H258.985L269.098 637H263.179L261.305 631.434ZM253.048 626.925H259.802L256.406 616.812L253.048 626.925ZM292.421 628.001C292.211 630.908 291.134 633.196 289.192 634.866C287.263 636.536 284.715 637.371 281.548 637.371C278.084 637.371 275.357 636.208 273.365 633.883C271.386 631.545 270.396 628.341 270.396 624.271V622.62C270.396 620.022 270.854 617.734 271.77 615.755C272.685 613.776 273.99 612.26 275.685 611.209C277.392 610.145 279.371 609.613 281.622 609.613C284.739 609.613 287.25 610.448 289.155 612.118C291.06 613.788 292.161 616.132 292.458 619.15H286.892C286.756 617.406 286.267 616.145 285.426 615.365C284.597 614.574 283.329 614.178 281.622 614.178C279.767 614.178 278.375 614.846 277.447 616.182C276.532 617.505 276.062 619.565 276.037 622.36V624.401C276.037 627.321 276.476 629.454 277.354 630.803C278.245 632.151 279.643 632.825 281.548 632.825C283.267 632.825 284.548 632.436 285.389 631.656C286.242 630.865 286.731 629.646 286.854 628.001H292.421ZM283.589 636.889L283.385 637.965C285.24 638.299 286.168 639.369 286.168 641.175C286.168 642.535 285.599 643.612 284.461 644.403C283.335 645.195 281.746 645.591 279.692 645.591L279.562 642.492C280.948 642.492 281.641 641.991 281.641 640.989C281.641 640.47 281.43 640.111 281.01 639.913C280.602 639.728 279.934 639.604 279.006 639.542L279.581 636.889H283.589ZM311.328 631.434H301.568L299.713 637H293.794L303.851 609.984H309.009L319.121 637H313.202L311.328 631.434ZM303.071 626.925H309.825L306.43 616.812L303.071 626.925ZM313.48 603.008C313.48 604.406 313.072 605.581 312.256 606.533C311.439 607.473 310.444 607.943 309.269 607.943C308.799 607.943 308.378 607.894 308.007 607.795C307.648 607.684 307.147 607.455 306.504 607.108C305.861 606.762 305.397 606.552 305.112 606.478C304.828 606.391 304.519 606.348 304.185 606.348C303.752 606.348 303.381 606.502 303.071 606.812C302.774 607.121 302.626 607.56 302.626 608.129L299.509 607.943C299.509 606.57 299.911 605.401 300.715 604.437C301.531 603.472 302.527 602.989 303.702 602.989C304.073 602.989 304.42 603.039 304.741 603.138C305.075 603.224 305.613 603.447 306.355 603.806C307.098 604.164 307.611 604.381 307.896 604.455C308.18 604.529 308.477 604.566 308.786 604.566C309.219 604.566 309.59 604.418 309.899 604.121C310.221 603.812 310.382 603.373 310.382 602.804L313.48 603.008ZM343.428 624.104C343.428 626.764 342.958 629.096 342.018 631.1C341.077 633.104 339.729 634.65 337.973 635.738C336.229 636.827 334.225 637.371 331.961 637.371C329.722 637.371 327.724 636.833 325.968 635.757C324.211 634.681 322.851 633.147 321.886 631.155C320.921 629.151 320.432 626.851 320.42 624.253V622.917C320.42 620.257 320.896 617.92 321.849 615.903C322.813 613.875 324.168 612.322 325.912 611.246C327.669 610.158 329.673 609.613 331.924 609.613C334.175 609.613 336.173 610.158 337.917 611.246C339.674 612.322 341.028 613.875 341.98 615.903C342.945 617.92 343.428 620.251 343.428 622.898V624.104ZM337.787 622.88C337.787 620.047 337.28 617.895 336.266 616.423C335.251 614.951 333.804 614.215 331.924 614.215C330.056 614.215 328.615 614.945 327.601 616.404C326.586 617.852 326.073 619.979 326.061 622.787V624.104C326.061 626.863 326.568 629.003 327.582 630.524C328.596 632.046 330.056 632.807 331.961 632.807C333.829 632.807 335.264 632.077 336.266 630.617C337.268 629.145 337.775 627.005 337.787 624.197V622.88Z" fill="#E3E3EA"/>
<path d="M270.943 407.138C271.116 406.617 271.116 406.443 271.116 406.096C273.025 406.096 274.587 406.096 276.844 406.617C290.555 410.61 305.133 411.305 318.844 407.658C324.745 406.096 330.646 406.79 336.374 406.617C337.068 406.617 337.415 406.79 337.415 407.485C337.415 407.832 337.588 408.353 337.588 409.047C338.109 408.353 338.283 408.179 338.803 407.658C342.622 403.839 348.175 402.103 353.382 403.318C358.936 404.707 362.407 408.353 364.143 413.909C365.01 417.208 364.663 420.333 363.622 423.632C361.713 428.667 358.589 432.834 354.944 436.827C349.217 443.077 342.622 448.286 336.2 453.668C333.77 455.578 331.514 457.662 329.258 459.745C328.564 460.44 327.869 461.308 327.175 462.176C326.134 463.739 326.654 465.648 328.216 466.516C329.778 467.385 331.688 466.516 332.382 464.78C332.555 464.433 332.555 464.086 332.729 463.912C332.902 463.912 332.902 463.912 333.076 463.912C333.076 464.086 333.076 464.259 333.076 464.433C332.729 465.822 331.861 466.864 330.473 467.211C329.084 467.558 327.696 467.211 326.654 466.169C325.613 465.128 325.266 463.739 325.96 462.35C326.654 461.134 327.349 459.919 328.39 459.051C332.035 455.578 335.679 452.106 339.498 448.807C345.225 443.598 351.126 438.563 355.812 432.313C358.415 429.014 360.672 425.542 361.713 421.375C363.796 413.041 357.721 405.401 349.39 405.575C343.663 405.749 338.63 410.089 337.762 415.819C337.415 418.597 336.894 421.375 336.547 423.979C336.547 424.673 336.374 425.368 336.374 426.062C336.547 432.139 335.853 438.042 334.117 443.946C334.117 444.119 334.117 444.293 333.944 444.64C334.638 444.119 335.159 443.598 335.506 443.251C340.712 438.563 346.093 433.875 350.605 428.32C352.861 425.542 354.944 422.59 355.638 418.77C356.333 415.298 354.423 411.999 351.126 410.957C347.828 409.916 344.184 411.478 342.622 414.603C342.101 415.645 341.927 416.687 341.754 417.729C341.407 419.118 340.365 419.986 339.15 420.333C338.977 420.333 338.63 420.333 338.283 419.986C338.456 419.986 338.456 419.812 338.63 419.812C340.192 419.465 340.886 418.597 341.06 416.86C341.233 414.256 342.795 411.825 344.878 410.263C347.481 408.527 350.432 408.353 353.382 409.916C356.68 411.652 358.415 414.603 358.068 418.423C357.895 421.895 356.333 425.021 354.423 427.972C351.473 432.486 347.828 436.48 344.01 440.299C338.977 445.508 334.117 450.717 329.084 456.099C328.564 456.62 328.043 457.314 327.522 458.009C326.134 457.141 324.745 456.099 323.357 455.231C323.704 454.537 324.051 453.842 324.398 453.148C329.431 444.64 332.555 435.438 334.464 425.889C334.638 425.542 334.638 425.021 334.638 424.5C334.291 419.812 333.944 414.951 333.77 410.263C333.77 409.395 333.25 409.568 332.729 409.568C324.051 409.742 315.373 409.742 306.695 409.916C296.455 410.089 286.389 410.089 276.149 410.263C275.629 410.263 275.282 410.263 274.587 410.263C274.414 412.173 274.414 414.082 274.24 415.992L269.728 416.166C268.86 414.256 268.339 412.52 267.298 411.131C264 406.269 257.058 404.88 251.851 408.527C249.074 410.436 247.512 413.388 247.165 416.687C246.818 420.68 248.207 423.979 250.289 427.278C253.413 432.486 257.405 436.827 261.744 440.994C266.777 445.855 272.158 450.543 277.191 455.405C278.753 456.967 280.315 458.703 281.703 460.44C282.745 461.829 283.265 463.391 282.397 464.954C281.703 466.343 280.141 467.385 278.753 467.211C277.191 467.211 275.802 466.169 275.282 464.607C275.108 464.259 275.108 463.912 275.108 463.565C275.282 463.565 275.282 463.565 275.455 463.391C275.629 463.739 275.802 463.912 275.976 464.259C276.496 465.301 277.191 465.996 278.406 465.996C279.447 466.169 280.488 465.648 281.183 464.78C281.877 463.912 281.877 462.87 281.183 461.829C279.62 460.092 277.885 458.356 276.149 456.794C270.422 452.106 264.695 447.418 259.141 442.557C254.628 438.737 250.463 434.396 247.165 429.361C244.736 425.715 243 421.722 243 417.208C243 410.61 246.645 404.88 253.066 402.276C259.314 399.845 265.042 400.887 269.901 405.401C270.422 406.617 270.596 406.79 270.943 407.138Z" fill="white"/>
<path d="M330.473 542.91H333.77C333.944 550.376 333.944 547.077 334.117 554.543C314.679 555.585 295.241 554.543 275.976 554.37V543.258H279.1L279.447 521.034C280.662 521.034 281.53 521.034 282.571 521.034C297.67 521.381 312.596 521.728 327.696 522.076C329.084 522.076 329.084 522.076 329.084 523.465C329.605 529.368 329.952 535.271 330.299 541.001C330.299 541.521 330.299 542.042 330.473 542.91ZM328.216 522.423C312.77 522.77 297.323 523.117 281.877 523.465C282.05 531.278 282.224 538.917 282.224 546.557H279.447V550.376C296.108 550.029 312.77 549.334 329.431 550.029L329.605 546.73L326.654 546.557C327.175 538.57 327.696 530.583 328.216 522.423Z" fill="white"/>
<path d="M277.017 447.939C274.067 439.779 272.678 431.445 272.852 422.937C273.719 428.84 274.761 434.744 276.496 440.299C278.232 446.029 281.009 451.238 284.133 456.446L281.877 458.009C275.108 450.196 266.951 443.946 259.661 436.653C256.364 433.355 253.066 429.882 250.984 425.542C249.248 422.069 248.38 418.423 249.942 414.43C250.984 411.999 252.893 410.263 255.322 409.221C258.794 407.832 262.265 408.353 265.042 410.957C266.777 412.52 267.819 414.603 267.819 417.034C267.819 418.597 268.166 419.812 269.901 420.333C270.075 420.333 270.075 420.507 270.248 420.854C269.728 420.854 269.207 420.854 268.86 420.854C267.298 420.507 266.604 419.291 266.083 417.902C265.562 415.645 264.174 413.735 261.918 412.867C259.835 411.999 257.752 412.346 256.017 413.735C254.281 415.124 253.587 417.381 254.108 419.465C254.628 422.416 256.364 425.021 258.099 427.625C262.091 433.355 267.124 438.39 272.157 443.251C273.719 444.64 275.281 446.203 277.017 447.939Z" fill="white"/>
<path d="M324.745 459.745C324.572 460.266 324.572 460.613 324.398 460.787C323.183 463.739 321.274 466.516 319.365 469.121C317.629 471.552 315.72 473.809 314.679 476.587C313.464 479.191 313.117 482.143 312.943 484.92C312.77 489.782 312.423 494.643 312.423 499.505C312.423 501.762 312.596 504.019 313.291 506.276C313.464 506.971 313.811 507.318 314.505 507.665C318.15 509.228 321.621 510.79 325.266 512.353C325.787 512.526 326.134 513.221 326.134 513.742C325.96 515.304 325.96 516.867 325.787 518.43C325.787 518.777 325.787 518.951 325.613 519.298C325.44 519.298 325.44 519.298 325.266 519.298C325.266 518.951 325.092 518.777 325.092 518.43C324.919 517.041 324.919 515.652 324.919 514.436C324.919 513.742 324.745 513.395 324.051 513.221C320.406 512.006 316.762 510.79 313.117 509.575C312.249 509.228 311.729 508.707 311.381 508.012C309.993 505.755 309.472 503.151 309.299 500.547C308.952 494.643 308.604 488.74 308.431 482.837C308.257 477.281 310.34 472.767 314.158 468.947C317.456 465.822 320.753 463.044 324.225 460.092C324.051 460.092 324.225 460.092 324.745 459.745Z" fill="white"/>
<path d="M284.827 459.919C285.001 460.092 285.174 460.092 285.348 460.266C286.216 461.308 286.91 462.523 287.951 463.565C292.637 468.079 298.191 472.42 299.753 479.017C300.1 480.927 300.274 483.011 300.447 484.921C300.794 489.782 300.968 494.643 301.142 499.505C301.315 501.936 300.968 504.366 300.1 506.797C299.927 507.491 299.58 508.012 299.232 508.707C298.712 509.922 297.844 510.617 296.455 510.964C292.984 512.006 289.513 513.047 286.042 514.089C285.348 514.263 285.001 514.61 285.001 515.304C284.827 516.52 284.654 517.735 284.306 518.951C284.306 519.124 284.133 519.471 283.959 519.645H283.786C283.612 519.471 283.612 519.124 283.439 518.951C283.092 517.041 282.744 515.304 282.397 513.395C282.224 512.874 282.397 512.527 282.918 512.179C286.389 510.443 290.034 508.707 293.505 506.971C294.199 506.623 294.72 506.102 294.893 505.408C295.414 502.804 295.935 500.373 296.108 497.769C296.455 493.428 296.455 488.914 296.803 484.573C297.15 479.365 295.414 474.85 292.117 470.857C289.687 467.732 287.257 464.433 284.827 461.308C284.654 461.134 284.48 460.787 284.48 460.44C284.654 460.092 284.827 459.919 284.827 459.919Z" fill="white"/>
<path d="M322.489 527.111C322.142 530.41 321.968 533.535 321.621 536.66C321.448 538.917 320.927 541.001 320.754 543.258C320.754 543.779 320.233 544.126 319.712 544.126C311.034 544.473 302.53 544.82 293.852 545.168C292.117 545.168 290.207 545.168 288.472 545.341C287.604 545.341 287.431 545.168 287.431 544.299C287.257 538.917 287.083 533.361 286.91 527.979C286.91 527.284 287.257 527.111 287.778 527.111C294.199 526.416 300.621 526.243 307.043 526.416C311.902 526.59 316.588 526.937 321.448 527.111C321.795 526.937 321.968 527.111 322.489 527.111ZM319.886 543.431C319.365 539.264 318.844 535.097 318.324 530.931C309.125 531.451 299.927 531.625 290.728 530.931C290.728 531.451 290.728 531.799 290.728 532.146C290.555 535.097 290.555 538.049 290.381 541.001C290.381 542.216 290.381 542.216 291.596 542.216C298.538 542.563 305.481 542.737 312.423 543.084C315.026 543.258 317.456 543.431 319.886 543.431Z" fill="white"/>
<g opacity="0.5">
<path opacity="0.5" d="M224.227 535.519C239.751 535.519 252.336 522.93 252.336 507.4C252.336 491.871 239.751 479.281 224.227 479.281C208.703 479.281 196.119 491.871 196.119 507.4C196.119 522.93 208.703 535.519 224.227 535.519Z" fill="url(#paint0_linear)"/>
</g>
<path d="M224.227 534.678C239.379 534.678 251.662 522.39 251.662 507.232C251.662 492.074 239.379 479.786 224.227 479.786C209.075 479.786 196.792 492.074 196.792 507.232C196.792 522.39 209.075 534.678 224.227 534.678Z" fill="#F5F6F6"/>
<path d="M213.455 507.569C213.455 507.569 210.257 522.891 208.574 522.049C208.574 522.049 224.9 536.193 239.544 522.049C239.544 522.049 237.019 511.273 233.316 507.569H213.455Z" fill="#333333"/>
<path d="M224.227 534.846C229.613 534.846 234.831 533.331 239.375 530.3C238.365 524.743 234.494 524.407 234.494 524.407H213.287C213.287 524.407 209.584 524.743 208.574 529.795C213.118 533.162 218.504 534.846 224.227 534.846Z" fill="#6466AF"/>
<path d="M223.89 518.85C230.583 518.85 236.009 513.422 236.009 506.727C236.009 500.031 230.583 494.604 223.89 494.604C217.197 494.604 211.772 500.031 211.772 506.727C211.772 513.422 217.197 518.85 223.89 518.85Z" fill="#333333"/>
<path opacity="0.1" d="M219.683 517.671H228.267V524.743C228.267 526.932 226.415 528.784 224.227 528.784H223.722C221.534 528.784 219.683 526.932 219.683 524.743V517.671Z" fill="#010101"/>
<path d="M220.356 517.335H227.257C227.762 517.335 228.098 517.671 228.098 518.177V524.407C228.098 526.595 226.247 528.448 224.059 528.448H223.554C221.366 528.448 219.514 526.595 219.514 524.407V518.177C219.682 517.671 220.019 517.335 220.356 517.335Z" fill="#BE7C5F"/>
<path opacity="0.1" d="M219.683 520.871C222.376 521.881 225.405 521.881 228.267 520.871V519.86H219.683V520.871Z" fill="#010101"/>
<path d="M223.89 521.376C230.583 521.376 236.009 515.948 236.009 509.253C236.009 502.557 230.583 497.129 223.89 497.129C217.197 497.129 211.772 502.557 211.772 509.253C211.772 515.948 217.197 521.376 223.89 521.376Z" fill="#BE7C5F"/>
<path d="M212.277 504.706H235.504C235.504 504.706 233.484 495.277 224.732 495.951C215.98 496.456 212.277 504.706 212.277 504.706Z" fill="#333333"/>
<path d="M211.94 510.936C212.591 510.936 213.118 509.956 213.118 508.747C213.118 507.539 212.591 506.559 211.94 506.559C211.289 506.559 210.762 507.539 210.762 508.747C210.762 509.956 211.289 510.936 211.94 510.936Z" fill="#BE7C5F"/>
<path d="M235.841 510.936C236.491 510.936 237.019 509.956 237.019 508.747C237.019 507.539 236.491 506.559 235.841 506.559C235.19 506.559 234.663 507.539 234.663 508.747C234.663 509.956 235.19 510.936 235.841 510.936Z" fill="#BE7C5F"/>
<path opacity="0.1" d="M212.277 505.043H235.504C235.504 505.043 233.484 495.614 224.732 496.287C215.98 496.793 212.277 505.043 212.277 505.043Z" fill="#010101"/>
<path d="M224.227 481.807C238.365 481.807 249.811 493.257 249.811 507.4C249.811 521.544 238.365 532.994 224.227 532.994C210.089 532.994 198.643 521.544 198.643 507.4C198.643 493.257 210.089 481.807 224.227 481.807ZM224.227 475.409C206.554 475.409 192.247 489.721 192.247 507.4C192.247 525.08 206.554 539.392 224.227 539.392C241.9 539.392 256.207 525.08 256.207 507.4C256.038 489.721 241.732 475.577 224.227 475.409Z" fill="#CCCCCC"/>
<path d="M226.92 468H219.514V475.914H226.92V468Z" fill="#CCCCCC"/>
<path d="M240.232 471.125L236.157 477.909L242.506 481.724L246.58 474.941L240.232 471.125Z" fill="#CCCCCC"/>
<path d="M256.219 484.049L249.301 487.885L252.891 494.365L259.81 490.528L256.219 484.049Z" fill="#CCCCCC"/>
<path d="M253.389 520.1L249.465 526.383L256.173 530.576L260.097 524.294L253.389 520.1Z" fill="#CCCCCC"/>
<path d="M192.087 484.138L188.496 490.617L195.415 494.454L199.005 487.974L192.087 484.138Z" fill="#CCCCCC"/>
<path d="M195.05 519.953L188.341 524.146L192.266 530.429L198.974 526.235L195.05 519.953Z" fill="#CCCCCC"/>
<path d="M208.018 471.211L201.67 475.026L205.744 481.81L212.092 477.994L208.018 471.211Z" fill="#CCCCCC"/>
<path d="M226.92 538.887H219.514V546.801H226.92V538.887Z" fill="#CCCCCC"/>
<path d="M242.527 533.036L236.179 536.852L240.253 543.635L246.602 539.82L242.527 533.036Z" fill="#CCCCCC"/>
<path d="M205.703 532.874L201.629 539.658L207.977 543.473L212.051 536.69L205.703 532.874Z" fill="#CCCCCC"/>
<path d="M193.089 504.201H184V510.936H193.089V504.201Z" fill="#CCCCCC"/>
<path d="M264.286 504.201H255.197V510.936H264.286V504.201Z" fill="#CCCCCC"/>
<path d="M127.473 562.904H119V569.183H127.473V562.904Z" fill="#CCCCCC"/>
<g opacity="0.5">
<path opacity="0.5" d="M156.5 591.942C170.971 591.942 182.703 580.206 182.703 565.729C182.703 551.252 170.971 539.517 156.5 539.517C142.028 539.517 130.297 551.252 130.297 565.729C130.297 580.206 142.028 591.942 156.5 591.942Z" fill="url(#paint1_linear)"/>
</g>
<path d="M156.5 591.157C170.625 591.157 182.075 579.703 182.075 565.572C182.075 551.442 170.625 539.987 156.5 539.987C142.375 539.987 130.925 551.442 130.925 565.572C130.925 579.703 142.375 591.157 156.5 591.157Z" fill="#F5F6F6"/>
<path d="M156.5 591.314C161.521 591.314 166.385 589.902 170.621 587.076C169.68 581.897 166.071 581.583 166.071 581.583H146.301C146.301 581.583 142.849 581.897 141.908 586.606C146.144 589.745 151.322 591.314 156.5 591.314Z" fill="#6466AF"/>
<path d="M156.343 577.502C163.189 577.502 168.738 571.95 168.738 565.102C168.738 558.253 163.189 552.701 156.343 552.701C149.497 552.701 143.948 558.253 143.948 565.102C143.948 571.95 149.497 577.502 156.343 577.502Z" fill="#72361C"/>
<path opacity="0.1" d="M152.263 575.304H160.266V581.897C160.266 583.937 158.54 585.664 156.5 585.664H156.029C153.989 585.664 152.263 583.937 152.263 581.897V575.304V575.304Z" fill="#010101"/>
<path d="M153.048 575.147H159.481C159.952 575.147 160.266 575.461 160.266 575.932V581.74C160.266 583.78 158.54 585.507 156.5 585.507H156.029C153.989 585.507 152.263 583.78 152.263 581.74V575.932C152.263 575.461 152.577 575.147 153.048 575.147Z" fill="#F8A57E"/>
<path opacity="0.1" d="M152.263 578.286C154.774 579.228 157.598 579.228 160.266 578.286V577.345H152.263V578.286Z" fill="#010101"/>
<path d="M156.343 578.757C162.582 578.757 167.64 573.698 167.64 567.456C167.64 561.214 162.582 556.155 156.343 556.155C150.104 556.155 145.046 561.214 145.046 567.456C145.046 573.698 150.104 578.757 156.343 578.757Z" fill="#F8A57E"/>
<path opacity="0.1" d="M148.184 557.253C148.184 557.253 153.048 566.985 166.542 561.334L163.404 556.469L157.755 554.428L148.184 557.253Z" fill="#010101"/>
<path d="M148.184 557.096C148.184 557.096 153.048 566.828 166.542 561.177L163.404 556.312L157.755 554.271L148.184 557.096Z" fill="#72361C"/>
<path d="M148.184 556.312C148.498 555.37 149.125 554.428 149.753 553.643C151.95 551.446 155.715 550.975 157.598 548.463C158.069 549.091 157.755 550.033 157.128 550.504H156.971C158.697 550.504 160.893 550.347 161.835 548.777C162.305 550.033 162.149 551.289 161.207 552.388C162.776 552.388 164.502 553.486 164.659 555.213C164.659 556.312 164.031 557.253 163.247 557.881C162.305 558.509 161.364 558.823 160.266 558.98C157.128 559.765 146.144 562.59 148.184 556.312Z" fill="#72361C"/>
<path d="M167.64 567.613H167.326L161.521 572.793C155.872 570.124 151.793 572.793 151.793 572.793L145.674 567.77H145.046C145.203 574.048 150.381 578.914 156.657 578.757C162.776 578.757 167.64 573.735 167.64 567.613ZM156.186 574.833C153.989 574.833 152.107 574.362 152.107 573.892C152.107 573.421 153.833 572.95 156.186 572.95C158.383 572.95 160.266 573.421 160.266 573.892C160.266 574.362 158.54 574.833 156.186 574.833Z" fill="#72361C"/>
<path d="M144.889 569.497C145.496 569.497 145.987 568.583 145.987 567.456C145.987 566.329 145.496 565.415 144.889 565.415C144.283 565.415 143.791 566.329 143.791 567.456C143.791 568.583 144.283 569.497 144.889 569.497Z" fill="#F8A57E"/>
<path d="M167.64 569.497C168.247 569.497 168.738 568.583 168.738 567.456C168.738 566.329 168.247 565.415 167.64 565.415C167.033 565.415 166.542 566.329 166.542 567.456C166.542 568.583 167.033 569.497 167.64 569.497Z" fill="#F8A57E"/>
<path d="M156.5 541.871C169.68 541.871 180.349 552.544 180.349 565.729C180.349 578.914 169.68 589.588 156.5 589.588C143.32 589.588 132.651 578.914 132.651 565.729C132.651 552.544 143.32 541.871 156.5 541.871ZM156.5 536.063C140.025 536.063 126.688 549.405 126.688 565.886C126.688 582.368 140.025 595.709 156.5 595.709C172.975 595.709 186.312 582.368 186.312 565.886C186.155 549.405 172.975 536.063 156.5 536.063Z" fill="#CCCCCC"/>
<path d="M159.01 529H152.107V536.377H159.01V529Z" fill="#CCCCCC"/>
<path d="M171.56 532.04L167.762 538.364L173.68 541.921L177.478 535.597L171.56 532.04Z" fill="#CCCCCC"/>
<path d="M186.32 543.982L179.87 547.558L183.217 553.598L189.667 550.022L186.32 543.982Z" fill="#CCCCCC"/>
<path d="M183.687 577.607L180.029 583.464L186.283 587.373L189.941 581.516L183.687 577.607Z" fill="#CCCCCC"/>
<path d="M126.542 544.087L123.195 550.128L129.645 553.704L132.991 547.664L126.542 544.087Z" fill="#CCCCCC"/>
<path d="M129.299 577.453L123.046 581.362L126.704 587.218L132.958 583.309L129.299 577.453Z" fill="#CCCCCC"/>
<path d="M141.382 532.014L135.464 535.571L139.261 541.895L145.179 538.338L141.382 532.014Z" fill="#CCCCCC"/>
<path d="M159.01 595.082H152.107V602.459H159.01V595.082Z" fill="#CCCCCC"/>
<path d="M173.552 589.649L167.634 593.206L171.432 599.53L177.35 595.973L173.552 589.649Z" fill="#CCCCCC"/>
<path d="M139.372 589.603L135.574 595.927L141.492 599.483L145.29 593.16L139.372 589.603Z" fill="#CCCCCC"/>
<path d="M194 562.904H185.527V569.183H194V562.904Z" fill="#CCCCCC"/>
<g opacity="0.5">
<path opacity="0.5" d="M139.195 513.587C154.719 513.587 167.304 500.997 167.304 485.468C167.304 469.938 154.719 457.349 139.195 457.349C123.671 457.349 111.087 469.938 111.087 485.468C111.087 500.997 123.671 513.587 139.195 513.587Z" fill="url(#paint2_linear)"/>
</g>
<path d="M139.195 512.745C154.347 512.745 166.63 500.457 166.63 485.299C166.63 470.142 154.347 457.854 139.195 457.854C124.043 457.854 111.76 470.142 111.76 485.299C111.76 500.457 124.043 512.745 139.195 512.745Z" fill="#F5F6F6"/>
<path d="M154.343 487.993C154.343 497.086 147.779 501.632 139.195 501.632C130.611 501.632 123.374 497.086 123.374 487.993C123.374 478.901 130.274 471.492 138.858 471.492C147.442 471.492 154.343 478.901 154.343 487.993Z" fill="#333333"/>
<path d="M139.195 512.913C144.581 512.913 149.799 511.398 154.343 508.367C153.334 502.811 149.462 502.474 149.462 502.474H128.255C128.255 502.474 124.552 502.811 123.542 507.862C128.086 511.23 133.641 512.913 139.195 512.913Z" fill="#6466AF"/>
<path opacity="0.1" d="M134.651 495.907H143.235V502.979C143.235 505.168 141.383 507.02 139.195 507.02H138.69C136.502 507.02 134.651 505.168 134.651 502.979V495.907Z" fill="#010101"/>
<path d="M135.492 495.57H142.393C142.898 495.57 143.235 495.907 143.235 496.412V502.642C143.235 504.831 141.383 506.683 139.195 506.683H138.69C136.502 506.683 134.651 504.831 134.651 502.642V496.412C134.651 495.907 134.987 495.57 135.492 495.57Z" fill="#F8A57E"/>
<path opacity="0.1" d="M134.651 499.106C137.344 500.117 140.373 500.117 143.235 499.106V498.096H134.651V499.106Z" fill="#010101"/>
<path d="M139.027 499.611C145.72 499.611 151.145 494.184 151.145 487.488C151.145 480.793 145.72 475.365 139.027 475.365C132.334 475.365 126.908 480.793 126.908 487.488C126.908 494.184 132.334 499.611 139.027 499.611Z" fill="#F8A57E"/>
<path opacity="0.1" d="M124.888 488.162C124.888 488.162 132.463 487.32 138.185 479.911C138.185 479.911 145.759 488.33 151.145 487.32C151.145 487.32 154.175 484.121 151.145 480.922C148.116 477.722 145.759 473.681 141.72 474.186C137.68 474.692 132.631 475.028 130.611 476.88C128.255 478.733 124.888 488.162 124.888 488.162Z" fill="#010101"/>
<path d="M124.888 487.993C124.888 487.993 132.463 487.151 138.185 479.743C138.185 479.743 145.759 488.162 151.145 487.151C151.145 487.151 154.175 483.952 151.145 480.753C148.116 477.554 145.759 473.513 141.72 474.018C137.68 474.523 132.631 474.86 130.611 476.712C128.255 478.564 124.888 487.993 124.888 487.993Z" fill="#333333"/>
<path d="M126.74 489.677C127.391 489.677 127.918 488.697 127.918 487.488C127.918 486.279 127.391 485.299 126.74 485.299C126.089 485.299 125.562 486.279 125.562 487.488C125.562 488.697 126.089 489.677 126.74 489.677Z" fill="#F8A57E"/>
<path d="M151.145 489.677C151.796 489.677 152.324 488.697 152.324 487.488C152.324 486.279 151.796 485.299 151.145 485.299C150.495 485.299 149.967 486.279 149.967 487.488C149.967 488.697 150.495 489.677 151.145 489.677Z" fill="#F8A57E"/>
<path d="M139.195 460.043C139.532 460.043 139.868 460.043 140.037 460.043C154.175 460.548 165.284 472.334 164.779 486.478C164.274 500.285 152.997 511.23 139.195 511.23C138.859 511.23 138.522 511.23 138.354 511.23C124.215 510.724 113.107 498.938 113.612 484.794C114.116 470.819 125.393 460.043 139.195 460.043ZM139.195 453.644V460.043V453.644C121.522 453.644 107.216 467.956 107.216 485.636C107.216 502.811 120.849 516.954 138.017 517.459C138.354 517.459 138.69 517.459 139.195 517.459C156.868 517.459 171.175 503.147 171.175 485.468C171.175 468.293 157.541 454.149 140.373 453.644C139.868 453.644 139.532 453.644 139.195 453.644Z" fill="#CCCCCC"/>
<path d="M135.878 446L135.603 453.909L143.005 454.166L143.279 446.257L135.878 446Z" fill="#CCCCCC"/>
<path d="M156.67 449.893L152.363 456.531L158.575 460.565L162.882 453.927L156.67 449.893Z" fill="#CCCCCC"/>
<path d="M172.064 463.342L165.016 466.936L168.38 473.537L175.428 469.942L172.064 463.342Z" fill="#CCCCCC"/>
<path d="M167.917 499.105L163.777 505.248L170.336 509.672L174.476 503.529L167.917 499.105Z" fill="#CCCCCC"/>
<path d="M107.896 461.191L104.083 467.542L110.865 471.617L114.678 465.266L107.896 461.191Z" fill="#CCCCCC"/>
<path d="M109.547 497.129L102.697 501.087L106.401 507.502L113.251 503.544L109.547 497.129Z" fill="#CCCCCC"/>
<path d="M124.192 448.864L117.716 452.458L121.552 459.378L128.029 455.785L124.192 448.864Z" fill="#CCCCCC"/>
<path d="M133.435 516.934L133.161 524.843L140.562 525.1L140.837 517.191L133.435 516.934Z" fill="#CCCCCC"/>
<path d="M156.672 511.79L150.196 515.383L154.033 522.304L160.509 518.711L156.672 511.79Z" fill="#CCCCCC"/>
<path d="M119.889 510.405L115.582 517.043L121.794 521.077L126.101 514.439L119.889 510.405Z" fill="#CCCCCC"/>
<path d="M99.2336 481.056L99 487.787L108.084 488.103L108.317 481.372L99.2336 481.056Z" fill="#CCCCCC"/>
<path d="M170.356 483.395L170.123 490.126L179.206 490.442L179.44 483.711L170.356 483.395Z" fill="#CCCCCC"/>
<g opacity="0.5">
<path opacity="0.5" d="M69.1951 580.587C84.719 580.587 97.3035 567.997 97.3035 552.468C97.3035 536.938 84.719 524.349 69.1951 524.349C53.6713 524.349 41.0867 536.938 41.0867 552.468C41.0867 567.997 53.6713 580.587 69.1951 580.587Z" fill="url(#paint3_linear)"/>
</g>
<path d="M69.1952 579.745C84.3472 579.745 96.6304 567.457 96.6304 552.299C96.6304 537.142 84.3472 524.854 69.1952 524.854C54.0432 524.854 41.76 537.142 41.76 552.299C41.76 567.457 54.0432 579.745 69.1952 579.745Z" fill="#F5F6F6"/>
<path d="M87 551.52C87 561.173 79.1576 566 68.9022 566C58.6467 566 50 561.173 50 551.52C50 541.866 58.2446 534 68.5 534C78.7554 534 87 541.866 87 551.52Z" fill="#333333"/>
<path d="M69.1952 579.913C74.5812 579.913 79.799 578.398 84.3434 575.367C83.3336 569.811 79.4623 569.474 79.4623 569.474H58.2548C58.2548 569.474 54.5519 569.811 53.542 574.862C58.0865 578.23 63.6408 579.913 69.1952 579.913Z" fill="#6466AF"/>
<path opacity="0.1" d="M64.6506 562.907H73.2346V569.979C73.2346 572.168 71.3832 574.02 69.1951 574.02H68.6902C66.5021 574.02 64.6506 572.168 64.6506 569.979V562.907Z" fill="#010101"/>
<path d="M65.4922 562.57H72.3931C72.898 562.57 73.2346 562.907 73.2346 563.412V569.642C73.2346 571.831 71.3832 573.683 69.1951 573.683H68.6902C66.5021 573.683 64.6506 571.831 64.6506 569.642V563.412C64.6506 562.907 64.9873 562.57 65.4922 562.57Z" fill="#B4833B"/>
<path opacity="0.1" d="M64.6506 566.106C67.3437 567.117 70.3733 567.117 73.2346 566.106V565.096H64.6506V566.106Z" fill="#010101"/>
<path d="M69.0268 566.611C75.7197 566.611 81.1454 561.184 81.1454 554.488C81.1454 547.793 75.7197 542.365 69.0268 542.365C62.3339 542.365 56.9082 547.793 56.9082 554.488C56.9082 561.184 62.3339 566.611 69.0268 566.611Z" fill="#B4843C"/>
<path opacity="0.1" d="M54.8884 555.162C54.8884 555.162 62.4625 554.32 68.1852 546.911C68.1852 546.911 75.7594 555.33 81.1454 554.32C81.1454 554.32 84.1751 551.121 81.1454 547.922C78.1158 544.722 75.7594 540.681 71.7198 541.186C67.6803 541.692 62.6309 542.028 60.6111 543.88C58.2547 545.733 54.8884 555.162 54.8884 555.162Z" fill="#010101"/>
<path d="M54.8884 554.993C54.8884 554.993 67.4625 554.152 73.1852 546.743C73.1852 546.743 75.7594 555.162 81.1454 554.152C81.1454 554.152 84.1751 550.952 81.1454 547.753C78.1158 544.554 75.7594 540.513 71.7198 541.018C67.6803 541.523 62.6309 541.86 60.6111 543.712C58.2547 545.564 54.8884 554.993 54.8884 554.993Z" fill="#333333"/>
<path d="M56.74 556.677C57.3907 556.677 57.9182 555.697 57.9182 554.488C57.9182 553.279 57.3907 552.299 56.74 552.299C56.0893 552.299 55.5618 553.279 55.5618 554.488C55.5618 555.697 56.0893 556.677 56.74 556.677Z" fill="#B4843C"/>
<path d="M81.1455 556.677C81.7962 556.677 82.3237 555.697 82.3237 554.488C82.3237 553.279 81.7962 552.299 81.1455 552.299C80.4948 552.299 79.9673 553.279 79.9673 554.488C79.9673 555.697 80.4948 556.677 81.1455 556.677Z" fill="#B4843C"/>
<path d="M69.1952 527.043C69.5319 527.043 69.8685 527.043 70.0368 527.043C84.1752 527.548 95.2839 539.334 94.779 553.478C94.274 567.285 82.997 578.23 69.1952 578.23C68.8586 578.23 68.522 578.23 68.3537 578.23C54.2153 577.724 43.1066 565.938 43.6115 551.794C44.1164 537.819 55.3935 527.043 69.1952 527.043ZM69.1952 520.644V527.043V520.644C51.5223 520.644 37.2156 534.956 37.2156 552.636C37.2156 569.811 50.849 583.954 68.017 584.459C68.3537 584.459 68.6903 584.459 69.1952 584.459C86.8682 584.459 101.175 570.147 101.175 552.468C101.175 535.293 87.5415 521.149 70.3734 520.644C69.8685 520.644 69.5319 520.644 69.1952 520.644Z" fill="#CCCCCC"/>
<path d="M65.8777 513L65.6033 520.909L73.0047 521.166L73.2791 513.257L65.8777 513Z" fill="#CCCCCC"/>
<path d="M86.67 516.893L82.3625 523.531L88.5745 527.565L92.8819 520.927L86.67 516.893Z" fill="#CCCCCC"/>
<path d="M102.064 530.342L95.0161 533.936L98.3798 540.537L105.428 536.942L102.064 530.342Z" fill="#CCCCCC"/>
<path d="M97.9167 566.105L93.7769 572.248L100.336 576.672L104.476 570.529L97.9167 566.105Z" fill="#CCCCCC"/>
<path d="M37.8963 528.191L34.083 534.542L40.8649 538.617L44.6782 532.266L37.8963 528.191Z" fill="#CCCCCC"/>
<path d="M39.5469 564.129L32.697 568.087L36.4014 574.502L43.2513 570.544L39.5469 564.129Z" fill="#CCCCCC"/>
<path d="M54.192 515.864L47.7156 519.458L51.5523 526.378L58.0287 522.785L54.192 515.864Z" fill="#CCCCCC"/>
<path d="M63.4353 583.934L63.1609 591.843L70.5622 592.1L70.8367 584.191L63.4353 583.934Z" fill="#CCCCCC"/>
<path d="M86.6724 578.79L80.196 582.383L84.0328 589.304L90.5092 585.711L86.6724 578.79Z" fill="#CCCCCC"/>
<path d="M49.8892 577.405L45.5818 584.043L51.7938 588.077L56.1012 581.439L49.8892 577.405Z" fill="#CCCCCC"/>
<path d="M29.2336 548.056L29 554.787L38.0835 555.103L38.3171 548.372L29.2336 548.056Z" fill="#CCCCCC"/>
<path d="M100.356 550.395L100.123 557.126L109.206 557.442L109.44 550.711L100.356 550.395Z" fill="#CCCCCC"/>
<path d="M277.945 335.605H270.24L268.775 340H264.103L272.042 318.672H276.114L284.098 340H279.425L277.945 335.605ZM271.427 332.046H276.759L274.078 324.062L271.427 332.046ZM302.511 332.896C302.345 335.19 301.495 336.997 299.962 338.315C298.438 339.634 296.427 340.293 293.927 340.293C291.192 340.293 289.039 339.375 287.467 337.539C285.904 335.693 285.123 333.164 285.123 329.951V328.647C285.123 326.597 285.484 324.79 286.207 323.228C286.93 321.665 287.96 320.469 289.298 319.639C290.646 318.799 292.208 318.379 293.985 318.379C296.446 318.379 298.429 319.038 299.933 320.356C301.437 321.675 302.306 323.525 302.54 325.908H298.146C298.038 324.531 297.652 323.535 296.988 322.92C296.334 322.295 295.333 321.982 293.985 321.982C292.521 321.982 291.422 322.51 290.689 323.564C289.967 324.609 289.596 326.235 289.576 328.442V330.054C289.576 332.358 289.923 334.043 290.616 335.107C291.319 336.172 292.423 336.704 293.927 336.704C295.284 336.704 296.295 336.396 296.959 335.781C297.633 335.156 298.019 334.194 298.116 332.896H302.511ZM295.538 339.912L295.377 340.762C296.842 341.025 297.574 341.87 297.574 343.296C297.574 344.37 297.125 345.22 296.227 345.845C295.338 346.47 294.083 346.782 292.462 346.782L292.359 344.336C293.453 344.336 294 343.94 294 343.149C294 342.739 293.834 342.456 293.502 342.3C293.18 342.153 292.652 342.056 291.92 342.007L292.374 339.912H295.538ZM317.438 335.605H309.732L308.268 340H303.595L311.534 318.672H315.606L323.59 340H318.917L317.438 335.605ZM310.919 332.046H316.251L313.57 324.062L310.919 332.046ZM319.137 313.164C319.137 314.268 318.814 315.195 318.17 315.947C317.525 316.689 316.739 317.061 315.812 317.061C315.44 317.061 315.108 317.021 314.815 316.943C314.532 316.855 314.137 316.675 313.629 316.401C313.121 316.128 312.755 315.962 312.53 315.903C312.306 315.835 312.062 315.801 311.798 315.801C311.456 315.801 311.163 315.923 310.919 316.167C310.685 316.411 310.567 316.758 310.567 317.207L308.106 317.061C308.106 315.977 308.424 315.054 309.059 314.292C309.703 313.53 310.489 313.149 311.417 313.149C311.71 313.149 311.983 313.188 312.237 313.267C312.501 313.335 312.926 313.511 313.512 313.794C314.098 314.077 314.503 314.248 314.728 314.307C314.952 314.365 315.187 314.395 315.431 314.395C315.772 314.395 316.065 314.277 316.31 314.043C316.563 313.799 316.69 313.452 316.69 313.003L319.137 313.164ZM342.779 329.819C342.779 331.919 342.408 333.76 341.666 335.342C340.924 336.924 339.859 338.145 338.473 339.004C337.096 339.863 335.514 340.293 333.727 340.293C331.959 340.293 330.382 339.868 328.995 339.019C327.608 338.169 326.534 336.958 325.772 335.386C325.011 333.804 324.625 331.987 324.615 329.937V328.882C324.615 326.782 324.991 324.937 325.743 323.345C326.505 321.743 327.574 320.518 328.951 319.668C330.338 318.809 331.92 318.379 333.697 318.379C335.475 318.379 337.052 318.809 338.429 319.668C339.815 320.518 340.885 321.743 341.637 323.345C342.398 324.937 342.779 326.777 342.779 328.867V329.819ZM338.326 328.853C338.326 326.616 337.926 324.917 337.125 323.755C336.324 322.593 335.182 322.012 333.697 322.012C332.223 322.012 331.085 322.588 330.284 323.74C329.483 324.883 329.078 326.562 329.068 328.779V329.819C329.068 331.997 329.469 333.687 330.27 334.888C331.07 336.089 332.223 336.689 333.727 336.689C335.201 336.689 336.334 336.113 337.125 334.961C337.916 333.799 338.316 332.109 338.326 329.893V328.853Z" fill="#3636B2"/>
<path d="M152.62 330.001C152.41 332.908 151.334 335.196 149.392 336.866C147.462 338.536 144.914 339.371 141.747 339.371C138.284 339.371 135.556 338.208 133.564 335.883C131.585 333.545 130.596 330.341 130.596 326.271V324.62C130.596 322.022 131.053 319.734 131.969 317.755C132.884 315.776 134.189 314.26 135.884 313.209C137.591 312.145 139.57 311.613 141.821 311.613C144.938 311.613 147.45 312.448 149.354 314.118C151.259 315.788 152.36 318.132 152.657 321.15H147.091C146.955 319.406 146.466 318.145 145.625 317.365C144.796 316.574 143.528 316.178 141.821 316.178C139.966 316.178 138.574 316.846 137.646 318.182C136.731 319.505 136.261 321.565 136.236 324.36V326.401C136.236 329.321 136.675 331.454 137.554 332.803C138.444 334.151 139.842 334.825 141.747 334.825C143.466 334.825 144.747 334.436 145.588 333.656C146.441 332.865 146.93 331.646 147.054 330.001H152.62ZM155.088 328.776C155.088 326.785 155.471 325.01 156.238 323.451C157.005 321.893 158.106 320.687 159.541 319.833C160.988 318.979 162.664 318.553 164.569 318.553C167.278 318.553 169.486 319.382 171.193 321.039C172.913 322.697 173.871 324.948 174.069 327.793L174.106 329.166C174.106 332.246 173.247 334.72 171.527 336.588C169.808 338.443 167.501 339.371 164.606 339.371C161.712 339.371 159.399 338.443 157.667 336.588C155.948 334.732 155.088 332.209 155.088 329.018V328.776ZM160.45 329.166C160.45 331.071 160.809 332.531 161.526 333.545C162.244 334.547 163.271 335.048 164.606 335.048C165.905 335.048 166.92 334.553 167.649 333.563C168.379 332.562 168.744 330.966 168.744 328.776C168.744 326.909 168.379 325.461 167.649 324.435C166.92 323.408 165.893 322.895 164.569 322.895C163.258 322.895 162.244 323.408 161.526 324.435C160.809 325.449 160.45 327.026 160.45 329.166ZM183.068 339H177.688V310.5H183.068V339ZM199.137 339C198.889 338.518 198.71 337.918 198.599 337.2C197.3 338.647 195.611 339.371 193.533 339.371C191.566 339.371 189.934 338.802 188.635 337.664C187.348 336.526 186.705 335.091 186.705 333.359C186.705 331.232 187.491 329.599 189.062 328.461C190.645 327.323 192.927 326.748 195.908 326.735H198.376V325.585C198.376 324.657 198.135 323.915 197.652 323.358C197.182 322.802 196.434 322.523 195.407 322.523C194.504 322.523 193.793 322.74 193.273 323.173C192.766 323.606 192.513 324.2 192.513 324.954H187.15C187.15 323.791 187.509 322.715 188.227 321.726C188.944 320.736 189.958 319.963 191.27 319.406C192.581 318.837 194.053 318.553 195.686 318.553C198.16 318.553 200.12 319.177 201.567 320.427C203.027 321.664 203.757 323.408 203.757 325.659V334.361C203.769 336.266 204.035 337.707 204.555 338.685V339H199.137ZM194.702 335.271C195.494 335.271 196.224 335.097 196.892 334.751C197.56 334.392 198.054 333.916 198.376 333.322V329.871H196.372C193.688 329.871 192.259 330.799 192.086 332.654L192.067 332.97C192.067 333.638 192.302 334.188 192.772 334.621C193.243 335.054 193.886 335.271 194.702 335.271ZM225.967 329.147C225.967 332.364 225.28 334.875 223.907 336.681C222.534 338.474 220.617 339.371 218.155 339.371C215.978 339.371 214.24 338.536 212.941 336.866L212.7 339H207.876V310.5H213.238V320.724C214.475 319.276 216.102 318.553 218.118 318.553C220.567 318.553 222.485 319.456 223.87 321.262C225.268 323.055 225.967 325.585 225.967 328.851V329.147ZM220.604 328.758C220.604 326.729 220.283 325.251 219.64 324.323C218.996 323.383 218.038 322.913 216.764 322.913C215.057 322.913 213.882 323.612 213.238 325.01V332.933C213.894 334.343 215.081 335.048 216.801 335.048C218.533 335.048 219.671 334.194 220.215 332.487C220.475 331.671 220.604 330.428 220.604 328.758ZM228.453 328.776C228.453 326.785 228.837 325.01 229.604 323.451C230.37 321.893 231.471 320.687 232.906 319.833C234.354 318.979 236.03 318.553 237.935 318.553C240.644 318.553 242.852 319.382 244.559 321.039C246.278 322.697 247.237 324.948 247.435 327.793L247.472 329.166C247.472 332.246 246.612 334.72 244.893 336.588C243.173 338.443 240.866 339.371 237.972 339.371C235.077 339.371 232.764 338.443 231.032 336.588C229.313 334.732 228.453 332.209 228.453 329.018V328.776ZM233.815 329.166C233.815 331.071 234.174 332.531 234.892 333.545C235.609 334.547 236.636 335.048 237.972 335.048C239.271 335.048 240.285 334.553 241.015 333.563C241.744 332.562 242.109 330.966 242.109 328.776C242.109 326.909 241.744 325.461 241.015 324.435C240.285 323.408 239.258 322.895 237.935 322.895C236.623 322.895 235.609 323.408 234.892 324.435C234.174 325.449 233.815 327.026 233.815 329.166ZM262.056 323.952C261.326 323.853 260.683 323.804 260.126 323.804C258.097 323.804 256.768 324.49 256.137 325.863V339H250.774V318.924H255.84L255.988 321.317C257.064 319.474 258.555 318.553 260.46 318.553C261.054 318.553 261.61 318.633 262.13 318.794L262.056 323.952Z" fill="#00004C"/>
<path d="M82.5573 390.543C85.6566 390.543 88.7559 390.543 91.8551 390.543C96.2827 390.543 97.3157 389.51 97.1682 385.228C97.0206 383.161 97.7585 381.98 99.5295 380.946C111.336 373.86 116.944 360.424 114.14 347.58C110.156 329.863 91.4124 319.971 76.2112 323.367C63.2238 326.172 53.1881 335.916 50.8267 348.761C48.4654 361.015 54.3687 373.86 65.4375 380.651C67.5037 381.832 68.2416 383.161 68.0941 385.523C67.7989 389.067 69.2747 390.395 72.6692 390.543C76.0636 390.543 79.3105 390.543 82.5573 390.543ZM82.8525 393.201C78.8677 393.201 74.7354 393.201 70.7506 393.201C68.6844 393.201 68.0941 394.234 68.6844 396.153C68.832 396.744 68.6844 397.334 68.6844 397.925C68.6844 398.663 68.6844 399.549 68.6844 400.287C68.6844 400.878 68.832 401.321 68.6844 401.911C67.9465 403.978 68.5368 405.159 70.8982 405.012C72.374 405.012 73.1119 405.602 73.7023 406.783C74.145 407.817 74.5878 408.703 75.0305 409.589C75.916 411.508 77.3919 412.541 79.4581 412.541C81.2291 412.541 83.0001 412.541 84.6235 412.837C87.1324 413.132 89.051 412.098 90.2317 409.884C90.822 408.85 91.2648 407.669 92.0027 406.636C92.593 405.898 93.4786 405.307 94.3641 405.012C96.1351 404.569 96.873 403.683 96.2827 401.911C96.1351 401.468 95.9875 400.878 95.9875 400.287C96.1351 398.22 96.4302 396.153 96.2827 394.086C96.2827 393.643 94.9544 393.053 94.2165 393.053C90.6745 393.053 86.8373 393.201 82.8525 393.201Z" fill="#F7EC13"/>
<path d="M82.5574 390.543C79.3106 390.543 76.0637 390.543 72.8169 390.543C69.2749 390.395 67.9466 389.067 68.2418 385.523C68.3893 383.161 67.6514 381.98 65.5852 380.651C54.5164 373.86 48.6131 361.015 50.9744 348.761C53.3358 335.916 63.5191 326.172 76.3589 323.367C91.7077 319.971 110.451 329.863 114.288 347.58C117.092 360.277 111.484 373.712 99.6772 380.946C97.9062 381.98 97.1683 383.013 97.3159 385.228C97.4634 389.657 96.5779 390.543 92.0028 390.543C88.756 390.543 85.6567 390.543 82.5574 390.543ZM71.1934 386.852C79.0154 386.852 86.247 386.852 93.6262 386.852C93.7738 386.261 93.9214 385.819 93.9214 385.376C93.0359 381.389 95.2497 379.618 98.4965 377.551C107.352 372.088 111.927 363.672 111.632 353.338C111.189 340.493 102.924 330.601 90.527 327.205C76.9492 323.367 62.6336 329.863 56.5826 342.56C50.6792 354.814 54.5164 369.283 66.4708 377.108C70.1604 379.618 72.9645 381.685 71.1934 386.852Z" fill="black"/>
<path d="M82.8527 393.201C86.6899 393.201 90.527 393.201 94.5118 393.201C95.2497 393.201 96.578 393.939 96.578 394.234C96.7256 396.301 96.4304 398.368 96.2828 400.435C96.2828 400.878 96.4304 401.468 96.578 402.059C97.1683 403.831 96.578 404.716 94.6594 405.159C93.7739 405.307 92.8884 406.045 92.2981 406.783C91.5601 407.669 91.1174 408.85 90.527 410.031C89.3464 412.246 87.4278 413.132 84.9188 412.984C83.1478 412.837 81.3768 412.689 79.7534 412.689C77.5396 412.689 76.2114 411.656 75.3259 409.736C74.8831 408.85 74.2928 407.817 73.9976 406.931C73.4073 405.602 72.6693 405.159 71.1935 405.159C68.8321 405.159 68.2418 404.126 68.9797 402.059C69.1273 401.616 68.9797 401.025 68.9797 400.435C68.9797 399.697 68.9797 398.811 68.9797 398.073C68.9797 397.482 69.1273 396.892 68.9797 396.301C68.3894 394.382 68.9797 393.348 71.0459 393.348C74.8831 393.201 78.8679 393.201 82.8527 393.201Z" fill="black"/>
<path d="M83.7383 311.703C83.7383 304.764 84.181 297.973 84.9189 291.181" stroke="#F7EC13" stroke-width="8" stroke-miterlimit="10" stroke-linecap="round" stroke-linejoin="round"/>
<path d="M122.553 377.551C125.8 380.208 129.342 382.718 133.031 384.785" stroke="#F7EC13" stroke-width="8" stroke-miterlimit="10" stroke-linecap="round" stroke-linejoin="round"/>
<path d="M42.1194 364.411C36.6588 367.511 31.0506 370.169 25.4424 372.679" stroke="#F7EC13" stroke-width="8" stroke-miterlimit="10" stroke-linecap="round" stroke-linejoin="round"/>
<path d="M125.947 350.09C134.212 350.237 142.329 350.68 150.446 351.271" stroke="#F7EC13" stroke-width="8" stroke-miterlimit="10" stroke-linecap="round" stroke-linejoin="round"/>
<path d="M112.665 322.333C117.83 316.723 126.833 307.717 131.113 301.368" stroke="#F7EC13" stroke-width="8" stroke-miterlimit="10" stroke-linecap="round" stroke-linejoin="round"/>
<path d="M42.5621 337.54C34.1498 335.768 25.7375 333.997 17.3252 332.225" stroke="#F7EC13" stroke-width="8" stroke-miterlimit="10" stroke-linecap="round" stroke-linejoin="round"/>
<path d="M55.2544 317.461C50.8269 311.998 46.2517 295.315 41.8242 290" stroke="#F7EC13" stroke-width="8" stroke-miterlimit="10" stroke-linecap="round" stroke-linejoin="round"/>
<path d="M82.4131 310.703C82.4131 303.764 82.8558 296.973 83.5937 290.181" stroke="black" stroke-width="4" stroke-miterlimit="10" stroke-linecap="round" stroke-linejoin="round"/>
<path d="M121.228 376.551C124.474 379.208 128.016 381.718 131.706 383.785" stroke="black" stroke-width="4" stroke-miterlimit="10" stroke-linecap="round" stroke-linejoin="round"/>
<path d="M40.7942 363.411C35.3336 366.511 29.7254 369.169 24.1172 371.679" stroke="black" stroke-width="4" stroke-miterlimit="10" stroke-linecap="round" stroke-linejoin="round"/>
<path d="M124.622 349.09C132.887 349.237 141.004 349.68 149.121 350.271" stroke="black" stroke-width="4" stroke-miterlimit="10" stroke-linecap="round" stroke-linejoin="round"/>
<path d="M111.339 321.333C116.505 315.723 125.507 306.717 129.787 300.368" stroke="black" stroke-width="4" stroke-miterlimit="10" stroke-linecap="round" stroke-linejoin="round"/>
<path d="M41.2369 336.54C32.8246 334.768 24.4123 332.997 16 331.225" stroke="black" stroke-width="4" stroke-miterlimit="10" stroke-linecap="round" stroke-linejoin="round"/>
<path d="M53.9292 316.461C49.5017 310.998 44.9266 294.315 40.499 289" stroke="black" stroke-width="4" stroke-miterlimit="10" stroke-linecap="round" stroke-linejoin="round"/>
<path d="M353 131C390.003 131 420 101.003 420 64C420 26.9969 390.003 -3 353 -3C315.997 -3 286 26.9969 286 64C286 101.003 315.997 131 353 131Z" fill="#63B777"/>
<mask id="mask1" mask-type="alpha" maskUnits="userSpaceOnUse" x="286" y="-3" width="134" height="134">
<path d="M353 131C390.003 131 420 101.003 420 64C420 26.9969 390.003 -3 353 -3C315.997 -3 286 26.9969 286 64C286 101.003 315.997 131 353 131Z" fill="#63B777"/>
</mask>
<g mask="url(#mask1)">
<path d="M296.639 56.0608C296.628 56.4886 296.623 56.9176 296.622 57.3479C296.621 57.6573 296.621 57.9589 296.628 58.2689L296.621 58.2689L296.605 68.1778L296.496 140.991L395.363 141.136L395.488 58.4148L395.368 58.4146C395.449 57.2829 395.491 56.1406 395.493 54.9889C395.509 43.8816 391.793 33.6324 385.517 25.4065C396.956 22.4962 405.418 12.2185 405.436 -0.025799C405.458 -14.5487 393.593 -26.3398 378.935 -26.3615C364.278 -26.3832 352.377 -14.6275 352.356 -0.104638C352.352 2.15451 352.636 4.34754 353.174 6.44044C350.874 6.11202 348.523 5.94041 346.133 5.9369C318.832 5.89616 296.667 27.7925 296.626 54.843C296.625 55.2501 296.629 55.6561 296.639 56.0608V56.0608Z" fill="#19141E"/>
<path d="M346.464 54.8481C345.65 55.102 344.808 55.3192 343.945 55.4968C343.245 55.6446 342.534 55.7629 341.804 55.8516C340.632 56.0066 339.424 56.0796 338.197 56.0776C330.417 56.0661 323.628 52.9549 319.994 48.3371C319.803 49.0732 319.583 49.7971 319.336 50.5072C319.202 50.8686 319.067 51.2437 318.912 51.6044C317.938 54.0347 316.64 56.2868 315.075 58.2959C312.894 61.0912 310.19 63.4192 307.119 65.1178C308.498 74.8898 311.879 88.0324 319.831 93.2744C324.207 96.1586 332.164 96.5134 338.941 96.1258L340.499 115.205C340.499 115.205 351.5 110.448 357.799 106.927C358.886 106.322 359.828 105.751 360.551 105.245C360.431 104.121 360.16 101.507 359.815 98.2413V98.2281C359.191 92.348 358.343 84.3524 357.786 79.0833C361.499 73.5054 371.611 72.2505 371.624 64.406C371.624 62.0539 370.238 57.9871 365.119 57.9806C358.25 57.9674 359.225 66.1273 359.225 66.1273C355.333 67.6287 350.698 61.7873 346.464 54.8481Z" fill="#B4833B"/>
<path fill-rule="evenodd" clip-rule="evenodd" d="M320.301 68.5758L315.394 80.3623L321.087 80.2493L320.301 68.5758Z" fill="#A15611"/>
<path fill-rule="evenodd" clip-rule="evenodd" d="M325.525 69.0866C325.648 71.4413 327.045 73.2756 328.647 73.1843C330.249 73.093 331.448 71.1102 331.326 68.7555C331.204 66.4008 329.807 64.5658 328.205 64.6578C326.603 64.7491 325.403 66.732 325.525 69.0866" fill="#0D0B6D"/>
<path fill-rule="evenodd" clip-rule="evenodd" d="M310.482 68.7107C310.604 71.0648 312.001 72.8997 313.603 72.8084C315.205 72.7171 316.405 70.7336 316.283 68.3796C316.16 66.0249 314.763 64.19 313.161 64.2813C311.559 64.3726 310.36 66.3561 310.482 68.7107" fill="#0D0B6D"/>
<path d="M322.484 85.8949C322.484 85.8949 326.193 87.0814 329.909 82.9864" stroke="#1C295E"/>
<path opacity="0.401344" fill-rule="evenodd" clip-rule="evenodd" d="M338.944 96.1241C338.944 96.1241 347.517 96.375 351.172 94.3968L339.399 101.721L338.944 96.1241Z" fill="black"/>
</g>
<path d="M273.193 205.793C306.436 205.793 333.386 178.844 333.386 145.6C333.386 112.356 306.436 85.4072 273.193 85.4072C239.949 85.4072 213 112.356 213 145.6C213 178.844 239.949 205.793 273.193 205.793Z" fill="#63B777"/>
<path d="M230.862 148.81C230.862 153.053 231.306 157.197 232.154 161.196C237.897 188.422 262.207 197.713 291.328 197.713C324.717 197.713 351.789 181.98 351.789 148.81C351.789 115.639 324.717 88.7529 291.328 88.7529C268.372 88.7529 248.401 101.457 238.161 120.178C233.507 128.688 230.862 138.442 230.862 148.81" fill="#F6B852"/>
<mask id="mask2" mask-type="alpha" maskUnits="userSpaceOnUse" x="230" y="88" width="122" height="110">
<path d="M230.862 148.81C230.862 153.053 231.306 157.197 232.154 161.196C237.897 188.422 262.207 197.713 291.328 197.713C324.717 197.713 351.789 181.98 351.789 148.81C351.789 115.639 324.717 88.7529 291.328 88.7529C268.372 88.7529 248.401 101.457 238.161 120.178C233.507 128.688 230.862 138.442 230.862 148.81" fill="white"/>
</mask>
<g mask="url(#mask2)">
</g>
<path fill-rule="evenodd" clip-rule="evenodd" d="M280.96 188.768C280.96 188.768 288.22 188.981 291.314 187.302L281.346 193.519L280.96 188.768Z" fill="#CF3E83"/>
<path d="M283.387 143.18C276.316 149.221 265.852 154.839 253.568 158.658C254.35 166.926 256.947 181.175 264.78 186.351C268.48 188.795 275.219 189.097 280.96 188.768L282.276 204.964L299.34 198.326C299.34 198.326 295.081 178.641 297.361 175.024C300.424 170.15 308.618 168.58 308.627 161.844C308.631 159.85 307.457 156.396 303.122 156.389C297.303 156.381 298.133 163.305 298.133 163.305C292.78 165.373 287.324 151.206 283.387 143.18V143.18Z" fill="#A15611"/>
<path fill-rule="evenodd" clip-rule="evenodd" d="M265.179 163.292L261.024 173.297L265.844 173.201L265.179 163.292Z" fill="#CF8414"/>
<path fill-rule="evenodd" clip-rule="evenodd" d="M269.602 163.726C269.706 165.725 270.889 167.282 272.245 167.204C273.601 167.127 274.617 165.444 274.514 163.445C274.41 161.446 273.226 159.889 271.871 159.966C270.514 160.044 269.498 161.727 269.602 163.726" fill="#1D1D23"/>
<path fill-rule="evenodd" clip-rule="evenodd" d="M256.865 163.407C256.969 165.405 258.152 166.962 259.508 166.885C260.865 166.807 261.88 165.124 261.776 163.125C261.673 161.127 260.49 159.569 259.133 159.647C257.777 159.725 256.761 161.408 256.865 163.407" fill="#1D1D23"/>
<path d="M267.027 177.993C267.027 177.993 270.167 179 273.314 175.524" stroke="#24242B"/>
<path opacity="0.399019" fill-rule="evenodd" clip-rule="evenodd" d="M280.972 188.767C280.972 188.767 288.232 188.98 291.326 187.302L281.358 193.518L280.972 188.767Z" fill="black"/>
<path d="M167.14 268.153C202.79 268.153 231.691 239.252 231.691 203.602C231.691 167.951 202.79 139.051 167.14 139.051C131.49 139.051 102.589 167.951 102.589 203.602C102.589 239.252 131.49 268.153 167.14 268.153Z" fill="#63B777"/>
<path d="M85.5386 233.32C85.5386 224.642 118.048 152.462 160.261 153.745C218.822 155.523 233.841 246.343 231.16 255.282C229.026 262.401 218.739 264.99 173.64 263.729C105.902 261.833 85.5386 241.092 85.5386 233.32Z" fill="#19141E"/>
<path fill-rule="evenodd" clip-rule="evenodd" d="M164.392 249.415C164.392 249.415 155.477 249.679 151.678 247.603L163.918 255.291L164.392 249.415Z" fill="#CF3E83"/>
<path d="M162.785 190.345C173.061 195.536 189.242 205.056 197.471 216.933C196.031 227.186 192.512 240.937 184.258 246.428C179.715 249.449 171.442 249.821 164.39 249.414L162.777 269.444L140.454 262.043C140.454 262.043 142.667 238.572 143.625 230.081C138.999 225.881 130.43 223.246 130.416 216.114C130.416 213.652 131.857 209.375 137.179 209.369C144.321 209.362 143.308 217.921 143.308 217.921C150.527 220.734 157.9 199.313 162.785 190.345L162.785 190.345Z" fill="#B4833B"/>
<path fill-rule="evenodd" clip-rule="evenodd" d="M183.771 217.908L188.872 230.282L182.953 230.163L183.771 217.908Z" fill="#80450F"/>
<path fill-rule="evenodd" clip-rule="evenodd" d="M178.339 218.444C178.211 220.916 176.759 222.842 175.093 222.746C173.427 222.65 172.18 220.569 172.308 218.097C172.435 215.625 173.888 213.699 175.553 213.795C177.219 213.891 178.466 215.972 178.339 218.444" fill="#19141E"/>
<path fill-rule="evenodd" clip-rule="evenodd" d="M193.979 218.05C193.852 220.522 192.399 222.447 190.734 222.352C189.068 222.256 187.82 220.174 187.948 217.702C188.075 215.23 189.528 213.304 191.194 213.4C192.859 213.495 194.106 215.578 193.979 218.05" fill="#19141E"/>
<path d="M181.501 236.09C181.501 236.09 177.644 237.335 173.78 233.036" stroke="#19141E" stroke-width="3"/>
<path opacity="0.398182" fill-rule="evenodd" clip-rule="evenodd" d="M164.377 249.415C164.377 249.415 155.463 249.678 151.663 247.602L163.904 255.291L164.377 249.415Z" fill="black"/>
<path d="M36.2685 243.537C72.3153 243.537 101.537 214.315 101.537 178.269C101.537 142.222 72.3153 113 36.2685 113C0.221725 113 -29 142.222 -29 178.269C-29 214.315 0.221725 243.537 36.2685 243.537Z" fill="#63B777"/>
<mask id="mask3" mask-type="alpha" maskUnits="userSpaceOnUse" x="-27" y="113" width="132" height="131">
<path d="M38.7317 243.537C74.7785 243.537 104 214.315 104 178.269C104 142.222 74.7785 113 38.7317 113C2.68486 113 -26.5369 142.222 -26.5369 178.269C-26.5369 214.315 2.68486 243.537 38.7317 243.537Z" fill="#FCBDA4"/>
</mask>
<g mask="url(#mask3)">
<path d="M37.5127 245.443L36.8023 220.248C36.8023 220.248 66.6049 222.686 72.9804 219.283C72.9804 219.283 80.7715 178.042 71.479 155.203L71.2908 154.314L8.39956 146.755L4.48687 183.382C2.36841 176.963 -14.7279 170.132 -19.2988 179.325C-29.2031 199.244 6.21014 212.656 6.21014 212.656L2.61488 245.746" fill="#A15611"/>
<path opacity="0.400274" fill-rule="evenodd" clip-rule="evenodd" d="M36.8025 220.248L16.707 215.821L36.7061 229.7L36.8025 220.248Z" fill="black"/>
<path fill-rule="evenodd" clip-rule="evenodd" d="M53.3797 179.075L60.3237 196.516L52.0015 196.625L53.3797 179.075Z" fill="#19141E"/>
<path fill-rule="evenodd" clip-rule="evenodd" d="M45.4619 184.031C45.8757 186.38 44.3571 188.628 42.0705 189.053C39.7847 189.478 37.5961 187.918 37.183 185.57C36.7692 183.221 38.287 180.973 40.5736 180.548C42.8601 180.123 45.048 181.682 45.4619 184.031" fill="#19141E"/>
<path fill-rule="evenodd" clip-rule="evenodd" d="M67.3032 184.031C67.717 186.38 66.1984 188.628 63.9118 189.053C61.6261 189.478 59.4374 187.918 59.0243 185.57C58.6105 183.221 60.1283 180.973 62.4149 180.548C64.7014 180.123 66.8893 181.682 67.3032 184.031" fill="#19141E"/>
<path fill-rule="evenodd" clip-rule="evenodd" d="M44.7449 201.564C44.7449 201.564 47.6536 206.409 53.4152 205.999Z" fill="white"/>
<path d="M44.7449 201.564C44.7449 201.564 47.6536 206.409 53.4152 205.999" stroke="#252535" stroke-width="2"/>
<path fill-rule="evenodd" clip-rule="evenodd" d="M4.86665 183.772C0.170503 178.77 -4.94056 176.651 -8.04077 175.771L-7.44933 163.147L22.0933 157.855C20.0575 171.938 12.15 179.621 4.86665 183.772V183.772Z" fill="#EACB47"/>
<path fill-rule="evenodd" clip-rule="evenodd" d="M73.2227 160.127C70.5611 157.526 53.2138 156.72 32.3609 158.37C27.5107 158.754 22.8607 159.237 18.561 159.797C4.34659 161.631 -6.11199 164.24 -7.81438 166.535C-9.70276 137.867 7.38758 120.794 29.7636 119.206C44.4434 118.162 57.7563 124.048 65.7251 136.309C69.8029 142.594 72.4861 150.559 73.2227 160.127" fill="#393954"/>
<path fill-rule="evenodd" clip-rule="evenodd" d="M73.5588 160.695H73.5513C73.5229 160.496 73.4086 160.304 73.2226 160.127C70.5611 157.526 53.2138 156.72 32.3609 158.37C27.51 158.754 22.8607 159.237 18.561 159.797C24.6774 153.828 35.8658 144.389 49.0643 140.154C54.7085 138.343 60.432 137.023 65.7251 136.309C78.5733 134.56 88.8818 136.355 89.3972 143.208C90.062 152.124 75.7766 159.59 73.5588 160.695" fill="#161629"/>
</g>
<path d="M59.666 51.292H48.9785V58.5283H61.5215V63H43.4121V35.9844H61.4844V40.4932H48.9785V46.9316H59.666V51.292ZM69.4629 42.9238L69.6299 45.1689C71.0524 43.4248 72.9759 42.5527 75.4004 42.5527C77.9857 42.5527 79.7607 43.5732 80.7256 45.6143C82.1357 43.5732 84.1458 42.5527 86.7559 42.5527C88.9329 42.5527 90.5534 43.1898 91.6172 44.4639C92.681 45.7256 93.2129 47.6305 93.2129 50.1787V63H87.832V50.1973C87.832 49.0592 87.6094 48.2305 87.1641 47.7109C86.7188 47.179 85.9333 46.9131 84.8076 46.9131C83.1995 46.9131 82.0863 47.68 81.4678 49.2139L81.4863 63H76.124V50.2158C76.124 49.0531 75.8952 48.2119 75.4375 47.6924C74.9798 47.1729 74.2005 46.9131 73.0996 46.9131C71.5781 46.9131 70.4772 47.5439 69.7969 48.8057V63H64.4346V42.9238H69.4629ZM115.423 53.1475C115.423 56.2399 114.718 58.7201 113.308 60.5879C111.91 62.4434 110.017 63.3711 107.63 63.3711C105.601 63.3711 103.962 62.666 102.713 61.2559V70.7188H97.3506V42.9238H102.323L102.509 44.8906C103.808 43.332 105.502 42.5527 107.593 42.5527C110.067 42.5527 111.99 43.4681 113.363 45.2988C114.736 47.1296 115.423 49.653 115.423 52.8691V53.1475ZM110.061 52.7578C110.061 50.89 109.727 49.4489 109.059 48.4346C108.403 47.4202 107.444 46.9131 106.183 46.9131C104.5 46.9131 103.344 47.5563 102.713 48.8428V57.0625C103.368 58.3861 104.537 59.0479 106.22 59.0479C108.78 59.0479 110.061 56.9512 110.061 52.7578ZM130.396 63C130.149 62.5176 129.97 61.9176 129.858 61.2002C128.56 62.6475 126.871 63.3711 124.793 63.3711C122.826 63.3711 121.193 62.8021 119.895 61.6641C118.608 60.526 117.965 59.0911 117.965 57.3594C117.965 55.2318 118.75 53.599 120.321 52.4609C121.905 51.3229 124.187 50.7477 127.168 50.7354H129.636V49.585C129.636 48.6572 129.395 47.915 128.912 47.3584C128.442 46.8018 127.694 46.5234 126.667 46.5234C125.764 46.5234 125.053 46.7399 124.533 47.1729C124.026 47.6058 123.772 48.1995 123.772 48.9541H118.41C118.41 47.7913 118.769 46.7152 119.486 45.7256C120.204 44.736 121.218 43.9629 122.529 43.4062C123.84 42.8372 125.312 42.5527 126.945 42.5527C129.419 42.5527 131.38 43.1774 132.827 44.4268C134.287 45.6637 135.017 47.4079 135.017 49.6592V58.3613C135.029 60.2663 135.295 61.7074 135.814 62.6846V63H130.396ZM125.962 59.2705C126.754 59.2705 127.483 59.0973 128.151 58.751C128.819 58.3923 129.314 57.916 129.636 57.3223V53.8711H127.632C124.948 53.8711 123.519 54.7988 123.346 56.6543L123.327 56.9697C123.327 57.6377 123.562 58.1882 124.032 58.6211C124.502 59.054 125.146 59.2705 125.962 59.2705ZM145.556 37.9883V42.9238H148.988V46.8574H145.556V56.877C145.556 57.6191 145.698 58.151 145.982 58.4727C146.267 58.7943 146.811 58.9551 147.615 58.9551C148.209 58.9551 148.735 58.9118 149.192 58.8252V62.8887C148.141 63.2103 147.059 63.3711 145.945 63.3711C142.185 63.3711 140.268 61.4723 140.193 57.6748V46.8574H137.262V42.9238H140.193V37.9883H145.556ZM157.635 63H152.254V42.9238H157.635V63ZM151.938 37.7285C151.938 36.9245 152.204 36.2627 152.736 35.7432C153.281 35.2236 154.017 34.9639 154.944 34.9639C155.86 34.9639 156.59 35.2236 157.134 35.7432C157.678 36.2627 157.95 36.9245 157.95 37.7285C157.95 38.5449 157.672 39.2129 157.115 39.7324C156.571 40.252 155.847 40.5117 154.944 40.5117C154.041 40.5117 153.312 40.252 152.755 39.7324C152.211 39.2129 151.938 38.5449 151.938 37.7285ZM173.703 63C173.456 62.5176 173.276 61.9176 173.165 61.2002C171.866 62.6475 170.178 63.3711 168.1 63.3711C166.133 63.3711 164.5 62.8021 163.201 61.6641C161.915 60.526 161.271 59.0911 161.271 57.3594C161.271 55.2318 162.057 53.599 163.628 52.4609C165.211 51.3229 167.493 50.7477 170.475 50.7354H172.942V49.585C172.942 48.6572 172.701 47.915 172.219 47.3584C171.749 46.8018 171 46.5234 169.974 46.5234C169.071 46.5234 168.359 46.7399 167.84 47.1729C167.333 47.6058 167.079 48.1995 167.079 48.9541H161.717C161.717 47.7913 162.076 46.7152 162.793 45.7256C163.51 44.736 164.525 43.9629 165.836 43.4062C167.147 42.8372 168.619 42.5527 170.252 42.5527C172.726 42.5527 174.687 43.1774 176.134 44.4268C177.593 45.6637 178.323 47.4079 178.323 49.6592V58.3613C178.336 60.2663 178.602 61.7074 179.121 62.6846V63H173.703ZM169.269 59.2705C170.06 59.2705 170.79 59.0973 171.458 58.751C172.126 58.3923 172.621 57.916 172.942 57.3223V53.8711H170.938C168.254 53.8711 166.826 54.7988 166.652 56.6543L166.634 56.9697C166.634 57.6377 166.869 58.1882 167.339 58.6211C167.809 59.054 168.452 59.2705 169.269 59.2705Z" fill="#00004C"/>
</g>
</g>
<defs>
<linearGradient id="paint0_linear" x1="224.161" y1="535.514" x2="224.161" y2="479.326" gradientUnits="userSpaceOnUse">
<stop stop-color="#818181" stop-opacity="0.25"/>
<stop offset="0.5351" stop-color="#818181" stop-opacity="0.12"/>
<stop offset="1" stop-color="#818181" stop-opacity="0.1"/>
</linearGradient>
<linearGradient id="paint1_linear" x1="156.478" y1="591.957" x2="156.478" y2="539.578" gradientUnits="userSpaceOnUse">
<stop stop-color="#818181" stop-opacity="0.25"/>
<stop offset="0.5351" stop-color="#818181" stop-opacity="0.12"/>
<stop offset="1" stop-color="#818181" stop-opacity="0.1"/>
</linearGradient>
<linearGradient id="paint2_linear" x1="139.179" y1="513.627" x2="139.179" y2="457.439" gradientUnits="userSpaceOnUse">
<stop stop-color="#818181" stop-opacity="0.25"/>
<stop offset="0.5351" stop-color="#818181" stop-opacity="0.12"/>
<stop offset="1" stop-color="#818181" stop-opacity="0.1"/>
</linearGradient>
<linearGradient id="paint3_linear" x1="69.1786" y1="580.627" x2="69.1786" y2="524.439" gradientUnits="userSpaceOnUse">
<stop stop-color="#818181" stop-opacity="0.25"/>
<stop offset="0.5351" stop-color="#818181" stop-opacity="0.12"/>
<stop offset="1" stop-color="#818181" stop-opacity="0.1"/>
</linearGradient>
<clipPath id="clip0">
<rect width="375" height="667" fill="white"/>
</clipPath>
<clipPath id="clip1">
<rect width="403" height="806" fill="white" transform="translate(-7 -81)"/>
</clipPath>
<clipPath id="clip2">
<rect width="413.577" height="723.496" fill="white" transform="translate(-5 -30)"/>
</clipPath>
<clipPath id="clip3">
<rect width="381.736" height="668.291" fill="white" transform="translate(-5 -2.51508)"/>
</clipPath>
<clipPath id="clip4">
<rect width="381.736" height="668.291" fill="white" transform="translate(-5 -2.51508)"/>
</clipPath>
</defs>
</svg>
