<svg width="273" height="355" viewBox="0 0 273 355" fill="none" xmlns="http://www.w3.org/2000/svg">
<path d="M79 372C181.725 372 265 288.725 265 186C265 83.2751 181.725 0 79 0C-23.7249 0 -107 83.2751 -107 186C-107 288.725 -23.7249 372 79 372Z" fill="#63B777"/>
<mask id="mask0" mask-type="alpha" maskUnits="userSpaceOnUse" x="-100" y="0" width="373" height="372">
<path d="M86.0191 372C188.744 372 272.019 288.725 272.019 186C272.019 83.2751 188.744 0 86.0191 0C-16.7059 0 -99.981 83.2751 -99.981 186C-99.981 288.725 -16.7059 372 86.0191 372Z" fill="#FCBDA4"/>
</mask>
<g mask="url(#mask0)">
<path d="M82.5448 377.43L80.5204 305.629C80.5204 305.629 165.451 312.577 183.62 302.881C183.62 302.881 205.822 185.351 179.341 120.266L178.804 117.732L-0.420784 96.1926L-11.571 200.57C-17.6081 182.278 -66.3288 162.811 -79.3545 189.008C-107.58 245.773 -6.66012 283.994 -6.66012 283.994L-16.9058 378.294" fill="#A15611"/>
<path opacity="0.400274" fill-rule="evenodd" clip-rule="evenodd" d="M80.5209 305.629L23.2535 293.014L80.2463 332.567L80.5209 305.629Z" fill="black"/>
<path fill-rule="evenodd" clip-rule="evenodd" d="M127.762 188.295L147.551 237.999L123.834 238.31L127.762 188.295Z" fill="#19141E"/>
<path fill-rule="evenodd" clip-rule="evenodd" d="M105.198 202.421C106.377 209.115 102.05 215.52 95.5335 216.731C89.0196 217.943 82.7824 213.497 81.6052 206.806C80.4258 200.112 84.7514 193.705 91.2675 192.494C97.7836 191.285 104.019 195.728 105.198 202.421Z" fill="#19141E"/>
<path fill-rule="evenodd" clip-rule="evenodd" d="M167.441 202.421C168.62 209.115 164.292 215.52 157.776 216.731C151.262 217.943 145.025 213.497 143.848 206.806C142.669 200.112 146.994 193.705 153.51 192.494C160.026 191.285 166.262 195.728 167.441 202.421Z" fill="#19141E"/>
<path fill-rule="evenodd" clip-rule="evenodd" d="M103.155 252.386C103.155 252.386 111.444 266.196 127.863 265.026L103.155 252.386Z" fill="#19141E"/>
<path fill-rule="evenodd" clip-rule="evenodd" d="M-10.4884 201.682C-23.8713 187.428 -38.4367 181.389 -47.2715 178.88L-45.5861 142.907L38.6036 127.825C32.8021 167.957 10.2673 189.853 -10.4884 201.682Z" fill="#EACB47"/>
<path fill-rule="evenodd" clip-rule="evenodd" d="M184.31 134.301C176.725 126.888 127.289 124.592 67.8633 129.294C54.0414 130.387 40.79 131.765 28.537 133.361C-11.9709 138.587 -41.7754 146.022 -46.6268 152.561C-52.0083 70.8649 -3.30476 22.2105 60.4617 17.684C102.296 14.7101 140.234 31.4822 162.944 66.4259C174.564 84.335 182.211 107.033 184.31 134.301Z" fill="#393954"/>
<path fill-rule="evenodd" clip-rule="evenodd" d="M185.268 135.918H185.247C185.166 135.35 184.84 134.803 184.31 134.3C176.725 126.887 127.29 124.591 67.8637 129.293C54.0396 130.386 40.7903 131.764 28.5373 133.36C45.9674 116.347 77.8517 89.4508 115.464 77.3801C131.549 72.2195 147.86 68.4583 162.944 66.4247C199.558 61.439 228.935 66.5559 230.404 86.0832C232.298 111.493 191.588 132.77 185.268 135.918Z" fill="#161629"/>
</g>
</svg>
