<svg width="375" height="333" viewBox="0 0 375 333" fill="none" xmlns="http://www.w3.org/2000/svg">
<g clip-path="url(#clip0)">
<path d="M174.156 378.905C278.886 378.905 363.787 294.084 363.787 189.453C363.787 84.8208 278.886 0 174.156 0C69.4261 0 -15.4744 84.8208 -15.4744 189.453C-15.4744 294.084 69.4261 378.905 174.156 378.905Z" fill="#F2F2F2"/>
<path d="M25.4003 36.8239L26.773 64.9116C32.3653 72.378 38.3644 80.8602 44.3126 90.155L45.1768 47.3378L45.6344 47.6425C38.7202 42.7157 31.7553 38.9571 24.892 36.5699L25.4003 36.8239Z" fill="#047F13"/>
<path d="M25.7562 63.591L24.4344 36.4175C16.7576 33.8271 9.33509 32.9637 2.52263 34.1319C2.16675 34.1827 1.81088 34.2843 1.455 34.335C3.23438 36.1635 13.3006 47.1345 25.7562 63.591Z" fill="#047F13"/>
<path d="M87.6277 97.0627L88.0852 97.469C86.2042 93.9644 84.2723 90.6121 82.1879 87.3107L69.478 137.137L69.2747 136.934C70.1898 139.118 71.054 141.302 71.8675 143.435L87.6277 97.0627Z" fill="#047F13"/>
<path d="M68.3087 68.7718L68.7663 69.1273C62.0555 61.2039 54.4296 54.093 46.092 47.9473L45.2277 91.5772C50.7692 100.313 55.7006 108.897 60.0728 117.379L68.3087 68.7718Z" fill="#047F13"/>
<path d="M-23.6087 82.3839C-22.8969 89.7487 -21.4226 97.0119 -19.2873 104.072L56.2598 111.843C52.2944 104.58 48.2272 97.7737 44.3126 91.5264L-23.4053 82.9934L-23.6087 82.3839Z" fill="#047F13"/>
<path d="M-16.5421 112.249L-16.7454 111.64L59.7168 118.446C58.8017 116.617 57.8358 114.84 56.9207 113.113L-18.9315 105.291L-19.1349 104.681C-18.3215 107.17 -17.4572 109.659 -16.5421 112.249Z" fill="#047F13"/>
<path d="M81.3235 86.2949L81.7811 86.7012C77.9681 80.7586 73.7993 75.07 69.2238 69.6353L60.8861 118.903C63.784 124.541 66.3768 130.128 68.7154 135.664L81.3235 86.2949Z" fill="#047F13"/>
<path d="M79.6967 168.628C82.747 181.783 83.8655 194.176 83.1029 205.757C87.3734 196.665 103.642 158.927 97.5413 123.779L79.6967 168.628Z" fill="#047F13"/>
<path d="M-2.51036 138.813C1.55678 144.248 5.92896 149.429 10.657 154.305L10.4537 153.644L78.4766 167.612C76.6972 160.298 74.5111 153.035 71.8675 145.975L-2.51036 138.813Z" fill="#047F13"/>
<path d="M25.1462 64.0481C11.6738 46.2203 1.04835 34.9446 0.895828 34.7922L1.04835 34.4366C-9.17035 36.7731 -16.3895 43.6807 -20.355 53.7882L25.1462 64.0481Z" fill="#047F13"/>
<path d="M72.5284 145.162C72.7826 145.823 73.0368 146.483 73.291 147.194C75.6296 153.594 77.6123 160.095 79.2392 166.698L96.9821 122.306L97.4396 122.763C96.3212 116.567 94.4401 110.573 91.7965 104.885C90.7288 102.65 89.6612 100.466 88.4919 98.2816L72.5284 145.162Z" fill="#047F13"/>
<path d="M43.5499 90.3074C37.6526 81.1141 31.7044 72.7335 26.1629 65.3687L-20.4059 54.8549L-20.5584 54.2454C-23.4562 61.9149 -24.5238 71.3113 -23.6596 81.7744L43.5499 90.3074Z" fill="#047F13"/>
<path d="M78.8324 168.729L11.3179 154.863C39.737 184.018 79.4425 206.315 81.9845 207.737C83.1538 194.938 81.8319 181.732 78.8324 168.729Z" fill="#047F13"/>
<path d="M71.4608 144.756C68.207 136.172 64.5466 127.792 60.3778 119.614L-16.2879 112.808C-14.966 116.262 -13.4917 119.716 -11.8648 123.271C-9.47539 128.3 -6.6284 133.074 -3.37468 137.544L71.4608 144.756Z" fill="#047F13"/>
<path d="M168.971 131.398L152.092 153.898C151.634 163.193 150.821 173.606 149.499 184.526L177.511 152.07L177.664 152.578C175.478 144.4 172.529 137.036 168.767 130.89L168.971 131.398Z" fill="#047F13"/>
<path d="M152.143 152.222L168.513 130.433C164.293 123.525 159.108 118.141 153.109 114.738C152.804 114.586 152.499 114.383 152.194 114.23C152.295 116.77 153.109 131.601 152.143 152.222Z" fill="#047F13"/>
<path d="M178.427 217.439L178.477 218.048C179.291 214.188 179.901 210.328 180.409 206.468L138.874 236.74L138.823 236.435C138.111 238.72 137.399 240.904 136.688 243.139L178.427 217.439Z" fill="#047F13"/>
<path d="M181.629 183.358L181.731 183.967C181.629 173.606 180.308 163.244 177.766 153.187L149.245 186.253C147.923 196.513 146.245 206.265 144.212 215.61L181.629 183.358Z" fill="#047F13"/>
<path d="M102.168 135.258C97.9988 141.353 94.4909 147.905 91.6439 154.711L144.873 208.906C146.5 200.779 147.669 192.957 148.635 185.643L101.964 135.867L102.168 135.258Z" fill="#047F13"/>
<path d="M88.5428 162.787L88.7461 162.177L143.347 216.118C143.805 214.137 144.212 212.156 144.618 210.226L91.1864 155.879L91.3897 155.321C90.4238 157.708 89.4579 160.197 88.5428 162.787Z" fill="#047F13"/>
<path d="M180.46 205.147L180.562 205.757C181.426 198.747 181.833 191.687 181.782 184.627L143.907 217.286C142.534 223.483 140.958 229.476 139.28 235.165L180.46 205.147Z" fill="#047F13"/>
<path d="M126.621 267.519C120.571 279.557 113.505 289.867 105.574 298.299C114.674 294.032 151.278 275.341 169.021 244.358L126.621 267.519Z" fill="#047F13"/>
<path d="M82.3912 192.145C82.0354 198.9 82.1371 205.706 82.6963 212.461L82.9505 211.852L126.418 265.945C129.723 259.189 132.671 252.18 135.112 245.069L82.3912 192.145Z" fill="#047F13"/>
<path d="M151.431 152.222C152.448 129.925 151.431 114.433 151.38 114.23L151.736 114.078C142.382 109.354 132.366 110.116 122.91 115.297L151.431 152.222Z" fill="#047F13"/>
<path d="M136.128 244.866C135.874 245.526 135.671 246.237 135.417 246.898C133.129 253.298 130.485 259.596 127.536 265.741L169.53 242.834L169.58 243.444C172.682 237.958 175.02 232.117 176.647 226.073C177.257 223.686 177.816 221.299 178.325 218.912L136.128 244.866Z" fill="#047F13"/>
<path d="M148.787 184.17C150.109 173.352 150.872 163.092 151.329 153.898L122.198 116.109L122.453 115.551C115.335 119.614 108.523 126.166 102.473 134.801L148.787 184.17Z" fill="#047F13"/>
<path d="M125.91 267.062L82.7471 213.324C86.0516 253.856 102.371 296.369 103.439 299.111C112.539 289.969 119.911 278.947 125.91 267.062Z" fill="#047F13"/>
<path d="M135.569 243.85C138.569 235.165 141.06 226.378 143.093 217.439L88.3394 163.346C87.1192 166.85 86.0516 170.457 85.0857 174.215C83.713 179.599 82.8487 185.084 82.4929 190.621L135.569 243.85Z" fill="#047F13"/>
<path d="M0.590759 161.416L10.5552 187.726C18.1811 193.059 26.5188 199.306 35.0598 206.315L22.6042 165.326L23.1634 165.479C15.0799 162.939 7.30154 161.517 0.0823669 161.365L0.590759 161.416Z" fill="#047F13"/>
<path d="M9.23349 186.761L-0.425974 161.314C-8.50942 161.212 -15.8811 162.685 -21.931 165.936C-22.236 166.088 -22.5411 166.292 -22.8461 166.444C-20.66 167.663 -7.69599 174.926 9.23349 186.761Z" fill="#047F13"/>
<path d="M78.4257 199.509L78.9849 199.763C76.1379 197.02 73.2401 194.379 70.2406 191.891L73.596 243.19L73.3418 243.088C74.867 244.866 76.3921 246.695 77.8665 248.472L78.4257 199.509Z" fill="#047F13"/>
<path d="M51.3284 178.532L51.8876 178.735C43.0416 173.25 33.6363 168.831 23.7735 165.58L36.4325 207.382C44.4143 213.985 51.7859 220.638 58.5476 227.343L51.3284 178.532Z" fill="#047F13"/>
<path d="M-31.8955 219.877C-28.9468 226.632 -25.2864 233.133 -21.0667 239.177L53.2094 223.229C47.2104 217.54 41.2114 212.309 35.5682 207.636L-31.4888 220.384L-31.8955 219.877Z" fill="#047F13"/>
<path d="M-15.932 246.034L-16.2879 245.526L58.5475 228.359C57.124 226.937 55.6497 225.514 54.2262 224.143L-20.3042 240.142L-20.6601 239.634C-19.1857 241.819 -17.6097 243.952 -15.932 246.034Z" fill="#047F13"/>
<path d="M69.1221 191.179L69.6814 191.433C64.2416 186.913 58.4967 182.799 52.4977 179.091L59.8186 228.562C64.2924 233.032 68.5121 237.552 72.4775 242.073L69.1221 191.179Z" fill="#047F13"/>
<path d="M93.0166 270.008C99.9816 281.588 104.913 293.016 107.76 304.241C109.031 294.286 112.793 253.348 96.1686 221.807L93.0166 270.008Z" fill="#047F13"/>
<path d="M5.6747 267.011C11.2162 270.922 17.0119 274.477 23.0109 277.627L22.655 277.068L91.6948 269.347C87.7293 262.897 83.408 256.751 78.7308 250.809L5.6747 267.011Z" fill="#047F13"/>
<path d="M8.82674 187.37C-9.52625 174.571 -23.1003 167.155 -23.3037 167.053L-23.2529 166.647C-32.2514 172.031 -36.9795 180.869 -37.6404 191.637L8.82674 187.37Z" fill="#047F13"/>
<path d="M78.9341 249.844C79.3917 250.402 79.8492 250.961 80.2559 251.52C84.4756 256.904 88.3394 262.44 91.949 268.23L95.0502 220.537L95.6094 220.791C92.6099 215.255 88.9495 210.125 84.679 205.503C83.0013 203.674 81.2727 201.947 79.4933 200.22L78.9341 249.844Z" fill="#047F13"/>
<path d="M34.4497 206.671C26.0104 199.763 17.7236 193.617 10.1994 188.284L-37.3353 192.652L-37.6912 192.144C-38.0979 200.322 -36.2169 209.566 -32.0989 219.267L34.4497 206.671Z" fill="#047F13"/>
<path d="M92.254 270.364L23.7227 278.033C59.7677 296.978 104.455 305.918 107.302 306.476C104.455 293.931 99.1173 281.792 92.254 270.364Z" fill="#047F13"/>
<path d="M77.8157 249.844C72.0708 242.682 65.9701 235.825 59.5135 229.375L-15.5253 246.593C-13.2375 249.488 -10.7464 252.333 -8.10273 255.177C-4.28978 259.189 -0.120968 262.897 4.40373 266.148L77.8157 249.844Z" fill="#047F13"/>
<path d="M407 322.018C407 344.722 290.019 385 145.686 385C1.35338 385 -115.628 344.722 -115.628 322.018C-115.628 299.315 1.35338 302.718 145.686 302.718C290.019 302.718 407 299.315 407 322.018Z" fill="#3F3D56"/>
<path opacity="0.1" d="M407 322.018C407 344.722 290.019 385 145.686 385C1.35338 385 -115.628 344.722 -115.628 322.018C-115.628 299.315 1.35338 302.718 145.686 302.718C290.019 302.718 407 299.315 407 322.018Z" fill="black"/>
<path d="M145.686 363.16C290.006 363.16 407 344.74 407 322.018C407 299.297 290.006 280.877 145.686 280.877C1.36641 280.877 -115.628 299.297 -115.628 322.018C-115.628 344.74 1.36641 363.16 145.686 363.16Z" fill="#3F3D56"/>
<path opacity="0.1" d="M190.984 278.998C190.984 303.734 156.464 296.115 114.166 296.115C71.8675 296.115 37.856 303.784 37.856 278.998C37.856 254.212 72.3759 248.879 114.674 248.879C156.972 248.879 190.984 254.263 190.984 278.998Z" fill="black"/>
<path d="M190.984 272.903C190.984 297.639 156.464 290.02 114.166 290.02C71.8675 290.02 37.856 297.689 37.856 272.903C37.856 248.117 72.3759 242.784 114.674 242.784C156.972 242.784 190.984 248.168 190.984 272.903Z" fill="#3F3D56"/>
<path d="M54.938 204.792C55.8531 204.131 56.8699 203.623 57.9884 203.268C64.9025 200.728 72.1217 199.154 79.4425 198.595C85.7974 198.138 92.7116 198.697 97.6938 202.658C98.4564 203.217 99.1173 203.979 99.524 204.792C100.134 206.163 99.9816 207.737 99.7782 209.21C99.7274 209.769 99.5749 210.328 99.3715 210.887C98.7106 212.156 97.0329 212.613 95.6094 212.461C94.1859 212.309 92.8132 211.699 91.4406 211.445C90.5763 211.293 89.6612 211.191 88.797 211.191L79.9509 210.734C74.4603 210.429 68.868 210.125 63.4282 211.242C61.7505 211.547 60.1745 212.106 58.6493 212.867C57.4291 213.579 56.5649 214.544 55.4464 213.274C53.4128 211.039 52.2944 206.874 54.938 204.792Z" fill="#2F2E41"/>
<path d="M68.7154 208.703C68.7154 208.703 80.6627 203.369 85.1873 209.515C89.712 215.661 82.6962 213.223 82.6962 213.223L74.867 215.712L66.2243 214.086L68.7154 208.703Z" fill="#F2F2F2"/>
<path d="M69.3255 204.842C69.3255 204.842 70.9523 212.664 69.7322 214.696C68.512 216.728 76.748 219.623 76.748 219.623L84.5772 216.321C84.5772 216.321 82.5437 203.573 84.5772 201.135L69.3255 204.842Z" fill="#FFB9B9"/>
<path opacity="0.1" d="M69.3255 204.842C69.3255 204.842 70.9523 212.664 69.7322 214.696C68.512 216.728 76.748 219.623 76.748 219.623L84.5772 216.321C84.5772 216.321 82.5437 203.573 84.5772 201.135L69.3255 204.842Z" fill="black"/>
<path d="M61.5979 298.705C62.7164 300.991 63.6315 303.378 64.2924 305.816C64.3432 306.121 64.6483 306.375 64.9533 306.324H65.0041H72.325C73.2401 306.324 74.4603 306.019 74.4094 305.156C74.4094 304.546 73.7485 304.14 73.291 303.734C71.9691 302.616 71.6133 300.686 71.054 299.061C69.9864 295.861 67.902 293.067 65.1058 291.086C64.7499 290.782 64.2924 290.579 63.8348 290.477C63.3773 290.426 62.9197 290.426 62.4622 290.528C61.1912 290.782 56.3614 291.696 57.2766 293.524C57.6833 294.337 59.1068 295.15 59.7168 295.912C60.4794 296.724 61.0895 297.689 61.5979 298.705Z" fill="#575A89"/>
<path d="M87.0684 290.223C86.8142 290.782 86.5092 291.29 86.2042 291.797C85.1365 293.524 83.9164 295.15 82.8996 296.978C82.2387 298.096 81.832 299.315 81.6795 300.584C81.5778 301.854 82.0862 303.124 83.0521 303.987C84.1197 304.8 85.5941 304.851 86.8651 304.648C88.1869 304.445 89.5087 304.089 90.8305 304.191C90.373 301.651 92.5082 299.416 93.0675 296.927C93.22 296.216 93.22 295.505 93.4233 294.794C93.6267 294.185 93.9317 293.524 94.2368 292.966C95.3044 290.883 96.067 288.699 96.4737 286.363C96.5245 286.109 89.9663 286.058 89.3562 286.16C87.526 286.515 87.7802 288.598 87.0684 290.223Z" fill="#575A89"/>
<path d="M36.5341 250.402C34.6531 253.348 35.1106 257.208 36.4324 260.408C37.7543 263.608 39.8387 266.453 41.2622 269.602C42.1773 271.633 42.8382 273.767 43.855 275.697C45.1259 278.135 47.007 280.268 47.8204 282.858C48.3797 284.534 48.4813 286.312 49.3456 287.836C49.854 288.648 50.4641 289.41 51.1758 290.071C53.0569 292.255 54.4804 294.794 55.3446 297.537C56.1581 295.15 58.5475 293.575 61.0386 293.067C63.5298 292.559 66.0717 292.915 68.6137 293.271C67.1902 291.087 65.8175 288.902 64.9533 286.464C64.1398 284.128 63.8856 281.588 63.3772 279.15C62.2588 274.173 59.8693 269.551 57.5307 265.03L69.6305 264.065C71.6132 263.862 73.5959 263.811 75.5787 263.862C78.6799 264.015 81.7811 264.776 84.8822 265.132C87.9834 265.488 91.288 265.386 94.0333 263.964C88.746 271.532 86.0007 280.623 86.1532 289.867C90.5254 286.464 96.8295 287.277 100.236 291.645C100.693 292.204 101.049 292.813 101.354 293.423C106.082 286.922 105.523 277.931 109.285 270.821C110.048 269.348 111.014 268.027 111.827 266.554C113.403 263.71 114.776 260.713 115.843 257.666C116.911 254.974 117.979 251.977 116.962 249.285C116.555 248.269 115.945 247.304 115.182 246.542C112.996 244.155 109.997 242.377 106.743 242.327C101.812 242.225 97.6937 245.882 93.3724 248.269C88.1868 251.012 82.3403 252.231 76.4429 251.774C70.4947 251.367 64.7499 249.387 59.1067 247.66C56.2597 246.745 53.3619 246.034 50.4641 245.425C48.0238 244.968 45.6852 245.476 43.2957 246.085C40.6521 246.847 38.0593 248.066 36.5341 250.402Z" fill="#2F2E41"/>
<path d="M88.2377 197.02C88.2377 203.826 82.6962 209.363 75.8838 209.363C75.172 209.363 74.4094 209.312 73.6977 209.16C66.9869 207.941 62.5639 201.541 63.7332 194.836C64.9533 188.132 71.3591 183.713 78.0699 184.881C83.9672 185.948 88.2377 191.078 88.2377 197.02Z" fill="#FFB9B9"/>
<path d="M68.7154 208.702C68.7154 208.702 70.9523 209.718 71.8166 210.531C72.63 211.344 75.1211 215.864 79.2391 213.02C83.3571 210.175 83.7638 208.499 84.984 208.499C86.2041 208.499 87.8818 210.988 87.8818 210.988L99.1681 244.866C96.1178 248.32 92.6098 251.266 88.6952 253.704C82.1369 257.818 74.3077 259.85 70.5964 258.224C66.8852 256.599 59.9202 255.329 58.6492 252.078C57.4291 248.777 55.3447 238.923 55.3447 238.923L61.0895 213.883L68.7154 208.702Z" fill="#F2F2F2"/>
<path d="M67.0885 242.987C68.0036 241.057 68.1053 238.873 68.207 236.739C68.3087 234.606 68.2578 232.524 68.0545 230.391C67.6986 227.648 66.7835 225.007 66.2242 222.264C65.7159 219.877 65.5125 217.439 65.5125 215.051C65.5125 213.934 65.6142 212.766 66.2242 211.852C66.631 211.191 67.2919 210.683 67.5461 209.972C68.0545 208.55 66.7835 207.026 65.36 206.468C63.6315 205.807 61.8012 205.757 60.0219 206.265C58.2933 206.772 56.6156 207.433 55.0396 208.296C53.8195 208.804 52.7518 209.515 51.7859 210.429C50.5149 211.75 49.9557 213.579 49.4981 215.356C49.1422 216.778 48.8372 218.251 49.0914 219.724C49.549 222.061 51.43 223.838 52.4468 225.972C53.6161 228.46 53.5653 231.406 53.0569 234.149C52.5993 236.892 51.735 239.533 51.4808 242.327C51.2267 245.069 51.6334 248.066 53.3619 250.199C54.0737 251.063 55.9547 253.196 57.2765 252.942C58.2933 252.739 59.7677 250.504 60.5811 249.844C62.9705 247.761 65.7667 245.933 67.0885 242.987Z" fill="#2F2E41"/>
<path d="M88.6444 207.382C88.6952 209.667 87.6785 211.852 86.4583 213.832C85.289 215.813 83.8655 217.642 83.0012 219.775C81.9336 222.416 81.6794 225.362 82.3912 228.156C82.6454 229.121 82.9504 230.035 83.3063 230.949L85.5432 237.146C85.8482 238.111 86.3058 239.025 86.865 239.888C87.3734 240.549 87.9835 241.107 88.6444 241.615C90.3729 242.987 92.3048 244.003 94.4401 244.612C96.5753 245.222 98.8631 245.069 100.897 244.257C101.1 235.876 102.473 227.597 104.913 219.572C105.371 218.099 105.879 216.524 105.523 215.051C105.116 213.375 103.795 212.105 102.473 210.937C98.5072 207.382 94.1859 203.674 88.8986 203.217C85.7974 202.861 88.6444 205.706 88.6444 207.382Z" fill="#2F2E41"/>
<path d="M61.6488 255.126C61.9538 255.735 62.1572 256.396 62.4622 257.005C62.9198 257.818 63.479 258.58 64.1399 259.24C66.8852 262.287 70.2406 265.335 74.3586 265.487C74.7653 265.538 75.172 265.487 75.5787 265.335C76.2905 264.979 76.748 264.268 76.8497 263.506C77.1547 261.932 76.443 260.307 75.7312 258.884C74.2061 255.735 72.4775 252.485 69.6305 250.453C66.7327 248.472 63.1231 247.914 59.7677 248.98C58.2934 249.437 55.8023 250.25 57.785 251.57C59.2594 252.688 60.7845 253.45 61.6488 255.126Z" fill="#FFB9B9"/>
<path d="M79.3917 214.95C78.985 213.782 78.324 212.715 77.4598 211.851C76.5955 211.14 75.5787 210.633 74.5111 210.379C73.0876 209.972 71.6641 209.769 70.1898 209.769C68.4613 209.769 66.4277 210.226 65.6651 211.801C65.055 213.07 65.5126 214.543 66.1227 215.762C66.3768 216.423 66.7836 216.981 67.3428 217.388C68.1054 217.896 69.0713 217.896 69.9356 218.048C71.3082 218.404 72.6301 219.013 73.7994 219.775L76.8497 221.603L82.0862 224.753C81.9336 224.651 81.9845 221.096 81.832 220.486C81.3744 218.658 80.2051 216.778 79.3917 214.95Z" fill="#FFB9B9"/>
<path d="M64.1398 304.851C62.9197 306.527 63.1739 308.914 62.0554 310.641C61.0895 312.165 59.3609 312.978 58.1408 314.298C57.7849 314.755 57.429 315.212 57.124 315.72C56.0564 317.549 55.1413 319.885 56.2089 321.714C57.0732 323.187 58.9034 323.745 60.5811 324.152C62.6655 324.66 64.9024 325.066 67.0377 324.66C69.1729 324.304 71.2573 322.984 72.0199 320.952C72.1725 320.444 72.325 319.936 72.5283 319.428C73.6976 317.143 77.3072 317.143 78.4765 314.857C79.29 313.282 78.5274 311.352 77.7648 309.727L75.4262 304.8C74.6636 303.175 71.5115 304.089 69.8847 303.734C67.8511 303.327 65.665 302.769 64.1398 304.851Z" fill="#2F2E41"/>
<path d="M82.0861 300.635C81.1202 301.397 80.4085 302.362 80.0017 303.53C78.8324 306.171 78.4766 309.067 78.0699 311.962C77.8665 313.079 77.8157 314.247 78.019 315.415C78.5274 317.752 80.6118 319.479 82.8996 320.19C85.1873 320.901 87.6276 320.799 90.0171 320.698C90.7797 320.698 91.5422 320.545 92.254 320.241C93.4741 319.58 93.9317 318.006 93.7283 316.685C93.525 315.314 92.7624 314.146 92.0506 312.977C91.3389 311.809 90.5763 310.59 90.3729 309.27C90.0171 306.984 91.0338 303.632 89.6103 301.6C88.2377 299.416 83.9672 299.315 82.0861 300.635Z" fill="#2F2E41"/>
<path d="M87.9326 190.57C87.7293 189.808 87.2209 189.199 86.56 188.792C86.6108 187.98 86.5091 187.218 86.2549 186.456C85.4924 184.272 83.713 184.373 82.0861 183.408C81.3744 183.002 81.4252 182.596 81.0185 181.935C80.5101 181.021 79.7984 180.259 78.8832 179.751C77.8156 179.091 76.6972 178.38 75.4262 178.278C72.7825 178.075 70.6981 180.615 68.1562 181.427C67.0377 181.783 65.8175 181.783 64.6991 182.139C63.5806 182.494 62.4622 183.256 62.2588 184.424C62.1571 184.983 62.3096 185.491 62.2588 186.049C62.1063 187.116 61.1403 187.878 60.5303 188.741C59.1576 190.672 59.3101 193.414 60.4286 195.548C60.6828 196.005 60.937 196.411 61.242 196.817C61.3437 197.833 61.5979 198.798 62.1063 199.662C63.2248 201.795 65.1058 203.369 67.1394 204.639C66.9869 203.928 66.8852 203.217 66.8343 202.506C66.7835 202.252 66.8343 202.049 66.936 201.795C67.1394 201.338 67.7495 201.185 68.207 200.931C69.1221 200.423 69.478 199.255 69.5288 198.189C69.5797 197.122 69.3255 196.055 69.4271 194.989C69.4271 194.481 69.6305 194.024 70.0372 193.719C70.3931 193.516 70.749 193.414 71.1557 193.465C73.0367 193.363 75.0195 193.363 76.6972 192.449C77.2564 192.094 77.8156 191.789 78.4257 191.586C79.8492 191.23 81.3235 192.195 82.137 193.414C82.9504 194.633 83.3571 196.106 84.1197 197.325C84.8823 198.544 86.2041 199.712 87.6276 199.56C87.7801 199.56 87.9326 199.509 88.0851 199.357C88.136 199.255 88.1868 199.103 88.1868 199.001L88.2885 193.414C88.2885 192.5 88.1868 191.535 87.9326 190.57Z" fill="#2F2E41"/>
<path d="M48.8881 219.826C47.7188 221.553 46.3462 223.229 45.6852 225.21C45.3294 226.378 45.1769 227.597 44.9227 228.816C44.0076 232.828 41.3639 236.384 41.1097 240.447C41.008 241.361 41.1606 242.276 41.5164 243.139C42.279 244.815 44.1092 245.679 45.8378 246.187C47.5663 246.745 49.4474 247.152 50.82 248.32C51.5318 248.98 52.1418 249.742 52.7011 250.504C54.938 253.297 57.9883 255.38 61.4454 256.497C61.1912 254.618 61.0387 252.383 62.5639 251.215C63.3773 250.606 64.4449 250.453 65.4617 250.402L70.2914 249.996C67.0886 246.898 63.5298 244.104 59.7169 241.768C58.3951 240.955 56.9207 240.092 56.3106 238.619C56.0056 237.704 55.8531 236.689 55.9039 235.724C55.8531 232.168 55.5481 228.562 54.9888 225.057C54.5821 222.619 54.0737 220.181 53.4637 217.743C53.3111 217.083 52.2944 214.036 51.0742 214.747C50.7692 214.899 50.515 216.829 50.3625 217.236C49.9557 218.15 49.4474 219.013 48.8881 219.826Z" fill="#2F2E41"/>
<path d="M104.354 213.274L106.337 217.337C107.302 219.013 107.709 220.943 107.557 222.873L107.658 235.114C107.76 236.739 107.607 238.416 107.252 239.99C107.15 240.498 106.896 241.006 106.591 241.463C106.235 241.819 105.879 242.174 105.421 242.377C101.71 244.714 96.8804 246.034 92.9149 244.053C91.9998 243.596 91.1356 243.038 90.373 242.377C88.7969 241.209 87.2209 240.041 86.0516 238.466C84.8315 236.841 84.1197 234.86 83.3063 233.032C81.832 229.679 79.9001 226.53 77.6123 223.686C77.2564 223.33 77.0022 222.823 76.9006 222.264C76.9006 221.197 78.1716 220.638 79.1375 220.232C80.8152 219.521 82.442 218.2 82.7471 216.372C86.3567 221.096 90.373 226.124 96.067 227.851C96.3212 228.003 96.7279 227.952 96.8804 227.648C96.9312 227.546 96.9821 227.445 96.9821 227.343C97.2871 225.972 97.4396 224.6 97.643 223.229C98.1005 220.74 98.914 218.302 100.134 216.067C100.795 214.95 102.981 210.379 104.354 213.274Z" fill="#2F2E41"/>
</g>
<defs>
<clipPath id="clip0">
<rect width="527" height="385" fill="white" transform="translate(-120)"/>
</clipPath>
</defs>
</svg>
